<svg width="22" height="25" viewBox="0 0 22 25" fill="none" xmlns="http://www.w3.org/2000/svg">
<path d="M6.66103 0.775635C6.1266 0.776428 5.61428 0.989082 5.23638 1.36698C4.85848 1.74489 4.64582 2.2572 4.64503 2.79163V3.92563H2.09803C1.56335 3.92563 1.05058 4.13803 0.672504 4.51611C0.294431 4.89418 0.0820313 5.40696 0.0820312 5.94163V22.7596C0.0820312 23.2943 0.294431 23.8071 0.672504 24.1852C1.05058 24.5632 1.56335 24.7756 2.09803 24.7756H18.73C19.5395 24.7709 20.3143 24.4462 20.8853 23.8723C21.4564 23.2985 21.7773 22.5222 21.778 21.7126V2.79163C21.778 2.25696 21.5656 1.74418 21.1876 1.36611C20.8095 0.988034 20.2967 0.775635 19.762 0.775635H6.66103ZM2.09803 23.6326C1.8665 23.6326 1.64445 23.5407 1.48073 23.3769C1.31701 23.2132 1.22503 22.9912 1.22503 22.7596V5.94163C1.22503 5.7101 1.31701 5.48805 1.48073 5.32433C1.64445 5.16061 1.8665 5.06863 2.09803 5.06863H14.782C15.0136 5.06863 15.2356 5.16061 15.3993 5.32433C15.5631 5.48805 15.655 5.7101 15.655 5.94163V21.7126C15.6534 22.4111 15.8917 23.0889 16.33 23.6326H2.09803ZM20.635 2.79163V21.7126C20.6453 21.971 20.6032 22.2287 20.5114 22.4704C20.4196 22.712 20.2799 22.9327 20.1007 23.1191C19.9216 23.3054 19.7066 23.4537 19.4688 23.555C19.2309 23.6563 18.9751 23.7085 18.7165 23.7085C18.458 23.7085 18.2021 23.6563 17.9643 23.555C17.7264 23.4537 17.5115 23.3054 17.3323 23.1191C17.1532 22.9327 17.0135 22.712 16.9217 22.4704C16.8299 22.2287 16.7878 21.971 16.798 21.7126V5.94163C16.7972 5.4072 16.5846 4.89489 16.2067 4.51698C15.8288 4.13908 15.3165 3.92643 14.782 3.92563H5.78203V2.79163C5.78203 2.67699 5.80461 2.56347 5.84849 2.45755C5.89236 2.35163 5.95666 2.2554 6.03773 2.17433C6.11879 2.09327 6.21503 2.02896 6.32095 1.98509C6.42687 1.94122 6.54039 1.91863 6.65503 1.91863H19.762C19.8767 1.91863 19.9902 1.94122 20.0961 1.98509C20.202 2.02896 20.2983 2.09327 20.3793 2.17433C20.4604 2.2554 20.5247 2.35163 20.5686 2.45755C20.6125 2.56347 20.635 2.67699 20.635 2.79163Z" fill="white"/>
<path d="M3.16483 10.0542H6.51283C6.58845 10.0542 6.66331 10.0392 6.73306 10.0099C6.80281 9.98074 6.86605 9.93795 6.9191 9.88406C6.97214 9.83017 7.01394 9.76627 7.04205 9.69607C7.07016 9.62588 7.08402 9.55079 7.08283 9.47518V6.98218C7.08283 6.83073 7.02287 6.68544 6.91606 6.57806C6.80925 6.47069 6.66428 6.40997 6.51283 6.40918H3.16483C3.0131 6.40997 2.86781 6.47059 2.76053 6.57788C2.65324 6.68517 2.59262 6.83045 2.59183 6.98218V9.47518C2.59104 9.55093 2.60527 9.62609 2.63371 9.6963C2.66215 9.76651 2.70423 9.83039 2.75752 9.88424C2.81081 9.93808 2.87424 9.98083 2.94416 10.01C3.01407 10.0392 3.08907 10.0542 3.16483 10.0542ZM3.73183 7.55218H5.93683V8.91118H3.73183V7.55218Z" fill="white"/>
<path d="M13.7163 6.4093H9.00032C8.8559 6.41977 8.7208 6.48453 8.62218 6.59055C8.52357 6.69658 8.46875 6.836 8.46875 6.9808C8.46875 7.1256 8.52357 7.26503 8.62218 7.37105C8.7208 7.47707 8.8559 7.54183 9.00032 7.5523H13.7163C13.8607 7.54183 13.9958 7.47707 14.0944 7.37105C14.1931 7.26503 14.2479 7.1256 14.2479 6.9808C14.2479 6.836 14.1931 6.69658 14.0944 6.59055C13.9958 6.48453 13.8607 6.41977 13.7163 6.4093Z" fill="white"/>
<path d="M13.7163 9.3584H9.00032C8.8559 9.36887 8.7208 9.43363 8.62218 9.53965C8.52357 9.64567 8.46875 9.7851 8.46875 9.9299C8.46875 10.0747 8.52357 10.2141 8.62218 10.3201C8.7208 10.4262 8.8559 10.4909 9.00032 10.5014H13.7163C13.8607 10.4909 13.9958 10.4262 14.0944 10.3201C14.1931 10.2141 14.2479 10.0747 14.2479 9.9299C14.2479 9.7851 14.1931 9.64567 14.0944 9.53965C13.9958 9.43363 13.8607 9.36887 13.7163 9.3584Z" fill="white"/>
<path d="M13.7134 12.3052H3.15936C3.08082 12.2995 3.00196 12.3101 2.92769 12.3362C2.85342 12.3624 2.78533 12.4035 2.72767 12.4571C2.67002 12.5108 2.62404 12.5757 2.59259 12.6479C2.56115 12.7201 2.54492 12.798 2.54492 12.8767C2.54492 12.9554 2.56115 13.0333 2.59259 13.1055C2.62404 13.1777 2.67002 13.2427 2.72767 13.2963C2.78533 13.3499 2.85342 13.3911 2.92769 13.4172C3.00196 13.4434 3.08082 13.4539 3.15936 13.4482H13.7134C13.8578 13.4377 13.9929 13.373 14.0915 13.267C14.1901 13.1609 14.2449 13.0215 14.2449 12.8767C14.2449 12.7319 14.1901 12.5925 14.0915 12.4865C13.9929 12.3804 13.8578 12.3157 13.7134 12.3052Z" fill="white"/>
<path d="M13.7134 15.253H3.15936C3.08082 15.2473 3.00196 15.2578 2.92769 15.284C2.85342 15.3101 2.78533 15.3513 2.72767 15.4049C2.67002 15.4585 2.62404 15.5235 2.59259 15.5956C2.56115 15.6678 2.54492 15.7457 2.54492 15.8245C2.54492 15.9032 2.56115 15.9811 2.59259 16.0533C2.62404 16.1255 2.67002 16.1904 2.72767 16.244C2.78533 16.2977 2.85342 16.3388 2.92769 16.365C3.00196 16.3911 3.08082 16.4017 3.15936 16.396H13.7134C13.8578 16.3855 13.9929 16.3207 14.0915 16.2147C14.1901 16.1087 14.2449 15.9693 14.2449 15.8245C14.2449 15.6797 14.1901 15.5402 14.0915 15.4342C13.9929 15.3282 13.8578 15.2634 13.7134 15.253Z" fill="white"/>
<path d="M13.7134 18.1997H3.15936C3.08082 18.194 3.00196 18.2046 2.92769 18.2307C2.85342 18.2569 2.78533 18.2981 2.72767 18.3517C2.67002 18.4053 2.62404 18.4702 2.59259 18.5424C2.56115 18.6146 2.54492 18.6925 2.54492 18.7712C2.54492 18.85 2.56115 18.9279 2.59259 19.0001C2.62404 19.0722 2.67002 19.1372 2.72767 19.1908C2.78533 19.2444 2.85342 19.2856 2.92769 19.3117C3.00196 19.3379 3.08082 19.3484 3.15936 19.3427H13.7134C13.8578 19.3323 13.9929 19.2675 14.0915 19.1615C14.1901 19.0555 14.2449 18.916 14.2449 18.7712C14.2449 18.6264 14.1901 18.487 14.0915 18.381C13.9929 18.275 13.8578 18.2102 13.7134 18.1997Z" fill="white"/>
<path d="M13.7134 21.146H3.15936C3.08082 21.1403 3.00196 21.1509 2.92769 21.177C2.85342 21.2032 2.78533 21.2443 2.72767 21.298C2.67002 21.3516 2.62404 21.4165 2.59259 21.4887C2.56115 21.5609 2.54492 21.6388 2.54492 21.7175C2.54492 21.7963 2.56115 21.8742 2.59259 21.9464C2.62404 22.0185 2.67002 22.0835 2.72767 22.1371C2.78533 22.1907 2.85342 22.2319 2.92769 22.258C3.00196 22.2842 3.08082 22.2947 3.15936 22.289H13.7134C13.8578 22.2786 13.9929 22.2138 14.0915 22.1078C14.1901 22.0018 14.2449 21.8623 14.2449 21.7175C14.2449 21.5727 14.1901 21.4333 14.0915 21.3273C13.9929 21.2213 13.8578 21.1565 13.7134 21.146Z" fill="white"/>
</svg>
