<svg width="10" height="16" viewBox="0 0 10 16" fill="none" xmlns="http://www.w3.org/2000/svg">
<path d="M8.82333 0.500258C9.05261 0.495382 9.27776 0.559649 9.46748 0.684223C9.65721 0.808796 9.80208 0.98752 9.88195 1.19539C9.96183 1.40325 9.97273 1.62998 9.91316 1.84412C9.85359 2.05826 9.72649 2.24904 9.54955 2.39011L2.79806 7.98275L9.54955 13.5734C9.67195 13.6604 9.77446 13.7708 9.85066 13.8979C9.92685 14.025 9.97509 14.1659 9.99236 14.3119C10.0096 14.4578 9.99555 14.6056 9.951 14.746C9.90645 14.8864 9.8324 15.0165 9.73348 15.128C9.63456 15.2394 9.5129 15.3298 9.37612 15.3937C9.23935 15.4577 9.0904 15.4935 8.93861 15.4992C8.78681 15.5049 8.63545 15.4802 8.49398 15.4267C8.35252 15.3732 8.22401 15.292 8.1165 15.1882L0.386665 8.7933C0.265277 8.69314 0.167803 8.56881 0.100964 8.42869C0.0341244 8.28858 -0.000487328 8.13607 -0.000487328 7.98177C-0.000487328 7.82746 0.0341244 7.67495 0.100964 7.53484C0.167803 7.39472 0.265277 7.27027 0.386665 7.17011L8.1165 0.769006C8.31177 0.601299 8.56223 0.5062 8.82333 0.500258Z" fill="#3D1A37"/>
</svg>
