<svg width="24" height="24" viewBox="0 0 24 24" fill="none" xmlns="http://www.w3.org/2000/svg">
<path fill-rule="evenodd" clip-rule="evenodd" d="M5.34151 0.853516H0V3.08286H3.58701L6.67465 17.2147H6.68803V17.5736H21.1788V17.2972L23.6232 6.52831L24 5.3122H6.30347L5.66811 2.40179L5.34151 0.853516ZM21.1643 7.54155H6.79058L8.49491 15.3442H19.3931L21.1643 7.54155Z" fill="white"/>
<path d="M10.0321 23.1472C10.6233 23.1472 11.1904 22.9123 11.6085 22.4942C12.0265 22.0761 12.2614 21.5091 12.2614 20.9178C12.2614 20.3266 12.0265 19.7595 11.6085 19.3414C11.1904 18.9234 10.6233 18.6885 10.0321 18.6885C9.44082 18.6885 8.87378 18.9234 8.45569 19.3414C8.03761 19.7595 7.80273 20.3266 7.80273 20.9178C7.80273 21.5091 8.03761 22.0761 8.45569 22.4942C8.87378 22.9123 9.44082 23.1472 10.0321 23.1472Z" fill="white"/>
<path d="M20.0642 20.9178C20.0642 21.5091 19.8293 22.0761 19.4112 22.4942C18.9931 22.9123 18.4261 23.1472 17.8348 23.1472C17.2436 23.1472 16.6765 22.9123 16.2584 22.4942C15.8403 22.0761 15.6055 21.5091 15.6055 20.9178C15.6055 20.3266 15.8403 19.7595 16.2584 19.3414C16.6765 18.9234 17.2436 18.6885 17.8348 18.6885C18.4261 18.6885 18.9931 18.9234 19.4112 19.3414C19.8293 19.7595 20.0642 20.3266 20.0642 20.9178Z" fill="white"/>
</svg>
