<svg width="11" height="8" viewBox="0 0 11 8" fill="none" xmlns="http://www.w3.org/2000/svg">
<path d="M0.624924 1.51501C0.621754 1.36598 0.663528 1.21963 0.744501 1.09631C0.825474 0.972986 0.941644 0.87882 1.07676 0.826902C1.21187 0.774984 1.35925 0.767894 1.49843 0.806616C1.63762 0.845338 1.76163 0.927949 1.85333 1.04296L5.48854 5.43143L9.12248 1.04296C9.17902 0.963403 9.25081 0.896772 9.3334 0.847244C9.41599 0.797717 9.50761 0.76636 9.60247 0.755137C9.69732 0.743914 9.79338 0.753066 9.88465 0.782021C9.97593 0.810976 10.0605 0.85911 10.1329 0.923409C10.2054 0.987707 10.2642 1.06679 10.3057 1.15569C10.3472 1.24459 10.3706 1.34141 10.3742 1.44008C10.3779 1.53874 10.3619 1.63713 10.3271 1.72908C10.2923 1.82103 10.2396 1.90456 10.1721 1.97445L6.0154 6.99884C5.95029 7.07774 5.86948 7.1411 5.77841 7.18455C5.68733 7.22799 5.5882 7.25049 5.4879 7.25049C5.38761 7.25049 5.28848 7.22799 5.1974 7.18455C5.10632 7.1411 5.02543 7.07774 4.96033 6.99884L0.79961 1.97445C0.6906 1.84752 0.628786 1.68472 0.624924 1.51501Z" fill="#3D1A37"/>
</svg>
