<svg width="24" height="25" viewBox="0 0 24 25" fill="none" xmlns="http://www.w3.org/2000/svg">
<path d="M23.1464 9.59801C23.1406 8.08022 22.617 6.60983 21.6622 5.42998C21.9863 4.08106 21.8852 2.66489 21.3726 1.37572C21.3227 1.25322 21.2463 1.1433 21.1488 1.05388C21.0514 0.964458 20.9353 0.897764 20.8089 0.858598C20.447 0.734488 19.0766 0.501781 16.2841 2.31172C15.0831 1.99476 13.8441 1.84511 12.6022 1.86699C11.3585 1.84483 10.1178 1.99448 8.91507 2.31172C6.0502 0.460411 4.56088 0.760344 4.26095 0.848255C4.13391 0.889172 4.0175 0.95768 3.92005 1.04887C3.8226 1.14006 3.74653 1.25168 3.69728 1.37572C3.18345 2.66069 3.07871 4.07293 3.39735 5.41964C2.41132 6.59358 1.88568 8.08595 1.91837 9.6187C1.91837 15.3381 5.19177 17.0653 8.1911 17.6755C8.03714 18.052 7.93116 18.4464 7.87565 18.8494C7.87024 18.8923 7.87024 18.9357 7.87565 18.9787V20.5611C5.14523 20.7886 4.56088 19.1907 4.50399 19.0097C4.49076 18.9675 4.47522 18.9261 4.45745 18.8856C3.93008 17.8096 3.00173 16.9834 1.87183 16.5844C1.64416 16.5083 1.39558 16.5257 1.18077 16.6329C0.965956 16.74 0.802514 16.9281 0.726396 17.1558C0.650277 17.3835 0.667718 17.632 0.774881 17.8469C0.882044 18.0617 1.07015 18.2251 1.29782 18.3012C1.92396 18.5274 2.44613 18.9742 2.76645 19.5578C3.12844 20.7317 4.60742 22.5882 7.86531 22.3813V23.8707C7.86531 24.1107 7.96065 24.3409 8.13037 24.5106C8.30008 24.6803 8.53026 24.7756 8.77028 24.7756C9.01029 24.7756 9.24047 24.6803 9.41019 24.5106C9.5799 24.3409 9.67525 24.1107 9.67525 23.8707V19.0459C9.74391 18.519 9.97322 18.0261 10.332 17.6341C10.4577 17.5165 10.547 17.3653 10.5893 17.1984C10.6316 17.0315 10.6252 16.856 10.5707 16.6927C10.5163 16.5294 10.4161 16.3851 10.2822 16.277C10.1482 16.1689 9.986 16.1015 9.81487 16.0828C6.66041 15.7156 3.74382 14.6762 3.74382 9.5825C3.72285 8.96765 3.82968 8.35513 4.05755 7.78368C4.28542 7.21223 4.62937 6.69427 5.06766 6.26256C5.18553 6.1357 5.26696 5.97937 5.30337 5.81008C5.33978 5.64078 5.32981 5.4648 5.27451 5.3007C4.96986 4.41546 4.94997 3.45706 5.21763 2.55994C6.32802 2.81064 7.37076 3.29937 8.27384 3.99238C8.38988 4.06917 8.52174 4.11882 8.65962 4.13762C8.7975 4.15642 8.93784 4.14389 9.07021 4.10097C10.2192 3.75125 11.417 3.58886 12.6177 3.62005C13.8166 3.58878 15.0128 3.75118 16.16 4.10097C16.2923 4.14427 16.4327 4.157 16.5707 4.13819C16.7086 4.11938 16.8405 4.06952 16.9564 3.99238C17.8262 3.32592 18.8218 2.8422 19.8833 2.57028C20.1469 3.47733 20.1235 4.44373 19.8161 5.3369C19.7654 5.48595 19.755 5.64572 19.7859 5.80007C19.8168 5.95443 19.8878 6.0979 19.9919 6.21601C20.848 7.13007 21.3329 8.33028 21.3519 9.5825C21.3519 14.6658 18.2854 15.7208 15.2809 16.0828C15.101 16.1028 14.9313 16.1766 14.794 16.2945C14.6568 16.4124 14.5582 16.569 14.5113 16.7438C14.4644 16.9186 14.4713 17.1035 14.5311 17.2743C14.5909 17.4452 14.7008 17.594 14.8465 17.7014C15.1671 17.9444 15.5394 18.627 15.5394 19.7699V23.8655C15.5394 24.1055 15.6348 24.3357 15.8045 24.5054C15.9742 24.6751 16.2044 24.7705 16.4444 24.7705C16.6844 24.7705 16.9146 24.6751 17.0843 24.5054C17.254 24.3357 17.3494 24.1055 17.3494 23.8655V19.7699C17.3588 19.0497 17.2271 18.3347 16.9615 17.6652C19.392 17.148 23.1464 15.5501 23.1464 9.59801Z" fill="white"/>
</svg>
