<svg width="21" height="24" viewBox="0 0 21 24" fill="none" xmlns="http://www.w3.org/2000/svg">
<path d="M16.9497 16.5016C16.0157 16.5016 15.1854 16.8389 14.5368 17.3838L7.68703 13.6216C7.86865 13.1805 7.97243 12.6876 7.97243 12.1946C7.97243 11.6757 7.86865 11.2086 7.68703 10.7676L14.7962 6.79784C15.393 7.21297 16.1454 7.47243 16.9238 7.47243C18.9995 7.47243 20.66 5.78595 20.66 3.73622C20.66 1.66054 18.9735 0 16.9238 0C14.8741 0 13.1876 1.68649 13.1876 3.73622C13.1876 4.43676 13.3692 5.05946 13.7065 5.63027L6.80487 9.47027C6.13027 8.84757 5.24811 8.45838 4.23622 8.45838C2.16054 8.45838 0.5 10.1449 0.5 12.1946C0.5 14.2703 2.18649 15.9308 4.23622 15.9308C5.22216 15.9308 6.13027 15.5416 6.80487 14.9189L13.5768 18.6551C13.3432 19.1481 13.2135 19.693 13.2135 20.2638C13.2135 22.3395 14.9 24 16.9497 24C18.9995 24 20.6859 22.3135 20.6859 20.2638C20.6859 18.2141 18.9995 16.5016 16.9497 16.5016Z" fill="white"/>
</svg>
