<svg width="61" height="110" viewBox="0 0 61 110" fill="none" xmlns="http://www.w3.org/2000/svg">
<path d="M8.97809 88.7959C9.23212 88.7959 9.49564 88.6297 9.65055 88.3727C9.91645 87.924 10.6637 86.8242 10.9711 86.3725C11.3884 86.1161 12.0169 85.5368 12.246 85.2858C12.5464 84.9569 12.7493 84.6679 12.7986 84.3153L17.1094 81.3186L14.9484 78.4715L10.8673 81.3774C10.4649 81.1204 9.82327 80.9946 8.92289 80.9946C8.7383 80.9946 8.57568 80.9999 8.4546 81.0035C8.38931 81.0053 8.33708 81.007 8.30206 81.007H8.26348C7.97384 81.007 7.30731 81.1418 7.05447 81.2516C6.92271 81.3085 6.823 81.4219 6.78086 81.562C6.73041 81.7311 6.7678 81.924 6.88651 82.1051C7.12095 82.4618 7.5008 82.6547 8.01717 82.6796C8.00114 82.6885 7.98571 82.6986 7.97028 82.7087L7.77145 82.8108C7.0699 83.1698 6.00927 83.7129 5.53742 83.9171C5.29229 84.0245 5.09169 84.2305 5.01275 84.456C4.95102 84.6317 4.96289 84.8145 5.04539 84.9712C5.15698 85.1825 5.42524 85.3956 5.77424 85.3956C5.88819 85.3956 6.00037 85.3718 6.10721 85.3255C6.16419 85.3012 6.22117 85.2763 6.27814 85.2519C6.1719 85.3303 6.07753 85.3973 6.00097 85.4496C5.64663 85.6929 5.42465 86.1903 5.68284 86.5707C5.81935 86.7731 6.07516 86.9049 6.33334 86.9049C6.49181 86.9049 6.64732 86.8562 6.78205 86.7636C6.95002 86.6556 7.18683 86.5096 7.45036 86.347C7.46638 86.3375 7.4824 86.3274 7.49843 86.3173C7.37082 86.4556 7.25924 86.5737 7.17199 86.6604C6.8776 86.9548 6.73694 87.4812 7.02361 87.8189C7.16427 87.981 7.37794 88.0765 7.59696 88.0765C7.79757 88.0765 7.99046 87.9952 8.13884 87.8462C8.25636 87.7352 8.41186 87.5928 8.58814 87.4325C8.54422 87.5091 8.50208 87.5827 8.46053 87.6527C8.23915 88.0243 8.36972 88.47 8.61782 88.67C8.72168 88.7531 8.84573 88.7965 8.97868 88.7965L8.97809 88.7959Z" fill="#FCD0B8"/>
<path d="M14.87 78.9897L10.85 81.8522C10.4951 81.435 9.56921 81.3709 8.92345 81.3709C8.63619 81.3709 8.40412 81.3834 8.30263 81.3834C8.29373 81.3834 8.2866 81.3834 8.27948 81.3834C8.27414 81.3834 8.26939 81.3834 8.26405 81.3834C8.01595 81.3834 7.39869 81.5133 7.2052 81.5976C7.12923 81.6308 7.09836 81.7418 7.20164 81.8997C7.42658 82.2416 7.81949 82.3063 8.13465 82.3063C8.32874 82.3063 8.49315 82.2814 8.56971 82.2814C8.59345 82.2814 8.60829 82.2837 8.61363 82.2903C8.61363 82.2903 8.78754 82.4796 8.82077 82.5194C8.65518 82.7977 8.17324 83.0108 8.1673 83.031C7.49187 83.3764 6.22588 84.0293 5.68755 84.2625C5.46558 84.3599 5.27624 84.602 5.37833 84.7961C5.43412 84.9012 5.58784 85.0187 5.77421 85.0187C5.83237 85.0187 5.8941 85.0074 5.95702 84.9801C6.90428 84.57 7.86164 84.2133 8.36673 83.9972C8.38038 84.0251 8.39521 84.053 8.40827 84.0815C7.81771 84.5456 6.69536 85.4318 6.21282 85.7606C6.01518 85.8965 5.86977 86.1767 5.99381 86.3595C6.05198 86.4461 6.18374 86.5286 6.33331 86.5286C6.40987 86.5286 6.49119 86.5067 6.56953 86.4532C7.11617 86.1019 8.22725 85.446 8.95135 84.938C8.99467 84.9955 9.03859 85.0513 9.08311 85.1059C8.56021 85.7018 7.79813 86.5666 7.43845 86.9263C7.26811 87.0966 7.1678 87.4076 7.31025 87.5756C7.36901 87.6433 7.47703 87.7002 7.59693 87.7002C7.68773 87.7002 7.78567 87.667 7.87292 87.5803C8.30619 87.1702 9.15552 86.4242 9.77397 85.8128C9.81137 85.8431 9.84935 85.8722 9.88615 85.8995C9.48255 86.5524 9.1027 87.3079 8.78338 87.8456C8.65577 88.0599 8.75073 88.2949 8.85341 88.3774C8.89081 88.4071 8.93355 88.4208 8.97806 88.4208C9.10507 88.4208 9.24751 88.3139 9.32823 88.1798C9.59888 87.7234 10.3479 86.6206 10.7082 86.0918C11.075 85.8929 11.7421 85.281 11.9688 85.0329C12.3344 84.6323 12.4442 84.3961 12.4342 84.1124L16.5734 81.235L14.87 78.9908M15.0279 77.9534L15.4688 78.535L17.1723 80.7791L17.6465 81.4041L17.0019 81.8522L13.1381 84.5379C13.0443 84.9041 12.8211 85.214 12.5232 85.5398C12.3226 85.7594 11.716 86.3363 11.2376 86.6491C10.5729 87.626 10.1479 88.27 9.97459 88.5626C9.74727 88.9401 9.36622 89.1722 8.97746 89.1722C8.75845 89.1722 8.5525 89.1004 8.38216 88.9638C8.20885 88.8238 8.07352 88.6137 8.00942 88.3733C7.87885 88.4255 7.73878 88.4522 7.59633 88.4522C7.2693 88.4522 6.94998 88.308 6.74106 88.0676C6.54104 87.8314 6.47041 87.5477 6.49356 87.2693C6.44014 87.2771 6.38613 87.2806 6.33212 87.2806C5.94633 87.2806 5.57716 87.0889 5.36883 86.7797C5.13261 86.4313 5.15339 86.0241 5.32017 85.6823C5.06079 85.5778 4.83882 85.3879 4.7118 85.1475C4.58004 84.8958 4.56045 84.6068 4.6572 84.332C4.77115 84.0061 5.04358 83.723 5.38486 83.5735C5.73029 83.4239 6.4259 83.0749 7.02951 82.7674C6.81881 82.6315 6.67281 82.4653 6.5725 82.3134C6.39148 82.0368 6.33746 81.7323 6.42056 81.4552C6.49415 81.2083 6.67103 81.0088 6.90547 80.9073C7.20164 80.7785 7.92574 80.6314 8.26345 80.6314H8.29728C8.29728 80.6314 8.29847 80.6314 8.29906 80.6314C8.33586 80.6314 8.38335 80.6302 8.4421 80.6278C8.56615 80.6242 8.73293 80.6189 8.92286 80.6189C9.75676 80.6189 10.3853 80.7204 10.8417 80.9346L14.4331 78.3771L15.0279 77.954V77.9534Z" fill="#0E3847"/>
<path d="M23.248 67.4821L19.4252 76.982L13.2062 81.6376" stroke="#0E3847" stroke-width="14.8684" stroke-linecap="square" stroke-linejoin="round"/>
<path d="M39.801 109.781C39.7713 109.314 39.7494 108.835 39.7304 108.358C39.7179 108.06 39.706 107.756 39.6995 107.449C39.6918 107.135 39.6841 106.817 39.6764 106.496C39.6597 105.909 39.658 105.314 39.633 104.687C39.5903 103.439 39.5476 102.19 39.5078 101.02C39.4734 99.837 39.4419 98.7337 39.4146 97.7876C39.3915 96.8403 39.3802 96.0462 39.3743 95.4972C39.3725 94.9422 39.3713 94.6253 39.3713 94.6253L39.36 91.393L45.3534 90.9502L45.8033 94.1505C45.8033 94.1505 45.8484 94.4692 45.9268 95.0265C46.0016 95.5898 46.0977 96.3845 46.201 97.3448C46.2485 97.825 46.3007 98.3455 46.3553 98.8951C46.4022 99.4471 46.452 100.029 46.5031 100.631C46.544 101.237 46.5868 101.862 46.6295 102.497C46.6776 103.13 46.6954 103.788 46.7257 104.442C46.7589 105.088 46.7731 105.768 46.7755 106.435C46.7791 106.741 46.782 107.045 46.7856 107.346C46.7909 107.653 46.7915 107.956 46.7903 108.256C46.7927 108.784 46.7951 109.293 46.7969 109.782H39.8016L39.801 109.781Z" fill="#0E3847"/>
<path d="M31.699 99.4132C31.4729 99.8269 31.2283 100.276 30.9695 100.75C30.7125 101.222 30.4585 101.724 30.195 102.234C29.9333 102.745 29.6798 103.273 29.4418 103.798C29.2014 104.319 28.9789 104.846 28.8073 105.332C28.726 105.572 28.6411 105.808 28.5854 106.011C28.5521 106.118 28.5302 106.21 28.51 106.296L28.5011 106.33L28.4987 106.338L28.4922 106.378L28.4815 106.438L28.4862 106.424C28.4892 106.414 28.4904 106.404 28.491 106.394C28.4892 106.412 28.4785 106.534 28.4756 106.633C28.4714 106.74 28.4643 106.858 28.4637 106.985C28.4577 107.235 28.4619 107.511 28.4684 107.784C28.4868 108.46 28.5213 109.136 28.5586 109.78H21.5895C21.5319 109.254 21.4815 108.698 21.4429 108.105C21.4221 107.756 21.4037 107.401 21.3972 107.01C21.393 106.817 21.3918 106.613 21.3972 106.397C21.4037 106.173 21.4126 105.97 21.4411 105.663L21.4731 105.39L21.501 105.193L21.5206 105.071L21.5491 104.921L21.5586 104.878L21.5776 104.791C21.6281 104.556 21.6821 104.327 21.7414 104.117C21.8577 103.682 21.9877 103.289 22.1284 102.905C22.4085 102.143 22.7154 101.451 23.0282 100.791C23.3445 100.133 23.6745 99.5147 23.9986 98.9283C24.3203 98.3407 24.6544 97.7947 24.9684 97.2789C25.2818 96.7631 25.594 96.2889 25.8824 95.8538C26.4611 94.9843 26.9686 94.2828 27.3342 93.7931C27.5158 93.5474 27.666 93.3587 27.7687 93.2257C27.8755 93.0886 27.9325 93.0156 27.9325 93.0156L29.9214 90.47L34.834 93.856L33.2427 96.6759C33.2427 96.6759 32.6249 97.7703 31.6984 99.4126L31.699 99.4132ZM28.5135 106.253C28.5201 106.219 28.5159 106.242 28.5135 106.253V106.253Z" fill="#0E3847"/>
<path d="M21.9654 66.3899C22.4046 64.0865 28.8064 63.3345 35.9845 63.4294C43.162 63.3345 49.5643 64.0871 50.0029 66.3899C51.1829 72.5792 50.0142 91.4563 46.4798 96.89C45.4726 98.4391 41.1274 99.1911 36.1192 99.3199V99.3276C36.0735 99.327 36.029 99.3246 35.9839 99.324C35.9382 99.3246 35.8937 99.327 35.8486 99.3276V99.3199C30.841 99.1911 26.4952 98.4391 25.488 96.89C21.9536 91.4563 20.7855 72.5792 21.9654 66.3899Z" fill="#0E3847" stroke="#0E3847" stroke-width="2.04099" stroke-linecap="round" stroke-linejoin="round"/>
<path d="M32.9908 92.3715C34.3922 92.3715 39.0038 92.2712 39.4971 90.9833C41.6765 85.2896 42.2611 72.3169 41.5916 66.3502C41.3542 64.2337 38.5445 63.0686 33.6805 63.0686C33.4502 63.0686 33.2176 63.071 32.9837 63.0763C32.7659 63.071 32.5332 63.0686 32.303 63.0686C27.4384 63.0686 24.6293 64.2337 24.3919 66.3502C23.7218 72.3169 24.3064 85.2896 26.4858 90.9833C26.9784 92.2712 31.5895 92.3715 32.9914 92.3715H32.9908Z" fill="#F8F2E4"/>
<path d="M32.3028 63.4212C28.3659 63.4212 24.9858 64.2123 24.7424 66.39C24.0474 72.5793 24.7353 85.4237 26.8156 90.8574C27.1118 91.632 30.0521 92.019 32.9918 92.019C35.9316 92.019 38.8719 91.632 39.1687 90.8574C41.2484 85.4237 41.9363 72.5787 41.2418 66.39C40.9973 64.2129 37.6184 63.4212 33.6809 63.4212C33.453 63.4212 33.2227 63.4235 32.9918 63.4289C32.7604 63.4235 32.5313 63.4212 32.3028 63.4212ZM32.3028 62.7161C32.5307 62.7161 32.7604 62.7184 32.9918 62.7238C33.2227 62.7184 33.453 62.7161 33.6809 62.7161C40.1759 62.7161 41.7588 64.6711 41.9422 66.311C42.6159 72.3122 42.0241 85.3697 39.8269 91.1097C39.3159 92.4439 35.8277 92.7241 32.9913 92.7241C30.1548 92.7241 26.6667 92.4439 26.1562 91.1091C23.959 85.3685 23.3672 72.3116 24.0409 66.311C24.2243 64.6711 25.8066 62.7161 32.3022 62.7161H32.3028Z" fill="#0E3847"/>
<path d="M29.7936 90.2407C29.9123 90.2407 30.0233 90.1808 30.088 90.0804L32.4366 86.4321C32.4876 86.3531 32.5042 86.2564 32.4835 86.165L30.1349 75.8038C30.0987 75.6441 29.9568 75.5314 29.7936 75.5314H29.7859C29.6197 75.5349 29.4785 75.6548 29.4488 75.8186L27.6106 85.8884C27.5976 85.9602 27.6071 86.0338 27.6379 86.0997L29.4761 90.0401C29.5301 90.1558 29.6423 90.233 29.7699 90.2413C29.7776 90.2413 29.7859 90.2419 29.7936 90.2419V90.2407Z" fill="#F8BE2C"/>
<path d="M29.7947 75.8805L27.9566 85.9503L29.7947 89.8907L32.1433 86.2423L29.7947 75.8811M29.7947 75.1802C30.1211 75.1802 30.4054 75.4063 30.4778 75.7256L32.8264 86.0874C32.868 86.2708 32.8341 86.4631 32.7321 86.6209L30.3835 90.2693C30.2541 90.4705 30.0315 90.5904 29.7947 90.5904C29.7787 90.5904 29.7632 90.5904 29.7472 90.5892C29.4926 90.572 29.2676 90.4177 29.1596 90.1862L27.3215 86.2458C27.2598 86.1141 27.2414 85.9669 27.2669 85.8238L29.105 75.7541C29.165 75.4265 29.4469 75.1867 29.7793 75.1796H29.7941L29.7947 75.1802Z" fill="#0E3847"/>
<path d="M29.7977 76.7944C29.8731 76.7944 29.9473 76.77 30.0084 76.7237L32.8176 74.6066C32.941 74.5134 32.9891 74.3502 32.9351 74.2048L31.1794 69.478C31.1284 69.3409 30.9978 69.2501 30.8512 69.2501H28.7199C28.5697 69.2501 28.4368 69.3456 28.3881 69.4875L27.1619 73.0872C27.1257 73.1934 27.1429 73.311 27.2076 73.403L29.5116 76.6466C29.5662 76.7237 29.6499 76.7754 29.7437 76.7902C29.7615 76.7926 29.7793 76.7944 29.7971 76.7944H29.7977Z" fill="#F8BE2C"/>
<path d="M28.7192 69.6002L27.493 73.1999L29.797 76.4435L32.6062 74.3264L30.8506 69.5996H28.7192M28.7192 68.8998H30.8506C31.1432 68.8998 31.4049 69.0815 31.507 69.3563L33.2626 74.0831C33.3707 74.3733 33.2751 74.6998 33.0276 74.8861L30.2184 77.0032C30.0962 77.0952 29.9478 77.1439 29.797 77.1439C29.7614 77.1439 29.7252 77.1415 29.6896 77.1356C29.5027 77.1065 29.3353 77.0032 29.2255 76.8489L26.9214 73.6053C26.7908 73.4219 26.757 73.1869 26.8294 72.9738L28.0556 69.3741C28.1524 69.0904 28.4189 68.8998 28.7186 68.8998H28.7192Z" fill="#0E3847"/>
<path d="M33.2626 75.6579C33.3183 75.6579 33.3747 75.6455 33.4258 75.6205L50.2765 67.4008C50.3679 67.3563 50.4374 67.2756 50.4682 67.1782L51.0042 65.4825C51.0404 65.368 51.019 65.2422 50.9466 65.146C50.876 65.0528 50.7662 64.9982 50.6493 64.9982C50.6457 64.9982 29.7863 65.5805 29.7863 65.5805C29.6664 65.584 29.5548 65.6452 29.4877 65.7443C29.4207 65.844 29.4052 65.9698 29.4474 66.0826L32.913 75.4164C32.9498 75.5149 33.0263 75.5938 33.1237 75.6324C33.1682 75.6502 33.2151 75.6591 33.262 75.6591L33.2626 75.6579Z" fill="#F8F2E4"/>
<path d="M50.6489 65.3696L29.7966 65.9518L33.2622 75.2856L50.113 67.0659L50.6489 65.3702M50.6495 64.6247C50.8828 64.6247 51.103 64.7339 51.2442 64.9209C51.3897 65.1132 51.4324 65.3642 51.36 65.5939L50.824 67.2896C50.7623 67.4843 50.6234 67.6451 50.44 67.7348L33.5893 75.9545C33.4866 76.0043 33.3744 76.0299 33.2628 76.0299C33.169 76.0299 33.0753 76.0121 32.9862 75.9765C32.791 75.8981 32.6378 75.7414 32.5648 75.5444L29.0986 66.2106C29.015 65.9851 29.0452 65.7334 29.1794 65.5346C29.3141 65.3351 29.5361 65.2135 29.7759 65.2069L50.6282 64.6247C50.6353 64.6247 50.6424 64.6247 50.6489 64.6247H50.6495Z" fill="#0E3847"/>
<path d="M26.9163 74.0589C26.9561 74.0589 26.9959 74.0523 27.035 74.0393C27.1425 74.0031 27.2279 73.92 27.2665 73.8132L30.665 64.4432C30.709 64.3227 30.6876 64.1886 30.6087 64.0877C30.5374 63.9963 30.4288 63.944 30.3143 63.944C30.3024 63.944 30.2899 63.944 30.2775 63.9458L21.8399 64.7797C21.6464 64.7987 21.5004 64.9637 21.504 65.1578L21.6108 70.4936C21.6132 70.617 21.6767 70.7316 21.7806 70.7986L26.7133 73.9983C26.7745 74.0381 26.8451 74.0583 26.9163 74.0583V74.0589Z" fill="#F8F2E4"/>
<path d="M30.3135 64.3161L21.876 65.15L21.9828 70.4858L26.9156 73.6855L30.3141 64.3155M30.3135 63.5712C30.5421 63.5712 30.7599 63.6763 30.9017 63.8591C31.059 64.0615 31.1012 64.3298 31.0139 64.5701L27.6154 73.9401C27.5382 74.1538 27.3673 74.3206 27.1518 74.3924C27.0747 74.4179 26.9946 74.4309 26.915 74.4309C26.7726 74.4309 26.6319 74.3906 26.5091 74.3111L21.5769 71.1114C21.3697 70.9766 21.2421 70.7487 21.2374 70.5012L21.1305 65.1654C21.1228 64.7767 21.4154 64.4473 21.8024 64.4087L30.2399 63.5748C30.2643 63.5724 30.2892 63.5712 30.3135 63.5712Z" fill="#0E3847"/>
<path d="M20.9895 43.9929C21.0459 43.9929 21.1112 43.9793 21.1628 43.9573C21.3278 43.8855 21.4275 43.7151 21.4085 43.5365C21.3711 43.1792 21.2477 42.7786 21.1278 42.391C21.0233 42.0527 20.9153 41.7025 20.9046 41.4876C20.8933 41.2639 21.0631 40.9155 21.2275 40.5784C21.3587 40.3083 21.4952 40.0299 21.5789 39.7445C21.6471 39.5124 21.64 39.3533 21.6347 39.237C21.6299 39.1408 21.6287 39.1153 21.6709 39.0275C21.7391 38.8832 21.9112 38.7473 22.0929 38.6037C22.3101 38.4316 22.5564 38.2369 22.7143 37.9574C23.1072 37.2588 23.1149 36.4047 22.7582 35.6782C23.2395 35.3393 23.5761 34.8277 23.7411 34.1742C24.007 33.1237 23.7874 31.9438 23.3921 31.1045C24.2628 30.695 25.3501 29.4705 25.4795 29.2492C26.0469 28.2871 26.1051 27.2051 26.1609 26.1587L26.1894 25.6637C26.2493 24.7223 26.3312 23.4332 25.5941 22.6955C25.1448 22.245 24.5863 22.2153 24.137 22.1916C23.8307 22.1755 23.5636 22.1607 23.3565 22.0355C23.3072 21.9304 23.2253 21.6829 23.1784 21.5422C23.0947 21.2894 23.0449 21.1416 22.9891 21.0413C22.5564 20.2644 21.9012 19.624 21.1931 19.2845C20.7865 19.0898 20.2951 18.9782 19.8452 18.9782C19.0214 18.9782 18.4065 19.3379 18.1352 19.9581H18.1269C16.655 19.9581 16.0739 21.5262 15.7267 22.4628C15.1166 24.1158 15.3154 25.4061 15.5463 26.9C15.5682 27.0406 15.5902 27.1831 15.6116 27.3285C13.9408 28.0627 14.4542 30.4083 14.8358 32.1503C14.9884 32.8471 15.1326 33.5059 15.1041 33.8858C15.0804 34.2057 15.0121 34.4745 14.9403 34.7588C14.7943 35.3346 14.6441 35.9305 14.9278 36.8083C15.1445 37.4802 15.5101 38.0096 15.8632 38.5212C16.0377 38.7746 16.2033 39.0138 16.3511 39.269C17.0105 40.4056 17.3862 40.8811 18.4528 41.6402C18.8659 41.934 19.4422 42.5744 19.9057 43.089C20.5473 43.8012 20.7194 43.9929 20.9889 43.9929H20.9895Z" fill="#F26F65"/>
<path d="M19.8468 19.3896C19.1927 19.3896 18.5784 19.6584 18.4289 20.3968C18.3238 20.3784 18.2241 20.3695 18.1285 20.3695C17.0003 20.3695 16.4922 21.585 16.1141 22.6059C15.4434 24.4227 15.8162 25.7866 16.069 27.6057C13.6534 28.242 15.6286 32.4168 15.5158 33.9167C15.4381 34.9512 14.9437 35.5156 15.3206 36.6819C15.6203 37.609 16.2465 38.266 16.7082 39.0631C17.3356 40.1439 17.6644 40.5731 18.6924 41.3055C19.5061 41.8842 20.7976 43.5816 20.9893 43.5816C20.9929 43.5816 20.9965 43.581 20.9988 43.5799C20.9318 42.9383 20.5199 42.0367 20.4931 41.509C20.4658 40.9648 20.9959 40.268 21.1834 39.6294C21.2903 39.2661 21.1401 39.1848 21.2986 38.8512C21.5099 38.4061 22.1105 38.1895 22.355 37.7556C22.7741 37.0101 22.6405 36.146 22.1877 35.5305C23.97 34.7375 23.5842 31.8916 22.6963 30.7378C22.7438 30.7995 22.8115 30.8268 22.8945 30.8268C23.5112 30.8268 24.9665 29.3109 25.1238 29.0415C25.6883 28.0847 25.7025 26.9416 25.7642 25.8649C25.8117 25.0215 25.9654 23.6499 25.3025 22.9869C24.671 22.3542 23.7356 22.8243 23.0655 22.3364C22.9385 22.2432 22.7301 21.4218 22.6298 21.2425C22.2666 20.5909 21.6873 19.9777 21.0149 19.6555C20.6789 19.4946 20.254 19.3896 19.845 19.3896M19.8468 18.5663C20.3638 18.5663 20.9056 18.6898 21.3722 18.913C22.1556 19.2887 22.8767 19.9914 23.3504 20.8413C23.424 20.9731 23.4798 21.1363 23.5712 21.4129C23.5985 21.4966 23.6412 21.6248 23.678 21.7269C23.8015 21.7607 23.9718 21.7702 24.1605 21.7803C24.652 21.8064 25.3256 21.8426 25.8871 22.4047C26.7554 23.2736 26.6628 24.7277 26.6017 25.6892C26.597 25.7664 26.5922 25.8406 26.5881 25.9106L26.5732 26.1801C26.5174 27.2247 26.4539 28.4088 25.8343 29.4587C25.7737 29.562 24.8597 30.682 23.9148 31.2791C24.2703 32.2239 24.3724 33.3605 24.141 34.2746C23.9813 34.9043 23.6816 35.4213 23.259 35.8047C23.5356 36.578 23.4792 37.4375 23.0744 38.158C22.8767 38.5088 22.5841 38.7397 22.3491 38.926C22.2417 39.0109 22.0796 39.1391 22.0458 39.1996C22.0458 39.2056 22.0458 39.2115 22.0464 39.218C22.0523 39.3468 22.0624 39.5629 21.974 39.8614C21.8808 40.179 21.7372 40.4733 21.5983 40.7588C21.492 40.9772 21.314 41.3423 21.3164 41.4675C21.3247 41.6307 21.4339 41.9851 21.5217 42.2693C21.647 42.6753 21.7769 43.0955 21.8185 43.4932C21.8559 43.8511 21.657 44.1918 21.327 44.3348C21.2238 44.3793 21.1027 44.4043 20.9905 44.4043C20.5377 44.4043 20.302 44.1425 19.6017 43.3644C19.1755 42.8914 18.5915 42.2432 18.2164 41.9761C17.0952 41.1779 16.6792 40.652 15.9966 39.4762C15.8565 39.2347 15.6963 39.0014 15.5259 38.7551C15.1734 38.2435 14.7733 37.6636 14.5377 36.9347C14.2172 35.9442 14.3905 35.261 14.5431 34.658C14.6107 34.3909 14.6742 34.1392 14.6956 33.8549C14.7193 33.535 14.5751 32.8756 14.4356 32.2382C14.2297 31.298 13.9964 30.2327 14.0451 29.2884C14.1068 28.0984 14.6018 27.4526 15.1627 27.1042C15.1556 27.0567 15.1479 27.0098 15.1407 26.9629C14.9116 25.4768 14.6944 24.0731 15.3419 22.321C15.6838 21.3975 16.3064 19.719 17.8816 19.5587C18.2609 18.9331 18.9642 18.5663 19.8468 18.5663Z" fill="#0E3847"/>
<path d="M35.9164 69.6792C41.1228 69.6792 50.0975 69.0584 50.7082 66.73C52.706 59.1264 53.8521 24.9554 53.9002 23.5042C53.9032 23.4086 53.8676 23.316 53.8011 23.2472C53.7346 23.1783 53.6432 23.1398 53.5477 23.1398H18.9986C18.8164 23.1398 18.6638 23.2787 18.6472 23.4603C18.6401 23.5404 17.9124 31.5809 17.9439 40.882C17.986 53.3733 19.3019 62.0845 21.8564 66.7739C22.6838 69.538 33.7049 69.6786 35.917 69.6786L35.9164 69.6792Z" fill="#FDD5C4"/>
<path d="M18.9988 23.493C18.9988 23.493 16.0644 55.4792 22.1854 66.6405C22.6502 68.462 29.2306 69.3262 35.9166 69.3262C42.6027 69.3262 49.9066 68.3961 50.3672 66.6405C52.378 58.9882 53.5479 23.493 53.5479 23.493H18.9988ZM18.9988 22.7867H53.5479C53.739 22.7867 53.9224 22.8645 54.0553 23.0016C54.1883 23.1393 54.2595 23.3244 54.2536 23.5156C54.2506 23.6046 53.9544 32.5098 53.4167 42.2353C52.6926 55.3285 51.8961 63.5998 51.0503 66.8191C50.8598 67.545 50.0965 68.5961 45.6884 69.3375C43.0259 69.785 39.5561 70.0313 35.9172 70.0313C32.2783 70.0313 29.0703 69.7933 26.5965 69.3612C23.5096 68.8217 21.8934 68.0412 21.5296 66.9111C18.9578 62.1617 17.6331 53.4061 17.5909 40.8827C17.5595 31.5649 18.2883 23.5078 18.2961 23.4271C18.3293 23.0639 18.6344 22.7855 18.9988 22.7855V22.7867Z" fill="#0E3847"/>
<path d="M33.2617 49.9269C33.2617 49.9269 32.8854 51.0095 31.2877 51.0095C29.6899 51.0095 29.313 49.9269 29.313 49.9269L30.2419 48.2271" fill="#FDD5C4"/>
<path d="M33.2617 49.9268C33.1982 50.0105 33.1306 50.0793 33.0581 50.1458C32.9923 50.2164 32.9062 50.2657 32.8338 50.3233C32.7655 50.385 32.6688 50.4129 32.5928 50.4598C32.5186 50.5108 32.4266 50.5316 32.3423 50.5607C32.2563 50.5868 32.1779 50.6236 32.0859 50.6313L31.8236 50.6752C31.7375 50.6889 31.6426 50.6764 31.5541 50.6818L31.42 50.6836L31.3535 50.6859L31.3203 50.6871H31.3037L31.2954 50.6883H31.2894H31.2882C31.2621 50.6871 31.3227 50.6895 31.3156 50.6895L31.02 50.6515C30.9268 50.6367 30.8105 50.6367 30.7363 50.6094C30.6615 50.5844 30.5873 50.5613 30.5119 50.5399C30.4354 50.5263 30.3629 50.4829 30.2888 50.4473C30.2157 50.4105 30.1362 50.3815 30.0751 50.3286C30.0134 50.2776 29.9344 50.2432 29.8828 50.1808C29.8264 50.1245 29.7605 50.0728 29.7166 50.0063C29.665 49.9506 29.6151 49.8692 29.5902 49.8295L29.5706 50.0663L29.7623 49.6194C29.8288 49.4716 29.8816 49.3161 29.9415 49.1653C30.0549 48.8597 30.1629 48.5504 30.2413 48.2258C30.0098 48.4673 29.8086 48.7249 29.6121 48.9855C29.5172 49.1178 29.4157 49.246 29.3266 49.3814L29.0542 49.7844C29.0097 49.8497 29.0026 49.9292 29.0263 49.9986L29.0346 50.0218C29.0857 50.1654 29.1338 50.2586 29.1996 50.3631C29.259 50.4681 29.3397 50.553 29.4163 50.6438C29.4887 50.7399 29.592 50.7993 29.6804 50.8776C29.7688 50.959 29.8757 51.0052 29.9783 51.0598C30.0828 51.1121 30.1819 51.1726 30.303 51.197L30.6526 51.2878C30.7695 51.3145 30.8562 51.3044 30.9594 51.3151L31.2574 51.3275L31.2871 51.3287H31.2906L31.296 51.3281L31.3061 51.3269L31.3268 51.3246L31.3678 51.3192L31.4497 51.3085L31.6123 51.2848C31.7203 51.2646 31.8284 51.2616 31.9334 51.2225L32.245 51.1056C32.3501 51.0753 32.4438 51.0088 32.5358 50.9471C32.6278 50.8848 32.7222 50.8307 32.797 50.7471C32.8718 50.6652 32.9566 50.5987 33.0124 50.5025C33.1383 50.3292 33.2303 50.1286 33.2588 49.9256L33.2617 49.9268Z" fill="#0E3847"/>
<path d="M39.9062 54.7182C39.9062 58.75 36.6371 62.018 32.6053 62.018C28.5735 62.018 25.3055 58.75 25.3055 54.7182C25.3055 54.7182 27.628 55.2132 32.6053 55.2132C39.2462 55.2132 39.9062 54.7182 39.9062 54.7182Z" fill="white" stroke="#0E3847" stroke-width="1.42264" stroke-linecap="round" stroke-linejoin="round"/>
<path d="M39.6465 56.3516C39.6465 56.3516 37.7537 58.0912 35.9482 57.5897L39.6465 56.3516Z" fill="white"/>
<path d="M39.4551 56.1392C39.4551 56.1392 39.4135 56.1808 39.3399 56.2532C39.2645 56.3268 39.1506 56.4277 39.0099 56.5452C38.8669 56.6591 38.6977 56.7927 38.5042 56.9179C38.4093 56.9838 38.3072 57.0437 38.2027 57.1055C38.0994 57.1696 37.9879 57.2188 37.8786 57.2776C37.7665 57.3275 37.6537 57.3785 37.5409 57.4224C37.4258 57.458 37.3142 57.5061 37.2014 57.531C37.0887 57.5542 36.98 57.5928 36.8744 57.6005C36.7688 57.6112 36.6679 57.6337 36.5747 57.6331C36.4809 57.6337 36.3948 57.6343 36.3183 57.6349C36.2417 57.6325 36.1764 57.6183 36.1212 57.6129C36.0114 57.5987 35.9485 57.5904 35.9485 57.5904C35.9485 57.5904 36.0096 57.6076 36.1165 57.6367C36.1705 57.6497 36.2352 57.6735 36.3123 57.6871C36.3901 57.6978 36.4773 57.7097 36.5729 57.7221C36.669 57.7358 36.7735 57.7287 36.8857 57.7328C36.9984 57.74 37.1136 57.7168 37.2359 57.7091C37.3581 57.699 37.4798 57.667 37.6074 57.6456C37.732 57.6165 37.8579 57.5803 37.9837 57.5441C38.106 57.4996 38.2324 57.4628 38.3505 57.4111C38.4698 57.3625 38.5873 57.3138 38.6971 57.2592C38.9203 57.1559 39.1185 57.0408 39.2889 56.9405C39.4562 56.8366 39.5939 56.7458 39.6889 56.677C39.7845 56.6093 39.8414 56.5624 39.8391 56.5654C39.9566 56.4597 39.9655 56.2787 39.8604 56.1612C39.7548 56.0437 39.5738 56.0348 39.4562 56.1398L39.4551 56.1392Z" fill="#0E3847"/>
<path d="M25.551 56.6021C25.551 56.6021 27.4431 58.0913 29.248 57.5891L25.551 56.6021Z" fill="white"/>
<path d="M25.3759 56.8289C25.3729 56.8265 25.4329 56.8681 25.5308 56.9262C25.6287 56.9856 25.7694 57.0639 25.9415 57.1518C26.1148 57.2361 26.3166 57.3328 26.5422 57.4159C26.7647 57.5037 27.0105 57.5767 27.2574 57.6391C27.3832 57.6628 27.5061 57.6948 27.6307 57.7103C27.7553 57.7239 27.8758 57.7483 27.9957 57.7489C28.115 57.7524 28.2284 57.7643 28.3376 57.7536C28.4462 57.7447 28.5483 57.75 28.6415 57.7305C28.7341 57.7156 28.8195 57.702 28.8943 57.6895C28.9685 57.6729 29.032 57.6515 29.0842 57.6373C29.1881 57.607 29.248 57.5904 29.248 57.5904C29.248 57.5904 29.1863 57.5987 29.0795 57.6135C29.0261 57.6201 28.962 57.6319 28.8872 57.6373C28.813 57.6385 28.7287 57.6396 28.6367 57.6408C28.5453 57.6474 28.4462 57.6272 28.3429 57.6207C28.2391 57.6159 28.131 57.5886 28.02 57.569C27.9085 57.5524 27.7969 57.5126 27.6823 57.483C27.5684 57.4521 27.4562 57.404 27.3434 57.366C27.1209 57.2746 26.903 57.1731 26.7078 57.0616C26.5101 56.9547 26.3362 56.8372 26.1884 56.7369C26.0424 56.6342 25.9243 56.544 25.8454 56.4781C25.7658 56.4134 25.729 56.3784 25.7255 56.3766C25.6002 56.2799 25.421 56.3036 25.3243 56.4289C25.2281 56.5535 25.2513 56.7333 25.3765 56.8295L25.3759 56.8289Z" fill="#0E3847"/>
<path d="M39.4146 46.0984C39.4146 47.2742 40.0111 48.2274 40.7476 48.2274C41.4842 48.2274 42.0801 47.2748 42.0801 46.0984C42.0801 44.9221 41.4836 43.9706 40.7476 43.9706C40.0116 43.9706 39.4146 44.9238 39.4146 46.0984Z" fill="#0E3847"/>
<path d="M24.3892 46.0984C24.3892 47.2742 24.9851 48.2274 25.7216 48.2274C26.4582 48.2274 27.0547 47.2748 27.0547 46.0984C27.0547 44.9221 26.4582 43.9706 25.7216 43.9706C24.9851 43.9706 24.3892 44.9238 24.3892 46.0984Z" fill="#0E3847"/>
<path d="M53.7726 44.9437C53.8765 44.9437 53.9756 44.9128 54.0605 44.8535C54.6748 44.4226 54.7531 43.3121 54.7917 41.9048C54.803 41.5042 54.8131 41.1255 54.8516 40.9504C55.3158 38.8405 56.2636 36.7975 57.1806 34.8217C57.6258 33.8632 58.0858 32.8714 58.4852 31.8849L58.5256 31.7852C59.2663 29.9554 60.1055 27.881 59.6313 25.7503C59.3565 24.5128 58.4698 23.369 57.5534 22.3173C57.4222 22.1666 57.2803 22.0395 57.1432 21.9161C56.8334 21.6371 56.6411 21.452 56.6019 21.1682C56.574 20.9653 56.6655 20.678 56.7533 20.4002C56.8275 20.1664 56.904 19.9242 56.9314 19.6803C57.0453 18.6648 56.6773 17.4961 55.9467 16.5548C54.5436 14.7451 52.3927 13.6768 50.8353 13.0987C50.3272 12.9111 46.3494 12.0392 44.8466 11.9745C45.1564 9.8432 45.0579 7.45426 42.6749 6.36218C41.3691 5.7639 40.1785 5.47367 39.0354 5.47367C38.8823 5.47367 38.7285 5.47901 38.5748 5.48969C38.0436 5.52768 37.5035 5.71583 36.9806 5.89804C36.431 6.08975 35.9123 6.27077 35.4511 6.27077C35.3603 6.27077 35.2736 6.26365 35.1935 6.24881C34.6837 6.15682 34.4267 5.72414 34.064 5.02259C33.9032 4.71158 33.737 4.39049 33.5204 4.11925C33.0325 3.51088 31.7137 2.03538 30.0043 1.47331C29.2844 1.2359 28.4926 1.11542 27.6516 1.11542C23.9747 1.11542 19.5529 3.5097 18.8205 7.3771C18.6953 8.03651 18.8104 8.56 18.9345 9.06093C18.5641 9.00574 18.0596 8.97369 17.3711 8.97369C17.1604 8.97369 17.0008 8.97903 16.9349 8.98378C16.1455 9.0461 15.3995 9.24908 14.7181 9.58798C13.1524 10.3649 11.9012 11.7401 11.3718 13.2661C10.9925 14.3611 10.9866 15.4597 11.3558 16.4432C11.5777 17.0355 12.0051 17.4866 12.382 17.8849C12.5274 18.0386 12.6692 18.1888 12.7939 18.3395C12.4033 18.4547 12.0757 18.6843 11.8282 19.0191C11.1908 19.8821 11.2199 21.3113 11.5166 22.2746C12.0146 23.8902 13.1108 24.908 14.8653 25.3835C14.9941 25.6048 15.2119 26.2708 15.3472 26.6827C15.5888 27.4198 15.7455 27.8828 15.9188 28.1119C16.6245 29.0419 17.8074 29.7423 19.1642 30.0337C19.5529 30.1168 19.893 30.1572 20.204 30.1572C20.648 30.1572 21.048 30.0729 21.3941 29.9067C21.5015 29.8551 22.0956 29.4634 22.5128 28.9719C23.6103 30.4065 25.9405 30.8647 27.188 30.8967C27.3251 30.9003 27.464 30.9021 27.6035 30.9021C28.2534 30.9021 29.0992 30.8623 29.8755 30.5501C30.1408 30.4433 30.3966 30.2741 30.6441 30.1109C30.9973 29.8776 31.3617 29.6361 31.6739 29.6361C31.7172 29.6361 31.7582 29.6408 31.7991 29.6497C32.2217 29.7429 32.6135 30.0183 33.0277 30.3097C33.5738 30.6937 34.1922 31.1294 35.0042 31.2184C35.1692 31.2362 35.3377 31.2457 35.5045 31.2457C36.5349 31.2457 37.6181 30.9015 38.7244 30.2231C39.0194 30.042 39.2954 29.766 39.5868 29.4746C40.0076 29.0538 40.4842 28.5772 40.8896 28.5772C41.2914 28.5915 41.5276 28.9784 41.8434 29.5666C41.9454 29.7566 42.0511 29.953 42.168 30.1228C42.9016 31.1864 43.9332 32.5016 45.4098 33.2299C45.8508 33.4471 46.3144 33.6062 46.7625 33.7599C47.537 34.0258 48.2694 34.2762 48.8369 34.7962C49.7954 35.674 50.1782 37.4231 50.5153 38.9663C50.6299 39.4898 50.7379 39.9836 50.8637 40.4246C50.9308 40.6578 51.4994 41.8033 52.0128 42.7375C53.2212 44.9371 53.502 44.9437 53.7708 44.9437H53.7732H53.7726Z" fill="#F26F65"/>
<path d="M27.6529 1.55501C24.0294 1.55501 19.9216 3.92911 19.2527 7.45939C19.0836 8.34849 19.4278 8.98178 19.5352 9.76405C19.4949 9.47025 18.1007 9.41328 17.3724 9.41328C17.1778 9.41328 17.0306 9.41743 16.97 9.42218C16.2489 9.47916 15.5652 9.6584 14.9141 9.98187C13.5258 10.6704 12.299 11.9346 11.7868 13.4113C11.4621 14.3478 11.4164 15.3551 11.7672 16.2904C12.131 17.2615 13.1685 17.8253 13.5359 18.6966C13.4961 18.6948 13.4576 18.6936 13.4196 18.6936C11.6426 18.6936 11.5523 20.8992 11.9364 22.1474C12.4254 23.7338 13.5294 24.5933 15.0826 24.9891C15.4132 25.0746 15.9521 27.4321 16.2685 27.8487C16.9772 28.7824 18.1286 29.3646 19.2563 29.6068C19.562 29.6721 19.8842 29.7201 20.2036 29.7201C20.5478 29.7201 20.8891 29.6637 21.2031 29.513C21.5259 29.3569 22.6257 28.4316 22.4791 27.9936C23.0584 29.7278 25.569 30.4181 27.1982 30.4597C27.3318 30.4626 27.4665 30.465 27.603 30.465C28.3153 30.465 29.0566 30.408 29.7112 30.1445C30.3202 29.9 30.9707 29.199 31.6734 29.199C31.7464 29.199 31.8194 29.2067 31.893 29.2228C33.0077 29.4679 33.7638 30.6425 35.0518 30.7837C35.2037 30.8003 35.3545 30.8081 35.5046 30.8081C36.5712 30.8081 37.5879 30.4068 38.4948 29.8501C39.2035 29.4151 39.9798 28.139 40.8891 28.139C40.9004 28.139 40.9122 28.139 40.9235 28.139C41.8049 28.171 42.1112 29.2679 42.529 29.8733C43.3356 31.0431 44.3066 32.1963 45.6035 32.8361C46.768 33.4101 48.1455 33.5674 49.1331 34.4725C50.5368 35.7581 50.7855 38.5512 51.2859 40.3045C51.3785 40.6285 53.3276 44.5054 53.7733 44.5054C53.787 44.5054 53.7994 44.5019 53.8101 44.4942C54.5063 44.0057 54.2689 41.558 54.4238 40.857C55.1254 37.6645 56.8614 34.7313 58.0788 31.7215C58.8284 29.8679 59.6557 27.8802 59.2035 25.8462C58.937 24.6455 58.0075 23.5065 57.2229 22.6067C56.8335 22.1604 56.256 21.8749 56.1676 21.2286C56.0993 20.7259 56.44 20.1329 56.4958 19.6326C56.6062 18.6485 56.1979 17.595 55.6002 16.8246C54.3995 15.2755 52.4967 14.184 50.6828 13.511C50.2229 13.3412 45.972 12.4106 44.6841 12.4106C44.4621 12.4106 44.328 12.4385 44.3167 12.502C44.7055 10.3362 44.8402 7.83806 42.4928 6.762C41.4025 6.26285 40.235 5.91326 39.0361 5.91326C38.8937 5.91326 38.75 5.91801 38.6064 5.92869C37.601 5.99992 36.4632 6.71096 35.4518 6.71096C35.3384 6.71096 35.2263 6.70205 35.1165 6.68247C34.0078 6.48245 33.7798 5.14702 33.178 4.39502C32.3477 3.35932 31.1416 2.31056 29.8679 1.89154C29.1771 1.66362 28.4263 1.5556 27.6523 1.5556M27.6529 0.677185C28.5402 0.677185 29.3783 0.805387 30.1433 1.05763C31.9631 1.6565 33.3513 3.20679 33.8635 3.84542C34.1081 4.15109 34.2843 4.49236 34.4553 4.82236C34.7841 5.45862 34.9722 5.76429 35.2737 5.8183C35.3284 5.82839 35.3883 5.83313 35.4536 5.83313C35.8406 5.83313 36.3255 5.66398 36.8389 5.48474C37.3885 5.29303 37.9571 5.09479 38.5464 5.05324C38.7079 5.04197 38.8735 5.03603 39.0379 5.03603C40.2451 5.03603 41.4957 5.33991 42.8596 5.9643C45.4729 7.16204 45.5512 9.8329 45.3488 11.5761C47.1276 11.7642 50.5184 12.5138 50.9891 12.6878C52.6005 13.2854 54.8286 14.3947 56.2958 16.2869C57.0947 17.3167 57.4965 18.604 57.3701 19.7305C57.338 20.0166 57.2508 20.2914 57.1742 20.5336C57.1149 20.7211 57.0247 21.0048 57.0389 21.1099C57.0561 21.2345 57.1736 21.352 57.4383 21.59C57.5784 21.7159 57.7369 21.8589 57.8859 22.0298C58.8402 23.1249 59.765 24.322 60.0611 25.6557C60.565 27.9194 59.6985 30.0608 58.9334 31.9506L58.8931 32.0503C58.4901 33.0474 58.0277 34.044 57.5802 35.0073C56.6733 36.9617 55.7349 38.9821 55.2815 41.0452C55.2518 41.1799 55.2405 41.5888 55.2316 41.9171C55.1954 43.2466 55.158 44.6212 54.3146 45.2123C54.1544 45.3239 53.968 45.3827 53.7739 45.3827C53.1774 45.3827 52.7637 45.0153 51.6283 42.9486C51.2034 42.1747 50.5362 40.8736 50.4425 40.546C50.3125 40.0914 50.2033 39.5904 50.0875 39.0604C49.7641 37.5808 49.3973 35.9041 48.5408 35.12C48.0405 34.6618 47.3508 34.425 46.6208 34.1751C46.1596 34.0173 45.6824 33.8534 45.2165 33.6237C43.6484 32.851 42.5711 31.4799 41.8073 30.3718C41.6767 30.1831 41.5651 29.9753 41.4577 29.7747C41.2968 29.475 41.0535 29.0221 40.8926 29.0168C40.6665 29.0168 40.1852 29.4982 39.8979 29.786C39.6011 30.0828 39.2943 30.3902 38.9548 30.5985C37.7784 31.3203 36.6181 31.6859 35.5052 31.6859C35.3224 31.6859 35.1378 31.6758 34.9574 31.6562C34.0321 31.5547 33.3644 31.0852 32.7756 30.6704C32.3815 30.3932 32.0414 30.154 31.7055 30.0798C31.6954 30.0774 31.6853 30.0762 31.6746 30.0762C31.4942 30.0762 31.1577 30.2988 30.887 30.4781C30.6211 30.6537 30.3463 30.8354 30.0395 30.9588C29.1931 31.2989 28.2933 31.3428 27.6042 31.3428C27.4612 31.3428 27.3187 31.3405 27.1787 31.3375C25.8741 31.3042 23.7487 30.8828 22.4904 29.6192C22.0453 30.0317 21.596 30.2988 21.5859 30.3036C21.1787 30.4994 20.7146 30.598 20.2042 30.598C19.8623 30.598 19.4925 30.5546 19.0735 30.465C17.6146 30.1516 16.3379 29.3913 15.5699 28.3788C15.3539 28.0939 15.1942 27.625 14.9307 26.8214C14.8274 26.5056 14.6683 26.0213 14.555 25.753C12.7815 25.2171 11.6176 24.0917 11.0977 22.4061C10.7588 21.3051 10.7446 19.7513 11.4758 18.7607C11.6455 18.531 11.8444 18.3423 12.0699 18.1945C12.0681 18.1927 12.0663 18.1903 12.064 18.1885C11.6586 17.76 11.1992 17.2745 10.9458 16.5991C10.5404 15.5183 10.5445 14.317 10.9576 13.124C11.5244 11.4912 12.8575 10.0228 14.5241 9.19605C15.2559 8.83281 16.056 8.61439 16.9012 8.54792C17.0353 8.53783 17.2751 8.53664 17.3724 8.53664C17.7387 8.53664 18.0752 8.54376 18.3803 8.56335C18.3197 8.18943 18.2995 7.77455 18.3903 7.29677C19.1649 3.20976 23.8009 0.678966 27.6529 0.678966V0.677185Z" fill="#0E3847"/>
<path d="M50.6455 49.6374C51.4847 50.4773 52.6439 50.996 53.9241 50.996C56.4858 50.996 58.5625 48.9193 58.5625 46.3582C58.5625 43.7971 56.4858 41.7204 53.9241 41.7204C52.9846 41.7204 52.1103 41.9994 51.3803 42.4801" fill="#FDD5C4"/>
<path d="M50.6442 49.6375C50.6442 49.6375 50.7006 49.6968 50.8062 49.8078C50.9071 49.9235 51.0745 50.0743 51.3012 50.2601C51.4205 50.3414 51.5505 50.4375 51.6989 50.5319C51.8538 50.6126 52.0146 50.7206 52.2057 50.793C52.5755 50.9711 53.029 51.0916 53.5329 51.1587C53.6599 51.1699 53.7899 51.1812 53.9222 51.1931C54.0528 51.1919 54.1863 51.1901 54.3217 51.1889C54.5893 51.1735 54.8956 51.1379 55.1757 51.0649C55.7491 50.9296 56.3361 50.6797 56.8607 50.2963C57.3854 49.9164 57.8608 49.4196 58.2057 48.8261C58.5535 48.2355 58.7808 47.5589 58.855 46.8645C58.8633 46.6835 58.8734 46.5309 58.877 46.3274C58.8663 46.1635 58.8615 46.0045 58.8467 45.8365C58.8182 45.6602 58.7968 45.4798 58.7594 45.3095C58.7125 45.1433 58.6787 44.9735 58.6206 44.8121C58.4051 44.1598 58.0383 43.577 57.6015 43.0986C56.7213 42.1347 55.5307 41.6462 54.5181 41.5768C54.3923 41.5566 54.2665 41.5667 54.1454 41.562C54.0848 41.5614 54.0249 41.5608 53.9655 41.5602C53.8818 41.5572 53.8451 41.5709 53.7839 41.5756C53.5613 41.6082 53.353 41.6195 53.1524 41.6646C52.9536 41.7198 52.7672 41.7721 52.5951 41.8201C52.4289 41.8795 52.2859 41.9561 52.1529 42.013C51.8817 42.1175 51.7072 42.2736 51.5748 42.3502C51.4472 42.435 51.379 42.4801 51.379 42.4801C51.379 42.4801 51.4531 42.4457 51.5926 42.3804C51.7345 42.3223 51.9256 42.203 52.201 42.1311C52.3363 42.092 52.4829 42.035 52.6461 41.9982C52.8099 41.9703 52.9868 41.9406 53.1761 41.9086C53.3667 41.8842 53.5851 41.8937 53.8065 41.8842C53.8563 41.8854 53.9323 41.8759 53.9626 41.8848C54.0178 41.8902 54.0736 41.8949 54.1299 41.9003C54.2421 41.9139 54.3584 41.9127 54.4736 41.9412C54.9395 42.0101 55.425 42.1798 55.8945 42.4291C56.3628 42.6825 56.8056 43.0369 57.1807 43.4719C57.557 43.9076 57.8466 44.4358 58.0341 45.005C58.084 45.1462 58.1101 45.2952 58.1505 45.4406C58.1807 45.5861 58.195 45.7297 58.2193 45.8739C58.2318 46.03 58.2354 46.1974 58.2437 46.3588L58.2193 46.7998C58.1083 48.0177 57.4341 49.1448 56.5248 49.8464C56.069 50.1966 55.5639 50.4541 55.0535 50.6055C54.7941 50.6892 54.5561 50.7254 54.2997 50.7634C54.1715 50.7752 54.0457 50.7865 53.9216 50.7978C53.7993 50.7966 53.6795 50.7954 53.5619 50.7942C53.0936 50.7646 52.6586 50.6981 52.2936 50.5657C52.1048 50.5165 51.9452 50.4262 51.7855 50.3687C51.6336 50.2957 51.4977 50.2191 51.3712 50.1544C51.1368 50.0025 50.9445 49.8838 50.8288 49.7817C50.7077 49.6867 50.6436 49.6363 50.6436 49.6363L50.6442 49.6375Z" fill="#0E3847"/>
<path d="M52.5992 48.8661C52.5992 48.8661 52.633 48.8702 52.6965 48.8773C52.7606 48.8827 52.8514 48.9046 52.9749 48.894C53.0995 48.894 53.2485 48.8756 53.4183 48.837C53.5856 48.7925 53.7756 48.729 53.9637 48.6209C54.1554 48.5177 54.3489 48.377 54.527 48.1995C54.7026 48.0215 54.8771 47.8155 55.0071 47.5728C55.1442 47.3348 55.2588 47.0707 55.3282 46.7899C55.406 46.5104 55.4309 46.2166 55.4434 45.9234C55.4315 45.7554 55.4374 45.6604 55.4107 45.4943C55.3935 45.3405 55.3644 45.1951 55.3282 45.0568C55.26 44.7755 55.1448 44.512 55.0077 44.2734C54.8777 44.0306 54.7032 43.8247 54.5276 43.6466C54.3495 43.4691 54.156 43.3285 53.9643 43.2252C53.7756 43.1166 53.5862 43.0531 53.4183 43.0092C53.2485 42.97 53.0995 42.9516 52.9767 42.9528C52.8556 42.9421 52.7594 42.9641 52.6959 42.9694C52.6324 42.9771 52.5986 42.9813 52.5986 42.9813C52.5986 42.9813 52.6318 42.989 52.6942 43.0044C52.7559 43.0199 52.8461 43.0377 52.9547 43.0786C53.0657 43.1107 53.1921 43.1712 53.3316 43.2389C53.4681 43.3154 53.6147 43.4098 53.7583 43.5303C53.9026 43.6502 54.0403 43.7991 54.1708 43.9647C54.2967 44.1345 54.413 44.325 54.508 44.5333C54.6095 44.7387 54.6712 44.969 54.7276 45.2011C54.7549 45.3198 54.7745 45.4367 54.784 45.5495C54.8035 45.648 54.7958 45.8231 54.8035 45.9234C54.7982 46.1667 54.7863 46.4124 54.7276 46.6457C54.6724 46.8784 54.6095 47.1086 54.508 47.314C54.413 47.5229 54.2973 47.7134 54.1708 47.8832C54.0403 48.0488 53.9026 48.1984 53.7583 48.3177C53.6141 48.4381 53.4681 48.5325 53.331 48.6091C53.1909 48.6767 53.0651 48.7367 52.9565 48.7687C52.8497 48.8097 52.7541 48.8275 52.693 48.8435C52.6306 48.8584 52.5974 48.8661 52.5974 48.8661H52.5992Z" fill="#0E3847"/>
<path d="M54.9178 47.2458C54.9178 47.2458 54.8543 47.2001 54.7433 47.12C54.6976 47.0779 54.6009 47.0339 54.4928 46.9871C54.4394 46.9657 54.3819 46.9348 54.3225 46.9206C54.2632 46.9093 54.2008 46.8974 54.1355 46.885C54.0062 46.8494 53.8631 46.8707 53.7153 46.8695C53.6417 46.8731 53.5681 46.8963 53.4928 46.9099C53.4174 46.9259 53.3396 46.939 53.2678 46.974C53.1948 47.0043 53.1206 47.0345 53.0452 47.0654C52.974 47.1034 52.9064 47.1503 52.8369 47.1936L52.733 47.2601L52.641 47.3426L52.4523 47.5165L52.3093 47.7023L52.2386 47.7954L52.1793 47.9052C52.1419 47.9782 52.1003 48.0489 52.0683 48.1213C52.0446 48.1961 52.0208 48.2703 51.9977 48.3427C51.9698 48.4133 51.9632 48.4887 51.9537 48.5617C51.9466 48.6341 51.93 48.7041 51.9324 48.7736C51.9454 48.9119 51.9348 49.0442 51.9775 49.1588C51.9929 49.2163 52.0078 49.2715 52.0226 49.3244C52.0386 49.3766 52.0689 49.4199 52.0897 49.4638C52.1342 49.5499 52.1692 49.6259 52.2208 49.6745C52.3105 49.7784 52.3615 49.8384 52.3615 49.8384C52.3615 49.8384 52.3158 49.7748 52.2357 49.6644C52.1894 49.6134 52.1609 49.5351 52.1253 49.4484C52.1093 49.4039 52.0837 49.3606 52.0725 49.3095C52.063 49.2579 52.0535 49.2039 52.0434 49.1469C52.0113 49.0353 52.0339 48.9089 52.0315 48.7801C52.0345 48.7154 52.057 48.6501 52.0689 48.5836C52.0831 48.5172 52.0944 48.4489 52.1265 48.3848C52.1532 48.3195 52.1811 48.2536 52.2084 48.1866C52.2422 48.1243 52.2849 48.0655 52.3217 48.005L52.3787 47.9141L52.4571 47.8281L52.6155 47.6548C52.6624 47.6233 52.7301 47.5687 52.7853 47.5272L52.8725 47.4607L52.9693 47.4108C53.034 47.3788 53.0951 47.3426 53.1592 47.3147C53.2257 47.2939 53.2916 47.2737 53.3562 47.2535C53.4192 47.228 53.4856 47.2239 53.5491 47.2162C53.6127 47.2108 53.6744 47.1948 53.7349 47.1978C53.8542 47.212 53.9705 47.2001 54.0673 47.2393C54.1166 47.2524 54.1634 47.2654 54.2085 47.2779C54.2519 47.2915 54.2821 47.3165 54.316 47.3319C54.3807 47.3657 54.4382 47.3853 54.4923 47.4417C54.5961 47.5307 54.6555 47.5818 54.6555 47.5818C54.7451 47.6589 54.8798 47.6488 54.9564 47.5592C55.033 47.4702 55.0229 47.3355 54.9338 47.2583C54.9297 47.2547 54.9243 47.2506 54.9196 47.247L54.9178 47.2458Z" fill="#0E3847"/>
<path d="M44.8334 42.1639C45.0191 42.1639 45.1924 42.0458 45.2542 41.86L45.9071 39.8919C45.9444 39.7803 45.9349 39.6587 45.8827 39.553C45.8299 39.448 45.7379 39.3678 45.6263 39.331L38.7391 37.0472C38.6928 37.0317 38.6459 37.0246 38.5996 37.0246C38.4138 37.0246 38.2405 37.1427 38.1788 37.3285L37.5259 39.296C37.4885 39.4076 37.498 39.5293 37.5502 39.6343C37.603 39.7394 37.6956 39.8195 37.8072 39.8563L44.6939 42.1408C44.7402 42.1562 44.7871 42.1633 44.8334 42.1633V42.1639Z" fill="#F26F65"/>
<path d="M38.5971 37.4686L37.9442 39.4361L44.8309 41.7206L45.4837 39.7524L38.5971 37.4686ZM38.5971 36.5818C38.6897 36.5818 38.784 36.5961 38.8766 36.6269L45.7633 38.9108C45.9864 38.985 46.171 39.1447 46.2767 39.3548C46.3823 39.5649 46.4001 39.8088 46.3259 40.032L45.6731 41.9995C45.5496 42.3717 45.203 42.6073 44.8314 42.6073C44.7389 42.6073 44.6445 42.5925 44.5519 42.5622L37.6652 40.2777C37.4421 40.2035 37.2575 40.0439 37.1518 39.8338C37.0462 39.6236 37.0284 39.3797 37.1026 39.1565L37.7554 37.189C37.8789 36.8169 38.2255 36.5812 38.5971 36.5812V36.5818Z" fill="#0E3847"/>
<path d="M18.9 41.8208C18.9315 41.8208 18.9629 41.8173 18.9944 41.8107L26.0841 40.2705C26.1992 40.2456 26.2995 40.1762 26.363 40.0771C26.4265 39.9779 26.4485 39.858 26.4236 39.7429L25.9832 37.7172C25.9582 37.6021 25.8888 37.5018 25.7897 37.4382C25.7173 37.3919 25.6342 37.3676 25.5499 37.3676C25.5184 37.3676 25.487 37.3712 25.4555 37.3777L18.3653 38.9185C18.2501 38.9434 18.1498 39.0129 18.0863 39.112C18.0228 39.2111 18.0008 39.331 18.0258 39.4461L18.4662 41.4718C18.5113 41.6796 18.6947 41.8214 18.8988 41.8214L18.9 41.8208Z" fill="#F26F65"/>
<path d="M25.5498 37.8115L18.4596 39.3523L18.9 41.378L25.9896 39.8378L25.5492 37.8121M25.5498 36.9242C25.719 36.9242 25.8852 36.9723 26.0294 37.0649C26.227 37.1919 26.3665 37.3925 26.4164 37.6228L26.8568 39.6485C26.9066 39.8782 26.8633 40.1186 26.7363 40.3162C26.6093 40.5139 26.4087 40.6533 26.1784 40.7032L19.0887 42.2434C19.0252 42.257 18.9623 42.2636 18.8994 42.2636C18.491 42.2636 18.1236 41.9799 18.0334 41.565L17.5924 39.5393C17.5426 39.3096 17.5859 39.0692 17.7129 38.871C17.8399 38.6727 18.0405 38.5339 18.2708 38.484L25.3611 36.9432C25.4234 36.9296 25.4863 36.923 25.5492 36.923L25.5498 36.9242Z" fill="#0E3847"/>
<path opacity="0.4" d="M36.5341 45.8823C36.5395 49.5419 39.5101 52.5042 43.1679 52.4989C46.8276 52.4935 49.7893 49.5235 49.7852 45.8633C49.7798 42.2048 46.8098 39.2431 43.1501 39.2473C39.4905 39.2526 36.5288 42.2244 36.5335 45.8817L36.5341 45.8823Z" fill="#B3E4FA"/>
<path d="M36.5341 45.8823C36.5395 49.5419 39.5101 52.5042 43.1679 52.4989C46.8276 52.4935 49.7893 49.5235 49.7852 45.8633C49.7798 42.2048 46.8098 39.2431 43.1501 39.2473C39.4905 39.2526 36.5288 42.2244 36.5335 45.8817L36.5341 45.8823Z" stroke="#0E3847" stroke-width="1.75912" stroke-miterlimit="10"/>
<path opacity="0.4" d="M16.622 45.9095C16.6273 49.5692 19.5973 52.5315 23.2564 52.5267C26.9155 52.5208 29.8784 49.5514 29.873 45.8911C29.8677 42.2326 26.8977 39.2703 23.2386 39.2751C19.5801 39.2804 16.6179 42.251 16.6226 45.9095H16.622Z" fill="#B3E4FA"/>
<path d="M16.622 45.9095C16.6273 49.5692 19.5973 52.5315 23.2564 52.5267C26.9155 52.5208 29.8784 49.5514 29.873 45.8911C29.8677 42.2326 26.8977 39.2703 23.2386 39.2751C19.5801 39.2804 16.6179 42.251 16.6226 45.9095H16.622Z" stroke="#0E3847" stroke-width="1.75912" stroke-miterlimit="10"/>
<path d="M29.7179 47.3894C29.7487 46.5406 31.3091 45.8551 33.2351 45.8527C35.1605 45.8504 36.6757 46.5412 36.709 47.3894" stroke="#0E3847" stroke-width="1.72223" stroke-linecap="round" stroke-linejoin="round"/>
<path d="M44.8371 100.723C45.1185 100.723 45.3701 100.525 45.4271 100.239L50.5997 74.2611C50.6644 73.9346 50.4531 73.6177 50.1266 73.553L7.46883 65.0591C7.42966 65.0513 7.39049 65.0478 7.35131 65.0478C7.2332 65.0478 7.11687 65.0822 7.01716 65.1493C6.88421 65.2377 6.79221 65.376 6.76135 65.5321L1.58878 91.5107C1.55791 91.6674 1.58997 91.83 1.679 91.9629C1.76743 92.0959 1.90573 92.1879 2.06182 92.2193L44.7196 100.713C44.7594 100.721 44.7986 100.725 44.8377 100.725L44.8371 100.723Z" fill="#F2982E"/>
<path d="M7.3511 65.6491L2.17853 91.6277L44.8363 100.122L50.0089 74.1437L7.3511 65.6497M7.3511 64.4449C7.42944 64.4449 7.50838 64.4526 7.58613 64.468L50.2439 72.9619C50.8962 73.0919 51.3194 73.7258 51.1894 74.3781L46.0169 100.356C45.9029 100.929 45.4002 101.325 44.8375 101.325C44.7598 101.325 44.6802 101.318 44.6013 101.302L1.9435 92.8082C1.63012 92.7459 1.35472 92.5613 1.17725 92.296C0.99979 92.0301 0.935093 91.7055 0.997414 91.3921L6.16998 65.4135C6.2323 65.1001 6.4163 64.8247 6.68219 64.6473C6.88162 64.5137 7.11488 64.4443 7.3511 64.4443V64.4449Z" fill="#0E3847"/>
<path d="M44.8356 100.723C45.0588 100.723 45.2683 100.599 45.3722 100.394C45.4944 100.154 45.4416 99.861 45.2428 99.6782L26.4999 82.4423C26.3871 82.3384 26.2411 82.2832 26.0921 82.2832C26.0227 82.2832 25.9526 82.2957 25.8856 82.32L1.97009 91.062C1.71665 91.1546 1.55581 91.4045 1.57658 91.6734C1.59735 91.9428 1.7944 92.1648 2.05912 92.2176L44.7169 100.712C44.7561 100.719 44.7959 100.723 44.8344 100.723H44.8356Z" fill="#F5AC2E"/>
<path d="M26.0924 82.8856L2.17688 91.6276L44.8347 100.122L26.0918 82.8856M26.0924 81.6813C26.3897 81.6813 26.6817 81.7911 26.9073 81.9989L45.6502 99.2348C46.0473 99.6004 46.1529 100.185 45.9084 100.666C45.7 101.076 45.2816 101.325 44.8353 101.325C44.7575 101.325 44.6786 101.318 44.5997 101.302L1.94184 92.8081C1.41242 92.7025 1.01773 92.2579 0.976181 91.7196C0.934635 91.1813 1.25632 90.6815 1.7632 90.4964L25.6787 81.7543C25.8134 81.7051 25.9535 81.6813 26.0918 81.6813H26.0924Z" fill="#0E3847"/>
<path d="M25.6533 85.7013C25.737 85.7013 25.8207 85.6841 25.9002 85.6485L50.2561 74.6926C50.4947 74.5852 50.6371 74.3359 50.6074 74.0754C50.5778 73.8154 50.3837 73.6041 50.1267 73.5531L7.46887 65.0591C7.4297 65.0514 7.38993 65.0479 7.35136 65.0479C7.13591 65.0479 6.93233 65.1642 6.8249 65.3583C6.69789 65.5868 6.7335 65.8717 6.91333 66.0628L25.2153 85.5126C25.3316 85.636 25.4913 85.7019 25.6539 85.7019L25.6533 85.7013Z" fill="#FCD428"/>
<path d="M7.35135 65.6491H7.35016H7.35135ZM7.35135 65.6491L25.6533 85.0989L50.0092 74.143L7.35135 65.6491ZM7.35075 64.4448C7.37924 64.4448 7.40773 64.446 7.43681 64.4478C7.49616 64.4519 7.55433 64.4603 7.61072 64.4727L50.2442 72.9619C50.7576 73.064 51.1463 73.4866 51.2051 74.0071C51.2645 74.5276 50.9802 75.0262 50.503 75.241L26.1471 86.1969C25.988 86.2681 25.8201 86.3032 25.6533 86.3032C25.328 86.3032 25.0087 86.1714 24.776 85.9239L6.49133 66.4925C6.27766 66.2753 6.14649 65.9773 6.14649 65.6491C6.14649 65.0021 6.65574 64.4739 7.29615 64.446C7.31454 64.4454 7.33295 64.4448 7.35075 64.4448Z" fill="#0E3847"/>
<g style="mix-blend-mode:multiply">
<path d="M7.35038 65.6513L28.6797 69.8978L23.5075 95.8764L2.17821 91.6298L7.35038 65.6513Z" fill="#E6E7E8"/>
</g>
<path d="M45.8413 95.4648C46.2259 95.4648 46.4764 95.0963 46.5168 94.749C46.5726 94.2368 46.7975 92.9222 46.8901 92.3815C47.1833 91.9488 47.5121 91.1369 47.6005 90.8638C47.7376 90.4395 47.8029 90.0928 47.702 89.7522L50.3848 85.239L47.2385 83.5421L44.7273 87.8772C44.6531 87.8665 44.5753 87.8612 44.494 87.8612C43.7438 87.8612 42.8197 88.3176 42.3752 88.5372C42.3075 88.5705 42.257 88.596 42.228 88.6084C41.9514 88.7254 41.3828 89.145 41.2047 89.342C41.1074 89.4512 41.0641 89.5955 41.0842 89.7403C41.1086 89.9148 41.2231 90.0744 41.4053 90.1896C41.6 90.3119 41.8172 90.3736 42.0517 90.3736C42.2861 90.3736 42.4909 90.316 42.6719 90.2436C42.6612 90.2584 42.6511 90.2739 42.641 90.2899L42.4885 90.4822C42.003 91.0941 41.2688 92.0194 40.927 92.3975C40.7483 92.5957 40.651 92.8658 40.6723 93.1044C40.6889 93.2902 40.775 93.4522 40.9151 93.5608C41.0451 93.6617 41.2243 93.7193 41.4065 93.7193C41.6469 93.7193 41.8677 93.6213 42.0279 93.4433C42.0695 93.3976 42.1116 93.3513 42.1538 93.305C42.0891 93.4201 42.0315 93.5205 41.9828 93.6006C41.7609 93.9692 41.765 94.514 42.1573 94.7526C42.2689 94.8209 42.4102 94.8589 42.5538 94.8589C42.8357 94.8589 43.0915 94.7146 43.2375 94.4737C43.3468 94.3039 43.5028 94.0712 43.6767 93.8125C43.6862 93.7988 43.6951 93.7846 43.7046 93.7703C43.6459 93.9478 43.5931 94.1021 43.5503 94.2167C43.4043 94.6066 43.4945 95.1437 43.8946 95.3331C43.9889 95.377 44.0946 95.3996 44.2026 95.3996C44.5291 95.3996 44.8044 95.2072 44.9208 94.8974C44.9819 94.7479 45.0644 94.5532 45.1582 94.3342C45.1505 94.422 45.1422 94.5069 45.1333 94.5876C45.0864 95.0167 45.3891 95.3681 45.6971 95.4476C45.7452 95.4595 45.7927 95.466 45.8401 95.466L45.8413 95.4648Z" fill="#FCD0B8"/>
<path d="M47.3822 84.0472L44.9084 88.3182C44.7891 88.2618 44.6485 88.238 44.4947 88.238C43.703 88.238 42.5777 88.8701 42.3747 88.9556C42.1569 89.0476 41.6292 89.4346 41.485 89.5948C41.4298 89.6566 41.4476 89.7711 41.6072 89.8714C41.7527 89.9628 41.904 89.9973 42.053 89.9973C42.529 89.9973 42.9712 89.6411 43.0471 89.6411C43.0495 89.6411 43.0519 89.6411 43.0537 89.6423C43.0537 89.6423 43.2905 89.7426 43.3374 89.7652C43.3018 90.0875 42.9516 90.4804 42.954 90.5017C42.4821 91.0953 41.6001 92.2147 41.2066 92.6497C41.0446 92.8296 40.9734 93.1287 41.1461 93.2634C41.2054 93.3091 41.301 93.343 41.4066 93.343C41.5224 93.343 41.6488 93.302 41.7485 93.191C42.4412 92.426 43.1647 91.7042 43.5356 91.2989C43.5594 91.3184 43.5843 91.338 43.608 91.3582C43.2632 92.0247 42.6079 93.2961 42.3052 93.7958C42.1818 94.0012 42.1652 94.3163 42.3539 94.4315C42.4049 94.4629 42.4774 94.4831 42.5551 94.4831C42.6827 94.4831 42.8264 94.4285 42.9172 94.2789C43.2691 93.7323 44.0087 92.6752 44.4579 91.9132C44.5209 91.947 44.5844 91.9802 44.6473 92.0117C44.4182 92.7702 44.0828 93.8736 43.9042 94.3496C43.8193 94.5757 43.8573 94.8998 44.0567 94.9935C44.0977 95.0125 44.1487 95.0238 44.2039 95.0238C44.3404 95.0238 44.4989 94.955 44.5701 94.765C44.7945 94.2119 45.2592 93.1815 45.5684 92.3684C45.6153 92.3814 45.6622 92.3915 45.7067 92.401C45.6094 93.1619 45.5767 94.0071 45.5085 94.6291C45.4812 94.8766 45.6646 95.0511 45.7922 95.0838C45.8088 95.0879 45.8248 95.0897 45.8409 95.0897C45.997 95.0897 46.1204 94.8974 46.1424 94.7069C46.1994 94.1798 46.4249 92.8652 46.5335 92.2348C46.7852 91.9019 47.1383 91.0692 47.2422 90.7493C47.409 90.2335 47.4113 89.9723 47.2843 89.7189L49.8608 85.3856L47.3811 84.0484M47.0974 83.0382L47.7401 83.3848L50.2199 84.722L50.9102 85.0947L50.5095 85.769L48.1046 89.8139C48.171 90.186 48.0957 90.5599 47.9597 90.9795C47.8677 91.2627 47.5544 92.0396 47.2487 92.5221C47.1496 93.0978 46.943 94.311 46.892 94.787C46.822 95.39 46.3709 95.8411 45.842 95.8411C45.7631 95.8411 45.6848 95.831 45.6076 95.8114C45.3922 95.7556 45.182 95.6197 45.0242 95.4274C44.8141 95.6458 44.5221 95.7746 44.2045 95.7746C44.0425 95.7746 43.8828 95.7402 43.7416 95.6749C43.4626 95.5432 43.2816 95.3141 43.1878 95.0517C43.0026 95.1698 42.7854 95.2345 42.5557 95.2345C42.3432 95.2345 42.1325 95.1769 41.9616 95.0725C41.6019 94.8535 41.4523 94.4742 41.4618 94.0938C41.444 94.0944 41.4256 94.095 41.4072 94.095C41.1396 94.095 40.8832 94.0107 40.6861 93.8575C40.4617 93.6836 40.324 93.4278 40.2985 93.1364C40.2683 92.7922 40.3988 92.4218 40.6487 92.1446C40.9021 91.8645 41.3829 91.268 41.8102 90.7314C41.5954 90.6994 41.393 90.6246 41.2066 90.5077C40.9283 90.332 40.7532 90.078 40.7128 89.7919C40.6772 89.5379 40.7538 89.2832 40.9235 89.0927C41.139 88.8547 41.7485 88.4025 42.0815 88.2612C42.1088 88.2493 42.1527 88.2274 42.2097 88.1995C42.9249 87.8463 43.7564 87.4849 44.4947 87.4849C44.5037 87.4849 44.512 87.4849 44.5203 87.4849L46.7306 83.6691L47.0962 83.037L47.0974 83.0382Z" fill="#0E3847"/>
<path d="M49.7671 72.038L54.6055 79.9485L46.968 87.1462" stroke="#0E3847" stroke-width="5.87" stroke-linecap="square" stroke-linejoin="round"/>
</svg>
