<svg width="18" height="17" viewBox="0 0 18 17" fill="none" xmlns="http://www.w3.org/2000/svg">
<path d="M2.25781 1.44629C2.25781 1.14792 2.37634 0.861772 2.58732 0.650794C2.7983 0.439815 3.08444 0.321289 3.38281 0.321289H8.54206C8.84041 0.321353 9.12651 0.439921 9.33744 0.650914L17.2124 8.52591C17.4233 8.73688 17.5418 9.02298 17.5418 9.32129C17.5418 9.6196 17.4233 9.90569 17.2124 10.1167L12.0532 15.2759C11.8422 15.4868 11.5561 15.6053 11.2578 15.6053C10.9595 15.6053 10.6734 15.4868 10.4624 15.2759L2.58744 7.40091C2.37644 7.18998 2.25788 6.90388 2.25781 6.60554V1.44629ZM6.19531 5.94629C6.64287 5.94629 7.07209 5.7685 7.38856 5.45203C7.70502 5.13556 7.88281 4.70634 7.88281 4.25879C7.88281 3.81124 7.70502 3.38201 7.38856 3.06555C7.07209 2.74908 6.64287 2.57129 6.19531 2.57129C5.74776 2.57129 5.31854 2.74908 5.00207 3.06555C4.6856 3.38201 4.50781 3.81124 4.50781 4.25879C4.50781 4.70634 4.6856 5.13556 5.00207 5.45203C5.31854 5.7685 5.74776 5.94629 6.19531 5.94629Z" fill="#836C7F"/>
<path d="M1.46244 7.96341C1.25144 7.75248 1.13288 7.46638 1.13281 7.16804V1.44629C0.834444 1.44629 0.548296 1.56482 0.337317 1.77579C0.126339 1.98677 0.0078125 2.27292 0.0078125 2.57129L0.0078125 7.73054C0.00787622 8.02888 0.126444 8.31498 0.337438 8.52591L8.21244 16.4009C8.42341 16.6118 8.7095 16.7303 9.00781 16.7303C9.30612 16.7303 9.59222 16.6118 9.80319 16.4009L9.85156 16.3525L1.46244 7.96341Z" fill="#836C7F"/>
</svg>
