<svg width="26" height="19" viewBox="0 0 26 19" fill="none" xmlns="http://www.w3.org/2000/svg">
<path d="M21.0068 1.4679H5.1299C2.88677 1.4679 1.06836 3.28631 1.06836 5.52943V14.0217C1.06836 16.2649 2.88677 18.0833 5.1299 18.0833H21.0068C23.2499 18.0833 25.0684 16.2649 25.0684 14.0217V5.52943C25.0684 3.28631 23.2499 1.4679 21.0068 1.4679Z" stroke="white" stroke-width="1.5" stroke-linecap="round" stroke-linejoin="round"/>
<path d="M16.3901 9.11868C16.5111 9.18065 16.6126 9.2748 16.6835 9.39076C16.7544 9.50672 16.7919 9.64 16.7919 9.77591C16.7919 9.91182 16.7544 10.0451 16.6835 10.1611C16.6126 10.277 16.5111 10.3712 16.3901 10.4331L14.0824 11.6221L11.5569 12.9181C11.4446 12.9754 11.3195 13.0031 11.1935 12.9984C11.0675 12.9938 10.9448 12.9569 10.8371 12.8914C10.7294 12.8259 10.6403 12.7339 10.5782 12.6241C10.5161 12.5144 10.4831 12.3906 10.4824 12.2645V7.28729C10.4825 7.1609 10.515 7.03664 10.5768 6.92641C10.6386 6.81617 10.7277 6.72365 10.8355 6.6577C10.9434 6.59175 11.0663 6.55458 11.1926 6.54974C11.3189 6.5449 11.4443 6.57256 11.5569 6.63006L14.0824 7.92976L16.3901 9.11868Z" fill="white"/>
</svg>
