<svg width="1366" height="632" viewBox="0 0 1366 632" fill="none" xmlns="http://www.w3.org/2000/svg">
<g style="mix-blend-mode:multiply" opacity="0.36">
<path d="M628.811 -647H745.406L683.305 301.791L628.811 -647ZM683.305 301.791L1252.25 -312.992L1169.81 -418.335L683.305 301.791ZM683.305 301.791L1425.8 381.147V232.158L683.305 301.791ZM683.305 301.791L1164.42 1028.8L1246.86 923.46L683.305 301.791ZM683.305 301.791L621.203 1250.58H737.798L683.305 301.791ZM683.305 301.791L114.364 916.575L196.802 1021.92L683.305 301.791ZM683.305 301.791L-59.1953 222.435V371.425L683.305 301.791ZM683.305 301.791L202.191 -425.22L119.752 -319.878L683.305 301.791ZM935.185 -593.471L1041.72 -532.942L683.305 301.791L935.185 -593.471ZM683.305 301.791L1398.65 35.4039L1356.81 -103.657L683.305 301.791ZM683.305 301.791L1336.55 759.785L1383.91 623.652L683.305 301.791ZM683.305 301.791L891.773 1215.88L1000.6 1162.42L683.305 301.791ZM683.305 301.791L324.89 1136.52L431.425 1197.05L683.305 301.791ZM683.305 301.791L-32.0381 568.178L9.79867 707.239L683.305 301.791ZM683.305 301.791L30.0636 -156.203L-17.3048 -20.0695L683.305 301.791ZM683.305 301.791L474.837 -612.298L366.011 -558.837L683.305 301.791Z" fill="#E91643"/>
</g>
</svg>
