<svg width="393" height="689" viewBox="0 0 393 689" fill="none" xmlns="http://www.w3.org/2000/svg">
<mask id="mask0_2111_90530" style="mask-type:luminance" maskUnits="userSpaceOnUse" x="0" y="0" width="393" height="689">
<path d="M392.908 0.140625H0V688.141H392.908V0.140625Z" fill="white"/>
</mask>
<g mask="url(#mask0_2111_90530)">
<g opacity="0.4">
<path d="M392.908 0.140625H0V688.141H392.908V0.140625Z" fill="white"/>
<path d="M392.908 0.140625H0V688.141H392.908V0.140625Z" fill="url(#paint0_radial_2111_90530)"/>
<mask id="mask1_2111_90530" style="mask-type:luminance" maskUnits="userSpaceOnUse" x="0" y="0" width="393" height="689">
<path d="M392.908 0.140625H0V688.141H392.908V0.140625Z" fill="white"/>
</mask>
<g mask="url(#mask1_2111_90530)">
<path opacity="0.14" d="M466.712 356.052V332.23C411.38 407.828 346.47 495.004 281.885 484.385C265.897 481.755 248.674 473.141 235.434 448.453C221.852 423.132 210.779 389.449 200.203 356.015C200.284 355.838 200.361 355.652 200.438 355.465C211.69 387.382 223.436 419.367 237.508 442.806C251.249 465.688 268.616 472.08 284.671 472.594C349.152 474.644 411.977 378.952 465.48 295.967C464.876 287.408 464.579 283.14 463.999 274.63C411.781 361.74 350.448 462.064 286.254 465.151C270.183 465.923 252.773 460.877 238.75 439.14C224.393 416.886 212.246 386.05 200.586 355.122C200.661 354.926 200.73 354.717 200.799 354.513C213.096 383.801 225.849 412.655 240.626 433.033C255.052 452.928 272.46 455.889 288.52 453.137C351.928 442.273 410.634 335.666 460.617 242.802C459.519 235.43 458.984 231.762 457.942 224.455C409.467 320.28 352.501 430.305 289.796 445.534C273.342 449.53 255.908 447.533 240.901 428.056C226.222 409.006 213.359 381.794 200.934 354.13C201.002 353.918 201.065 353.696 201.129 353.478C214.101 379.348 227.503 404.708 242.55 421.662C257.952 439.016 275.137 439.282 291.563 433.377C352.891 411.327 406.884 297.388 452.889 197.616C451.422 191.521 450.709 188.486 449.322 182.429C404.974 283.889 352.76 400.079 292.509 425.796C276.52 432.622 259.683 433.726 244.383 418.441C228.786 402.86 214.791 378.241 201.245 353.058C201.306 352.831 201.364 352.603 201.42 352.369C231.007 401.325 258.387 432.749 293.816 413.469C352.255 381.667 401.183 264.354 443.082 160.549C441.363 155.667 440.637 152.508 439.162 146.623C398.803 252.147 351.937 370.459 294.486 405.77C279.038 415.264 263.022 418.972 247.599 407.867C231.189 396.054 216.128 374.333 201.522 351.926C201.575 351.687 201.627 351.448 201.675 351.203C232.39 392.825 260.972 418.302 295.336 393.431C351.608 352.702 394.077 231.333 432.846 124.307C431.178 119.015 430.382 116.274 428.857 110.589C391.213 218.208 350.929 341.424 295.745 385.582C261.857 412.709 232.798 389.404 201.76 350.744C201.806 350.493 201.852 350.246 201.891 349.99C233.368 383.901 263.084 403.348 296.189 373.072C349.012 324.764 387.137 195.764 422.447 88.675C420.777 83.384 419.978 80.6195 418.437 74.8512C384.631 181.492 347.616 314.287 296.344 365.142C263.738 397.483 233.681 380.452 201.959 349.499C201.996 349.239 202.035 348.983 202.066 348.719C234.137 374.97 264.63 388.081 296.413 352.244C315.402 330.829 330.733 296.278 345.288 258.299C369.651 194.723 390.947 123.339 411.993 52.2498C410.317 46.7127 409.508 43.8081 407.93 37.7288C387.793 109.035 367.464 180.693 344.119 245.095C330.111 283.736 314.943 321.521 296.334 344.128C265.097 382.08 234.349 371.515 202.115 348.217C202.144 347.951 202.173 347.685 202.194 347.42C234.266 365.81 266.124 373.286 296.038 330.995C313.411 306.433 327.864 266.539 340.726 228.012C363.07 161.08 382.246 87.1031 401.299 13.6648C399.564 7.71198 398.715 4.58981 397.033 -1.94049C378.891 72.3214 360.658 147.141 339.241 215.303C326.783 254.956 312.753 295.787 295.763 322.41C266.762 367.853 234.196 362.316 202.23 346.917C202.249 346.644 202.266 346.372 202.279 346.098C234.422 356.935 267.35 358.25 295.177 308.166C338.183 230.758 364.742 87.1418 389.904 -27.9125C388.022 -34.3506 387.087 -37.7211 385.205 -44.756C361.515 72.5924 336.721 218.324 294.668 299.487C267.475 351.966 234.579 353.593 202.301 345.587C202.311 345.312 202.316 345.037 202.32 344.76C234.897 348.22 267.197 341.457 293.62 285.976C309.13 253.407 321.01 207.688 331.35 163.809C349.084 88.5588 363.213 7.71997 377.181 -72.6519C375.052 -79.5387 373.978 -83.1313 371.796 -90.5991C359.207 -9.69418 346.385 71.5297 329.99 147.751C320.007 194.159 308.534 242.732 292.773 277.221C266.569 334.561 235.376 344.829 202.328 344.243C202.328 343.966 202.322 343.692 202.317 343.415C235.909 339.268 265.644 324.019 291.09 262.867C306.432 225.999 316.776 177.967 325.868 129.335C340.833 49.2984 351.851 -35.4885 362.486 -119.993C360.017 -127.183 358.763 -130.914 356.196 -138.646C342.113 -7.04584 328.102 153.906 289.869 253.885C265.34 318.03 235.932 335.769 202.311 342.897C202.302 342.621 202.284 342.348 202.27 342.074C235.842 330.157 264.692 308.374 287.643 239.657C324.377 129.677 334.661 -29.8991 345.308 -168.701C342.439 -175.949 340.977 -179.693 337.978 -187.416C329.71 -44.5715 321.652 114.5 286.093 230.799C264.199 302.403 235.774 326.618 202.246 341.546C202.228 341.273 202.203 341.005 202.18 340.735C235.618 320.935 263.267 293.05 283.35 216.822C316.522 90.9315 321.237 -68.8907 325.395 -216.929C322.116 -223.907 320.443 -227.495 317.02 -234.865C315.553 -85.3753 312.894 77.8322 281.502 208.36C272.955 243.899 263.001 274.8 248.919 295.426C234.346 316.772 218.196 329.219 202.135 340.232C202.108 339.966 202.078 339.703 202.045 339.435C218.153 325.861 234.367 310.94 248.677 286.763C261.894 264.437 270.932 231.043 278.303 195.028C306.366 57.9109 305.668 -111.672 302.849 -262.372C299.206 -268.698 297.395 -271.646 293.508 -278.977C298.592 -127.168 302.29 45.4096 276.18 186.995C269.408 223.719 260.831 258.728 247.916 282.193C233.922 307.616 217.907 323.958 201.983 338.944C201.948 338.686 201.91 338.427 201.87 338.171C217.168 321.286 232.524 303.104 245.806 276.573C258.605 251.007 266.614 213.328 272.604 174.67C295.669 25.8289 286.789 -151.404 277.788 -304.93C273.837 -310.545 271.842 -313.345 267.809 -318.919C279.272 -164.412 291.204 13.9552 270.245 167.219C264.735 207.509 257.06 246.71 244.188 273.801C231.411 300.691 216.585 319.809 201.788 337.703C201.744 337.452 201.702 337.201 201.652 336.955C216.062 317.006 230.475 295.823 242.684 267.17C254.991 238.283 261.796 196.996 266.331 155.941C283.893 -3.07391 267.04 -182.809 251.726 -337.556C247.74 -341.286 245.734 -343.137 241.694 -346.804C259.383 -192.405 279.136 -12.7606 263.811 149.332C259.988 189.78 253.855 231.97 242.331 261.428C230.37 292.002 215.969 314.893 201.553 336.506C201.501 336.267 201.453 336.023 201.395 335.79C215.324 312.211 229.324 287.37 240.577 255.068C251.468 223.807 256.717 180.381 259.643 139.292C271.451 -26.5365 247.163 -204.955 225.813 -357.754C221.936 -359.566 219.992 -360.459 216.089 -362.224C239.631 -210.979 266.591 -34.0749 256.973 133.449C254.595 174.862 249.897 218.927 239.412 251.238C228.602 284.544 214.892 310.594 201.281 335.366C201.221 335.138 201.161 334.911 201.096 334.694C214.173 308.054 227.361 280.113 237.453 245.311C247.274 211.435 251.094 166.565 252.615 124.752C258.77 -44.4587 227.843 -217.809 200.987 -365.715H191.918C220.639 -220.693 254.083 -49.6403 249.847 119.749C248.849 159.647 245.966 204.34 237.237 237.871C227.497 275.285 214.147 305.545 200.974 334.292C200.906 334.078 200.835 333.874 200.764 333.671C213.342 303.084 226.012 270.989 235.005 232.277C243.079 197.525 245.126 152.514 245.357 112.43C246.334 -56.7129 209.637 -222.25 178.111 -362.475C174.852 -360.881 173.227 -360.108 169.987 -358.588C203.08 -221.731 241.546 -60.1323 242.523 108.273C242.756 148.403 241.217 193.497 233.557 228.931C225.027 268.393 212.823 301.577 200.633 333.285C200.558 333.087 200.478 332.909 200.4 332.724C211.952 299.268 223.345 264.445 231.148 223.875C238.147 187.482 238.9 142.431 237.951 102.319C234.014 -64.0473 193.147 -218.707 157.869 -349.704C155.062 -346.82 153.666 -345.415 150.884 -342.676C187.39 -215.273 229.254 -65.7776 235.055 98.9711C236.511 140.342 235.96 184.867 229.198 222.989C222.029 263.4 211.158 298.589 200.255 332.375C200.175 332.195 200.091 332.033 200.007 331.864C210.23 296.495 220.236 259.895 226.673 218.553C232.731 179.649 232.572 135.503 230.426 94.3305C222.029 -66.7993 178.675 -208.497 140.667 -329.405C138.346 -325.55 137.191 -323.68 134.885 -320.038C173.631 -203.196 217.575 -66.6057 227.54 91.8439C230.178 133.788 230.552 178.11 224.74 218.25C218.808 259.215 209.434 295.976 199.849 331.553C199.763 331.393 199.677 331.242 199.586 331.097C218.225 253.392 230.187 181.435 222.849 88.4119C210.736 -65.1534 166.111 -193.505 126.556 -303.648C124.698 -299.134 123.495 -297.225 121.254 -293.352C161.462 -187.261 206.468 -64.3127 219.918 86.6509C223.528 127.175 224.939 169.337 220.717 209.803C216.22 252.895 207.946 292.471 199.418 330.826C199.327 330.686 199.236 330.549 199.142 330.423C214.921 249.829 224.777 174.582 215.221 84.416C199.546 -63.4459 153.595 -174.711 112.758 -276.763C110.745 -272.381 109.699 -270.292 107.535 -266.284C148.484 -167.471 195.428 -61.5243 212.232 83.3418C222.566 172.446 213.649 248.569 198.965 330.199C198.869 330.086 198.775 329.959 198.677 329.858C211.525 247.246 219.086 169.074 207.465 82.1754C188.898 -56.6776 140.074 -156.443 99.1889 -249.451C97.1754 -245.063 96.1216 -242.964 93.9252 -238.917C134.646 -149.863 184.912 -53.0131 204.448 81.7688C216.852 167.353 210.215 246.425 198.491 329.679C198.393 329.582 198.295 329.478 198.195 329.396C208.148 245.06 213.195 165.157 199.537 81.5865C191.383 31.6952 178.233 -8.54599 163.769 -46.787C139.564 -110.783 112.391 -166.709 85.3223 -221.99C83.2143 -217.589 82.1083 -215.463 79.7937 -211.318C106.944 -158.422 134.222 -105.036 158.743 -43.7172C173.453 -6.92511 187.841 32.9208 196.449 81.795C210.913 163.932 206.834 244.509 198.005 329.265C197.904 329.193 197.804 329.117 197.7 329.059C204.632 245.053 207.679 160.874 191.447 82.5741C181.398 34.1009 165.143 -5.62772 149.395 -41.218C124.647 -97.1522 97.5744 -145.678 70.6302 -193.903C68.364 -189.346 67.1752 -187.116 64.6869 -182.697C91.9276 -136.789 119.307 -90.6469 144.491 -37.0752C160.696 -2.59662 177.273 35.9166 188.175 83.2963C205.62 159.116 203.297 245.304 197.505 328.966C197.402 328.917 197.298 328.871 197.194 328.836C201.26 244.604 201.918 157.689 182.751 84.8329C153.033 -28.1244 98.773 -97.6261 54.7977 -163.973C52.3465 -159.03 51.0639 -156.569 48.3849 -151.633C93.2357 -89.1662 148.301 -24.2629 179.447 86.1713C199.521 157.353 199.987 244.195 196.998 328.78C196.893 328.754 196.788 328.739 196.683 328.728C197.945 243.508 195.558 157.892 174.303 88.9244C160.989 45.7274 142.489 13.2274 124.582 -15.2768C96.8306 -59.4534 67.2437 -95.2112 37.7638 -130.556C35.1417 -124.962 33.7748 -122.146 30.9307 -116.414C61.7363 -83.3455 92.657 -49.6711 121.676 -6.6073C139.339 19.6062 157.839 49.7597 170.969 91.149C192.823 160.039 196.659 241.848 196.486 328.708C196.381 328.708 196.276 328.723 196.17 328.737C194.54 240.446 188.81 162.478 165.503 95.5687C151.468 55.2682 133.179 28.1014 114.665 4.21957C84.1919 -35.0898 51.9162 -64.0223 19.7397 -91.9592C17.0026 -85.4744 15.5817 -82.1802 12.638 -75.4426C62.7707 -38.4273 124.008 -1.67853 162.085 98.7729C186.534 163.271 193.207 240.388 195.973 328.752C195.869 328.776 195.765 328.822 195.66 328.858C191.079 240.791 182.896 164.775 156.669 104.621C114.649 8.25076 54.1664 -18.8091 1.19769 -46.8405C-1.56158 -39.3055 -2.9871 -35.4634 -5.92758 -27.5901C48.5845 -5.8179 108.878 15.4452 153.301 108.691C180.626 166.052 189.74 240.977 195.465 328.921C195.361 328.968 195.259 329.035 195.156 329.093C187.568 241.246 177.029 168.697 147.98 115.894C100.07 28.811 39.1706 16.3826 -17.1611 5.46231C-19.8177 14.076 -21.184 18.4694 -23.9899 27.4624C33.0353 31.3238 94.9356 38.5341 144.757 120.752C157.586 141.923 169.277 167.06 176.94 201.784C185.649 241.245 190.581 285.361 194.964 329.215C194.863 329.286 194.763 329.367 194.662 329.452C189.495 287.158 183.811 244.549 174.608 206.969C166.119 172.306 153.372 148.484 139.682 129.156C87.4592 55.4198 22.954 57.2742 -34.4615 64.685C-36.8698 74.2532 -37.9919 79.0088 -40.7831 89.2172C17.0581 75.8536 82.6982 66.1214 136.624 134.73C150.586 152.493 163.947 175.093 172.868 208.969C182.546 245.717 188.771 287.8 194.475 329.615C194.376 329.707 194.278 329.805 194.18 329.912C187.753 289.732 180.83 249.396 170.729 214.511C161.005 180.926 146.655 159.753 131.932 144.123C75.1182 83.8169 7.95393 106.798 -50.6642 130.507C-52.8016 140.886 -53.8676 146.125 -55.99 156.718C2.86827 126.592 70.7275 95.2543 129.095 150.32C143.697 164.095 158.456 183.233 168.489 214.997C179.346 249.372 186.931 289.789 194.002 330.125C193.907 330.239 193.811 330.353 193.718 330.483C185.856 291.312 177.488 251.659 165.889 219.121C155.116 188.907 139.734 171.979 124.799 160.599C64.2428 114.457 -4.13533 158.712 -63.0874 198.96C-64.5077 209.428 -65.2121 214.699 -66.6077 225.311C-7.94706 178.944 60.6919 126.53 122.283 167.219C136.883 176.863 152.854 191.861 163.69 220.197C175.953 252.266 185.02 291.52 193.545 330.745C193.454 330.882 193.361 331.009 193.272 331.161C183.979 293.283 174.139 255.056 161.201 224.989C149.704 198.272 133.304 185.577 118.461 178.173C55.44 146.697 -12.7252 211.07 -70.777 267.03C-71.4673 277.212 -71.807 282.32 -72.4781 292.571C-15.0174 230.859 52.5648 159.441 116.236 185.177C131.203 191.228 147.823 202.482 159.702 228.165C173.033 256.983 183.35 294.459 193.112 331.457C193.025 331.614 192.939 331.773 192.856 331.942C182.36 296.398 171.293 260.333 157.384 233.512C144.94 209.517 128.045 200.542 112.925 196.625C48.6021 179.963 -17.6159 261.841 -73.8066 332.229V356.052C-18.5938 280.617 46.5283 192.77 111.022 203.898C126.212 206.518 143.227 214.088 155.993 237.019C170.238 262.601 181.759 297.666 192.704 332.267C192.622 332.445 192.544 332.63 192.467 332.817C180.822 299.784 168.603 266.503 153.864 242.88C140.633 221.675 123.497 216.298 108.236 215.69C43.8377 213.126 -19.1869 309.509 -72.5753 392.32C-71.9713 400.879 -71.6741 405.147 -71.0954 413.657C-18.989 326.733 42.5359 225.7 106.652 223.133C121.931 222.523 139.098 226.565 152.589 246.684C167.614 269.089 180.247 301.143 192.32 333.162C192.244 333.358 192.176 333.568 192.106 333.772C179.368 303.432 166.111 273.507 150.664 253.011C136.808 234.628 119.658 232.65 104.386 235.144C41.0454 245.494 -17.8385 352.823 -67.7117 445.483C-66.6135 452.854 -66.0788 456.523 -65.0367 463.83C-16.5303 367.944 40.3864 257.986 103.11 242.751C118.861 238.926 135.814 240.371 150.327 258.134C165.712 276.963 179.11 305.519 191.973 334.152C191.904 334.364 191.842 334.586 191.778 334.805C178.312 307.954 164.378 281.672 148.638 264.765C133.826 248.855 117.019 249.274 101.343 254.908C39.9969 276.964 -13.9508 390.839 -59.9835 490.667C-58.5166 496.762 -57.8035 499.797 -56.4169 505.854C-11.9328 404.084 40.0709 288.664 100.396 262.487C116.366 255.559 133.24 254.576 148.522 269.842C164.119 285.424 178.115 310.045 191.66 335.225C191.599 335.453 191.54 335.683 191.485 335.914C161.901 286.961 134.504 255.541 99.0888 274.814C40.6237 306.625 -8.24275 423.836 -50.1769 527.728C-48.458 532.61 -47.732 535.77 -46.2568 541.655C-5.86574 436.048 40.9441 317.835 98.4195 282.513C113.848 273.032 129.9 269.326 145.306 280.416C161.713 292.227 176.78 313.956 191.383 336.357C191.33 336.596 191.277 336.836 191.229 337.081C160.546 295.638 131.897 269.75 97.5686 294.853C41.2738 336.02 -1.08583 456.715 -39.9415 563.977C-38.2732 569.268 -37.4776 572.012 -35.9526 577.696C1.66998 470.139 42.0058 346.837 97.1596 302.702C131.083 275.557 160.068 298.976 191.145 337.55C191.1 337.8 191.053 338.048 191.013 338.304C159.562 304.559 129.8 284.7 96.7161 315.222C43.851 363.99 5.86772 492.234 -29.5426 599.618C-27.8721 604.91 -27.073 607.674 -25.5319 613.443C8.37301 506.484 45.246 374.459 96.5611 323.147C129.145 290.57 159.25 307.998 190.946 338.79C190.91 339.05 190.87 339.306 190.839 339.571C158.73 313.42 128.308 300.162 96.4914 336.038C77.4984 357.453 62.1767 391.993 47.6169 429.983C23.2512 493.563 1.95935 564.936 -19.088 636.033C-17.4122 641.571 -16.6031 644.474 -15.0249 650.553C5.11296 579.242 25.4395 507.594 48.7862 443.188C62.7917 404.551 77.9629 366.756 96.5706 344.154C127.842 306.163 158.52 316.877 190.789 340.065C190.76 340.332 190.731 340.597 190.71 340.868C158.727 322.663 126.678 314.657 96.8671 357.292C78.4119 383.687 63.2867 426.383 49.7365 467.742C28.4418 532.743 9.96622 603.851 -8.39462 674.622C-6.65961 680.575 -5.81081 683.697 -4.12814 690.227C13.3505 618.683 30.9155 546.769 51.3139 480.622C64.4392 438.056 79.1034 394.516 97.1421 365.883C126.009 320.064 158.822 326.166 190.675 341.378C190.656 341.649 190.638 341.922 190.625 342.196C158.556 331.515 125.465 329.787 97.7271 380.127C54.7218 458.185 28.2606 600.704 3.00086 716.207C4.88257 722.645 5.81767 726.016 7.69965 733.051C31.481 615.247 56.1919 470.608 98.2371 388.808C125.338 336.082 158.4 334.855 190.604 342.708C190.594 342.983 190.588 343.259 190.584 343.535C158.139 340.22 125.543 346.489 99.2849 402.319C82.8389 437.288 70.464 485.883 59.6133 532.913C42.7942 605.804 29.1816 683.517 15.7238 760.947C17.8523 767.833 18.9257 771.426 21.1077 778.894C33.6975 697.983 46.5185 616.768 62.9148 540.544C72.8942 494.15 84.3743 445.559 100.131 411.074C126.359 353.672 157.506 343.596 190.576 344.052C190.576 344.329 190.582 344.603 190.587 344.88C156.973 349.162 127.288 364.21 101.814 425.428C86.4729 462.294 76.1284 510.33 67.036 558.959C52.0704 638.999 41.0543 723.774 30.4179 808.288C32.8869 815.478 34.141 819.209 36.7081 826.941C50.7988 695.264 64.7901 534.419 103.035 434.41C127.59 370.196 156.951 352.662 190.594 345.398C190.602 345.674 190.62 345.947 190.634 346.221C157.104 358.253 128.163 379.747 105.261 448.636C68.5705 559.004 58.2695 717.867 47.5959 856.992C50.4648 864.24 51.9274 867.983 54.926 875.707C63.2142 732.526 71.3097 574.164 106.812 457.482C128.651 385.706 157.177 361.772 190.659 346.735C190.677 347.008 190.701 347.276 190.725 347.546C157.277 367.48 129.657 395.16 109.555 471.459C76.3994 597.296 71.6678 757.253 67.5103 905.218C70.7893 912.196 72.4625 915.784 75.8859 923.154C77.356 773.374 80.1009 610.788 111.403 479.929C119.464 446.232 129.035 415.524 142.253 395.398C157.278 372.522 174.076 359.568 190.77 348.057C190.797 348.323 190.828 348.588 190.86 348.854C174.757 362.425 158.535 377.354 144.228 401.526C131.03 423.822 121.961 457.303 114.601 493.261C86.5278 630.418 87.2342 799.847 90.0562 950.652C93.6988 956.978 95.5098 959.926 99.3965 967.257C94.3086 815.332 90.6033 642.929 116.724 501.286C123.487 464.615 132.092 429.524 144.989 406.088C158.98 380.67 175.002 364.319 190.922 349.337C190.957 349.596 190.994 349.854 191.035 350.11C175.738 366.993 160.38 385.177 147.099 411.707C134.313 437.247 126.251 474.937 120.301 513.609C97.3405 662.834 106.09 839.245 115.117 993.211C119.068 998.825 121.063 1001.62 125.096 1007.2C113.627 852.604 101.695 674.362 122.66 521.061C127.905 482.708 135.191 443.946 147.284 417.59C160.372 389.071 175.76 369.15 191.116 350.582C191.16 350.833 191.203 351.083 191.253 351.329C176.339 371.977 161.242 393.957 148.856 424.424C137.352 452.714 130.907 493.117 126.575 532.343C109.007 691.398 125.856 870.998 141.18 1025.84C145.165 1029.57 147.172 1031.42 151.212 1035.09C133.559 881.01 113.604 700.725 129.093 538.949C132.765 500.603 138.475 458.653 149.263 430.192C161.473 397.983 176.418 374.167 191.352 351.777C191.404 352.016 191.452 352.26 191.509 352.493C177.089 376.901 162.534 402.746 151.088 436.732C140.916 466.93 136.084 510.006 133.262 548.99C121.278 714.521 145.786 893.56 167.092 1046.04C170.969 1047.85 172.913 1048.74 176.816 1050.51C153.323 899.582 126.132 722.072 135.931 554.834C138.234 515.523 142.519 471.871 152.297 440.668C163.27 405.655 177.535 378.557 191.623 352.916C191.683 353.144 191.743 353.372 191.808 353.587C178.274 381.152 164.545 410.223 154.333 446.757C145.198 479.443 141.781 523.815 140.289 563.531C133.946 732.48 165.12 906.406 191.918 1054H200.987C172.205 908.662 139.014 738.174 143.058 568.534C144.059 526.543 147.339 481.304 156.738 446.528C166.378 410.857 179.202 381.77 191.931 353.991C191.999 354.205 192.07 354.409 192.141 354.612C179.99 384.163 167.811 415.016 158.888 451.978C150.177 488.067 147.742 533.685 147.548 575.852C146.768 745.215 183.2 910.229 214.794 1050.76C218.053 1049.16 219.678 1048.39 222.918 1046.87C189.754 909.715 151.556 748.619 150.382 580.01C150.088 537.798 152.009 492.073 160.285 455.237C168.757 417.528 180.498 385.623 192.273 354.998C192.347 355.196 192.427 355.374 192.505 355.56C181.354 387.857 170.369 421.355 162.61 460.168C155.035 498.059 153.908 543.776 154.956 585.963C159.092 752.511 199.68 906.706 235.036 1037.99C237.842 1035.1 239.239 1033.7 242.021 1030.96C205.538 903.636 163.649 754.01 157.851 589.311C156.329 546.092 157.09 500.302 164.505 460.884C171.758 422.33 182.118 388.545 192.65 355.907C192.73 356.087 192.815 356.249 192.898 356.419C183.049 390.497 173.393 425.695 166.938 465.215C160.33 505.669 160.229 550.807 162.478 593.953C170.873 755.036 214.252 896.853 252.238 1017.69C254.558 1013.83 255.714 1011.96 258.02 1008.32C219.392 891.836 175.156 754.694 165.365 596.442C162.766 554.446 162.344 510.223 168.165 470.035C174.097 429.071 183.47 392.312 193.056 356.733C193.142 356.893 193.228 357.044 193.318 357.189C174.68 434.901 162.714 506.816 170.056 599.874C182.164 753.366 226.827 881.881 266.349 991.928C268.208 987.414 269.41 985.505 271.651 981.632C231.475 875.629 186.431 752.532 172.987 601.633C169.372 561.059 167.961 518.993 172.189 478.481C176.686 435.381 184.956 395.821 193.487 357.457C193.578 357.598 193.669 357.734 193.762 357.861C177.915 438.534 168.216 513.606 177.685 603.866C193.191 751.668 239.4 863.213 280.147 965.046C282.161 960.662 283.206 958.574 285.37 954.566C244.397 855.695 197.484 749.884 180.673 604.942C170.347 515.926 179.22 439.604 193.94 358.083C194.036 358.197 194.13 358.323 194.228 358.425C181.317 441.1 173.913 519.148 185.44 606.105C203.832 744.852 252.945 844.988 293.716 937.734C295.73 933.347 296.783 931.248 298.98 927.201C258.376 838.405 207.819 741.183 188.457 606.515C176.144 520.872 182.628 441.924 194.412 358.603C194.511 358.7 194.609 358.804 194.71 358.886C184.715 443.124 179.724 523.213 193.367 606.696C201.52 656.571 214.675 696.839 229.135 735.069C253.339 799.062 280.517 854.998 307.582 910.273C309.691 905.872 310.796 903.749 313.111 899.603C285.963 846.713 258.681 793.315 234.162 732C219.45 695.207 205.064 655.366 196.457 606.488C182.008 524.439 186.03 443.679 194.9 359.018C195.002 359.091 195.102 359.166 195.206 359.224C188.204 443.464 185.358 527.141 201.459 605.709C210.81 651.345 225.999 689.305 240.667 723.086C266.15 781.773 294.314 832.142 322.274 882.186C324.541 877.63 325.729 875.4 328.218 870.981C299.944 823.33 271.458 775.438 245.507 719.186C230.411 686.464 214.866 649.612 204.73 604.986C187.428 528.814 189.537 443.278 195.399 359.316C195.503 359.367 195.607 359.411 195.711 359.446C191.584 443.873 191.084 530.36 210.154 603.449C239.625 716.408 294.302 786.168 338.109 852.256C340.56 847.315 341.842 844.852 344.521 839.916C299.844 777.693 244.36 712.568 213.46 602.112C193.48 530.692 192.861 444.288 195.908 359.506C196.013 359.531 196.118 359.545 196.223 359.557C194.906 445.123 197.48 529.962 218.604 599.36C231.004 640.099 248.41 671.302 265.114 698.459C293.765 745.04 324.542 782.152 355.141 818.838C357.764 813.245 359.13 810.428 361.975 804.696C331.172 771.63 300.248 737.947 271.229 694.89C253.56 668.668 235.068 638.534 221.936 597.135C200.105 528.314 196.196 446.379 196.419 359.576C196.524 359.576 196.629 359.561 196.735 359.548C198.314 447.779 204.12 525.878 227.402 592.716C241.439 633.009 259.725 660.179 278.241 684.062C308.712 723.37 340.991 752.309 373.165 780.243C375.902 773.758 377.323 770.464 380.267 763.726C330.163 726.736 268.885 689.936 230.82 589.515C206.399 525.088 199.645 447.846 196.931 359.536C197.036 359.515 197.14 359.468 197.244 359.43C201.782 447.608 210.075 523.385 236.237 583.667C278.109 680.147 338.865 707.163 391.707 735.128C394.467 727.594 395.891 723.751 398.833 715.878C344.445 694.15 283.882 672.988 239.604 579.584C212.343 522.083 203.122 447.423 197.44 359.357C197.544 359.311 197.646 359.244 197.749 359.185C205.286 447.008 215.904 519.635 244.926 572.388C292.856 659.511 353.706 671.895 410.066 682.82C412.723 674.206 414.089 669.813 416.895 660.821C359.981 656.966 297.843 649.984 248.148 567.531C234.618 545.083 222.854 518.936 215.001 481.949C206.874 443.676 202.135 401.255 197.942 359.069C198.044 358.999 198.144 358.918 198.245 358.832C203.413 401.137 209.094 443.729 218.298 481.316C226.8 516.032 239.511 539.768 253.224 559.13C305.428 632.839 369.992 631.006 427.368 623.602C429.776 614.034 430.898 609.278 433.69 599.07C375.892 612.422 310.187 622.138 256.283 553.557C242.3 535.768 228.972 513.24 220.038 479.318C210.359 442.563 204.137 400.494 198.431 358.672C198.53 358.579 198.628 358.482 198.726 358.374C205.155 398.557 212.077 438.89 222.178 473.777C231.912 507.392 246.257 528.429 260.975 544.164C317.643 604.746 385.12 581.422 443.571 557.779C445.708 547.401 446.775 542.162 448.897 531.569C390.072 561.676 322.163 593.018 263.812 537.967C248.472 523.494 233.548 503.34 223.233 469.527C212.996 435.967 205.716 397.024 198.906 358.161C199.001 358.047 199.097 357.934 199.191 357.804C206.786 395.651 214.85 433.51 225.76 465.576C236.757 497.903 252.476 515.776 268.107 527.687C328.646 573.82 397.078 529.551 455.994 489.327C457.414 478.859 458.119 473.588 459.514 462.977C400.731 509.441 332.336 561.323 270.623 521.069C255.223 511.025 239.16 494.916 227.946 464.648C216.305 433.232 207.59 395.407 199.361 357.543C199.453 357.406 199.545 357.279 199.634 357.128C208.609 393.713 218.069 430.485 230.367 460.042C242.269 488.649 258.803 502.435 274.446 510.119C337.581 541.134 405.509 477.34 463.684 421.263C464.374 411.081 464.714 405.973 465.385 395.721C407.803 457.557 340.451 528.369 276.67 503.107C260.904 496.862 244.127 484.526 231.825 456.981C219.145 428.589 209.227 392.577 199.795 356.826C199.881 356.669 199.968 356.511 200.051 356.341C210.194 390.69 220.831 425.33 234.082 451.833C246.98 477.631 264.062 487.663 279.982 491.658C344.402 507.822 410.401 426.591 466.712 356.052Z" fill="url(#paint1_radial_2111_90530)"/>
<path d="M196.453 946.507C323.112 946.507 425.789 676.818 425.789 344.141C425.789 11.4636 323.112 -258.225 196.453 -258.225C69.7944 -258.225 -32.8828 11.4636 -32.8828 344.141C-32.8828 676.818 69.7944 946.507 196.453 946.507Z" stroke="#F3F3F3" stroke-linecap="round" stroke-linejoin="round"/>
<path d="M196.453 936.844C321.08 936.844 422.111 671.481 422.111 344.139C422.111 16.7968 321.08 -248.566 196.453 -248.566C71.8254 -248.566 -29.2051 16.7968 -29.2051 344.139C-29.2051 671.481 71.8254 936.844 196.453 936.844Z" stroke="#F3F3F3" stroke-width="1.066" stroke-linecap="round" stroke-linejoin="round"/>
<path d="M196.453 927.187C319.049 927.187 418.432 666.149 418.432 344.142C418.432 22.1342 319.049 -238.904 196.453 -238.904C73.8564 -238.904 -25.5273 22.1342 -25.5273 344.142C-25.5273 666.149 73.8564 927.187 196.453 927.187Z" stroke="#F3F3F3" stroke-width="1.131" stroke-linecap="round" stroke-linejoin="round"/>
<path d="M196.452 917.529C317.017 917.529 414.754 660.815 414.754 344.143C414.754 27.4712 317.017 -229.242 196.452 -229.242C75.8875 -229.242 -21.8496 27.4712 -21.8496 344.143C-21.8496 660.815 75.8875 917.529 196.452 917.529Z" stroke="#F3F3F3" stroke-width="1.197" stroke-linecap="round" stroke-linejoin="round"/>
<path d="M196.452 907.868C314.986 907.868 411.076 655.48 411.076 344.143C411.076 32.8062 314.986 -219.582 196.452 -219.582C77.9185 -219.582 -18.1719 32.8062 -18.1719 344.143C-18.1719 655.48 77.9185 907.868 196.452 907.868Z" stroke="#F3F3F3" stroke-width="1.262" stroke-linecap="round" stroke-linejoin="round"/>
<path d="M196.452 898.205C312.954 898.205 407.398 650.142 407.398 344.141C407.398 38.1393 312.954 -209.924 196.452 -209.924C79.9497 -209.924 -14.4941 38.1393 -14.4941 344.141C-14.4941 650.142 79.9497 898.205 196.452 898.205Z" stroke="#F3F3F3" stroke-width="1.328" stroke-linecap="round" stroke-linejoin="round"/>
<path d="M196.454 888.544C310.925 888.544 403.722 644.806 403.722 344.14C403.722 43.4743 310.925 -200.264 196.454 -200.264C81.9827 -200.264 -10.8145 43.4743 -10.8145 344.14C-10.8145 644.806 81.9827 888.544 196.454 888.544Z" stroke="#F3F3F3" stroke-width="1.393" stroke-linecap="round" stroke-linejoin="round"/>
<path d="M196.454 878.883C308.893 878.883 400.044 639.47 400.044 344.14C400.044 48.8092 308.893 -190.604 196.454 -190.604C84.0138 -190.604 -7.13672 48.8092 -7.13672 344.14C-7.13672 639.47 84.0138 878.883 196.454 878.883Z" stroke="#F3F3F3" stroke-width="1.459" stroke-linecap="round" stroke-linejoin="round"/>
<path d="M196.453 869.225C306.862 869.225 396.366 634.137 396.366 344.142C396.366 54.1463 306.862 -180.941 196.453 -180.941C86.0448 -180.941 -3.45898 54.1463 -3.45898 344.142C-3.45898 634.137 86.0448 869.225 196.453 869.225Z" stroke="#F3F3F3" stroke-width="1.525" stroke-linecap="round" stroke-linejoin="round"/>
<path d="M196.453 859.562C304.83 859.562 392.688 628.799 392.688 344.139C392.688 59.4793 304.83 -171.283 196.453 -171.283C88.0759 -171.283 0.21875 59.4793 0.21875 344.139C0.21875 628.799 88.0759 859.562 196.453 859.562Z" stroke="#F3F3F3" stroke-width="1.59" stroke-linecap="round" stroke-linejoin="round"/>
<path d="M196.453 849.907C302.799 849.907 389.01 623.469 389.01 344.144C389.01 64.8188 302.799 -161.619 196.453 -161.619C90.107 -161.619 3.89648 64.8188 3.89648 344.144C3.89648 623.469 90.107 849.907 196.453 849.907Z" stroke="#F3F3F3" stroke-width="1.656" stroke-linecap="round" stroke-linejoin="round"/>
<path d="M196.453 840.242C300.768 840.242 385.332 618.13 385.332 344.14C385.332 70.1498 300.768 -151.963 196.453 -151.963C92.1381 -151.963 7.57422 70.1498 7.57422 344.14C7.57422 618.13 92.1381 840.242 196.453 840.242Z" stroke="#F3F3F3" stroke-width="1.721" stroke-linecap="round" stroke-linejoin="round"/>
<path d="M196.453 830.584C298.736 830.584 381.653 612.796 381.653 344.141C381.653 75.4868 298.736 -142.301 196.453 -142.301C94.1691 -142.301 11.252 75.4868 11.252 344.141C11.252 612.796 94.1691 830.584 196.453 830.584Z" stroke="#F3F3F3" stroke-width="1.787" stroke-linecap="round" stroke-linejoin="round"/>
<path d="M196.452 820.925C296.705 820.925 377.975 607.462 377.975 344.143C377.975 80.8238 296.705 -132.639 196.452 -132.639C96.2002 -132.639 14.9297 80.8238 14.9297 344.143C14.9297 607.462 96.2002 820.925 196.452 820.925Z" stroke="#F3F3F3" stroke-width="1.852" stroke-linecap="round" stroke-linejoin="round"/>
<path d="M196.452 811.264C294.673 811.264 374.297 602.127 374.297 344.143C374.297 86.1588 294.673 -122.979 196.452 -122.979C98.2312 -122.979 18.6074 86.1588 18.6074 344.143C18.6074 602.127 98.2312 811.264 196.452 811.264Z" stroke="#F3F3F3" stroke-width="1.918" stroke-linecap="round" stroke-linejoin="round"/>
<path d="M196.454 801.601C292.644 801.601 370.621 596.789 370.621 344.14C370.621 91.4919 292.644 -113.32 196.454 -113.32C100.264 -113.32 22.2871 91.4919 22.2871 344.14C22.2871 596.789 100.264 801.601 196.454 801.601Z" stroke="#F3F3F3" stroke-width="1.984" stroke-linecap="round" stroke-linejoin="round"/>
<path d="M196.454 791.943C290.612 791.943 366.943 591.455 366.943 344.141C366.943 96.8274 290.612 -103.66 196.454 -103.66C102.295 -103.66 25.9648 96.8274 25.9648 344.141C25.9648 591.455 102.295 791.943 196.454 791.943Z" stroke="#F3F3F3" stroke-width="2.049" stroke-linecap="round" stroke-linejoin="round"/>
<path d="M196.454 782.282C288.581 782.282 363.265 586.12 363.265 344.141C363.265 102.162 288.581 -94 196.454 -94C104.326 -94 29.6426 102.162 29.6426 344.141C29.6426 586.12 104.326 782.282 196.454 782.282Z" stroke="#F3F3F3" stroke-width="2.115" stroke-linecap="round" stroke-linejoin="round"/>
<path d="M196.453 772.623C286.549 772.623 359.587 580.786 359.587 344.143C359.587 107.499 286.549 -84.3379 196.453 -84.3379C106.358 -84.3379 33.3203 107.499 33.3203 344.143C33.3203 580.786 106.358 772.623 196.453 772.623Z" stroke="#F3F3F3" stroke-width="2.18" stroke-linecap="round" stroke-linejoin="round"/>
<path d="M196.453 762.962C284.518 762.962 355.908 575.45 355.908 344.142C355.908 112.834 284.518 -74.6777 196.453 -74.6777C108.389 -74.6777 36.998 112.834 36.998 344.142C36.998 575.45 108.389 762.962 196.453 762.962Z" stroke="#F3F3F3" stroke-width="2.246" stroke-linecap="round" stroke-linejoin="round"/>
<path d="M196.453 753.301C282.486 753.301 352.23 570.115 352.23 344.142C352.23 118.169 282.486 -65.0176 196.453 -65.0176C110.42 -65.0176 40.6758 118.169 40.6758 344.142C40.6758 570.115 110.42 753.301 196.453 753.301Z" stroke="#F3F3F3" stroke-width="2.311" stroke-linecap="round" stroke-linejoin="round"/>
<path d="M196.453 743.639C280.455 743.639 348.552 564.777 348.552 344.14C348.552 123.502 280.455 -55.3594 196.453 -55.3594C112.451 -55.3594 44.3535 123.502 44.3535 344.14C44.3535 564.777 112.451 743.639 196.453 743.639Z" stroke="#F3F3F3" stroke-width="2.377" stroke-linecap="round" stroke-linejoin="round"/>
<path d="M196.453 733.98C278.424 733.98 344.874 559.443 344.874 344.141C344.874 128.839 278.424 -45.6973 196.453 -45.6973C114.482 -45.6973 48.0312 128.839 48.0312 344.141C48.0312 559.443 114.482 733.98 196.453 733.98Z" stroke="#F3F3F3" stroke-width="2.443" stroke-linecap="round" stroke-linejoin="round"/>
<path d="M196.453 724.319C276.392 724.319 341.196 554.108 341.196 344.141C341.196 134.174 276.392 -36.0371 196.453 -36.0371C116.513 -36.0371 51.709 134.174 51.709 344.141C51.709 554.108 116.513 724.319 196.453 724.319Z" stroke="#F3F3F3" stroke-width="2.508" stroke-linecap="round" stroke-linejoin="round"/>
<path d="M196.454 714.663C274.363 714.663 337.52 548.776 337.52 344.144C337.52 139.512 274.363 -26.375 196.454 -26.375C118.546 -26.375 55.3887 139.512 55.3887 344.144C55.3887 548.776 118.546 714.663 196.454 714.663Z" stroke="#F3F3F3" stroke-width="2.574" stroke-linecap="round" stroke-linejoin="round"/>
<path d="M196.452 705C272.329 705 333.84 543.438 333.84 344.141C333.84 144.845 272.329 -16.7168 196.452 -16.7168C120.575 -16.7168 59.0645 144.845 59.0645 344.141C59.0645 543.438 120.575 705 196.452 705Z" stroke="#F3F3F3" stroke-width="2.639" stroke-linecap="round" stroke-linejoin="round"/>
<path d="M196.454 695.339C270.3 695.339 330.164 538.102 330.164 344.141C330.164 150.18 270.3 -7.05664 196.454 -7.05664C122.608 -7.05664 62.7441 150.18 62.7441 344.141C62.7441 538.102 122.608 695.339 196.454 695.339Z" stroke="#F3F3F3" stroke-width="2.705" stroke-linecap="round" stroke-linejoin="round"/>
<path d="M196.454 685.676C268.268 685.676 326.486 532.765 326.486 344.139C326.486 155.513 268.268 2.60156 196.454 2.60156C124.639 2.60156 66.4219 155.513 66.4219 344.139C66.4219 532.765 124.639 685.676 196.454 685.676Z" stroke="#F3F3F3" stroke-width="2.77" stroke-linecap="round" stroke-linejoin="round"/>
<path d="M196.454 676.019C266.237 676.019 322.807 527.433 322.807 344.142C322.807 160.852 266.237 12.2656 196.454 12.2656C126.67 12.2656 70.0996 160.852 70.0996 344.142C70.0996 527.433 126.67 676.019 196.454 676.019Z" stroke="#F3F3F3" stroke-width="2.836" stroke-linecap="round" stroke-linejoin="round"/>
<path d="M196.453 666.355C264.205 666.355 319.129 522.093 319.129 344.138C319.129 166.183 264.205 21.9219 196.453 21.9219C128.701 21.9219 73.7773 166.183 73.7773 344.138C73.7773 522.093 128.701 666.355 196.453 666.355Z" stroke="#F3F3F3" stroke-width="2.902" stroke-linecap="round" stroke-linejoin="round"/>
<path d="M196.453 656.702C262.174 656.702 315.451 516.765 315.451 344.145C315.451 171.524 262.174 31.5879 196.453 31.5879C130.732 31.5879 77.4551 171.524 77.4551 344.145C77.4551 516.765 130.732 656.702 196.453 656.702Z" stroke="#F3F3F3" stroke-width="2.967" stroke-linecap="round" stroke-linejoin="round"/>
<path d="M196.453 647.041C260.142 647.041 311.773 511.43 311.773 344.145C311.773 176.859 260.142 41.248 196.453 41.248C132.763 41.248 81.1328 176.859 81.1328 344.145C81.1328 511.43 132.763 647.041 196.453 647.041Z" stroke="#F3F3F3" stroke-width="3.033" stroke-linecap="round" stroke-linejoin="round"/>
<path d="M196.453 637.38C258.111 637.38 308.095 506.094 308.095 344.144C308.095 182.194 258.111 50.9082 196.453 50.9082C134.795 50.9082 84.8105 182.194 84.8105 344.144C84.8105 506.094 134.795 637.38 196.453 637.38Z" stroke="#F3F3F3" stroke-width="3.098" stroke-linecap="round" stroke-linejoin="round"/>
<path d="M196.453 627.714C256.08 627.714 304.417 500.753 304.417 344.138C304.417 187.524 256.08 60.5625 196.453 60.5625C136.826 60.5625 88.4883 187.524 88.4883 344.138C88.4883 500.753 136.826 627.714 196.453 627.714Z" stroke="#F3F3F3" stroke-width="3.164" stroke-linecap="round" stroke-linejoin="round"/>
<path d="M196.452 618.057C254.048 618.057 300.739 495.421 300.739 344.142C300.739 192.863 254.048 70.2266 196.452 70.2266C138.857 70.2266 92.166 192.863 92.166 344.142C92.166 495.421 138.857 618.057 196.452 618.057Z" stroke="#F3F3F3" stroke-width="3.23" stroke-linecap="round" stroke-linejoin="round"/>
<path d="M196.452 608.398C252.017 608.398 297.06 490.087 297.06 344.143C297.06 198.2 252.017 79.8887 196.452 79.8887C140.888 79.8887 95.8438 198.2 95.8438 344.143C95.8438 490.087 140.888 608.398 196.452 608.398Z" stroke="#F3F3F3" stroke-width="3.295" stroke-linecap="round" stroke-linejoin="round"/>
<path d="M196.452 598.735C249.985 598.735 293.382 484.749 293.382 344.141C293.382 203.533 249.985 89.5469 196.452 89.5469C142.919 89.5469 99.5215 203.533 99.5215 344.141C99.5215 484.749 142.919 598.735 196.452 598.735Z" stroke="#F3F3F3" stroke-width="3.361" stroke-linecap="round" stroke-linejoin="round"/>
<path d="M196.453 589.042C247.923 589.042 289.647 479.396 289.647 344.141C289.647 208.886 247.923 99.2402 196.453 99.2402C144.984 99.2402 103.26 208.886 103.26 344.141C103.26 479.396 144.984 589.042 196.453 589.042Z" stroke="#F3F3F3" stroke-width="3.426" stroke-linecap="round" stroke-linejoin="round"/>
<path d="M196.454 579.416C245.924 579.416 286.028 474.08 286.028 344.142C286.028 214.203 245.924 108.867 196.454 108.867C146.983 108.867 106.879 214.203 106.879 344.142C106.879 474.08 146.983 579.416 196.454 579.416Z" stroke="#F3F3F3" stroke-width="3.492" stroke-linecap="round" stroke-linejoin="round"/>
<path d="M196.453 569.757C243.893 569.757 282.35 468.746 282.35 344.143C282.35 219.54 243.893 118.529 196.453 118.529C149.014 118.529 110.557 219.54 110.557 344.143C110.557 468.746 149.014 569.757 196.453 569.757Z" stroke="#F3F3F3" stroke-width="3.557" stroke-linecap="round" stroke-linejoin="round"/>
<path d="M196.453 560.094C241.861 560.094 278.672 463.409 278.672 344.141C278.672 224.873 241.861 128.188 196.453 128.188C151.045 128.188 114.234 224.873 114.234 344.141C114.234 463.409 151.045 560.094 196.453 560.094Z" stroke="#F3F3F3" stroke-width="3.623" stroke-linecap="round" stroke-linejoin="round"/>
<path d="M196.453 550.435C239.83 550.435 274.994 458.075 274.994 344.143C274.994 230.21 239.83 137.85 196.453 137.85C153.076 137.85 117.912 230.21 117.912 344.143C117.912 458.075 153.076 550.435 196.453 550.435Z" stroke="#F3F3F3" stroke-width="3.689" stroke-linecap="round" stroke-linejoin="round"/>
<path d="M196.453 540.771C237.798 540.771 271.315 452.735 271.315 344.138C271.315 235.541 237.798 147.506 196.453 147.506C155.107 147.506 121.59 235.541 121.59 344.138C121.59 452.735 155.107 540.771 196.453 540.771Z" stroke="#F3F3F3" stroke-width="3.754" stroke-linecap="round" stroke-linejoin="round"/>
<path d="M196.453 531.114C235.767 531.114 267.638 447.404 267.638 344.142C267.638 240.88 235.767 157.17 196.453 157.17C157.138 157.17 125.268 240.88 125.268 344.142C125.268 447.404 157.138 531.114 196.453 531.114Z" stroke="#F3F3F3" stroke-width="3.82" stroke-linecap="round" stroke-linejoin="round"/>
<path d="M196.452 521.453C233.736 521.453 263.96 442.068 263.96 344.142C263.96 246.215 233.736 166.83 196.452 166.83C159.169 166.83 128.945 246.215 128.945 344.142C128.945 442.068 159.169 521.453 196.452 521.453Z" stroke="#F3F3F3" stroke-width="3.885" stroke-linecap="round" stroke-linejoin="round"/>
<path d="M196.452 511.791C231.704 511.791 260.281 436.73 260.281 344.138C260.281 251.547 231.704 176.486 196.452 176.486C161.2 176.486 132.623 251.547 132.623 344.138C132.623 436.73 161.2 511.791 196.452 511.791Z" stroke="#F3F3F3" stroke-width="3.951" stroke-linecap="round" stroke-linejoin="round"/>
<path d="M196.452 502.132C229.673 502.132 256.603 431.396 256.603 344.14C256.603 256.884 229.673 186.148 196.452 186.148C163.231 186.148 136.301 256.884 136.301 344.14C136.301 431.396 163.231 502.132 196.452 502.132Z" stroke="#F3F3F3" stroke-width="4.016" stroke-linecap="round" stroke-linejoin="round"/>
<path d="M196.454 492.477C227.643 492.477 252.927 426.067 252.927 344.146C252.927 262.225 227.643 195.814 196.454 195.814C165.264 195.814 139.98 262.225 139.98 344.146C139.98 426.067 165.264 492.477 196.454 492.477Z" stroke="#F3F3F3" stroke-width="4.082" stroke-linecap="round" stroke-linejoin="round"/>
<path d="M196.454 482.812C225.612 482.812 249.249 420.727 249.249 344.141C249.249 267.556 225.612 205.471 196.454 205.471C167.296 205.471 143.658 267.556 143.658 344.141C143.658 420.727 167.296 482.812 196.454 482.812Z" stroke="#F3F3F3" stroke-width="4.148" stroke-linecap="round" stroke-linejoin="round"/>
<path d="M196.453 473.153C223.58 473.153 245.571 415.393 245.571 344.143C245.571 272.893 223.58 215.133 196.453 215.133C169.327 215.133 147.336 272.893 147.336 344.143C147.336 415.393 169.327 473.153 196.453 473.153Z" stroke="#F3F3F3" stroke-width="4.213" stroke-linecap="round" stroke-linejoin="round"/>
<path d="M196.453 463.491C221.549 463.491 241.893 410.056 241.893 344.141C241.893 278.226 221.549 224.791 196.453 224.791C171.358 224.791 151.014 278.226 151.014 344.141C151.014 410.056 171.358 463.491 196.453 463.491Z" stroke="#F3F3F3" stroke-width="4.279" stroke-linecap="round" stroke-linejoin="round"/>
<path d="M196.453 453.83C219.517 453.83 238.215 404.72 238.215 344.14C238.215 283.561 219.517 234.451 196.453 234.451C173.389 234.451 154.691 283.561 154.691 344.14C154.691 404.72 173.389 453.83 196.453 453.83Z" stroke="#F3F3F3" stroke-width="4.344" stroke-linecap="round" stroke-linejoin="round"/>
<path d="M196.453 444.175C217.486 444.175 234.536 399.39 234.536 344.145C234.536 288.9 217.486 244.115 196.453 244.115C175.42 244.115 158.369 288.9 158.369 344.145C158.369 399.39 175.42 444.175 196.453 444.175Z" stroke="#F3F3F3" stroke-width="4.41" stroke-linecap="round" stroke-linejoin="round"/>
<path d="M196.453 434.512C215.455 434.512 230.859 394.053 230.859 344.143C230.859 294.233 215.455 253.773 196.453 253.773C177.451 253.773 162.047 294.233 162.047 344.143C162.047 394.053 177.451 434.512 196.453 434.512Z" stroke="#F3F3F3" stroke-width="4.475" stroke-linecap="round" stroke-linejoin="round"/>
<path d="M196.453 424.848C213.423 424.848 227.181 388.713 227.181 344.139C227.181 299.564 213.423 263.43 196.453 263.43C179.482 263.43 165.725 299.564 165.725 344.139C165.725 388.713 179.482 424.848 196.453 424.848Z" stroke="#F3F3F3" stroke-width="4.541" stroke-linecap="round" stroke-linejoin="round"/>
<path d="M196.452 415.189C211.392 415.189 223.502 383.379 223.502 344.14C223.502 304.901 211.392 273.092 196.452 273.092C181.513 273.092 169.402 304.901 169.402 344.14C169.402 383.379 181.513 415.189 196.452 415.189Z" stroke="#F3F3F3" stroke-width="4.607" stroke-linecap="round" stroke-linejoin="round"/>
<path d="M196.454 405.53C209.362 405.53 219.826 378.046 219.826 344.142C219.826 310.238 209.362 282.754 196.454 282.754C183.546 282.754 173.082 310.238 173.082 344.142C173.082 378.046 183.546 405.53 196.454 405.53Z" stroke="#F3F3F3" stroke-width="4.672" stroke-linecap="round" stroke-linejoin="round"/>
<path d="M196.452 395.869C207.329 395.869 216.146 372.71 216.146 344.142C216.146 315.573 207.329 292.414 196.452 292.414C185.575 292.414 176.758 315.573 176.758 344.142C176.758 372.71 185.575 395.869 196.452 395.869Z" stroke="#F3F3F3" stroke-width="4.738" stroke-linecap="round" stroke-linejoin="round"/>
<path d="M196.454 386.208C205.299 386.208 212.47 367.374 212.47 344.141C212.47 320.908 205.299 302.074 196.454 302.074C187.608 302.074 180.438 320.908 180.438 344.141C180.438 367.374 187.608 386.208 196.454 386.208Z" stroke="#F3F3F3" stroke-width="4.803" stroke-linecap="round" stroke-linejoin="round"/>
<path d="M196.454 376.55C203.268 376.55 208.792 362.04 208.792 344.142C208.792 326.244 203.268 311.734 196.454 311.734C189.639 311.734 184.115 326.244 184.115 344.142C184.115 362.04 189.639 376.55 196.454 376.55Z" stroke="#F3F3F3" stroke-width="4.869" stroke-linecap="round" stroke-linejoin="round"/>
<path d="M196.453 366.889C201.236 366.889 205.114 356.705 205.114 344.142C205.114 331.579 201.236 321.395 196.453 321.395C191.67 321.395 187.793 331.579 187.793 344.142C187.793 356.705 191.67 366.889 196.453 366.889Z" stroke="#F3F3F3" stroke-width="4.934" stroke-linecap="round" stroke-linejoin="round"/>
<path d="M196.453 357.228C199.205 357.228 201.436 351.369 201.436 344.141C201.436 336.914 199.205 331.055 196.453 331.055C193.701 331.055 191.471 336.914 191.471 344.141C191.471 351.369 193.701 357.228 196.453 357.228Z" stroke="#F3F3F3" stroke-width="5" stroke-linecap="round" stroke-linejoin="round"/>
<g opacity="0.19">
<path d="M179.228 116.77C161.159 66.2854 137.967 30.5778 113.9 0.140625H123.922C144.458 31.9675 163.914 68.5146 179.228 116.77Z" fill="#3D1A37"/>
<path d="M356.957 0.140625C349.067 52.8968 339.328 103.533 325.398 147.07C337.228 105.277 344.148 52.4833 349.905 0.140625H356.957Z" fill="#3D1A37"/>
<path d="M185.512 104.455C179.592 62.0196 168.355 27.7426 154.934 0.140625H162.923C174.956 28.6243 181.19 63.0926 185.512 104.455Z" fill="#3D1A37"/>
<path d="M277.303 127.375C283.935 85.3979 286.403 42.3421 286.062 0.140625H292.008C291.086 43.4436 285.58 84.2144 277.303 127.375Z" fill="#3D1A37"/>
<path d="M113.748 184.718C74.944 181.649 36.6222 205.123 -0.00195312 242.303V231.39C36.9472 198.129 75.3317 178.209 113.748 184.718Z" fill="#846F81"/>
<path d="M130.423 125.744C87.1607 104.554 43.0764 112.328 -0.00195312 132.789V102.794C43.4483 92.5138 87.7109 99.0498 130.423 125.744Z" fill="#3D1A37"/>
<path d="M230.818 85.4663C228.505 56.1144 225.58 27.5744 222.074 0.140625L224.347 0.140625C226.955 28.014 229.117 56.5128 230.818 85.4663Z" fill="#3D1A37"/>
<path d="M58.7093 509.207C44.7898 565.155 34.1709 625.493 25.8727 688.142H19.2246C30.0845 625.369 43.2285 565.211 58.7093 509.207Z" fill="#3D1A37"/>
<path d="M210.947 688.143H206.892C199.05 654.227 191.837 618.114 185.309 580.086C192.69 618.187 201.339 654.101 210.947 688.143Z" fill="#3D1A37"/>
<path d="M392.907 587.666V603.522C367.713 605.11 342.52 600.26 317.484 589.001C342.672 597.16 367.902 595.662 392.907 587.666Z" fill="#3D1A37"/>
<path d="M392.907 401.908V423.057C364.504 449.53 335.628 467.296 306.535 476.199C336.732 463.058 365.477 436.405 392.907 401.908Z" fill="#3D1A37"/>
<path d="M153.3 108.694C104.077 48.5763 52.7159 21.0005 -0.00195312 6.17771V0.140625H35.9886C76.1854 25.2663 115.382 58.8678 153.3 108.694Z" fill="#846F81"/>
<path d="M312.391 0.140625C308.062 48.026 302.775 94.4666 296.58 139.02C302.217 94.5991 306.73 48.0796 310.054 0.140625H312.391Z" fill="#846F81"/>
<path d="M392.906 679.771V688.138H364.804C324.607 663.012 285.41 629.41 247.492 579.584C294.259 636.703 342.95 664.443 392.906 679.771Z" fill="#846F81"/>
<path d="M253.03 0.140625C251.883 39.6186 250.243 80.4453 249.992 127.375C249.732 84.5767 248.444 41.9732 246.146 0.140625H253.03Z" fill="#846F81"/>
<path d="M392.906 511.783V524.644C377.159 529.998 359.615 534.286 341.217 540.909C359.977 534.156 376.633 525.214 392.906 511.783Z" fill="#846F81"/>
<path d="M176.221 688.138H169.805C166.211 654.164 162.617 618.609 157.389 579.584C162.985 617.549 169.28 653.831 176.221 688.138Z" fill="#846F81"/>
<path d="M387.741 0.140625C374.79 60.8635 358.304 108.363 341.729 177.26C353.936 123.209 364.534 63.779 373.313 0.140625L387.741 0.140625Z" fill="#846F81"/>
<path d="M210.931 110.702C205.054 71.9475 198.452 34.9902 191.182 0.140625L198.097 0.140625C201.956 36.6456 205.824 73.7247 210.931 110.702Z" fill="#846F81"/>
<path d="M57.9276 370.975C31.9651 427.859 13.9437 508.987 -0.00195312 590.447V548.107C15.683 480.477 34.1549 417.03 57.9276 370.975Z" fill="#846F81"/>
<path d="M240.85 688.142H236.58C227.198 665.671 218.643 641.212 211.309 614.25C219.848 641.976 229.891 666.4 240.85 688.142Z" fill="#846F81"/>
<path d="M85.2952 517.244C75.8032 570.152 71.1295 628.769 69.1649 688.144H64.0781C67.9759 628.094 74.3774 569.725 85.2952 517.244Z" fill="#846F81"/>
<path d="M95.9672 243.762C60.4691 268.195 28.6907 315.644 -0.00195312 374.138V354.627C30.6179 301.124 62.8858 263.848 95.9672 243.762Z" fill="#3D1A37"/>
<path d="M113.611 555.727C107.99 598.493 106.183 643.048 106.12 688.139H99.9277C102.99 641.799 107.591 597.273 113.611 555.727Z" fill="#3D1A37"/>
<path d="M137.447 688.139H134.369C134.313 659.723 134.903 631.345 136.134 603.35C135.2 631.888 135.819 660.137 137.447 688.139Z" fill="#3D1A37"/>
<path d="M58.7091 318.428C36.0357 351.893 16.9245 395.126 -0.00195312 444.042V429.526C18.4752 384.041 38.165 346.782 58.7091 318.428Z" fill="#846F81"/>
<path d="M392.908 295.264V305.02C369.93 351.38 345.02 389.809 317.904 414.701C345.307 386.727 370.192 345.02 392.908 295.264Z" fill="#846F81"/>
<path d="M334.977 277.927C360.94 221.043 378.961 139.915 392.906 58.4551V100.794C377.222 168.425 358.75 231.872 334.977 277.927Z" fill="#846F81"/>
<path d="M334.195 330.474C356.869 297.01 375.98 253.776 392.906 204.859V219.376C374.429 264.86 354.739 302.119 334.195 330.474Z" fill="#3D1A37"/>
</g>
</g>
</g>
</g>
<defs>
<radialGradient id="paint0_radial_2111_90530" cx="0" cy="0" r="1" gradientUnits="userSpaceOnUse" gradientTransform="translate(131.083 344.141) scale(166.938 438.256)">
<stop stop-color="white"/>
<stop offset="1" stop-color="#EAEAEA"/>
</radialGradient>
<radialGradient id="paint1_radial_2111_90530" cx="0" cy="0" r="1" gradientUnits="userSpaceOnUse" gradientTransform="translate(196.453 344.142) scale(321.609 844.729)">
<stop stop-color="#2B3851" stop-opacity="0"/>
<stop offset="1" stop-color="#2B3851"/>
</radialGradient>
</defs>
</svg>
