<?xml version="1.0" standalone="no"?>
<!DOCTYPE svg PUBLIC "-//W3C//DTD SVG 20010904//EN"
 "http://www.w3.org/TR/2001/REC-SVG-20010904/DTD/svg10.dtd">
<svg version="1.0" xmlns="http://www.w3.org/2000/svg"
 width="984.000000pt" height="984.000000pt" viewBox="0 0 984.000000 984.000000"
 preserveAspectRatio="xMidYMid meet">
<metadata>
Created by potrace 1.14, written by Peter Selinger 2001-2017
</metadata>
<g transform="translate(0.000000,984.000000) scale(0.100000,-0.100000)"
fill="#000000" stroke="none">
<path d="M4773 9035 c-37 -26 -61 84 233 -1070 76 -297 139 -557 142 -577 5
-50 -8 -54 -174 -62 -72 -4 -142 -8 -155 -11 -52 -8 -196 -19 -237 -18 -53 1
-77 21 -108 90 -36 80 -78 101 -126 63 -27 -21 -30 -50 -9 -103 15 -38 14 -82
-1 -94 -15 -11 -24 -14 -198 -77 -192 -68 -323 -116 -345 -127 -11 -5 -69 -27
-128 -49 -77 -29 -113 -38 -125 -31 -10 5 -103 186 -207 403 -336 700 -431
889 -500 998 -24 38 -32 43 -70 43 -31 0 -34 -4 -46 -42 -11 -36 -3 -66 111
-467 67 -236 133 -467 147 -514 102 -351 173 -599 177 -624 6 -34 -8 -63 -43
-91 -160 -124 -379 -332 -513 -485 -142 -163 -304 -401 -411 -602 -25 -47 -53
-98 -62 -112 l-17 -26 -17 23 c-18 23 -58 96 -176 322 -119 227 -187 350 -199
357 -14 9 -66 1 -83 -14 -20 -16 -16 -51 21 -172 19 -61 44 -145 56 -186 39
-132 138 -453 160 -515 56 -160 62 -331 17 -515 -14 -58 -28 -118 -31 -135 -6
-31 -7 -41 -25 -155 -29 -184 -32 -540 -7 -732 3 -18 8 -58 11 -88 4 -30 8
-63 10 -73 5 -27 -22 -47 -63 -47 -30 0 -54 -13 -128 -68 -49 -37 -151 -112
-225 -166 -870 -644 -1061 -807 -1244 -1056 -131 -179 -178 -285 -177 -405 1
-137 85 -227 255 -272 126 -34 489 -20 732 27 28 5 66 12 85 15 27 5 218 46
320 70 22 5 208 55 265 72 28 8 55 15 60 17 74 19 379 119 590 193 201 70 204
70 299 -36 85 -95 297 -301 388 -377 526 -438 1148 -688 1848 -741 156 -12
449 -6 560 11 14 2 50 7 80 11 306 36 644 129 930 257 82 37 264 130 291 149
15 10 30 19 33 19 16 0 337 219 366 250 3 3 39 32 80 65 133 107 210 187 210
218 0 42 -51 135 -78 142 -17 4 -59 -18 -175 -92 -83 -53 -192 -118 -242 -144
-209 -111 -451 -186 -697 -216 -136 -17 -431 -8 -542 17 -22 5 -56 11 -73 15
-192 33 -481 140 -648 238 -194 115 -327 218 -485 377 -192 191 -396 460 -388
511 3 25 64 59 308 174 116 54 302 142 455 215 506 242 990 484 1270 635 33
18 101 54 150 80 50 27 126 68 170 93 44 25 105 59 135 75 320 175 866 502
1272 763 115 74 214 134 222 134 19 0 32 -39 52 -145 9 -49 18 -97 19 -106 2
-9 6 -40 10 -70 3 -30 8 -65 10 -79 25 -148 19 -564 -11 -722 -17 -96 -34
-245 -30 -264 7 -27 15 -28 68 -14 41 12 87 47 118 90 25 35 41 120 57 290 15
161 7 624 -12 683 -2 7 -6 35 -9 62 -9 77 -35 213 -63 323 -12 50 -13 68 -4
85 7 13 67 61 134 107 136 94 432 314 577 429 319 253 591 523 717 711 133
198 170 337 119 445 -62 135 -213 189 -521 189 -138 -1 -247 -10 -405 -35
-253 -39 -870 -198 -949 -245 -54 -32 -65 -109 -21 -149 40 -36 77 -34 246 11
241 66 694 181 736 188 21 3 57 10 80 15 89 20 168 26 333 26 183 0 265 -16
302 -57 80 -89 -98 -361 -448 -683 -161 -148 -465 -394 -600 -485 -12 -8 -34
-24 -48 -36 -93 -74 -304 -215 -318 -212 -12 2 -38 52 -78 149 -124 295 -282
566 -469 806 -94 120 -300 336 -406 424 -35 30 -71 60 -80 68 -62 59 -341 249
-480 328 -81 46 -103 74 -171 218 -66 141 -82 165 -110 165 -32 0 -68 -22 -71
-44 -2 -11 4 -52 13 -91 9 -38 12 -72 8 -73 -22 -9 -614 173 -652 200 -18 13
-48 62 -86 142 -59 121 -113 237 -116 246 -1 3 -17 39 -37 80 -86 182 -129
272 -342 730 -283 609 -255 554 -291 558 -16 1 -40 -4 -52 -13z m403 -975
c113 -243 136 -291 239 -510 48 -102 97 -207 110 -235 12 -27 44 -95 70 -150
26 -55 75 -161 110 -235 35 -74 86 -184 115 -245 29 -60 65 -137 80 -170 15
-33 49 -105 75 -160 26 -55 60 -128 76 -163 27 -59 78 -168 249 -532 37 -80
96 -206 130 -280 70 -153 96 -185 137 -169 65 25 63 36 -75 329 -73 156 -123
263 -209 450 -47 102 -101 219 -120 260 -20 41 -59 127 -88 190 -29 63 -87
185 -128 272 -93 194 -93 193 -71 226 37 57 60 71 101 62 33 -8 180 -62 343
-126 69 -27 118 -61 134 -91 12 -24 85 -253 271 -848 72 -230 135 -434 165
-534 16 -52 36 -101 44 -109 33 -33 106 -4 106 43 0 12 -9 48 -21 81 -11 32
-26 82 -34 109 -7 28 -36 124 -65 215 -74 239 -157 511 -163 538 -14 58 25 -9
135 -236 65 -134 134 -277 152 -316 122 -258 155 -322 168 -334 28 -22 56 -22
82 3 35 32 38 24 -134 380 -67 140 -94 194 -220 460 -26 55 -82 171 -124 259
-42 87 -76 166 -76 174 0 11 17 0 48 -30 26 -25 88 -76 137 -113 383 -288 698
-663 909 -1083 52 -104 126 -276 151 -350 25 -79 15 -96 -113 -180 -177 -115
-444 -281 -677 -421 -121 -72 -227 -136 -235 -141 -8 -5 -79 -47 -158 -92 -78
-46 -155 -90 -170 -99 -15 -9 -54 -31 -87 -49 -33 -18 -95 -53 -137 -77 -91
-51 -364 -199 -493 -268 -49 -26 -126 -67 -170 -90 -128 -68 -712 -362 -920
-462 -291 -140 -466 -223 -470 -223 -2 0 -41 -17 -87 -39 -279 -130 -290 -134
-314 -116 -17 11 -47 68 -99 189 -27 61 -93 261 -119 361 -47 176 -77 341
-101 550 -13 121 -15 255 -5 338 6 50 13 112 16 137 2 25 9 79 14 120 5 41 12
98 15 125 18 162 26 178 53 115 20 -46 72 -87 93 -75 10 7 30 47 35 74 1 8 -4
35 -13 60 -13 40 -115 389 -189 654 -14 49 -48 166 -75 260 -27 95 -51 179
-53 187 -2 8 -38 134 -79 280 -41 146 -78 283 -81 305 -3 22 -8 60 -11 85 -11
84 -15 97 -48 171 -57 126 -102 266 -171 529 -19 74 -47 171 -61 215 -30 92
-40 145 -28 145 9 0 64 -111 290 -577 52 -109 129 -268 170 -353 42 -85 104
-213 138 -285 34 -71 102 -211 150 -310 48 -99 119 -245 157 -325 283 -585
315 -647 339 -653 49 -13 68 -3 75 40 5 32 -40 138 -161 382 -69 138 -91 195
-89 221 1 8 2 23 3 32 1 15 151 201 276 343 14 17 47 54 73 84 112 130 120
137 138 125 10 -6 21 -21 25 -35 37 -125 160 -547 163 -559 15 -59 41 -138 50
-152 7 -12 23 -18 47 -18 53 0 75 35 58 90 -4 14 -43 149 -87 300 -44 151
-108 370 -142 485 -34 116 -66 225 -70 243 -8 33 0 42 18 20 9 -11 184 -327
312 -563 141 -260 205 -373 223 -392 23 -25 53 -29 78 -10 34 26 31 52 -19
148 -57 109 -122 230 -132 244 -4 6 -29 51 -55 100 -26 50 -74 138 -107 197
-33 59 -58 116 -56 125 2 12 62 47 178 105 171 84 195 91 213 60 3 -4 100
-385 217 -847 250 -995 243 -969 272 -982 33 -14 77 3 84 34 6 22 -98 446
-386 1583 -44 173 -82 324 -84 335 -2 11 -79 315 -170 676 -91 362 -166 665
-166 675 0 33 18 1 106 -186z m28 -940 c16 -12 36 -70 36 -103 0 -13 -27 -31
-97 -63 -54 -25 -149 -70 -211 -101 -62 -30 -119 -52 -127 -49 -16 6 -23 16
-97 151 -71 130 -71 132 -48 145 20 10 40 13 195 26 44 3 81 7 82 8 1 1 59 1
127 1 84 -1 130 -6 140 -15z m-783 -83 c15 -21 71 -196 104 -326 21 -81 13
-104 -59 -179 -30 -31 -68 -73 -86 -92 -18 -19 -85 -91 -150 -160 -64 -69
-141 -151 -170 -182 -29 -32 -58 -58 -65 -58 -14 0 -40 53 -236 463 -107 224
-117 250 -101 275 5 6 164 70 354 141 302 113 365 136 388 140 3 0 12 -10 21
-22z m-1165 -615 c9 -32 20 -70 24 -87 5 -16 22 -77 39 -135 18 -58 34 -112
36 -120 1 -8 29 -103 60 -210 31 -107 58 -202 60 -210 2 -8 28 -103 59 -211
31 -108 56 -208 56 -223 0 -15 -16 -89 -35 -164 -20 -75 -38 -150 -41 -167 -3
-16 -9 -49 -14 -72 -5 -22 -13 -65 -16 -95 -3 -29 -8 -55 -9 -58 -2 -3 -6 -33
-10 -65 -4 -33 -8 -71 -11 -85 -7 -43 -17 -241 -17 -340 0 -175 27 -493 47
-550 3 -8 7 -32 10 -52 26 -176 133 -523 220 -713 46 -100 50 -121 28 -141
-11 -9 -113 -54 -228 -100 -115 -46 -217 -88 -226 -94 -10 -5 -23 -10 -29 -10
-9 0 -49 -16 -174 -70 -70 -30 -397 -162 -430 -173 -70 -25 -85 -11 -200 178
-121 198 -213 398 -286 617 -23 68 -42 130 -44 138 -2 8 -12 51 -24 95 -11 44
-22 94 -25 110 -21 112 -45 271 -51 330 -4 39 -9 84 -11 100 -9 60 -11 321 -4
380 5 33 11 96 15 140 9 111 22 202 31 216 11 18 19 -7 159 -466 35 -115 98
-322 140 -460 203 -666 187 -625 233 -625 42 0 64 21 63 61 0 19 -37 151 -81
294 -45 143 -83 267 -85 275 -4 16 -38 128 -324 1070 -100 327 -184 611 -187
630 l-7 35 20 -25 c17 -22 89 -153 258 -475 26 -49 64 -121 85 -160 20 -38 58
-108 82 -155 25 -47 67 -125 93 -175 26 -49 70 -133 98 -185 28 -52 62 -117
77 -145 15 -27 65 -122 110 -210 46 -88 86 -164 90 -170 4 -5 29 -53 56 -105
55 -108 61 -115 108 -135 l34 -14 16 39 c21 52 28 35 -238 533 -18 34 -64 121
-101 192 -37 72 -80 153 -95 180 -15 28 -76 142 -135 255 -59 113 -131 250
-160 305 -151 289 -150 257 -25 507 150 299 329 545 571 788 74 73 191 177
253 224 58 44 68 39 92 -42z m-1378 -3074 c5 -7 24 -66 42 -131 40 -150 96
-312 155 -453 47 -111 153 -317 186 -366 11 -14 19 -28 19 -31 0 -3 23 -40 50
-81 50 -75 59 -99 40 -111 -8 -5 -368 -127 -540 -183 -64 -21 -331 -100 -360
-107 -8 -2 -87 -21 -175 -44 -168 -42 -419 -92 -530 -106 -234 -28 -346 -26
-472 10 -54 16 -93 52 -93 87 0 33 37 126 76 189 135 222 426 502 843 810 176
129 735 528 742 528 4 1 11 -5 17 -11z m2006 -827 c9 -10 47 -64 84 -119 429
-639 1028 -1025 1747 -1126 117 -16 443 -15 550 3 105 17 135 19 135 10 0 -13
-22 -22 -215 -94 -462 -172 -667 -210 -1145 -210 -194 0 -297 5 -385 20 -16 3
-43 7 -60 9 -171 20 -451 97 -660 181 -173 70 -471 232 -585 317 -14 11 -56
42 -95 71 -67 49 -162 127 -233 191 -103 92 -292 291 -292 306 0 14 8 17 320
143 157 64 393 161 525 215 132 55 252 101 266 101 14 1 34 -7 43 -18z"/>
<path d="M8453 8131 c-106 -49 -161 -151 -150 -283 24 -280 366 -343 454 -83
23 68 23 189 0 236 -60 122 -194 179 -304 130z m145 -132 c50 -31 71 -144 38
-208 -20 -38 -72 -72 -102 -67 -86 16 -135 146 -90 235 34 64 91 79 154 40z"/>
<path d="M1205 5066 c-183 -57 -298 -213 -290 -392 15 -337 466 -428 656 -132
97 150 80 335 -41 455 -47 47 -128 77 -210 79 -41 1 -93 -3 -115 -10z m189
-133 c101 -51 139 -151 100 -265 -31 -92 -133 -173 -229 -182 -110 -10 -211
70 -228 179 -9 58 31 166 78 210 39 36 61 50 106 65 58 20 126 17 173 -7z"/>
<path d="M9405 3903 c-49 -9 -96 -38 -122 -76 -25 -36 -28 -49 -28 -118 0 -68
-3 -80 -24 -103 -31 -33 -398 -216 -511 -254 -108 -37 -196 -52 -340 -56 -213
-6 -318 -71 -379 -237 -17 -45 -29 -60 -61 -78 l-41 -23 -19 24 c-18 22 -37
61 -79 160 -16 38 -26 49 -53 56 -18 5 -49 5 -68 0 -19 -4 -51 -11 -70 -14
-19 -3 -54 -10 -78 -15 -23 -5 -59 -12 -80 -15 -77 -12 -143 -36 -157 -58 -10
-15 -15 -49 -16 -97 -1 -90 -17 -169 -35 -176 -7 -3 -38 3 -69 12 -40 13 -62
27 -82 54 -112 147 -282 174 -453 72 -68 -40 -93 -49 -131 -46 -19 2 -77 6
-129 9 -52 4 -117 9 -145 11 -27 2 -84 7 -125 10 -241 19 -297 24 -321 31 -18
5 -39 45 -39 73 0 31 -56 107 -93 124 -67 32 -167 13 -224 -42 -85 -82 -89
-229 -7 -312 46 -47 75 -57 184 -64 47 -2 114 -7 150 -10 78 -6 196 -13 305
-20 44 -3 121 -7 170 -10 50 -3 119 -8 155 -10 112 -9 202 -15 300 -20 154 -9
213 -14 244 -23 l30 -8 -35 -28 c-45 -36 -173 -103 -751 -396 -257 -130 -488
-250 -514 -268 -132 -94 -96 -279 64 -322 67 -17 135 1 210 57 43 32 63 74 66
139 1 39 7 60 21 73 11 11 128 73 260 139 332 165 367 181 411 187 21 3 48 7
59 10 11 2 43 7 70 10 124 15 157 25 223 68 37 24 74 50 82 58 46 45 139 109
158 109 23 0 41 -33 102 -183 13 -31 32 -64 41 -73 16 -14 18 -12 32 38 8 29
18 72 22 94 9 58 38 82 121 99 178 37 204 32 271 -58 48 -62 74 -90 80 -84 2
3 6 15 8 28 45 287 61 311 154 227 60 -54 134 -81 220 -81 78 1 133 18 228 73
119 69 145 72 512 56 286 -13 336 -17 357 -31 12 -8 26 -33 33 -60 12 -46 47
-92 89 -114 40 -21 133 -21 174 0 103 53 136 201 63 288 -40 47 -99 59 -370
76 -44 3 -101 7 -127 10 -89 9 -143 14 -213 20 -38 3 -95 8 -125 10 -30 3 -82
8 -115 11 -33 2 -80 7 -105 9 -25 2 -74 7 -110 10 -36 3 -85 8 -110 10 -25 2
-76 7 -115 10 -171 14 -194 24 -143 61 17 13 35 24 40 24 4 0 274 132 600 294
530 262 598 298 640 342 53 53 72 97 65 147 -7 51 -30 88 -79 126 -23 17 -98
38 -123 34z m-1776 -833 c38 -20 72 -150 51 -190 -31 -57 -132 -79 -174 -37
-18 18 -24 38 -29 102 -8 94 1 110 73 124 62 12 59 12 79 1z"/>
<path d="M7422 3427 c-81 -37 -138 -161 -97 -207 21 -23 56 -25 136 -9 30 6
66 13 81 15 77 14 113 30 122 56 12 35 1 73 -32 103 -64 61 -138 76 -210 42z"/>
<path d="M7739 2436 c-2 -2 -26 -7 -54 -10 -136 -18 -150 -28 -170 -131 -3
-16 -8 -41 -11 -55 -3 -14 -8 -57 -11 -97 -5 -60 -2 -78 16 -117 43 -87 112
-105 286 -72 130 24 160 51 171 160 5 49 2 64 -29 128 -42 87 -138 198 -171
198 -13 0 -25 -2 -27 -4z"/>
</g>
</svg>
