<?xml version="1.0" encoding="UTF-8" standalone="no"?>
<!DOCTYPE svg PUBLIC "-//W3C//DTD SVG 1.1//EN"
 "http://www.w3.org/Graphics/SVG/1.1/DTD/svg11.dtd">
<!-- Generated by graphviz version 2.40.1 (20161225.0304)
 -->
<!-- Title: models_diagram Pages: 1 -->
<svg width="1604pt" height="772pt"
 viewBox="0.00 0.00 1604.26 772.00" xmlns="http://www.w3.org/2000/svg" xmlns:xlink="http://www.w3.org/1999/xlink">
<g id="graph0" class="graph" transform="scale(1 1) rotate(0) translate(4 768)">
<title>models_diagram</title>
<polygon fill="transparent" stroke="transparent" points="-4,4 -4,-768 1600.2581,-768 1600.2581,4 -4,4"/>
<!-- _diagram_info -->
<g id="node1" class="node">
<title>_diagram_info</title>
<text text-anchor="start" x="390.4126" y="-721.6" font-family="Times,serif" font-size="13.00" fill="#000000">Models diagram</text>
<text text-anchor="start" x="390.4126" y="-708.6" font-family="Times,serif" font-size="13.00" fill="#000000">Date: Sep 22 2018 &#45; 09:16</text>
<text text-anchor="start" x="390.4126" y="-695.6" font-family="Times,serif" font-size="13.00" fill="#000000">Migration version: 20180921122416</text>
<text text-anchor="start" x="390.4126" y="-682.6" font-family="Times,serif" font-size="13.00" fill="#000000">Generated by RailRoady 1.5.3</text>
<text text-anchor="start" x="390.4126" y="-669.6" font-family="Times,serif" font-size="13.00" fill="#000000">http://railroady.prestonlee.com</text>
</g>
<!-- Genre -->
<g id="node2" class="node">
<title>Genre</title>
<path fill="none" stroke="#000000" d="M848,-449.5C848,-449.5 1071.7246,-449.5 1071.7246,-449.5 1077.7246,-449.5 1083.7246,-455.5 1083.7246,-461.5 1083.7246,-461.5 1083.7246,-523.5 1083.7246,-523.5 1083.7246,-529.5 1077.7246,-535.5 1071.7246,-535.5 1071.7246,-535.5 848,-535.5 848,-535.5 842,-535.5 836,-529.5 836,-523.5 836,-523.5 836,-461.5 836,-461.5 836,-455.5 842,-449.5 848,-449.5"/>
<text text-anchor="middle" x="959.8623" y="-520.3" font-family="Times,serif" font-size="14.00" fill="#000000">Genre</text>
<polyline fill="none" stroke="#000000" points="836,-513.5 1083.7246,-513.5 "/>
<text text-anchor="start" x="844" y="-498.3" font-family="Times,serif" font-size="14.00" fill="#000000">id :bigint</text>
<text text-anchor="start" x="844" y="-484.3" font-family="Times,serif" font-size="14.00" fill="#000000">name :character varying</text>
<text text-anchor="start" x="844" y="-470.3" font-family="Times,serif" font-size="14.00" fill="#000000">created_at :timestamp without time zone</text>
<text text-anchor="start" x="844" y="-456.3" font-family="Times,serif" font-size="14.00" fill="#000000">updated_at :timestamp without time zone</text>
</g>
<!-- Product -->
<g id="node8" class="node">
<title>Product</title>
<path fill="none" stroke="#000000" d="M337.124,-151.5C337.124,-151.5 568.6006,-151.5 568.6006,-151.5 574.6006,-151.5 580.6006,-157.5 580.6006,-163.5 580.6006,-163.5 580.6006,-337.5 580.6006,-337.5 580.6006,-343.5 574.6006,-349.5 568.6006,-349.5 568.6006,-349.5 337.124,-349.5 337.124,-349.5 331.124,-349.5 325.124,-343.5 325.124,-337.5 325.124,-337.5 325.124,-163.5 325.124,-163.5 325.124,-157.5 331.124,-151.5 337.124,-151.5"/>
<text text-anchor="middle" x="452.8623" y="-334.3" font-family="Times,serif" font-size="14.00" fill="#000000">Product</text>
<polyline fill="none" stroke="#000000" points="325.124,-327.5 580.6006,-327.5 "/>
<text text-anchor="start" x="333.124" y="-312.3" font-family="Times,serif" font-size="14.00" fill="#000000">publication_id :bigint</text>
<text text-anchor="start" x="333.124" y="-298.3" font-family="Times,serif" font-size="14.00" fill="#000000">name :character varying</text>
<text text-anchor="start" x="333.124" y="-284.3" font-family="Times,serif" font-size="14.00" fill="#000000">description :text</text>
<text text-anchor="start" x="333.124" y="-270.3" font-family="Times,serif" font-size="14.00" fill="#000000">price :double precision</text>
<text text-anchor="start" x="333.124" y="-256.3" font-family="Times,serif" font-size="14.00" fill="#000000">page_count :integer</text>
<text text-anchor="start" x="333.124" y="-242.3" font-family="Times,serif" font-size="14.00" fill="#000000">release_date :timestamp without time zone</text>
<text text-anchor="start" x="333.124" y="-228.3" font-family="Times,serif" font-size="14.00" fill="#000000">age_rating :character varying</text>
<text text-anchor="start" x="333.124" y="-214.3" font-family="Times,serif" font-size="14.00" fill="#000000">store_id :bigint</text>
<text text-anchor="start" x="333.124" y="-200.3" font-family="Times,serif" font-size="14.00" fill="#000000">created_at :timestamp without time zone</text>
<text text-anchor="start" x="333.124" y="-186.3" font-family="Times,serif" font-size="14.00" fill="#000000">updated_at :timestamp without time zone</text>
<text text-anchor="start" x="333.124" y="-172.3" font-family="Times,serif" font-size="14.00" fill="#000000">slug :character varying</text>
<text text-anchor="start" x="333.124" y="-158.3" font-family="Times,serif" font-size="14.00" fill="#000000">id :bigint</text>
</g>
<!-- Genre&#45;&gt;Product -->
<g id="edge2" class="edge">
<title>Genre&#45;&gt;Product</title>
<path fill="none" stroke="#ab591e" d="M906.2935,-442.933C883.1156,-423.3144 854.9058,-401.7377 826.8623,-386 752.6541,-344.3551 663.2377,-311.4081 590.4447,-288.4339"/>
<polygon fill="#ab591e" stroke="#ab591e" points="906.3614,-442.9913 911.0244,-452.9164 910.1574,-446.2456 913.9534,-449.5 913.9534,-449.5 913.9534,-449.5 910.1574,-446.2456 916.8823,-446.0836 906.3614,-442.9913 906.3614,-442.9913"/>
<polygon fill="#ab591e" stroke="#ab591e" points="590.2874,-288.3848 582.0865,-281.105 585.5154,-286.8923 580.7433,-285.3998 580.7433,-285.3998 580.7433,-285.3998 585.5154,-286.8923 579.4001,-289.6947 590.2874,-288.3848 590.2874,-288.3848"/>
</g>
<!-- ProductsGenre -->
<g id="node14" class="node">
<title>ProductsGenre</title>
<path fill="none" stroke="#000000" d="M750,-7.5C750,-7.5 973.7246,-7.5 973.7246,-7.5 979.7246,-7.5 985.7246,-13.5 985.7246,-19.5 985.7246,-19.5 985.7246,-95.5 985.7246,-95.5 985.7246,-101.5 979.7246,-107.5 973.7246,-107.5 973.7246,-107.5 750,-107.5 750,-107.5 744,-107.5 738,-101.5 738,-95.5 738,-95.5 738,-19.5 738,-19.5 738,-13.5 744,-7.5 750,-7.5"/>
<text text-anchor="middle" x="861.8623" y="-92.3" font-family="Times,serif" font-size="14.00" fill="#000000">ProductsGenre</text>
<polyline fill="none" stroke="#000000" points="738,-85.5 985.7246,-85.5 "/>
<text text-anchor="start" x="746" y="-70.3" font-family="Times,serif" font-size="14.00" fill="#000000">id :bigint</text>
<text text-anchor="start" x="746" y="-56.3" font-family="Times,serif" font-size="14.00" fill="#000000">product_id :bigint</text>
<text text-anchor="start" x="746" y="-42.3" font-family="Times,serif" font-size="14.00" fill="#000000">genre_id :bigint</text>
<text text-anchor="start" x="746" y="-28.3" font-family="Times,serif" font-size="14.00" fill="#000000">created_at :timestamp without time zone</text>
<text text-anchor="start" x="746" y="-14.3" font-family="Times,serif" font-size="14.00" fill="#000000">updated_at :timestamp without time zone</text>
</g>
<!-- Genre&#45;&gt;ProductsGenre -->
<g id="edge1" class="edge">
<title>Genre&#45;&gt;ProductsGenre</title>
<path fill="none" stroke="#4f07a2" d="M948.3337,-441.327C930.1158,-360.4619 894.7548,-203.5025 875.3732,-117.4719"/>
<ellipse fill="none" stroke="#4f07a2" cx="949.2283" cy="-445.298" rx="4" ry="4"/>
<polygon fill="#4f07a2" stroke="#4f07a2" points="875.3461,-117.3512 877.5382,-106.6067 874.2472,-112.4735 873.1482,-107.5957 873.1482,-107.5957 873.1482,-107.5957 874.2472,-112.4735 868.7583,-108.5848 875.3461,-117.3512 875.3461,-117.3512"/>
</g>
<!-- Category -->
<g id="node3" class="node">
<title>Category</title>
<path fill="none" stroke="#000000" d="M582,-449.5C582,-449.5 805.7246,-449.5 805.7246,-449.5 811.7246,-449.5 817.7246,-455.5 817.7246,-461.5 817.7246,-461.5 817.7246,-523.5 817.7246,-523.5 817.7246,-529.5 811.7246,-535.5 805.7246,-535.5 805.7246,-535.5 582,-535.5 582,-535.5 576,-535.5 570,-529.5 570,-523.5 570,-523.5 570,-461.5 570,-461.5 570,-455.5 576,-449.5 582,-449.5"/>
<text text-anchor="middle" x="693.8623" y="-520.3" font-family="Times,serif" font-size="14.00" fill="#000000">Category</text>
<polyline fill="none" stroke="#000000" points="570,-513.5 817.7246,-513.5 "/>
<text text-anchor="start" x="578" y="-498.3" font-family="Times,serif" font-size="14.00" fill="#000000">id :bigint</text>
<text text-anchor="start" x="578" y="-484.3" font-family="Times,serif" font-size="14.00" fill="#000000">name :character varying</text>
<text text-anchor="start" x="578" y="-470.3" font-family="Times,serif" font-size="14.00" fill="#000000">created_at :timestamp without time zone</text>
<text text-anchor="start" x="578" y="-456.3" font-family="Times,serif" font-size="14.00" fill="#000000">updated_at :timestamp without time zone</text>
</g>
<!-- ProductsCategory -->
<g id="node7" class="node">
<title>ProductsCategory</title>
<path fill="none" stroke="#000000" d="M410,-7.5C410,-7.5 633.7246,-7.5 633.7246,-7.5 639.7246,-7.5 645.7246,-13.5 645.7246,-19.5 645.7246,-19.5 645.7246,-95.5 645.7246,-95.5 645.7246,-101.5 639.7246,-107.5 633.7246,-107.5 633.7246,-107.5 410,-107.5 410,-107.5 404,-107.5 398,-101.5 398,-95.5 398,-95.5 398,-19.5 398,-19.5 398,-13.5 404,-7.5 410,-7.5"/>
<text text-anchor="middle" x="521.8623" y="-92.3" font-family="Times,serif" font-size="14.00" fill="#000000">ProductsCategory</text>
<polyline fill="none" stroke="#000000" points="398,-85.5 645.7246,-85.5 "/>
<text text-anchor="start" x="406" y="-70.3" font-family="Times,serif" font-size="14.00" fill="#000000">id :bigint</text>
<text text-anchor="start" x="406" y="-56.3" font-family="Times,serif" font-size="14.00" fill="#000000">product_id :bigint</text>
<text text-anchor="start" x="406" y="-42.3" font-family="Times,serif" font-size="14.00" fill="#000000">category_id :bigint</text>
<text text-anchor="start" x="406" y="-28.3" font-family="Times,serif" font-size="14.00" fill="#000000">created_at :timestamp without time zone</text>
<text text-anchor="start" x="406" y="-14.3" font-family="Times,serif" font-size="14.00" fill="#000000">updated_at :timestamp without time zone</text>
</g>
<!-- Category&#45;&gt;ProductsCategory -->
<g id="edge3" class="edge">
<title>Category&#45;&gt;ProductsCategory</title>
<path fill="none" stroke="#1d8f8e" d="M683.8346,-441.1621C669.1979,-372.5413 638.3293,-248.2843 589.8623,-151 584.0138,-139.2607 576.7206,-127.4225 569.1012,-116.3008"/>
<ellipse fill="none" stroke="#1d8f8e" cx="684.7142" cy="-445.3351" rx="4" ry="4"/>
<polygon fill="#1d8f8e" stroke="#1d8f8e" points="568.981,-116.1298 566.9109,-105.3611 566.1053,-112.0395 563.2296,-107.9492 563.2296,-107.9492 563.2296,-107.9492 566.1053,-112.0395 559.5484,-110.5373 568.981,-116.1298 568.981,-116.1298"/>
</g>
<!-- Category&#45;&gt;Product -->
<g id="edge4" class="edge">
<title>Category&#45;&gt;Product</title>
<path fill="none" stroke="#3494b7" d="M643.4547,-441.8832C618.7879,-417.1141 588.1141,-386.313 558.6341,-356.7107"/>
<polygon fill="#3494b7" stroke="#3494b7" points="643.7199,-442.1495 647.5878,-452.4106 647.2481,-445.6924 650.7763,-449.2352 650.7763,-449.2352 650.7763,-449.2352 647.2481,-445.6924 653.9649,-446.0599 643.7199,-442.1495 643.7199,-442.1495"/>
<polygon fill="#3494b7" stroke="#3494b7" points="558.6272,-356.7037 554.7593,-346.4426 555.0989,-353.1609 551.5707,-349.618 551.5707,-349.618 551.5707,-349.618 555.0989,-353.1609 548.3821,-352.7934 558.6272,-356.7037 558.6272,-356.7037"/>
</g>
<!-- Creator -->
<g id="node4" class="node">
<title>Creator</title>
<path fill="none" stroke="#000000" d="M12,-407.5C12,-407.5 235.7246,-407.5 235.7246,-407.5 241.7246,-407.5 247.7246,-413.5 247.7246,-419.5 247.7246,-419.5 247.7246,-565.5 247.7246,-565.5 247.7246,-571.5 241.7246,-577.5 235.7246,-577.5 235.7246,-577.5 12,-577.5 12,-577.5 6,-577.5 0,-571.5 0,-565.5 0,-565.5 0,-419.5 0,-419.5 0,-413.5 6,-407.5 12,-407.5"/>
<text text-anchor="middle" x="123.8623" y="-562.3" font-family="Times,serif" font-size="14.00" fill="#000000">Creator</text>
<polyline fill="none" stroke="#000000" points="0,-555.5 247.7246,-555.5 "/>
<text text-anchor="start" x="8" y="-540.3" font-family="Times,serif" font-size="14.00" fill="#000000">updated_at :timestamp without time zone</text>
<text text-anchor="start" x="8" y="-526.3" font-family="Times,serif" font-size="14.00" fill="#000000">name :character varying</text>
<text text-anchor="start" x="8" y="-512.3" font-family="Times,serif" font-size="14.00" fill="#000000">bio :text</text>
<text text-anchor="start" x="8" y="-498.3" font-family="Times,serif" font-size="14.00" fill="#000000">website :character varying</text>
<text text-anchor="start" x="8" y="-484.3" font-family="Times,serif" font-size="14.00" fill="#000000">blog :character varying</text>
<text text-anchor="start" x="8" y="-470.3" font-family="Times,serif" font-size="14.00" fill="#000000">twitter :character varying</text>
<text text-anchor="start" x="8" y="-456.3" font-family="Times,serif" font-size="14.00" fill="#000000">instagram :character varying</text>
<text text-anchor="start" x="8" y="-442.3" font-family="Times,serif" font-size="14.00" fill="#000000">facebook :character varying</text>
<text text-anchor="start" x="8" y="-428.3" font-family="Times,serif" font-size="14.00" fill="#000000">created_at :timestamp without time zone</text>
<text text-anchor="start" x="8" y="-414.3" font-family="Times,serif" font-size="14.00" fill="#000000">id :bigint</text>
</g>
<!-- Collaboration -->
<g id="node5" class="node">
<title>Collaboration</title>
<path fill="none" stroke="#000000" d="M135,-.5C135,-.5 358.7246,-.5 358.7246,-.5 364.7246,-.5 370.7246,-6.5 370.7246,-12.5 370.7246,-12.5 370.7246,-102.5 370.7246,-102.5 370.7246,-108.5 364.7246,-114.5 358.7246,-114.5 358.7246,-114.5 135,-114.5 135,-114.5 129,-114.5 123,-108.5 123,-102.5 123,-102.5 123,-12.5 123,-12.5 123,-6.5 129,-.5 135,-.5"/>
<text text-anchor="middle" x="246.8623" y="-99.3" font-family="Times,serif" font-size="14.00" fill="#000000">Collaboration</text>
<polyline fill="none" stroke="#000000" points="123,-92.5 370.7246,-92.5 "/>
<text text-anchor="start" x="131" y="-77.3" font-family="Times,serif" font-size="14.00" fill="#000000">id :bigint</text>
<text text-anchor="start" x="131" y="-63.3" font-family="Times,serif" font-size="14.00" fill="#000000">product_id :bigint</text>
<text text-anchor="start" x="131" y="-49.3" font-family="Times,serif" font-size="14.00" fill="#000000">creator_id :bigint</text>
<text text-anchor="start" x="131" y="-35.3" font-family="Times,serif" font-size="14.00" fill="#000000">collaboration_type :character varying</text>
<text text-anchor="start" x="131" y="-21.3" font-family="Times,serif" font-size="14.00" fill="#000000">created_at :timestamp without time zone</text>
<text text-anchor="start" x="131" y="-7.3" font-family="Times,serif" font-size="14.00" fill="#000000">updated_at :timestamp without time zone</text>
</g>
<!-- Creator&#45;&gt;Collaboration -->
<g id="edge5" class="edge">
<title>Creator&#45;&gt;Collaboration</title>
<path fill="none" stroke="#c800b2" d="M150.1235,-399.6251C173.5007,-316.9497 207.1304,-198.0153 227.9555,-124.3655"/>
<ellipse fill="none" stroke="#c800b2" cx="149.0315" cy="-403.487" rx="4" ry="4"/>
<polygon fill="#c800b2" stroke="#c800b2" points="227.96,-124.3492 235.0112,-115.951 229.3205,-119.5379 230.681,-114.7265 230.681,-114.7265 230.681,-114.7265 229.3205,-119.5379 226.3508,-113.5021 227.96,-124.3492 227.96,-124.3492"/>
</g>
<!-- Creator&#45;&gt;Product -->
<g id="edge6" class="edge">
<title>Creator&#45;&gt;Product</title>
<path fill="none" stroke="#14a5c7" d="M241.5795,-401.1501C248.4214,-395.9976 255.2184,-390.9173 261.8623,-386 279.4327,-372.9958 298.0477,-359.4772 316.4933,-346.2338"/>
<polygon fill="#14a5c7" stroke="#14a5c7" points="241.5136,-401.1998 230.8216,-403.6355 237.5236,-404.2132 233.5336,-407.2265 233.5336,-407.2265 233.5336,-407.2265 237.5236,-404.2132 236.2456,-410.8175 241.5136,-401.1998 241.5136,-401.1998"/>
<polygon fill="#14a5c7" stroke="#14a5c7" points="316.8242,-345.9967 327.5736,-343.8287 320.8881,-343.0839 324.9521,-340.1711 324.9521,-340.1711 324.9521,-340.1711 320.8881,-343.0839 322.3306,-336.5136 316.8242,-345.9967 316.8242,-345.9967"/>
</g>
<!-- Publication -->
<g id="node6" class="node">
<title>Publication</title>
<path fill="none" stroke="#000000" d="M316,-428.5C316,-428.5 539.7246,-428.5 539.7246,-428.5 545.7246,-428.5 551.7246,-434.5 551.7246,-440.5 551.7246,-440.5 551.7246,-544.5 551.7246,-544.5 551.7246,-550.5 545.7246,-556.5 539.7246,-556.5 539.7246,-556.5 316,-556.5 316,-556.5 310,-556.5 304,-550.5 304,-544.5 304,-544.5 304,-440.5 304,-440.5 304,-434.5 310,-428.5 316,-428.5"/>
<text text-anchor="middle" x="427.8623" y="-541.3" font-family="Times,serif" font-size="14.00" fill="#000000">Publication</text>
<polyline fill="none" stroke="#000000" points="304,-534.5 551.7246,-534.5 "/>
<text text-anchor="start" x="312" y="-519.3" font-family="Times,serif" font-size="14.00" fill="#000000">id :bigint</text>
<text text-anchor="start" x="312" y="-505.3" font-family="Times,serif" font-size="14.00" fill="#000000">name :character varying</text>
<text text-anchor="start" x="312" y="-491.3" font-family="Times,serif" font-size="14.00" fill="#000000">bio :text</text>
<text text-anchor="start" x="312" y="-477.3" font-family="Times,serif" font-size="14.00" fill="#000000">type :character varying</text>
<text text-anchor="start" x="312" y="-463.3" font-family="Times,serif" font-size="14.00" fill="#000000">created_at :timestamp without time zone</text>
<text text-anchor="start" x="312" y="-449.3" font-family="Times,serif" font-size="14.00" fill="#000000">updated_at :timestamp without time zone</text>
<text text-anchor="start" x="312" y="-435.3" font-family="Times,serif" font-size="14.00" fill="#000000">store_id :bigint</text>
</g>
<!-- Publication&#45;&gt;Product -->
<g id="edge7" class="edge">
<title>Publication&#45;&gt;Product</title>
<path fill="none" stroke="#1ae29d" d="M435.3263,-420.2487C437.2927,-401.2137 439.4588,-380.2459 441.5779,-359.7335"/>
<ellipse fill="none" stroke="#1ae29d" cx="434.9073" cy="-424.305" rx="4" ry="4"/>
<polygon fill="#1ae29d" stroke="#1ae29d" points="441.5856,-359.6578 447.0894,-350.1732 442.0994,-354.6843 442.6133,-349.7108 442.6133,-349.7108 442.6133,-349.7108 442.0994,-354.6843 438.1371,-349.2483 441.5856,-359.6578 441.5856,-359.6578"/>
</g>
<!-- Product&#45;&gt;Collaboration -->
<g id="edge8" class="edge">
<title>Product&#45;&gt;Collaboration</title>
<path fill="none" stroke="#3a4084" d="M341.171,-145.8572C332.4367,-137.6741 323.7864,-129.5697 315.4737,-121.7815"/>
<ellipse fill="none" stroke="#3a4084" cx="344.2277" cy="-148.721" rx="4" ry="4"/>
<polygon fill="#3a4084" stroke="#3a4084" points="315.2393,-121.5619 311.0184,-111.4409 311.5905,-118.1434 307.9417,-114.7248 307.9417,-114.7248 307.9417,-114.7248 311.5905,-118.1434 304.865,-118.0088 315.2393,-121.5619 315.2393,-121.5619"/>
</g>
<!-- Product&#45;&gt;ProductsCategory -->
<g id="edge10" class="edge">
<title>Product&#45;&gt;ProductsCategory</title>
<path fill="none" stroke="#2cf23a" d="M491.0646,-143.6444C494.279,-134.6534 497.45,-125.7837 500.4643,-117.3524"/>
<ellipse fill="none" stroke="#2cf23a" cx="489.6185" cy="-147.6893" rx="4" ry="4"/>
<polygon fill="#2cf23a" stroke="#2cf23a" points="500.5575,-117.0915 508.1614,-109.1901 502.2408,-112.3833 503.924,-107.6752 503.924,-107.6752 503.924,-107.6752 502.2408,-112.3833 499.6867,-106.1602 500.5575,-117.0915 500.5575,-117.0915"/>
</g>
<!-- Product&#45;&gt;ProductsGenre -->
<g id="edge9" class="edge">
<title>Product&#45;&gt;ProductsGenre</title>
<path fill="none" stroke="#46782b" d="M588.1679,-186.6516C639.5001,-162.4289 697.4262,-135.0946 746.7265,-111.8306"/>
<ellipse fill="none" stroke="#46782b" cx="584.4876" cy="-188.3883" rx="4" ry="4"/>
<polygon fill="#46782b" stroke="#46782b" points="746.7844,-111.8033 757.7485,-111.6054 751.3062,-109.6695 755.828,-107.5357 755.828,-107.5357 755.828,-107.5357 751.3062,-109.6695 753.9076,-103.4661 746.7844,-111.8033 746.7844,-111.8033"/>
</g>
<!-- Team -->
<g id="node9" class="node">
<title>Team</title>
<path fill="none" stroke="#000000" d="M1049,-200.5C1049,-200.5 1272.7246,-200.5 1272.7246,-200.5 1278.7246,-200.5 1284.7246,-206.5 1284.7246,-212.5 1284.7246,-212.5 1284.7246,-288.5 1284.7246,-288.5 1284.7246,-294.5 1278.7246,-300.5 1272.7246,-300.5 1272.7246,-300.5 1049,-300.5 1049,-300.5 1043,-300.5 1037,-294.5 1037,-288.5 1037,-288.5 1037,-212.5 1037,-212.5 1037,-206.5 1043,-200.5 1049,-200.5"/>
<text text-anchor="middle" x="1160.8623" y="-285.3" font-family="Times,serif" font-size="14.00" fill="#000000">Team</text>
<polyline fill="none" stroke="#000000" points="1037,-278.5 1284.7246,-278.5 "/>
<text text-anchor="start" x="1045" y="-263.3" font-family="Times,serif" font-size="14.00" fill="#000000">id :bigint</text>
<text text-anchor="start" x="1045" y="-249.3" font-family="Times,serif" font-size="14.00" fill="#000000">store_id :bigint</text>
<text text-anchor="start" x="1045" y="-235.3" font-family="Times,serif" font-size="14.00" fill="#000000">user_id :bigint</text>
<text text-anchor="start" x="1045" y="-221.3" font-family="Times,serif" font-size="14.00" fill="#000000">created_at :timestamp without time zone</text>
<text text-anchor="start" x="1045" y="-207.3" font-family="Times,serif" font-size="14.00" fill="#000000">updated_at :timestamp without time zone</text>
</g>
<!-- Role -->
<g id="node10" class="node">
<title>Role</title>
<path fill="none" stroke="#000000" d="M1188,-642.5C1188,-642.5 1411.7246,-642.5 1411.7246,-642.5 1417.7246,-642.5 1423.7246,-648.5 1423.7246,-654.5 1423.7246,-654.5 1423.7246,-744.5 1423.7246,-744.5 1423.7246,-750.5 1417.7246,-756.5 1411.7246,-756.5 1411.7246,-756.5 1188,-756.5 1188,-756.5 1182,-756.5 1176,-750.5 1176,-744.5 1176,-744.5 1176,-654.5 1176,-654.5 1176,-648.5 1182,-642.5 1188,-642.5"/>
<text text-anchor="middle" x="1299.8623" y="-741.3" font-family="Times,serif" font-size="14.00" fill="#000000">Role</text>
<polyline fill="none" stroke="#000000" points="1176,-734.5 1423.7246,-734.5 "/>
<text text-anchor="start" x="1184" y="-719.3" font-family="Times,serif" font-size="14.00" fill="#000000">id :bigint</text>
<text text-anchor="start" x="1184" y="-705.3" font-family="Times,serif" font-size="14.00" fill="#000000">name :character varying</text>
<text text-anchor="start" x="1184" y="-691.3" font-family="Times,serif" font-size="14.00" fill="#000000">resource_type :character varying</text>
<text text-anchor="start" x="1184" y="-677.3" font-family="Times,serif" font-size="14.00" fill="#000000">resource_id :bigint</text>
<text text-anchor="start" x="1184" y="-663.3" font-family="Times,serif" font-size="14.00" fill="#000000">created_at :timestamp without time zone</text>
<text text-anchor="start" x="1184" y="-649.3" font-family="Times,serif" font-size="14.00" fill="#000000">updated_at :timestamp without time zone</text>
</g>
<!-- User -->
<g id="node13" class="node">
<title>User</title>
<path fill="none" stroke="#000000" d="M1152.2275,-386.5C1152.2275,-386.5 1447.4971,-386.5 1447.4971,-386.5 1453.4971,-386.5 1459.4971,-392.5 1459.4971,-398.5 1459.4971,-398.5 1459.4971,-586.5 1459.4971,-586.5 1459.4971,-592.5 1453.4971,-598.5 1447.4971,-598.5 1447.4971,-598.5 1152.2275,-598.5 1152.2275,-598.5 1146.2275,-598.5 1140.2275,-592.5 1140.2275,-586.5 1140.2275,-586.5 1140.2275,-398.5 1140.2275,-398.5 1140.2275,-392.5 1146.2275,-386.5 1152.2275,-386.5"/>
<text text-anchor="middle" x="1299.8623" y="-583.3" font-family="Times,serif" font-size="14.00" fill="#000000">User</text>
<polyline fill="none" stroke="#000000" points="1140.2275,-576.5 1459.4971,-576.5 "/>
<text text-anchor="start" x="1148.2275" y="-561.3" font-family="Times,serif" font-size="14.00" fill="#000000">updated_at :timestamp without time zone</text>
<text text-anchor="start" x="1148.2275" y="-547.3" font-family="Times,serif" font-size="14.00" fill="#000000">email :character varying</text>
<text text-anchor="start" x="1148.2275" y="-533.3" font-family="Times,serif" font-size="14.00" fill="#000000">encrypted_password :character varying</text>
<text text-anchor="start" x="1148.2275" y="-519.3" font-family="Times,serif" font-size="14.00" fill="#000000">reset_password_token :character varying</text>
<text text-anchor="start" x="1148.2275" y="-505.3" font-family="Times,serif" font-size="14.00" fill="#000000">reset_password_sent_at :timestamp without time zone</text>
<text text-anchor="start" x="1148.2275" y="-491.3" font-family="Times,serif" font-size="14.00" fill="#000000">remember_created_at :timestamp without time zone</text>
<text text-anchor="start" x="1148.2275" y="-477.3" font-family="Times,serif" font-size="14.00" fill="#000000">sign_in_count :integer</text>
<text text-anchor="start" x="1148.2275" y="-463.3" font-family="Times,serif" font-size="14.00" fill="#000000">current_sign_in_at :timestamp without time zone</text>
<text text-anchor="start" x="1148.2275" y="-449.3" font-family="Times,serif" font-size="14.00" fill="#000000">last_sign_in_at :timestamp without time zone</text>
<text text-anchor="start" x="1148.2275" y="-435.3" font-family="Times,serif" font-size="14.00" fill="#000000">current_sign_in_ip :inet</text>
<text text-anchor="start" x="1148.2275" y="-421.3" font-family="Times,serif" font-size="14.00" fill="#000000">last_sign_in_ip :inet</text>
<text text-anchor="start" x="1148.2275" y="-407.3" font-family="Times,serif" font-size="14.00" fill="#000000">created_at :timestamp without time zone</text>
<text text-anchor="start" x="1148.2275" y="-393.3" font-family="Times,serif" font-size="14.00" fill="#000000">id :bigint</text>
</g>
<!-- Role&#45;&gt;User -->
<g id="edge11" class="edge">
<title>Role&#45;&gt;User</title>
<path fill="none" stroke="#15dc75" d="M1299.8623,-632.256C1299.8623,-624.677 1299.8623,-616.801 1299.8623,-608.8219"/>
<polygon fill="#15dc75" stroke="#15dc75" points="1299.8624,-632.3884 1295.3623,-642.3883 1299.8624,-637.3884 1299.8623,-642.3884 1299.8623,-642.3884 1299.8623,-642.3884 1299.8624,-637.3884 1304.3623,-642.3884 1299.8624,-632.3884 1299.8624,-632.3884"/>
<polygon fill="#15dc75" stroke="#15dc75" points="1299.8624,-608.6743 1304.3623,-598.6742 1299.8624,-603.6743 1299.8623,-598.6743 1299.8623,-598.6743 1299.8623,-598.6743 1299.8624,-603.6743 1295.3623,-598.6743 1299.8624,-608.6743 1299.8624,-608.6743"/>
</g>
<!-- ApplicationRecord -->
<g id="node11" class="node">
<title>ApplicationRecord</title>
<ellipse fill="none" stroke="#000000" cx="1518.8623" cy="-699.5" rx="77.2916" ry="18"/>
<text text-anchor="middle" x="1518.8623" y="-695.3" font-family="Times,serif" font-size="14.00" fill="#000000">ApplicationRecord</text>
</g>
<!-- Store -->
<g id="node12" class="node">
<title>Store</title>
<path fill="none" stroke="#000000" d="M619,-635.5C619,-635.5 842.7246,-635.5 842.7246,-635.5 848.7246,-635.5 854.7246,-641.5 854.7246,-647.5 854.7246,-647.5 854.7246,-751.5 854.7246,-751.5 854.7246,-757.5 848.7246,-763.5 842.7246,-763.5 842.7246,-763.5 619,-763.5 619,-763.5 613,-763.5 607,-757.5 607,-751.5 607,-751.5 607,-647.5 607,-647.5 607,-641.5 613,-635.5 619,-635.5"/>
<text text-anchor="middle" x="730.8623" y="-748.3" font-family="Times,serif" font-size="14.00" fill="#000000">Store</text>
<polyline fill="none" stroke="#000000" points="607,-741.5 854.7246,-741.5 "/>
<text text-anchor="start" x="615" y="-726.3" font-family="Times,serif" font-size="14.00" fill="#000000">id :bigint</text>
<text text-anchor="start" x="615" y="-712.3" font-family="Times,serif" font-size="14.00" fill="#000000">name :character varying</text>
<text text-anchor="start" x="615" y="-698.3" font-family="Times,serif" font-size="14.00" fill="#000000">description :character varying</text>
<text text-anchor="start" x="615" y="-684.3" font-family="Times,serif" font-size="14.00" fill="#000000">slug :character varying</text>
<text text-anchor="start" x="615" y="-670.3" font-family="Times,serif" font-size="14.00" fill="#000000">created_at :timestamp without time zone</text>
<text text-anchor="start" x="615" y="-656.3" font-family="Times,serif" font-size="14.00" fill="#000000">updated_at :timestamp without time zone</text>
<text text-anchor="start" x="615" y="-642.3" font-family="Times,serif" font-size="14.00" fill="#000000">owner_id :bigint</text>
</g>
<!-- Store&#45;&gt;Publication -->
<g id="edge12" class="edge">
<title>Store&#45;&gt;Publication</title>
<path fill="none" stroke="#0089da" d="M610.2352,-631.0609C593.4138,-620.6898 576.5357,-609.8279 560.8623,-599 544.8003,-587.9037 528.1807,-575.4507 512.3584,-563.0779"/>
<ellipse fill="none" stroke="#0089da" cx="614.0266" cy="-633.3841" rx="4" ry="4"/>
<polygon fill="#0089da" stroke="#0089da" points="512.0195,-562.8109 506.949,-553.0877 508.0919,-559.7168 504.1642,-556.6226 504.1642,-556.6226 504.1642,-556.6226 508.0919,-559.7168 501.3795,-560.1575 512.0195,-562.8109 512.0195,-562.8109"/>
</g>
<!-- Store&#45;&gt;Product -->
<g id="edge13" class="edge">
<title>Store&#45;&gt;Product</title>
<path fill="none" stroke="#952392" d="M598.9713,-635.3274C598.6014,-635.2173 598.2317,-635.1082 597.8623,-635 532.7887,-615.942 339.8919,-649.6963 294.8623,-599 263.4289,-563.6109 275.0894,-429.0055 294.8623,-386 300.9335,-372.7953 308.9968,-360.3952 318.2765,-348.8729"/>
<ellipse fill="none" stroke="#952392" cx="602.9491" cy="-636.5743" rx="4" ry="4"/>
<polygon fill="#952392" stroke="#952392" points="318.4382,-348.6811 328.3255,-343.9384 321.6619,-344.8591 324.8856,-341.0371 324.8856,-341.0371 324.8856,-341.0371 321.6619,-344.8591 321.4458,-338.1357 318.4382,-348.6811 318.4382,-348.6811"/>
</g>
<!-- Store&#45;&gt;Team -->
<g id="edge14" class="edge">
<title>Store&#45;&gt;Team</title>
<path fill="none" stroke="#d82fde" d="M862.8879,-678.0035C953.039,-660.5997 1061.5969,-633.3606 1092.8623,-599 1157.5798,-527.8757 1112.0204,-480.2974 1130.8623,-386 1135.8194,-361.1917 1141.7569,-333.9391 1147.0367,-310.4206"/>
<ellipse fill="none" stroke="#d82fde" cx="858.7073" cy="-678.802" rx="4" ry="4"/>
<polygon fill="#d82fde" stroke="#d82fde" points="1147.0542,-310.3429 1153.6442,-301.5781 1148.1543,-305.4654 1149.2545,-300.588 1149.2545,-300.588 1149.2545,-300.588 1148.1543,-305.4654 1144.8648,-299.5978 1147.0542,-310.3429 1147.0542,-310.3429"/>
</g>
<!-- Store&#45;&gt;User -->
<g id="edge15" class="edge">
<title>Store&#45;&gt;User</title>
<path fill="none" stroke="#b3ac30" d="M864.8538,-675.8455C942.8817,-659.5268 1042.0809,-634.3428 1125.8623,-599 1127.4888,-598.3139 1129.118,-597.614 1130.7491,-596.9014"/>
<polygon fill="#b3ac30" stroke="#b3ac30" points="864.754,-675.8661 854.0499,-673.484 859.8575,-676.8784 854.9611,-677.8908 854.9611,-677.8908 854.9611,-677.8908 859.8575,-676.8784 855.8722,-682.2976 864.754,-675.8661 864.754,-675.8661"/>
<polygon fill="#b3ac30" stroke="#b3ac30" points="1130.9894,-596.7931 1141.9553,-596.7873 1135.548,-594.7389 1140.1065,-592.6846 1140.1065,-592.6846 1140.1065,-592.6846 1135.548,-594.7389 1138.2577,-588.5819 1130.9894,-596.7931 1130.9894,-596.7931"/>
</g>
<!-- User&#45;&gt;Team -->
<g id="edge16" class="edge">
<title>User&#45;&gt;Team</title>
<path fill="none" stroke="#215f4e" d="M1234.8664,-379.3416C1220.9713,-355.1503 1206.8352,-330.5391 1194.6921,-309.3979"/>
<ellipse fill="none" stroke="#215f4e" cx="1236.9026" cy="-382.8867" rx="4" ry="4"/>
<polygon fill="#215f4e" stroke="#215f4e" points="1194.5971,-309.2325 1193.5185,-298.3198 1192.1068,-304.8968 1189.6164,-300.5611 1189.6164,-300.5611 1189.6164,-300.5611 1192.1068,-304.8968 1185.7143,-302.8024 1194.5971,-309.2325 1194.5971,-309.2325"/>
</g>
</g>
</svg>
