<?xml version="1.0" encoding="UTF-8" standalone="no"?>
<!DOCTYPE svg PUBLIC "-//W3C//DTD SVG 1.1//EN"
 "http://www.w3.org/Graphics/SVG/1.1/DTD/svg11.dtd">
<!-- Generated by graphviz version 2.40.1 (20161225.0304)
 -->
<!-- Title: models_diagram Pages: 1 -->
<svg width="715pt" height="297pt"
 viewBox="0.00 0.00 715.13 297.00" xmlns="http://www.w3.org/2000/svg" xmlns:xlink="http://www.w3.org/1999/xlink">
<g id="graph0" class="graph" transform="scale(1 1) rotate(0) translate(4 293)">
<title>models_diagram</title>
<polygon fill="transparent" stroke="transparent" points="-4,4 -4,-293 711.133,-293 711.133,4 -4,4"/>
<!-- _diagram_info -->
<g id="node1" class="node">
<title>_diagram_info</title>
<text text-anchor="start" x="66.2875" y="-274.6" font-family="Times,serif" font-size="13.00" fill="#000000">Models diagram</text>
<text text-anchor="start" x="66.2875" y="-261.6" font-family="Times,serif" font-size="13.00" fill="#000000">Date: Sep 22 2018 &#45; 09:16</text>
<text text-anchor="start" x="66.2875" y="-248.6" font-family="Times,serif" font-size="13.00" fill="#000000">Migration version: 20180921122416</text>
<text text-anchor="start" x="66.2875" y="-235.6" font-family="Times,serif" font-size="13.00" fill="#000000">Generated by RailRoady 1.5.3</text>
<text text-anchor="start" x="66.2875" y="-222.6" font-family="Times,serif" font-size="13.00" fill="#000000">http://railroady.prestonlee.com</text>
</g>
<!-- Genre -->
<g id="node2" class="node">
<title>Genre</title>
<ellipse fill="none" stroke="#000000" cx="392.7372" cy="-162" rx="31.9219" ry="18"/>
<text text-anchor="middle" x="392.7372" y="-157.8" font-family="Times,serif" font-size="14.00" fill="#000000">Genre</text>
</g>
<!-- Product -->
<g id="node8" class="node">
<title>Product</title>
<ellipse fill="none" stroke="#000000" cx="200.7372" cy="-90" rx="37.7352" ry="18"/>
<text text-anchor="middle" x="200.7372" y="-85.8" font-family="Times,serif" font-size="14.00" fill="#000000">Product</text>
</g>
<!-- Genre&#45;&gt;Product -->
<g id="edge2" class="edge">
<title>Genre&#45;&gt;Product</title>
<path fill="none" stroke="#bde7e5" d="M358.3945,-146.33C356.4871,-145.5271 354.5921,-144.7454 352.7372,-144 315.4558,-129.0182 272.2202,-113.8682 241.4142,-103.4442"/>
<polygon fill="#bde7e5" stroke="#bde7e5" points="358.7305,-146.4754 366.1188,-154.5787 363.3188,-148.4624 367.907,-150.4493 367.907,-150.4493 367.907,-150.4493 363.3188,-148.4624 369.6953,-146.3198 358.7305,-146.4754 358.7305,-146.4754"/>
<polygon fill="#bde7e5" stroke="#bde7e5" points="241.3498,-103.4225 233.3081,-95.9672 236.6111,-101.8273 231.8724,-100.232 231.8724,-100.232 231.8724,-100.232 236.6111,-101.8273 230.4366,-104.4969 241.3498,-103.4225 241.3498,-103.4225"/>
</g>
<!-- ProductsGenre -->
<g id="node14" class="node">
<title>ProductsGenre</title>
<ellipse fill="none" stroke="#000000" cx="370.7372" cy="-18" rx="62.8252" ry="18"/>
<text text-anchor="middle" x="370.7372" y="-13.8" font-family="Times,serif" font-size="14.00" fill="#000000">ProductsGenre</text>
</g>
<!-- Genre&#45;&gt;ProductsGenre -->
<g id="edge1" class="edge">
<title>Genre&#45;&gt;ProductsGenre</title>
<path fill="none" stroke="#0ed2fb" d="M388.7723,-136.0476C384.9008,-110.7072 379.0263,-72.2557 375.0424,-46.1795"/>
<ellipse fill="none" stroke="#0ed2fb" cx="389.3913" cy="-140.0993" rx="4" ry="4"/>
<polygon fill="#0ed2fb" stroke="#0ed2fb" points="375.024,-46.058 377.962,-35.4931 374.2688,-41.1154 373.5136,-36.1727 373.5136,-36.1727 373.5136,-36.1727 374.2688,-41.1154 369.0652,-36.8524 375.024,-46.058 375.024,-46.058"/>
</g>
<!-- Category -->
<g id="node3" class="node">
<title>Category</title>
<ellipse fill="none" stroke="#000000" cx="300.7372" cy="-162" rx="42.5456" ry="18"/>
<text text-anchor="middle" x="300.7372" y="-157.8" font-family="Times,serif" font-size="14.00" fill="#000000">Category</text>
</g>
<!-- ProductsCategory -->
<g id="node7" class="node">
<title>ProductsCategory</title>
<ellipse fill="none" stroke="#000000" cx="213.7372" cy="-18" rx="73.4498" ry="18"/>
<text text-anchor="middle" x="213.7372" y="-13.8" font-family="Times,serif" font-size="14.00" fill="#000000">ProductsCategory</text>
</g>
<!-- Category&#45;&gt;ProductsCategory -->
<g id="edge3" class="edge">
<title>Category&#45;&gt;ProductsCategory</title>
<path fill="none" stroke="#7889ae" d="M286.284,-137.0031C275.7383,-118.8763 261.0253,-93.8167 247.7372,-72 242.2625,-63.0114 236.1689,-53.2577 230.6697,-44.5445"/>
<ellipse fill="none" stroke="#7889ae" cx="288.5233" cy="-140.8586" rx="4" ry="4"/>
<polygon fill="#7889ae" stroke="#7889ae" points="230.5559,-44.3648 229.0065,-33.5089 227.8804,-40.1408 225.2049,-35.9168 225.2049,-35.9168 225.2049,-35.9168 227.8804,-40.1408 221.4033,-38.3247 230.5559,-44.3648 230.5559,-44.3648"/>
</g>
<!-- Category&#45;&gt;Product -->
<g id="edge4" class="edge">
<title>Category&#45;&gt;Product</title>
<path fill="none" stroke="#9dd7cb" d="M270.6421,-140.3315C257.8119,-131.0938 242.892,-120.3514 230.1388,-111.1691"/>
<polygon fill="#9dd7cb" stroke="#9dd7cb" points="270.9234,-140.534 276.4093,-150.029 274.9811,-143.4555 279.0387,-146.3771 279.0387,-146.3771 279.0387,-146.3771 274.9811,-143.4555 281.6681,-142.7252 270.9234,-140.534 270.9234,-140.534"/>
<polygon fill="#9dd7cb" stroke="#9dd7cb" points="229.8235,-110.9421 224.3375,-101.4471 225.7658,-108.0206 221.7081,-105.099 221.7081,-105.099 221.7081,-105.099 225.7658,-108.0206 219.0788,-108.751 229.8235,-110.9421 229.8235,-110.9421"/>
</g>
<!-- Creator -->
<g id="node4" class="node">
<title>Creator</title>
<ellipse fill="none" stroke="#000000" cx="46.7372" cy="-162" rx="36.7489" ry="18"/>
<text text-anchor="middle" x="46.7372" y="-157.8" font-family="Times,serif" font-size="14.00" fill="#000000">Creator</text>
</g>
<!-- Collaboration -->
<g id="node5" class="node">
<title>Collaboration</title>
<ellipse fill="none" stroke="#000000" cx="58.7372" cy="-18" rx="58.9755" ry="18"/>
<text text-anchor="middle" x="58.7372" y="-13.8" font-family="Times,serif" font-size="14.00" fill="#000000">Collaboration</text>
</g>
<!-- Creator&#45;&gt;Collaboration -->
<g id="edge5" class="edge">
<title>Creator&#45;&gt;Collaboration</title>
<path fill="none" stroke="#b2d9bf" d="M48.926,-135.7351C51.0319,-110.4642 54.2067,-72.3666 56.3704,-46.4018"/>
<ellipse fill="none" stroke="#b2d9bf" cx="48.5893" cy="-139.7761" rx="4" ry="4"/>
<polygon fill="#b2d9bf" stroke="#b2d9bf" points="56.3992,-46.0551 61.7142,-36.4634 56.8145,-41.0723 57.2298,-36.0896 57.2298,-36.0896 57.2298,-36.0896 56.8145,-41.0723 52.7453,-35.7159 56.3992,-46.0551 56.3992,-46.0551"/>
</g>
<!-- Creator&#45;&gt;Product -->
<g id="edge6" class="edge">
<title>Creator&#45;&gt;Product</title>
<path fill="none" stroke="#a3658d" d="M82.9407,-145.0737C107.4786,-133.6015 139.7882,-118.4956 164.3623,-107.0065"/>
<polygon fill="#a3658d" stroke="#a3658d" points="82.6208,-145.2232 71.6561,-145.3821 78.0914,-147.3409 73.562,-149.4586 73.562,-149.4586 73.562,-149.4586 78.0914,-147.3409 75.4679,-153.535 82.6208,-145.2232 82.6208,-145.2232"/>
<polygon fill="#a3658d" stroke="#a3658d" points="164.6443,-106.8747 175.6091,-106.7158 169.1738,-104.757 173.7032,-102.6393 173.7032,-102.6393 173.7032,-102.6393 169.1738,-104.757 171.7973,-98.5628 164.6443,-106.8747 164.6443,-106.8747"/>
</g>
<!-- Publication -->
<g id="node6" class="node">
<title>Publication</title>
<ellipse fill="none" stroke="#000000" cx="189.7372" cy="-162" rx="50.281" ry="18"/>
<text text-anchor="middle" x="189.7372" y="-157.8" font-family="Times,serif" font-size="14.00" fill="#000000">Publication</text>
</g>
<!-- Publication&#45;&gt;Product -->
<g id="edge7" class="edge">
<title>Publication&#45;&gt;Product</title>
<path fill="none" stroke="#211863" d="M193.7378,-135.8144C194.6054,-130.1355 195.5269,-124.1039 196.4066,-118.3461"/>
<ellipse fill="none" stroke="#211863" cx="193.1172" cy="-139.8772" rx="4" ry="4"/>
<polygon fill="#211863" stroke="#211863" points="196.4138,-118.2986 202.3725,-109.0929 197.1689,-113.3559 197.9241,-108.4133 197.9241,-108.4133 197.9241,-108.4133 197.1689,-113.3559 193.4757,-107.7336 196.4138,-118.2986 196.4138,-118.2986"/>
</g>
<!-- Product&#45;&gt;Collaboration -->
<g id="edge8" class="edge">
<title>Product&#45;&gt;Collaboration</title>
<path fill="none" stroke="#f8791a" d="M167.3164,-73.0542C146.6445,-62.5727 120.0017,-49.0637 98.2816,-38.0507"/>
<ellipse fill="none" stroke="#f8791a" cx="171.1247" cy="-74.9851" rx="4" ry="4"/>
<polygon fill="#f8791a" stroke="#f8791a" points="98.2251,-38.0221 91.3412,-29.4861 93.7656,-35.7609 89.3061,-33.4997 89.3061,-33.4997 89.3061,-33.4997 93.7656,-35.7609 87.271,-37.5133 98.2251,-38.0221 98.2251,-38.0221"/>
</g>
<!-- Product&#45;&gt;ProductsCategory -->
<g id="edge10" class="edge">
<title>Product&#45;&gt;ProductsCategory</title>
<path fill="none" stroke="#08aecc" d="M205.4652,-63.8144C206.4906,-58.1355 207.5796,-52.1039 208.6192,-46.3461"/>
<ellipse fill="none" stroke="#08aecc" cx="204.7285" cy="-67.895" rx="4" ry="4"/>
<polygon fill="#08aecc" stroke="#08aecc" points="208.6357,-46.2541 214.841,-37.2129 209.5242,-41.3337 210.4126,-36.4133 210.4126,-36.4133 210.4126,-36.4133 209.5242,-41.3337 205.9842,-35.6137 208.6357,-46.2541 208.6357,-46.2541"/>
</g>
<!-- Product&#45;&gt;ProductsGenre -->
<g id="edge9" class="edge">
<title>Product&#45;&gt;ProductsGenre</title>
<path fill="none" stroke="#8177e4" d="M236.6914,-74.7723C262.7035,-63.7555 298.0308,-48.7933 325.8882,-36.9949"/>
<ellipse fill="none" stroke="#8177e4" cx="232.8747" cy="-76.3888" rx="4" ry="4"/>
<polygon fill="#8177e4" stroke="#8177e4" points="326.1945,-36.8652 337.1577,-37.1089 330.7986,-34.9152 335.4027,-32.9652 335.4027,-32.9652 335.4027,-32.9652 330.7986,-34.9152 333.6477,-28.8216 326.1945,-36.8652 326.1945,-36.8652"/>
</g>
<!-- Team -->
<g id="node9" class="node">
<title>Team</title>
<ellipse fill="none" stroke="#000000" cx="479.7372" cy="-90" rx="29.7411" ry="18"/>
<text text-anchor="middle" x="479.7372" y="-85.8" font-family="Times,serif" font-size="14.00" fill="#000000">Team</text>
</g>
<!-- Role -->
<g id="node10" class="node">
<title>Role</title>
<ellipse fill="none" stroke="#000000" cx="507.7372" cy="-252.5" rx="27" ry="18"/>
<text text-anchor="middle" x="507.7372" y="-248.3" font-family="Times,serif" font-size="14.00" fill="#000000">Role</text>
</g>
<!-- User -->
<g id="node13" class="node">
<title>User</title>
<ellipse fill="none" stroke="#000000" cx="507.7372" cy="-162" rx="27" ry="18"/>
<text text-anchor="middle" x="507.7372" y="-157.8" font-family="Times,serif" font-size="14.00" fill="#000000">User</text>
</g>
<!-- Role&#45;&gt;User -->
<g id="edge11" class="edge">
<title>Role&#45;&gt;User</title>
<path fill="none" stroke="#a6a91c" d="M507.7372,-223.89C507.7372,-213.1899 507.7372,-201.0476 507.7372,-190.3694"/>
<polygon fill="#a6a91c" stroke="#a6a91c" points="507.7373,-224.186 503.2372,-234.1859 507.7373,-229.186 507.7372,-234.186 507.7372,-234.186 507.7372,-234.186 507.7373,-229.186 512.2372,-234.186 507.7373,-224.186 507.7373,-224.186"/>
<polygon fill="#a6a91c" stroke="#a6a91c" points="507.7373,-190.2868 512.2372,-180.2867 507.7373,-185.2868 507.7372,-180.2868 507.7372,-180.2868 507.7372,-180.2868 507.7373,-185.2868 503.2372,-180.2868 507.7373,-190.2868 507.7373,-190.2868"/>
</g>
<!-- ApplicationRecord -->
<g id="node11" class="node">
<title>ApplicationRecord</title>
<ellipse fill="none" stroke="#000000" cx="629.7372" cy="-252.5" rx="77.2916" ry="18"/>
<text text-anchor="middle" x="629.7372" y="-248.3" font-family="Times,serif" font-size="14.00" fill="#000000">ApplicationRecord</text>
</g>
<!-- Store -->
<g id="node12" class="node">
<title>Store</title>
<ellipse fill="none" stroke="#000000" cx="311.7372" cy="-252.5" rx="28.5497" ry="18"/>
<text text-anchor="middle" x="311.7372" y="-248.3" font-family="Times,serif" font-size="14.00" fill="#000000">Store</text>
</g>
<!-- Store&#45;&gt;Publication -->
<g id="edge12" class="edge">
<title>Store&#45;&gt;Publication</title>
<path fill="none" stroke="#28929d" d="M290.7955,-230.9911C285.4192,-225.8655 279.5169,-220.563 273.7372,-216 258.495,-203.9664 240.509,-192.1248 225.0986,-182.6112"/>
<ellipse fill="none" stroke="#28929d" cx="293.9625" cy="-234.0795" rx="4" ry="4"/>
<polygon fill="#28929d" stroke="#28929d" points="224.9055,-182.4937 218.7025,-173.4508 220.6343,-179.8943 216.363,-177.2949 216.363,-177.2949 216.363,-177.2949 220.6343,-179.8943 214.0236,-181.139 224.9055,-182.4937 224.9055,-182.4937"/>
</g>
<!-- Store&#45;&gt;Product -->
<g id="edge13" class="edge">
<title>Store&#45;&gt;Product</title>
<path fill="none" stroke="#b66872" d="M292.6642,-230.4793C287.0412,-225.0814 280.5536,-219.7766 273.7372,-216 216.4095,-184.2377 171.028,-231.691 130.7372,-180 120.901,-167.3806 123.6791,-158.3591 130.7372,-144 138.1243,-128.9718 151.9289,-116.9451 165.3393,-108.091"/>
<ellipse fill="none" stroke="#b66872" cx="295.5944" cy="-233.455" rx="4" ry="4"/>
<polygon fill="#b66872" stroke="#b66872" points="165.5138,-107.9834 176.387,-106.5605 169.7687,-105.3573 174.0235,-102.7312 174.0235,-102.7312 174.0235,-102.7312 169.7687,-105.3573 171.66,-98.9018 165.5138,-107.9834 165.5138,-107.9834"/>
</g>
<!-- Store&#45;&gt;Team -->
<g id="edge14" class="edge">
<title>Store&#45;&gt;Team</title>
<path fill="none" stroke="#e99f8e" d="M344.0651,-239.4088C370.8227,-227.2577 408.4201,-206.9832 433.7372,-180 450.7098,-161.9105 462.9641,-136.3567 470.5359,-117.0977"/>
<ellipse fill="none" stroke="#e99f8e" cx="340.1376" cy="-241.1484" rx="4" ry="4"/>
<polygon fill="#e99f8e" stroke="#e99f8e" points="470.5586,-117.0368 478.2824,-109.2526 472.3137,-112.355 474.0687,-107.6731 474.0687,-107.6731 474.0687,-107.6731 472.3137,-112.355 469.8551,-106.0935 470.5586,-117.0368 470.5586,-117.0368"/>
</g>
<!-- Store&#45;&gt;User -->
<g id="edge15" class="edge">
<title>Store&#45;&gt;User</title>
<path fill="none" stroke="#e976d2" d="M344.2908,-237.4689C380.9477,-220.5431 440.106,-193.2277 476.2989,-176.5162"/>
<polygon fill="#e976d2" stroke="#e976d2" points="344.0696,-237.571 333.1043,-237.6776 339.5302,-239.667 334.9907,-241.7631 334.9907,-241.7631 334.9907,-241.7631 339.5302,-239.667 336.8771,-245.8486 344.0696,-237.571 344.0696,-237.571"/>
<polygon fill="#e976d2" stroke="#e976d2" points="476.3401,-176.4972 487.3055,-176.3906 480.8796,-174.4011 485.4191,-172.3051 485.4191,-172.3051 485.4191,-172.3051 480.8796,-174.4011 483.5326,-168.2196 476.3401,-176.4972 476.3401,-176.4972"/>
</g>
<!-- User&#45;&gt;Team -->
<g id="edge16" class="edge">
<title>User&#45;&gt;Team</title>
<path fill="none" stroke="#b0a27e" d="M498.0455,-137.0784C495.5597,-130.6863 492.8731,-123.7778 490.3437,-117.2737"/>
<ellipse fill="none" stroke="#b0a27e" cx="499.5094" cy="-140.8428" rx="4" ry="4"/>
<polygon fill="#b0a27e" stroke="#b0a27e" points="490.1744,-116.8383 490.7439,-105.8872 488.3622,-112.1783 486.5499,-107.5182 486.5499,-107.5182 486.5499,-107.5182 488.3622,-112.1783 482.3559,-109.1493 490.1744,-116.8383 490.1744,-116.8383"/>
</g>
</g>
</svg>
