<svg width="206" height="154" viewBox="0 0 206 154" fill="none" xmlns="http://www.w3.org/2000/svg">
<path d="M174.542 124.365C173.671 123.281 173.017 122.057 172.466 120.795C172.197 120.17 171.941 119.52 171.698 118.882C171.582 118.576 171.454 118.283 171.364 117.977C171.262 117.658 171.224 117.493 171.377 117.187C171.377 116.97 171.467 116.881 171.634 116.906C171.774 116.868 171.864 116.932 171.915 117.097C172.044 117.085 172.172 117.059 172.287 117.046C171.518 114.739 171.019 112.354 170.801 109.945C170.698 108.772 170.66 107.586 170.685 106.4C170.698 105.852 170.724 105.304 170.775 104.743C170.788 104.526 170.762 103.914 170.89 103.735C171.031 103.697 171.159 103.659 171.3 103.633C171.531 103.442 171.71 103.442 171.826 103.646C171.967 103.761 172.056 103.965 172.146 104.118C174.491 107.994 176.054 112.367 176.81 116.817C177.245 119.38 177.412 121.968 177.297 124.569C177.284 124.811 177.668 124.811 177.681 124.569C177.886 119.405 177.028 114.216 175.144 109.396C174.67 108.198 174.145 107.025 173.555 105.877C173.286 105.342 172.992 104.819 172.697 104.309C172.454 103.888 172.21 103.378 171.8 103.098C171.006 102.562 170.544 103.327 170.455 104.029C170.288 105.355 170.263 106.706 170.301 108.045C170.391 111.143 170.929 114.203 171.903 117.136C171.967 117.34 172.287 117.314 172.274 117.085C172.274 116.575 171.698 116.358 171.262 116.575C170.493 116.944 170.929 118.003 171.134 118.564C171.928 120.706 172.787 122.822 174.234 124.62C174.427 124.837 174.696 124.556 174.542 124.365Z" fill="#D2D2D2"/>
<path d="M176.799 114.828C176.901 113.132 177.119 111.449 177.49 109.779C177.67 109.001 177.862 108.224 178.105 107.459C178.221 107.076 178.349 106.694 178.477 106.324C178.541 106.133 178.605 105.941 178.682 105.763C178.708 105.686 178.733 105.61 178.772 105.533C178.823 105.266 179.002 105.113 179.297 105.062C179.271 105.278 179.617 105.317 179.669 105.113C179.925 104.271 182 98.8524 183.269 99.7831C183.64 100.051 183.743 100.676 183.807 101.096C183.91 101.683 183.999 102.282 184.063 102.869C184.179 103.876 184.255 104.883 184.281 105.903C184.396 110.047 183.769 114.216 182.436 118.156C181.667 120.413 180.668 122.567 179.464 124.62C179.335 124.837 179.669 125.028 179.797 124.811C182.218 120.706 183.769 116.141 184.384 111.437C184.691 109.065 184.768 106.668 184.589 104.284C184.499 103.149 184.371 102.014 184.166 100.892C184.05 100.28 183.769 99.3751 183.038 99.2604C182.077 99.1074 181.334 100.688 180.95 101.326C180.245 102.486 179.707 103.723 179.31 105.011C179.438 105.023 179.566 105.049 179.681 105.062C179.758 104.45 178.99 104.411 178.682 104.807C178.451 105.1 178.349 105.533 178.234 105.878C178.016 106.477 177.824 107.089 177.644 107.701C176.965 110.021 176.568 112.406 176.427 114.815C176.401 115.07 176.786 115.07 176.799 114.828Z" fill="#D2D2D2"/>
<path d="M170.776 103.595C173.569 110.085 175.324 116.983 175.965 124.008C175.991 124.25 176.375 124.25 176.349 124.008C175.696 116.906 173.928 109.957 171.109 103.391C171.007 103.174 170.673 103.378 170.776 103.595Z" fill="#D2D2D2"/>
<path d="M170.698 111.997C172.031 112.66 173.261 113.489 174.375 114.458C174.555 114.624 174.837 114.356 174.644 114.19C173.491 113.196 172.248 112.354 170.877 111.666C170.672 111.564 170.467 111.895 170.698 111.997Z" fill="#D2D2D2"/>
<path d="M174.26 108.262C173.901 108.963 173.632 109.702 173.466 110.48C173.414 110.722 173.786 110.824 173.837 110.582C174.004 109.843 174.247 109.129 174.593 108.453C174.708 108.236 174.375 108.045 174.26 108.262Z" fill="#D2D2D2"/>
<path d="M182.641 100.076C181.808 107.484 180.899 115.134 177.273 121.789C177.157 122.006 177.49 122.197 177.606 121.981C181.27 115.261 182.18 107.56 183.026 100.076C183.051 99.8338 182.667 99.8338 182.641 100.076Z" fill="#D2D2D2"/>
<path d="M177.847 107.331C178.872 109.728 179.628 112.214 180.128 114.764C180.179 115.007 180.551 114.905 180.5 114.662C179.987 112.074 179.206 109.562 178.181 107.14C178.078 106.91 177.758 107.102 177.847 107.331Z" fill="#D2D2D2"/>
<path d="M181.705 109.256C182.666 108.045 183.627 106.834 184.588 105.635C184.742 105.444 184.473 105.176 184.319 105.367C183.358 106.579 182.397 107.79 181.436 108.988C181.282 109.167 181.551 109.447 181.705 109.256Z" fill="#D2D2D2"/>
<path d="M22.4841 122.669C21.6513 121.777 20.8057 120.859 20.1266 119.839C19.8063 119.341 19.5116 118.831 19.281 118.283C19.1529 117.977 18.5507 116.345 19.3835 116.677C19.5885 116.753 19.6782 116.485 19.5757 116.358C18.73 115.287 18.1663 114.037 17.6794 112.775C17.2182 111.577 16.7697 110.365 16.3469 109.154C15.8857 107.828 15.4885 106.464 15.3347 105.074C15.2194 103.978 15.1041 102.473 15.8985 101.568C17.0644 100.255 18.2432 102.422 18.7941 103.238C19.5372 104.335 20.2675 105.457 20.9722 106.579C22.3688 108.861 23.6372 111.232 24.5725 113.757C25.636 116.638 26.2253 119.686 26.0844 122.758C26.0716 123.001 26.456 123.001 26.4688 122.758C26.7507 116.536 24.0728 110.735 20.8057 105.584C19.9985 104.322 19.1913 103.047 18.3072 101.836C17.8075 101.16 17.0132 100.459 16.1163 100.905C15.2963 101.3 14.9888 102.358 14.9119 103.187C14.771 104.692 15.0657 106.222 15.4757 107.662C15.9369 109.294 16.5647 110.875 17.1541 112.456C17.705 113.935 18.32 115.376 19.3066 116.626C19.3707 116.524 19.4347 116.409 19.4988 116.307C19.1657 116.179 18.871 116.218 18.5891 116.422C18.5378 116.46 18.4866 116.524 18.4994 116.587C18.7813 119.163 20.5366 121.139 22.2279 122.95C22.3816 123.128 22.6507 122.86 22.4841 122.669Z" fill="#D2D2D2"/>
<path d="M23.5356 110.544C23.1384 106.974 23.6125 103.391 24.9194 100.038C24.8169 100.063 24.7016 100.089 24.5991 100.127C24.9963 100.484 25.2653 100.892 25.4191 101.402C25.4703 101.581 25.7394 101.593 25.7906 101.402C26.6619 98.3931 27.9303 95.5244 29.5959 92.8596C29.4806 92.8469 29.3653 92.8341 29.25 92.8086C30.2494 95.3459 30.8772 98.0234 31.0822 100.752C31.2616 103.2 31.3256 106.018 29.8266 108.096C29.7497 108.198 29.8266 108.351 29.9419 108.376C31.095 108.644 30.7491 110.455 30.6466 111.271C30.4928 112.622 30.2622 113.974 29.9675 115.3C29.4038 117.862 28.5838 120.374 27.5459 122.784C27.4434 123.013 27.7766 123.205 27.8791 122.975C29.0963 120.17 30.0059 117.238 30.5825 114.241C30.8388 112.864 31.1334 111.411 31.1591 110.008C31.1719 109.205 30.9669 108.198 30.0572 107.994C30.0956 108.083 30.1341 108.185 30.1725 108.274C31.6716 106.196 31.6459 103.417 31.4922 100.969C31.3128 98.1254 30.6722 95.3331 29.6344 92.6939C29.5703 92.5409 29.3781 92.5026 29.2884 92.6429C27.61 95.3331 26.3288 98.2274 25.4447 101.275C25.5728 101.275 25.6881 101.275 25.8163 101.275C25.6369 100.701 25.3422 100.242 24.8938 99.8339C24.7784 99.7319 24.6247 99.7829 24.5734 99.9231C23.2538 103.302 22.7797 106.936 23.1769 110.531C23.1769 110.786 23.5613 110.786 23.5356 110.544Z" fill="#D2D2D2"/>
<path d="M16.0403 101.504C17.8212 105.01 19.6406 108.504 21.3447 112.048C23.0103 115.542 24.4837 119.15 25.2781 122.95C25.3294 123.192 25.7009 123.09 25.6497 122.848C24.8553 119.086 23.4203 115.529 21.7675 112.061C20.0506 108.44 18.18 104.883 16.3606 101.3C16.2581 101.096 15.925 101.287 16.0403 101.504Z" fill="#D2D2D2"/>
<path d="M29.3258 93.3442C29.0568 97.131 27.878 100.752 27.0068 104.424C26.1355 108.096 25.5333 111.832 25.2002 115.593C25.1746 115.835 25.559 115.835 25.5846 115.593C25.9305 111.704 26.5711 107.841 27.4936 104.054C28.3649 100.51 29.4411 97.0035 29.7102 93.3442C29.723 93.0892 29.3386 93.0892 29.3258 93.3442Z" fill="#D2D2D2"/>
<path d="M15.8335 108.81C17.7682 109.46 19.5363 110.455 21.1123 111.755C21.3045 111.908 21.5735 111.641 21.3813 111.488C19.7542 110.149 17.9348 109.129 15.936 108.44C15.6926 108.351 15.5901 108.721 15.8335 108.81Z" fill="#D2D2D2"/>
<path d="M24.4819 100.344C24.9175 102.652 25.5581 104.921 26.3909 107.114C26.4806 107.344 26.8522 107.242 26.7625 107.012C25.9297 104.806 25.3019 102.55 24.8534 100.242C24.8022 99.9997 24.4434 100.102 24.4819 100.344Z" fill="#D2D2D2"/>
<path d="M25.8657 116.434C27.2495 114.624 28.6716 112.801 30.696 111.666C30.9138 111.551 30.7216 111.22 30.5038 111.334C28.4282 112.507 26.9548 114.382 25.5326 116.243C25.3916 116.434 25.7248 116.626 25.8657 116.434Z" fill="#D2D2D2"/>
<path d="M159.116 125.053C169.892 125.053 180.68 125.053 191.455 125.053C191.955 125.053 191.955 124.288 191.455 124.288C180.68 124.288 169.892 124.288 159.116 124.288C158.617 124.288 158.617 125.053 159.116 125.053Z" fill="black"/>
<path d="M42.0743 122.504C33.6181 122.504 25.1618 122.504 16.7056 122.504C16.2059 122.504 16.2059 123.269 16.7056 123.269C25.1618 123.269 33.6181 123.269 42.0743 123.269C42.5612 123.269 42.5612 122.504 42.0743 122.504Z" fill="black"/>
<path d="M128.201 131.275C139.886 131.275 151.571 131.275 163.256 131.275C166.587 131.275 169.905 131.275 173.237 131.275C173.736 131.275 173.736 130.51 173.237 130.51C161.552 130.51 149.867 130.51 138.182 130.51C134.85 130.51 131.532 130.51 128.201 130.51C127.714 130.51 127.701 131.275 128.201 131.275Z" fill="black"/>
<path d="M155.862 125.258C118.577 124.518 81.2931 123.779 44.0087 123.039C37.3334 122.912 32.6696 116.422 34.694 110.098L57.7181 38.0093C59.0249 33.9165 62.8431 31.1115 67.1609 31.086C101.665 30.8438 136.169 30.5888 170.673 30.3465C176.977 30.2955 181.756 36.0203 180.539 42.1785L165.843 117.225C164.933 121.968 160.718 125.36 155.862 125.258Z" fill="#B575CC" stroke="black" stroke-miterlimit="10"/>
<path d="M155.144 124.633C117.86 123.932 80.5755 123.243 43.2912 122.542C36.6159 122.414 31.9521 116.294 33.9765 110.327L57.0005 42.2805C58.3074 38.4173 62.1255 35.778 66.4434 35.7398C100.947 35.5103 135.451 35.268 169.956 35.0385C176.259 35.0003 181.038 40.3935 179.821 46.2075L165.125 117.059C164.216 121.522 160 124.722 155.144 124.633Z" fill="white" stroke="black" stroke-miterlimit="10"/>
<path d="M164.702 118.959C163.472 121.649 161.102 123.676 158.245 124.467C158.001 124.531 158.104 124.9 158.347 124.837C161.294 124.021 163.767 121.917 165.035 119.15C165.125 118.933 164.805 118.729 164.702 118.959Z" fill="black"/>
<path d="M68.1476 33.9038C67.7632 33.8656 67.6223 33.4576 67.7248 33.1261C67.8657 32.7053 68.2757 32.6161 68.6601 32.8073C68.9291 32.9476 69.0701 33.2791 68.9548 33.5723C68.8266 33.8911 68.4551 33.9931 68.1476 33.8783C67.917 33.7891 67.8145 34.1588 68.0451 34.2481C68.5448 34.4393 69.1598 34.1843 69.3391 33.6616C69.5185 33.1006 69.1598 32.5523 68.6216 32.3866C68.0195 32.2081 67.4941 32.4886 67.3404 33.1133C67.2123 33.6871 67.571 34.2226 68.1476 34.2863C68.391 34.3118 68.391 33.9293 68.1476 33.9038Z" fill="black"/>
<path d="M67.6988 33.5978C67.8526 33.993 68.4163 34.1205 68.7495 33.8783C68.9673 33.7125 69.0698 33.3938 68.9673 33.1133C68.852 32.8073 68.5188 32.6288 68.2241 32.6798C67.8141 32.7563 67.5451 33.228 67.6988 33.5978Z" fill="white"/>
<path d="M72.4779 33.7891C72.0935 33.7508 71.9526 33.3428 72.0551 33.0113C72.196 32.5906 72.606 32.5013 72.9904 32.6926C73.2595 32.8328 73.4004 33.1643 73.2851 33.4576C73.157 33.7763 72.7854 33.8783 72.4779 33.7636C72.2473 33.6743 72.1448 34.0441 72.3754 34.1333C72.8751 34.3246 73.4901 34.0696 73.6695 33.5468C73.8488 32.9858 73.4901 32.4376 72.952 32.2718C72.3498 32.0933 71.8245 32.3738 71.6707 32.9986C71.5426 33.5723 71.9013 34.1078 72.4779 34.1716C72.7213 34.1971 72.7213 33.8146 72.4779 33.7891Z" fill="black"/>
<path d="M72.0292 33.483C72.1829 33.8783 72.7467 34.0058 73.0798 33.7635C73.2976 33.5978 73.4001 33.279 73.2976 32.9985C73.1823 32.6925 72.8492 32.514 72.5545 32.565C72.1445 32.6415 71.8754 33.1133 72.0292 33.483Z" stroke="black" stroke-width="0.201282" stroke-miterlimit="10"/>
<path d="M67.8909 32.8073C68.0703 33.2026 68.2753 33.5851 68.5187 33.9548C68.6469 34.1588 68.98 33.9676 68.8519 33.7636C68.6212 33.3938 68.4162 33.0113 68.2241 32.6161C68.1216 32.3993 67.7884 32.5906 67.8909 32.8073Z" fill="black"/>
<path d="M67.93 33.9546C68.1094 33.8016 68.276 33.6359 68.4553 33.4829C68.6091 33.3426 68.7628 33.1769 68.955 33.0749C69.1728 32.9601 68.9806 32.6286 68.7628 32.7434C68.5706 32.8454 68.4169 33.0111 68.2503 33.1641C68.0581 33.3426 67.8531 33.5211 67.661 33.6996C67.4816 33.8526 67.7506 34.1204 67.93 33.9546Z" fill="black"/>
<path d="M115.515 42.5611C114.374 46.2076 113.221 49.8668 112.081 53.5133C111.376 55.7828 113.055 58.0778 115.438 58.1161C131.338 58.3073 147.226 58.4858 163.126 58.6771C164.868 58.7026 166.367 57.4531 166.675 55.7446C167.354 51.8686 168.046 47.9926 168.725 44.1166C169.109 41.9491 167.431 39.9601 165.214 39.9601C149.775 39.9983 134.336 40.0366 118.91 40.0748C117.36 40.0748 115.976 41.0821 115.515 42.5611Z" fill="white" stroke="black" stroke-width="0.603845" stroke-miterlimit="10"/>
<path d="M54.5017 93.3952C52.2851 99.732 50.0685 106.069 47.852 112.405C46.481 116.332 49.7354 120.336 54.3479 120.387C85.1235 120.706 115.912 121.037 146.688 121.356C150.07 121.394 152.979 119.239 153.555 116.269C154.888 109.549 156.207 102.817 157.54 96.0982C158.283 92.3242 155.029 88.8817 150.736 88.8817C120.845 88.9455 90.9532 89.0092 61.0617 89.073C58.0507 89.0857 55.3985 90.8325 54.5017 93.3952Z" fill="white" stroke="black" stroke-width="0.603845" stroke-miterlimit="10"/>
<path d="M120.333 64.4018C118.27 70.5473 116.208 76.6928 114.145 82.8383C114.068 83.0678 114.439 83.1698 114.516 82.9403C116.579 76.7948 118.642 70.6493 120.705 64.5038C120.782 64.2616 120.41 64.1596 120.333 64.4018Z" fill="#D2D2D2"/>
<path d="M120.578 64.4399C125.933 64.1594 131.314 63.7259 136.683 63.7259C142.026 63.7259 147.356 64.1849 152.673 64.6439C152.916 64.6694 152.916 64.2869 152.673 64.2614C147.356 63.8024 142.026 63.3561 136.683 63.3434C131.314 63.3434 125.933 63.7769 120.578 64.0574C120.334 64.0701 120.321 64.4526 120.578 64.4399Z" fill="#D2D2D2"/>
<path d="M152.608 64.6314C151.173 70.7259 149.725 76.8077 148.29 82.9022C148.239 83.1444 148.61 83.2464 148.662 83.0042C150.097 76.9097 151.544 70.8279 152.979 64.7334C153.031 64.5039 152.659 64.4019 152.608 64.6314Z" fill="#D2D2D2"/>
<path d="M114.376 83.5013C123.166 83.0296 131.968 82.9148 140.77 83.1826C143.281 83.2591 145.78 83.3611 148.291 83.5013C148.534 83.5141 148.534 83.1316 148.291 83.1188C139.502 82.6343 130.7 82.5323 121.897 82.8001C119.386 82.8766 116.888 82.9786 114.376 83.1188C114.133 83.1316 114.12 83.5141 114.376 83.5013Z" fill="#D2D2D2"/>
<path d="M131.441 82.8512C136.925 80.0079 143.19 79.5872 149.25 79.2174C149.494 79.2047 149.494 78.8222 149.25 78.8349C143.126 79.2174 136.796 79.6509 131.249 82.5197C131.018 82.6344 131.21 82.9659 131.441 82.8512Z" fill="#D2D2D2"/>
<path d="M140.193 70.7129C140.795 73.6327 141.102 76.6034 141.115 79.5869C141.115 79.8292 141.499 79.8292 141.499 79.5869C141.474 76.5652 141.166 73.5689 140.564 70.6109C140.513 70.3687 140.141 70.4707 140.193 70.7129Z" fill="#D2D2D2"/>
<path d="M140.05 70.6492C139.268 71.784 138.499 72.9315 137.718 74.0662C137.833 74.1045 137.961 74.13 138.077 74.1682C138.013 73.0207 138.307 71.9497 138.961 71.0062C139.102 70.8022 138.768 70.611 138.628 70.815C137.936 71.8095 137.615 72.9697 137.679 74.1682C137.692 74.3595 137.923 74.4232 138.038 74.2702C138.82 73.1355 139.588 71.988 140.37 70.8532C140.524 70.6365 140.191 70.4452 140.05 70.6492Z" fill="#D2D2D2"/>
<path d="M138.758 70.5473C138.322 70.3561 137.886 70.2668 137.412 70.2923C137.13 70.3051 135.99 70.6493 136.157 70.2286C136.221 70.0628 136.579 69.8461 136.72 69.7313C136.989 69.5146 137.271 69.3106 137.566 69.1448C138.219 68.7751 138.95 68.5966 139.693 68.7113C139.936 68.7496 140.039 68.3798 139.795 68.3416C138.309 68.1121 136.759 68.9153 135.798 70.0246C135.542 70.3178 135.58 70.7258 136.003 70.8533C136.233 70.9171 136.49 70.8278 136.708 70.7768C137.335 70.6366 137.95 70.5856 138.565 70.8533C138.783 70.9808 138.975 70.6493 138.758 70.5473Z" fill="#D2D2D2"/>
<path d="M140.038 68.3159C140.525 67.1684 141.486 66.3269 142.677 65.9699C142.613 65.8679 142.549 65.7532 142.485 65.6512C142.049 66.2122 141.793 66.8242 141.703 67.5254C141.678 67.7677 142.062 67.7677 142.088 67.5254C142.165 66.9262 142.395 66.3907 142.754 65.9189C142.857 65.7787 142.767 65.5364 142.562 65.6002C141.229 65.9954 140.192 66.939 139.653 68.214C139.577 68.4435 139.948 68.5454 140.038 68.3159Z" fill="#D2D2D2"/>
<path d="M141.986 67.7551C142.986 67.1813 144.164 67.1686 145.177 67.7168C145.177 67.6021 145.177 67.5001 145.177 67.3853C144.369 67.7678 143.601 68.2268 142.87 68.7368C142.665 68.8771 142.857 69.2086 143.062 69.0683C143.793 68.5583 144.562 68.0993 145.369 67.7168C145.497 67.6531 145.484 67.4491 145.369 67.3853C144.228 66.7606 142.909 66.7733 141.794 67.4236C141.576 67.5511 141.768 67.8826 141.986 67.7551Z" fill="#D2D2D2"/>
<path d="M142.728 69.0937C143.561 69.5527 144.368 70.305 144.137 71.3505C144.252 71.3377 144.368 71.325 144.483 71.2995C143.945 70.4452 143.022 69.9607 142.01 69.999C141.767 70.0117 141.767 70.3942 142.01 70.3815C142.894 70.3432 143.689 70.7512 144.15 71.4907C144.227 71.6182 144.47 71.6182 144.496 71.4397C144.752 70.2285 143.906 69.2977 142.907 68.7495C142.702 68.6475 142.51 68.9789 142.728 69.0937Z" fill="#D2D2D2"/>
<path d="M141.677 70.3178C142.266 73.3778 142.484 76.476 142.318 79.587C142.305 79.8293 142.689 79.8293 142.702 79.587C142.869 76.4505 142.651 73.3013 142.049 70.2158C141.997 69.9735 141.626 70.0755 141.677 70.3178Z" fill="#D2D2D2"/>
<path d="M141.254 76.323C141.677 76.374 142.074 76.2975 142.459 76.1318C142.689 76.0298 142.484 75.6983 142.267 75.8003C141.946 75.9533 141.6 75.9915 141.254 75.9405C141.011 75.9023 141.011 76.2848 141.254 76.323Z" fill="#D2D2D2"/>
<path d="M116.042 78.2866C118.143 78.4141 120.27 78.4523 122.359 78.6946C123.384 78.8093 124.37 79.1153 125.382 79.2683C126.369 79.4086 127.33 79.2683 128.316 79.0898C132.634 78.3376 136.978 78.7456 141.296 79.2046C141.539 79.2301 141.539 78.8476 141.296 78.8221C137.119 78.3758 132.878 77.9423 128.701 78.6308C127.522 78.8221 126.407 79.0515 125.216 78.8475C124.255 78.6818 123.332 78.4268 122.371 78.3121C120.283 78.0698 118.156 78.0316 116.055 77.9041C115.799 77.8786 115.799 78.2611 116.042 78.2866Z" fill="#D2D2D2"/>
<path d="M140.807 73.6839C140.858 73.9006 141.076 73.9516 141.281 73.9134C141.678 73.8496 142.088 73.7094 142.472 73.5946C142.716 73.5309 142.613 73.1611 142.37 73.2249C142.139 73.2886 141.909 73.3524 141.678 73.4034C141.576 73.4289 141.46 73.4544 141.358 73.4926C141.307 73.5054 141.255 73.5181 141.204 73.5309C141.114 73.5181 141.114 73.5309 141.178 73.5691C141.127 73.3396 140.756 73.4416 140.807 73.6839Z" fill="#D2D2D2"/>
<path d="M124.575 68.8133C123.307 68.4053 124.96 66.2378 125.844 67.2068C126.164 67.5511 126.151 68.1503 125.856 68.5073C125.523 68.9153 124.947 68.9791 124.498 68.7241C124.28 68.5966 124.088 68.9281 124.306 69.0556C124.96 69.4253 125.844 69.2851 126.254 68.6348C126.625 68.0356 126.523 67.1048 125.869 66.7351C124.447 65.9446 122.743 68.6348 124.485 69.1958C124.716 69.2596 124.819 68.8898 124.575 68.8133Z" fill="#D2D2D2"/>
<path d="M154.197 65.7403C158.335 65.9571 162.435 66.4416 166.51 67.2066C166.753 67.2576 166.855 66.8878 166.612 66.8368C162.512 66.0591 158.374 65.5618 154.197 65.3451C153.953 65.3451 153.953 65.7276 154.197 65.7403Z" fill="#D2D2D2"/>
<path d="M154.131 66.8497C158.077 67.2704 162.036 67.7167 165.969 68.1884C166.213 68.2139 166.213 67.8314 165.969 67.8059C162.023 67.3342 158.077 66.8879 154.131 66.4672C153.887 66.4417 153.887 66.8242 154.131 66.8497Z" fill="#D2D2D2"/>
<path d="M154.005 67.9974C156.388 68.3927 158.784 68.6477 161.193 68.7242C161.436 68.7369 161.436 68.3544 161.193 68.3417C158.823 68.2524 156.452 68.0229 154.108 67.6276C153.864 67.5894 153.762 67.9592 154.005 67.9974Z" fill="#D2D2D2"/>
<path d="M152.569 74.8696C155.811 75.3286 159.065 75.7111 162.32 76.0171C162.563 76.0426 162.563 75.6601 162.32 75.6346C159.091 75.3286 155.875 74.9461 152.672 74.4998C152.428 74.4616 152.326 74.8313 152.569 74.8696Z" fill="#D2D2D2"/>
<path d="M152.327 75.966C154.902 76.4122 157.478 76.782 160.066 77.088C160.309 77.1135 160.309 76.731 160.066 76.7055C157.503 76.4122 154.966 76.0425 152.429 75.5962C152.186 75.5452 152.084 75.915 152.327 75.966Z" fill="#D2D2D2"/>
<path d="M152.057 77.5853C155.286 78.2228 158.54 78.6563 161.82 78.8603C162.064 78.873 162.064 78.4905 161.82 78.4778C158.579 78.261 155.35 77.8403 152.16 77.2155C151.916 77.1645 151.814 77.5343 152.057 77.5853Z" fill="#D2D2D2"/>
<path d="M60.0496 93.9947C65.9434 94.2879 71.8627 93.9819 77.7565 93.8927C83.6502 93.8034 89.5312 93.7779 95.4249 93.7907C107.251 93.8162 119.064 94.0329 130.89 94.3007C137.552 94.4537 144.202 94.6322 150.865 94.7979C151.108 94.8107 151.108 94.4282 150.865 94.4154C139.051 94.1094 127.226 93.7907 115.4 93.5994C103.574 93.4082 91.7605 93.3189 79.9346 93.4719C73.3105 93.5484 66.6609 93.9437 60.0496 93.5994C59.7934 93.5994 59.7934 93.9819 60.0496 93.9947Z" fill="#D2D2D2"/>
<path d="M59.8192 49.089C60.588 49.2037 61.1261 48.681 62.6508 47.559C64.9442 45.8632 65.4311 45.8122 65.777 45.8377C65.9436 45.8505 66.2511 45.9015 67.6989 46.9852C69.813 48.5662 69.9411 49.0507 70.633 49.089C71.8886 49.14 72.068 47.559 73.567 47.4187C74.9252 47.2912 75.348 48.528 77.0264 48.4642C78.3205 48.426 79.0764 47.6355 79.1917 47.8012C79.3327 48.018 78.1155 49.6882 76.3602 49.956C75.0661 50.1472 74.7842 49.395 73.5286 49.5735C71.7861 49.8285 71.453 51.4095 70.1717 51.2947C69.4158 51.2182 69.3133 50.6572 68.0064 49.7647C67.3145 49.293 66.1102 48.477 64.7905 48.375C62.3689 48.1965 61.1133 50.5297 59.6527 49.854C58.948 49.5352 58.5508 48.6682 58.6405 48.5662C58.7045 48.4642 59.153 48.987 59.8192 49.089Z" fill="#3D1A37"/>
<path d="M119.846 42.5483C119.064 46.0801 118.103 49.5736 116.975 53.0161C116.899 53.2456 117.27 53.3476 117.347 53.1181C118.475 49.6756 119.435 46.1821 120.217 42.6503C120.268 42.4081 119.897 42.3061 119.846 42.5483Z" fill="#D2D2D2"/>
<path d="M117.206 53.3093C118.526 53.4623 119.845 53.3986 121.178 53.3731C122.562 53.3348 123.945 53.3093 125.342 53.2711C128.109 53.2073 130.89 53.1308 133.657 53.0671C133.901 53.0671 133.901 52.6846 133.657 52.6846C130.89 52.7483 128.109 52.8248 125.342 52.8886C123.997 52.9268 122.651 52.9523 121.306 52.9906C119.935 53.0288 118.577 53.0926 117.206 52.9396C116.963 52.9013 116.963 53.2838 117.206 53.3093Z" fill="#D2D2D2"/>
<path d="M121.971 46.1057C121.485 48.3752 121.075 50.6574 120.729 52.9524C120.69 53.1947 121.062 53.2967 121.1 53.0544C121.446 50.7594 121.856 48.4772 122.343 46.2077C122.394 45.9654 122.023 45.8634 121.971 46.1057Z" fill="#D2D2D2"/>
<path d="M122.267 46.3094C122.946 46.3477 123.612 46.4114 124.278 46.5389C124.24 46.4624 124.189 46.3859 124.15 46.3094C123.548 48.4642 123.036 50.6444 122.613 52.8374C122.561 53.0797 122.933 53.1817 122.984 52.9394C123.407 50.7464 123.92 48.5662 124.522 46.4114C124.547 46.3222 124.496 46.1947 124.394 46.1819C123.689 46.0544 122.997 45.9779 122.28 45.9397C122.011 45.9142 122.011 46.2967 122.267 46.3094Z" fill="#D2D2D2"/>
<path d="M125.572 48.273C125.38 49.8285 125.124 51.3585 124.804 52.8885C124.752 53.1307 125.124 53.2327 125.175 52.9905C125.508 51.435 125.765 49.854 125.957 48.273C125.982 48.0307 125.598 48.0307 125.572 48.273Z" fill="#D2D2D2"/>
<path d="M125.764 48.2986C126.482 48.2731 127.212 48.2859 127.929 48.3369C127.865 48.2604 127.801 48.1711 127.75 48.0946C127.468 49.6119 127.225 51.1291 127.02 52.6591C126.981 52.9014 127.366 52.9014 127.404 52.6591C127.609 51.1674 127.84 49.6884 128.122 48.1966C128.147 48.0691 128.07 47.9671 127.942 47.9544C127.225 47.9034 126.494 47.9034 125.777 47.9161C125.508 47.9161 125.508 48.2986 125.764 48.2986Z" fill="#D2D2D2"/>
<path d="M130.249 44.805C129.801 47.4698 129.275 50.1345 128.699 52.7738C128.647 53.016 129.019 53.118 129.07 52.8758C129.647 50.2365 130.172 47.5718 130.621 44.907C130.672 44.6648 130.3 44.5628 130.249 44.805Z" fill="#D2D2D2"/>
<path d="M130.558 44.6139C130.558 44.6394 130.558 44.6521 130.558 44.6776C130.558 44.7796 130.647 44.8689 130.75 44.8689C130.852 44.8689 130.942 44.7796 130.942 44.6776C130.942 44.6521 130.942 44.6394 130.942 44.6139C130.942 44.5119 130.852 44.4226 130.75 44.4226C130.647 44.4354 130.558 44.5119 130.558 44.6139Z" fill="#D2D2D2"/>
<path d="M130.646 44.9325C131.236 45.06 131.799 45.1237 132.402 45.111C132.337 45.0345 132.273 44.9452 132.222 44.8687C131.722 47.5335 131.261 50.211 130.826 52.8885C130.787 53.1307 131.159 53.2327 131.197 52.9905C131.633 50.313 132.094 47.6355 132.594 44.9707C132.619 44.856 132.542 44.7285 132.414 44.7285C131.851 44.7285 131.312 44.6775 130.762 44.5627C130.505 44.5117 130.403 44.8687 130.646 44.9325Z" fill="#D2D2D2"/>
<path d="M136.503 44.0656C140.859 44.0146 145.202 44.0401 149.559 44.1549C149.802 44.1549 149.802 43.7724 149.559 43.7724C145.202 43.6704 140.859 43.6449 136.503 43.6831C136.259 43.6831 136.259 44.0656 136.503 44.0656Z" fill="#D2D2D2"/>
<path d="M136.797 45.621C139.501 45.7995 142.217 45.7613 144.92 45.5063C145.164 45.4808 145.164 45.0983 144.92 45.1238C142.217 45.3788 139.501 45.417 136.797 45.2385C136.554 45.2258 136.554 45.6083 136.797 45.621Z" fill="#D2D2D2"/>
<path d="M136.208 47.5464C139.924 47.4826 143.639 47.5464 147.355 47.7376C147.598 47.7504 147.598 47.3679 147.355 47.3551C143.639 47.1511 139.924 47.0874 136.208 47.1639C135.965 47.1639 135.965 47.5464 136.208 47.5464Z" fill="#D2D2D2"/>
<path d="M156.144 53.4622C154.837 53.2964 154.209 51.9959 153.838 50.8867C153.492 49.8412 153.364 48.7447 153.761 47.6992C154.453 45.8632 156.336 44.3842 158.232 43.9634C160.206 43.5172 162.204 44.5627 163.152 46.3094C164.152 48.1454 163.806 50.5042 162.64 52.1744C161.205 54.2272 158.181 54.4567 156.08 53.3729C155.862 53.2582 155.67 53.5897 155.888 53.7044C157.899 54.7372 160.68 54.6862 162.384 53.0669C164.049 51.4859 164.587 48.6682 163.716 46.5772C162.883 44.6009 160.782 43.2239 158.604 43.5044C156.452 43.7849 154.286 45.4169 153.466 47.4187C152.915 48.7829 153.146 50.2109 153.684 51.5369C154.145 52.6589 154.876 53.6789 156.157 53.8447C156.387 53.8702 156.387 53.4877 156.144 53.4622Z" fill="#D2D2D2"/>
<path d="M156.682 44.4735C157.285 46.0163 157.835 47.5845 158.361 49.1655C158.438 49.395 158.809 49.293 158.732 49.0635C158.207 47.4825 157.656 45.927 157.054 44.3715C156.964 44.1548 156.593 44.244 156.682 44.4735Z" fill="#D2D2D2"/>
<path d="M158.757 49.3823C160.269 48.3368 161.768 47.2531 163.229 46.1438C163.421 45.9908 163.229 45.6593 163.037 45.8123C161.563 46.9216 160.077 48.0053 158.565 49.0508C158.36 49.1911 158.552 49.5226 158.757 49.3823Z" fill="#D2D2D2"/>
<path d="M158.695 49.395C160.412 49.3185 162.103 49.038 163.756 48.5535C163.986 48.4897 163.897 48.12 163.653 48.1837C162.039 48.6555 160.386 48.936 158.695 48.9997C158.451 49.0252 158.451 49.4077 158.695 49.395Z" fill="#D2D2D2"/>
<path d="M158.386 49.2675C157.361 50.5807 156.349 51.894 155.324 53.2072C155.171 53.3985 155.504 53.5897 155.657 53.3985C156.682 52.0852 157.695 50.772 158.72 49.4587C158.873 49.2675 158.54 49.0762 158.386 49.2675Z" fill="#D2D2D2"/>
<path d="M60.3066 93.3444C59.9863 93.2551 60.1785 92.8344 60.3194 92.6941C60.4732 92.5411 60.8576 92.5539 61.0626 92.5539C61.4341 92.5411 61.8057 92.5539 62.1901 92.5411C62.9588 92.5411 63.7276 92.5284 64.4963 92.5284C66.0338 92.5156 67.5713 92.5156 69.1088 92.5029C72.1454 92.4901 75.1691 92.4646 78.2057 92.4519C84.3173 92.4136 90.416 92.3881 96.5276 92.3754C108.699 92.3371 120.859 92.3371 133.03 92.4009C136.362 92.4264 139.706 92.4264 143.037 92.5666C144.69 92.6304 146.343 92.7324 147.995 92.8854C148.815 92.9619 149.648 93.0511 150.468 93.1531C150.737 93.1914 151.006 93.2169 151.275 93.2679C151.493 93.3061 151.621 93.2679 151.698 93.4719C151.903 93.9564 151.25 94.4536 150.853 94.4791C150.609 94.4919 150.609 94.8744 150.853 94.8616C151.711 94.7979 152.313 93.9309 151.993 93.1149C151.967 93.0511 151.929 92.9874 151.865 92.9874C145.753 92.0821 139.565 92.0821 133.402 92.0439C127.034 92.0056 120.679 91.9929 114.311 91.9801C101.55 91.9801 88.776 92.0311 76.0147 92.0949C72.4272 92.1204 68.8398 92.1331 65.2522 92.1586C64.3938 92.1586 63.5482 92.1714 62.6897 92.1714C61.9722 92.1714 61.1266 92.0566 60.4347 92.2606C59.7685 92.4519 59.3329 93.4974 60.2041 93.7396C60.4348 93.7779 60.5372 93.4081 60.3066 93.3444Z" fill="#D2D2D2"/>
<path d="M59.3594 95.5883C58.0781 100.191 56.515 104.717 54.6572 109.129C54.5675 109.358 54.939 109.46 55.0287 109.231C56.8865 104.819 58.4497 100.293 59.7309 95.6903C59.795 95.4481 59.4234 95.3461 59.3594 95.5883Z" fill="#D2D2D2"/>
<path d="M59.4867 95.9708C62.7795 96.366 66.1749 96.0982 69.4805 96.06C69.7239 96.06 69.7239 95.6775 69.4805 95.6775C66.1749 95.7285 62.7795 95.9835 59.4867 95.5883C59.2305 95.5628 59.2433 95.9453 59.4867 95.9708Z" fill="#D2D2D2"/>
<path d="M69.0687 96.0345C67.9796 100.038 66.8265 104.016 65.6093 107.994C65.5324 108.236 65.904 108.326 65.9808 108.096C67.198 104.131 68.3512 100.14 69.4402 96.1365C69.5043 95.8943 69.1327 95.7923 69.0687 96.0345Z" fill="#D2D2D2"/>
<path d="M54.8359 109.32C56.6425 109.307 58.4362 109.295 60.2428 109.282C61.1268 109.282 61.9981 109.269 62.8821 109.269C63.6637 109.269 64.4453 109.295 65.214 109.116C65.4575 109.065 65.355 108.695 65.1115 108.746C64.3043 108.938 63.4587 108.887 62.6259 108.887C61.7418 108.887 60.8706 108.899 59.9865 108.899C58.2696 108.912 56.5528 108.925 54.8359 108.925C54.5925 108.938 54.5925 109.32 54.8359 109.32Z" fill="#D2D2D2"/>
<path d="M71.0815 96.1238C79.7428 95.8815 88.4168 95.8943 97.0781 96.1748C97.3215 96.1875 97.3215 95.805 97.0781 95.7923C88.4168 95.5118 79.7428 95.4863 71.0815 95.7413C70.8381 95.7413 70.8381 96.1238 71.0815 96.1238Z" fill="#D2D2D2"/>
<path d="M70.7242 98.3677C75.7467 98.355 80.7692 98.355 85.8045 98.3422C86.0479 98.3422 86.0479 97.9597 85.8045 97.9597C80.782 97.9725 75.7595 97.9725 70.7242 97.9852C70.4679 97.9852 70.4679 98.3677 70.7242 98.3677Z" fill="#D2D2D2"/>
<path d="M65.5592 108.874C65.7898 108.491 65.9564 108.083 66.0461 107.663C66.0973 107.42 65.7258 107.318 65.6745 107.561C65.5848 107.956 65.4439 108.338 65.2261 108.683C65.098 108.887 65.4311 109.078 65.5592 108.874Z" fill="#D2D2D2"/>
<path d="M113.632 97.2457C112.607 102.116 111.62 106.987 110.659 111.857C110.608 112.099 110.979 112.201 111.031 111.959C111.992 107.089 112.978 102.218 114.003 97.3477C114.054 97.1054 113.683 97.0034 113.632 97.2457Z" fill="#D2D2D2"/>
<path d="M110.735 112.176C116.001 112.316 121.254 112.456 126.52 112.597C131.722 112.737 136.924 112.954 142.125 112.954C142.369 112.954 142.369 112.571 142.125 112.571C136.924 112.571 131.722 112.342 126.52 112.214C121.254 112.074 116.001 111.934 110.735 111.793C110.491 111.781 110.491 112.163 110.735 112.176Z" fill="#D2D2D2"/>
<path d="M111.121 112.138C112.71 110.429 114.299 108.708 115.888 107C115.798 107 115.708 107 115.618 107C116.144 107.65 116.759 108.185 117.476 108.619C117.694 108.746 117.886 108.415 117.668 108.287C116.977 107.879 116.387 107.357 115.888 106.732C115.823 106.655 115.683 106.668 115.618 106.732C114.03 108.44 112.441 110.162 110.852 111.87C110.686 112.049 110.955 112.316 111.121 112.138Z" fill="#D2D2D2"/>
<path d="M117.577 108.491C119.281 106.49 120.998 104.501 122.702 102.499C122.856 102.308 122.587 102.04 122.433 102.231C120.729 104.233 119.012 106.222 117.308 108.224C117.142 108.402 117.411 108.67 117.577 108.491Z" fill="#D2D2D2"/>
<path d="M122.433 102.308C122.779 102.767 123.124 103.213 123.47 103.672C123.547 103.774 123.663 103.799 123.778 103.71C125.341 102.435 126.866 101.096 128.339 99.7193C128.519 99.5536 128.249 99.2858 128.07 99.4516C126.597 100.829 125.072 102.167 123.509 103.442C123.611 103.455 123.714 103.468 123.816 103.481C123.47 103.022 123.124 102.575 122.779 102.116C122.612 101.912 122.279 102.104 122.433 102.308Z" fill="#D2D2D2"/>
<path d="M127.931 99.8851C130.071 101.568 132.133 103.34 134.132 105.176C134.311 105.342 134.581 105.074 134.401 104.909C132.402 103.06 130.34 101.3 128.2 99.6173C128.008 99.4643 127.739 99.7321 127.931 99.8851Z" fill="#D2D2D2"/>
<path d="M134.362 105.125C137.001 103.455 138.898 100.88 141.473 99.12C141.678 98.9798 141.486 98.6483 141.281 98.7885C138.706 100.548 136.809 103.124 134.17 104.794C133.965 104.921 134.157 105.253 134.362 105.125Z" fill="#D2D2D2"/>
<path d="M139.231 99.5152C140.039 99.375 140.82 99.171 141.602 98.9287C141.525 98.8522 141.448 98.7757 141.371 98.6992C141.23 99.3367 141.102 99.9742 140.961 100.612C140.91 100.854 141.281 100.956 141.333 100.714C141.474 100.076 141.602 99.4387 141.743 98.8012C141.768 98.661 141.653 98.5207 141.512 98.5717C140.73 98.814 139.949 99.018 139.142 99.1582C138.898 99.1965 139.001 99.5662 139.231 99.5152Z" fill="#D2D2D2"/>
<path d="M118.345 98.2531C117.897 102.805 117.436 107.357 116.987 111.908C116.962 112.151 117.346 112.151 117.372 111.908C117.82 107.357 118.281 102.805 118.73 98.2531C118.743 98.0108 118.358 98.0108 118.345 98.2531Z" fill="#D2D2D2"/>
<path d="M124.036 97.4498C123.562 102.333 123.178 107.229 122.896 112.125C122.883 112.367 123.267 112.367 123.28 112.125C123.562 107.229 123.946 102.333 124.421 97.4498C124.433 97.1948 124.049 97.2076 124.036 97.4498Z" fill="#D2D2D2"/>
<path d="M134.772 97.3096C134.272 102.41 133.914 107.51 133.696 112.635C133.683 112.877 134.067 112.877 134.08 112.635C134.298 107.522 134.657 102.41 135.156 97.3096C135.182 97.0674 134.798 97.0674 134.772 97.3096Z" fill="#D2D2D2"/>
<path d="M128.355 95.4481C128.022 101.135 127.688 106.808 127.355 112.495C127.342 112.737 127.727 112.737 127.74 112.495C128.073 106.808 128.406 101.135 128.739 95.4481C128.752 95.1931 128.367 95.1931 128.355 95.4481Z" fill="#D2D2D2"/>
<path d="M88.4171 98.3041C91.0181 98.5336 93.619 97.9598 96.22 98.2786C96.4634 98.3041 96.4634 97.9216 96.22 97.8961C93.619 97.5773 91.0181 98.1511 88.4171 97.9216C88.1609 97.9088 88.1737 98.2913 88.4171 98.3041Z" fill="#D2D2D2"/>
<path d="M48.0706 75.303C52.6062 74.64 56.9753 76.4505 60.9984 78.3375C64.7268 80.097 68.4168 81.8947 72.5553 82.4175C81.3959 83.514 89.865 79.8165 98.1803 77.4832C103.062 76.119 108.123 75.1627 113.209 75.8002C113.453 75.8257 113.453 75.4432 113.209 75.4177C104.202 74.283 95.6946 78.057 87.2128 80.3902C82.9078 81.576 78.449 82.4685 73.9646 82.1752C69.4675 81.882 65.5084 80.0715 61.4981 78.1717C57.2828 76.17 52.7471 74.2447 47.9681 74.946C47.7246 74.9715 47.84 75.3412 48.0706 75.303Z" fill="#D2D2D2"/>
<path d="M72.3359 78.7838C83.6237 79.383 94.0787 74.3723 104.88 71.9625C107.993 71.274 111.158 70.7895 114.361 70.7258C114.604 70.7258 114.604 70.3433 114.361 70.3433C103.086 70.5983 92.7718 75.762 81.8043 77.7383C78.6781 78.2993 75.5134 78.5798 72.3359 78.414C72.0925 78.3758 72.0925 78.7583 72.3359 78.7838Z" fill="#D2D2D2"/>
<path d="M50.6186 65.7405C55.7308 66.0975 60.3945 68.367 65.1095 70.1392C69.9014 71.937 74.8983 72.9442 80.0233 72.8167C82.9573 72.7402 85.8786 72.3195 88.7229 71.58C88.9664 71.5162 88.8639 71.1465 88.6204 71.2102C83.457 72.5617 78.0373 72.8167 72.7714 71.9115C67.7489 71.0445 63.2261 68.8642 58.4726 67.1685C55.9358 66.2632 53.322 65.5492 50.6186 65.3707C50.3623 65.3452 50.3751 65.7277 50.6186 65.7405Z" fill="#D2D2D2"/>
<path d="M85.3805 41.2223C85.278 41.8598 85.1114 42.4845 84.8808 43.0965C84.8296 43.224 84.9577 43.3388 85.0602 43.3388C93.2217 43.6958 101.383 43.7723 109.545 43.5555C109.788 43.5428 109.788 43.1603 109.545 43.173C101.383 43.3898 93.2089 43.326 85.0602 42.9563C85.1242 43.0328 85.1883 43.122 85.2396 43.1985C85.4702 42.5865 85.6367 41.9745 85.7392 41.3243C85.7905 41.082 85.4189 40.98 85.3805 41.2223Z" fill="#D2D2D2"/>
<path d="M85.6362 41.3625C93.849 41.4645 102.049 41.5665 110.262 41.6685C110.505 41.6685 110.505 41.286 110.262 41.286C102.049 41.184 93.849 41.082 85.6362 40.98C85.3928 40.9673 85.3928 41.3498 85.6362 41.3625Z" fill="#D2D2D2"/>
<path d="M110.222 41.4392C109.966 42.0384 109.774 42.6632 109.671 43.3134C109.633 43.5557 110.004 43.6577 110.043 43.4154C110.145 42.8034 110.312 42.2042 110.555 41.6304C110.645 41.4009 110.312 41.2097 110.222 41.4392Z" fill="#D2D2D2"/>
<path d="M19.4604 114.611C17.2694 115.134 15.0657 115.657 12.8748 116.18C14.0151 123.345 14.9119 126.915 15.5398 126.864C16.0779 126.826 16.4238 124.148 16.5776 118.832C17.7948 118.411 19.0119 118.003 20.2291 117.582C19.9729 116.6 19.7166 115.606 19.4604 114.611Z" fill="#161616" stroke="#161616" stroke-width="0.603845" stroke-miterlimit="10"/>
<path d="M34.4382 87.9001C34.1563 88.7416 33.7335 90.0803 33.2978 91.7761C32.3882 95.3078 32.3497 96.8123 31.4272 101.3C30.3253 106.643 29.7616 107.561 29.4028 108.083C27.7756 110.404 25.5206 111.462 24.2906 112.036C21.3181 113.426 18.5506 113.553 16.9106 113.489C16.8466 114.242 16.7825 116.078 17.8844 117.926C18.4353 118.844 19.0888 119.469 19.5885 119.864C21.2413 119.954 24.0856 119.89 27.2888 118.653C28.6597 118.13 32.1575 116.728 34.8225 113.247C36.8725 110.57 37.4363 107.956 38.0641 105.023C39.2813 99.3751 37.7694 98.5208 39.2813 93.7268C40.191 90.8198 41.2416 89.3918 40.4985 88.3208C39.6144 87.0076 36.8341 87.3518 34.4382 87.9001Z" fill="#B575CC"/>
<path opacity="0.09" d="M34.5923 87.9128C34.4642 89.2771 34.272 91.1641 34.0029 93.4081C33.7595 95.3843 33.4904 97.5263 33.0548 100.025C32.2989 104.309 31.9145 106.451 31.0945 108.236C30.377 109.792 28.9932 112.673 25.8157 114.854C22.5101 117.11 19.0892 117.327 17.5645 117.34C17.3851 116.932 17.2057 116.409 17.0904 115.81C16.9239 114.943 16.9239 114.191 16.9751 113.63C17.9617 113.642 19.3198 113.566 20.8957 113.222C23.6376 112.61 25.4698 111.5 25.9439 111.207C27.1098 110.48 28.327 109.728 29.3264 108.249C30.0054 107.255 30.2873 106.349 30.7486 104.462C31.4276 101.683 31.7736 100.306 32.0554 98.2658C32.3629 95.9071 33.042 92.4646 34.5923 87.9128Z" fill="#3D3D3D"/>
<path opacity="0.12" d="M17.0004 113.591C16.9491 114.152 16.9235 114.917 17.1029 115.797C17.231 116.447 17.4232 116.983 17.6026 117.404C19.3579 117.034 24.8801 115.631 28.301 110.608C29.3132 109.116 29.9154 107.65 30.287 106.388C29.941 107.191 29.3388 108.364 28.2754 109.499C26.4432 111.449 24.342 112.163 22.8301 112.673C21.5488 113.12 19.5501 113.63 17.0004 113.591Z" fill="#3D3D3D"/>
<path d="M33.502 126.316C32.5027 129.057 31.5033 131.798 30.5039 134.552C37.5252 135.368 41.0998 135.483 41.228 134.871C41.3305 134.399 39.2548 133.469 35.0267 132.104C35.6033 130.409 36.1927 128.713 36.7692 127.017C35.6802 126.788 34.5911 126.545 33.502 126.316Z" fill="#161616" stroke="#161616" stroke-width="0.603845" stroke-miterlimit="10"/>
<path d="M43.9192 89.3536C44.0601 91.2406 44.1882 93.8161 44.1626 96.8506C44.0985 105.227 42.9582 111.513 42.6251 113.222C41.7667 117.697 40.2804 123.473 37.6026 129.924C36.757 129.962 34.6685 129.937 32.5801 128.636C31.2988 127.833 30.5045 126.864 30.0688 126.214C30.8504 124.735 31.8113 122.784 32.7467 120.4C34.3995 116.192 35.117 112.839 35.5782 110.633C36.616 105.674 37.1413 103.2 36.7185 100.548C36.3085 98.0363 35.6423 97.6028 35.7448 95.4608C35.7704 94.9891 36.0907 89.4938 39.5501 88.4483C41.331 87.9256 43.0992 88.8436 43.9192 89.3536Z" fill="#B575CC"/>
<path opacity="0.14" d="M40.8832 88.3973C42.0235 88.8818 41.652 92.0693 41.5495 92.9108C40.1785 104.921 42.062 98.457 40.4092 105.865C38.1414 116.039 35.0792 125.819 34.0029 129.185C33.7467 129.185 33.3879 129.159 33.0035 128.981C32.6448 128.815 32.5679 128.598 32.1323 128.254C31.6582 127.884 31.4917 127.91 31.1329 127.655C30.8126 127.425 30.4154 127.017 30.1335 126.265C30.7998 124.964 31.5942 123.294 32.4014 121.28C33.4264 118.73 33.9901 116.792 34.6051 114.701C34.6051 114.701 36.527 108.109 36.8729 103.073C36.937 102.065 36.8857 101.377 36.8089 100.88C36.6935 100.089 36.527 99.6938 36.2707 98.7503C36.2067 98.508 35.8479 97.131 35.7326 96.0983C35.4123 93.051 37.0395 90.603 37.8082 89.7233C38.0773 89.4045 38.436 89.0603 38.9485 88.7925C39.1407 88.7033 40.2554 88.1295 40.8832 88.3973Z" fill="#3D3D3D"/>
<path opacity="0.11" d="M37.9486 109.142C37.7308 112.24 37.0005 113.158 34.8736 120.77C33.9383 124.11 33.2464 126.851 32.798 128.611C32.4392 128.471 31.9908 128.241 31.5295 127.884C30.8376 127.349 30.4276 126.762 30.197 126.354C30.8376 125.041 31.6961 123.167 32.5289 120.833C32.862 119.915 33.0798 119.214 33.2848 118.577C36.2061 109.256 36.6673 106.426 36.8083 104.488C36.9236 102.843 36.8339 101.517 36.8083 101.096C36.6801 99.3369 36.3726 98.1256 36.3726 98.1256C36.3726 98.1256 38.3714 103.124 37.9486 109.142Z" fill="#3D3D3D"/>
<path d="M21.7528 83.6543C21.7784 83.616 21.9065 83.6288 22.1628 83.6543C22.5984 83.6925 22.7393 83.7563 23.0212 83.7818C23.2903 83.7945 23.649 83.82 23.7515 83.6543C23.8925 83.4375 23.444 83.0168 22.8162 82.1115C21.74 80.5815 21.7912 80.046 21.8809 79.8038C21.9065 79.74 21.9834 79.4978 22.15 79.4595C22.3678 79.4085 22.6112 79.7018 22.8418 79.995C23.2262 80.4668 23.38 80.8365 23.4184 80.811C23.4953 80.7855 23.0468 79.8293 23.1493 78.6563C23.175 78.3375 23.2262 77.8785 23.4568 77.8148C23.6618 77.751 23.9693 78.006 24.2128 78.414C24.2128 78.363 24.2768 77.6618 24.5203 77.6108C24.7125 77.5725 24.9303 77.9423 25.1481 78.2993C25.3275 78.5925 25.4428 78.8603 25.5068 79.0388C25.494 78.6818 25.6862 78.3885 25.9553 78.2993C26.25 78.21 26.519 78.4395 26.5318 78.4523C26.8265 78.72 26.8009 79.1918 26.8009 79.3575C26.7753 80.0843 26.8521 81.3083 27.0187 83.0933C27.3518 82.9658 27.8387 82.7363 28.3768 82.3793C28.9278 82.0095 29.5043 81.525 30.9265 79.8293C31.4775 79.1663 31.7593 78.8348 32.2462 78.1845C34.0015 75.8513 35.0393 74.4743 36.09 72.5235C36.4231 71.8988 36.9612 70.8405 38.0759 69.897C38.4346 69.591 39.1393 69.0173 39.5493 69.234C39.844 69.387 39.8696 69.8715 39.8568 70.5855C39.844 72.141 39.8312 72.906 39.5621 73.9643C38.9471 76.4123 37.8068 78.1208 37.5506 78.5033C36.5384 79.9823 35.5262 80.8365 34.2193 81.9458C32.8612 83.0933 31.7337 84.0368 29.9528 84.7508C28.7868 85.2098 27.8643 85.3755 26.8906 85.554C25.2762 85.8345 24.4434 85.9748 23.6106 85.6178C22.419 85.1078 21.6118 83.8455 21.7528 83.6543Z" fill="white"/>
<path d="M39.4972 69.0555C38.1134 69.2468 37.2934 70.5345 36.5503 71.5928C35.6022 72.9443 34.7053 74.334 33.7828 75.6983C32.8603 77.0753 31.8993 78.4268 30.8103 79.689C30.285 80.2883 29.7468 80.8748 29.1575 81.4103C28.504 82.0223 27.7865 82.7235 26.9281 83.0167C26.6975 83.0933 26.8 83.463 27.0306 83.3865C28.3759 82.9403 29.5162 81.6652 30.4515 80.658C31.5278 79.4978 32.4887 78.2355 33.3984 76.935C34.3209 75.609 35.205 74.2448 36.1018 72.906C36.9475 71.6565 37.9468 69.6548 39.5997 69.4253C39.8431 69.387 39.7406 69.03 39.4972 69.0555Z" fill="black"/>
<path d="M27.3776 85.7581C29.0176 85.6051 30.4013 84.8529 31.7723 83.9859C33.1304 83.1316 34.4244 82.1499 35.5776 81.0279C37.0638 79.5999 38.3194 77.9041 39.1523 76.0044C39.9723 74.1046 40.3566 72.0264 40.0876 69.9609C40.0619 69.7186 39.6776 69.7186 39.7032 69.9609C40.1388 73.4161 38.7551 76.8459 36.5257 79.4724C35.5263 80.6454 34.3604 81.6781 33.1304 82.5961C31.4391 83.8456 29.5173 85.1844 27.3648 85.3884C27.1341 85.4011 27.1341 85.7836 27.3776 85.7581Z" fill="black"/>
<path d="M27.3767 85.3629C26.6207 85.3501 25.8904 85.5286 25.1473 85.5796C24.2889 85.6434 23.5714 85.3884 22.8667 84.9166C22.5848 84.7254 22.2773 84.4959 22.0979 84.1899C21.7264 83.5396 22.4951 83.9221 22.7642 83.9986C23.1998 84.1261 23.597 84.0751 23.9301 83.7819C24.1223 83.6161 23.8404 83.3484 23.6611 83.5141C23.0845 84.0241 22.0082 82.8894 21.6239 83.5396C21.3292 84.0369 22.0082 84.7509 22.3414 85.0186C22.9179 85.4904 23.6226 85.8729 24.3786 85.9621C25.3779 86.0769 26.3773 85.7326 27.3767 85.7581C27.6201 85.7454 27.6201 85.3629 27.3767 85.3629Z" fill="black"/>
<path d="M23.9572 83.565C23.701 82.7107 23.1244 82.0477 22.6632 81.2955C22.5991 81.1935 21.8304 79.8037 22.0866 79.689C22.535 79.485 23.1757 80.7727 23.2654 81.0277C23.3422 81.2572 23.7138 81.1552 23.6369 80.9257C23.4319 80.3392 23.0732 79.791 22.535 79.434C22.2532 79.2427 21.8432 79.1025 21.715 79.536C21.5485 80.1225 21.9841 80.913 22.2788 81.3975C22.74 82.1497 23.3422 82.8 23.5985 83.667C23.6625 83.9092 24.0341 83.8072 23.9572 83.565Z" fill="black"/>
<path d="M23.7514 80.913C23.6361 80.4412 23.4824 79.9567 23.4055 79.4722C23.3542 79.179 23.3414 78.8857 23.367 78.5925C23.4055 78.21 23.4824 77.8275 23.7899 78.2737C24.2639 78.975 24.4177 79.9312 24.6483 80.7217C24.7124 80.964 25.0839 80.862 25.0199 80.6197C24.8277 79.944 24.6739 79.23 24.392 78.5797C24.2511 78.261 23.9308 77.547 23.4824 77.547C23.0211 77.547 23.0083 78.261 22.9827 78.5797C22.9186 79.4085 23.1749 80.199 23.3799 80.9895C23.4311 81.2572 23.8027 81.1552 23.7514 80.913Z" fill="black"/>
<path d="M24.6493 79.1025C24.5853 78.8348 24.4572 78.3885 24.5597 78.1208C24.7518 77.6235 25.0337 78.516 25.1106 78.7073C25.3925 79.383 25.5462 80.097 25.5847 80.8238C25.5975 81.066 25.9818 81.066 25.969 80.8238C25.9178 80.1225 25.8025 79.4468 25.559 78.7965C25.4181 78.4013 25.2131 77.7 24.8287 77.4833C23.9575 76.986 24.2009 78.8985 24.265 79.2173C24.329 79.4468 24.7006 79.3448 24.6493 79.1025Z" fill="black"/>
<path d="M25.9433 79.5487C25.9305 79.4212 25.8408 78.7327 25.9945 78.6052C26.4173 78.2355 26.5327 78.9112 26.5839 79.1152C26.6736 79.5487 26.6608 80.0332 26.6992 80.4795C26.7633 81.3975 26.8274 82.3027 26.8914 83.2207C26.9042 83.463 27.2886 83.463 27.2758 83.2207C27.2117 82.3027 27.1477 81.3975 27.0836 80.4795C27.0452 79.842 27.0964 79.0005 26.7633 78.4267C26.5839 78.1207 26.2764 77.8402 25.9177 78.0697C25.4564 78.3757 25.5205 79.1917 25.5845 79.6507C25.6102 79.893 25.9817 79.791 25.9433 79.5487Z" fill="black"/>
<path opacity="0.09" d="M39.6398 69.502C39.5757 69.502 39.627 70.5092 39.2298 71.9117C38.9223 72.9827 38.4226 74.0027 36.8082 76.1192C35.322 78.07 34.2457 79.4852 32.3751 81.1427C30.3251 82.966 29.3001 83.8712 27.8907 84.2155C24.8414 84.9677 22.0354 83.221 21.7664 83.8075C21.6254 84.1262 22.3942 84.7637 22.6889 84.9805C23.0604 85.2482 23.7779 85.669 25.4692 85.6945C27.2757 85.72 28.6595 85.2865 28.967 85.1845C32.2214 84.1135 34.361 81.997 35.5014 80.824C37.0132 79.294 38.2432 78.0445 39.0504 75.9535C40.3445 72.7022 39.7679 69.502 39.6398 69.502Z" fill="#3D3D3D"/>
<path opacity="0.13" d="M39.3827 74.4233C39.293 74.3723 38.7549 75.2648 37.9861 76.3231C37.9861 76.3231 36.1411 78.8731 33.758 81.0406C32.4511 82.2263 30.068 84.0623 26.2883 85.5031C27.0699 85.5541 28.2358 85.5286 29.5299 85.0951C29.9399 84.9548 30.9649 84.5723 33.4377 82.4303C35.4108 80.7218 36.5127 79.7783 37.6146 78.1208C38.8061 76.3486 39.5108 74.4871 39.3827 74.4233Z" fill="#3D3D3D"/>
<path d="M40.9857 67.653C40.1785 67.9335 39.6788 68.4307 39.1535 68.9535C37.6928 70.4197 37.1675 72.0772 36.7575 73.416C35.5275 77.445 34.8997 79.4467 34.6178 81.2062C34.2847 83.208 34.0028 85.86 34.0925 88.9965C34.7588 89.4555 35.7069 90.042 36.9113 90.552C38.295 91.1385 39.5378 91.6612 41.1394 91.5337C41.78 91.4827 42.8819 91.3042 44.1119 90.552C44.176 89.7232 44.3169 88.4355 44.6885 86.9182C45.3291 84.228 46.021 83.4502 47.1485 80.1097C48.0325 77.4705 48.4682 76.119 48.4041 74.4997C48.3528 73.365 48.2503 71.1465 46.5719 69.4125C45.2907 68.0992 42.9972 66.9517 40.9857 67.653Z" fill="white"/>
<path d="M40.4089 67.7423C38.8714 68.6603 37.9361 70.1903 37.1673 71.7586C36.3473 73.4543 35.7323 75.2393 35.2839 77.0753C34.3486 80.9003 34.1179 84.8655 33.9642 88.7925C33.9514 89.0348 34.3357 89.0348 34.3486 88.7925C34.4895 85.044 34.7073 81.2828 35.5529 77.6108C35.9629 75.8131 36.5267 74.0408 37.3082 72.3578C38.0642 70.7131 38.9995 69.0173 40.6011 68.0738C40.8061 67.9463 40.6139 67.6148 40.4089 67.7423Z" fill="black"/>
<path d="M45.3679 68.5711C46.8157 69.6931 47.8151 71.2741 48.1354 73.0718C48.4942 75.1246 47.9945 77.2156 47.3026 79.1408C46.6363 81.0023 45.7651 82.7746 45.1629 84.6616C44.5607 86.5103 44.1892 88.4356 44.0354 90.3736C44.0098 90.6158 44.3942 90.6158 44.4198 90.3736C44.5992 88.1933 45.0604 86.0386 45.8035 83.9858C46.5082 82.0223 47.4435 80.1481 48.0457 78.1463C48.5838 76.3486 48.8657 74.3978 48.4173 72.5363C48.0201 70.8533 47.0207 69.3616 45.6498 68.3161C45.4448 68.1503 45.1757 68.4181 45.3679 68.5711Z" fill="black"/>
<path d="M34.0416 89.0476C35.5919 90.4246 37.5138 91.3298 39.5766 91.6231C41.2166 91.8526 43.3306 91.8653 44.4069 90.3991C44.5478 90.1951 44.2147 90.0038 44.0738 90.2078C42.9975 91.6613 40.6144 91.4701 39.0513 91.1513C37.2831 90.7943 35.656 89.9656 34.3106 88.7798C34.1313 88.6141 33.8622 88.8818 34.0416 89.0476Z" fill="black"/>
<path opacity="0.11" d="M42.6385 67.7041C43.0741 68.4564 41.4598 69.8461 40.2169 72.0136C39.4226 73.3906 39.1151 74.5891 38.5129 76.9861C37.1035 82.5961 37.3726 88.9711 37.4879 90.8199C36.386 90.2334 35.2969 89.6596 34.1951 89.0731C34.2463 87.8236 34.3488 86.0386 34.5538 83.8966C34.8869 80.5051 35.0791 78.6563 35.7326 76.2593C36.3091 74.1811 36.8729 72.2431 38.4104 70.1648C39.4098 68.8133 40.4732 67.8826 41.2419 67.2961C41.7288 67.2706 42.4079 67.3089 42.6385 67.7041Z" fill="#3D3D3D"/>
<path opacity="0.15" d="M37.7431 71.5546C37.9096 71.6056 37.2306 74.2704 36.1415 80.1609C35.424 84.0241 35.2574 85.4139 35.834 87.1351C36.5771 89.3409 38.0762 90.6796 37.7943 90.9729C37.6149 91.1514 36.8462 90.8964 34.194 88.9201C34.1299 86.1406 34.3093 82.3029 35.424 77.9041C36.3081 74.4234 37.5637 71.4909 37.7431 71.5546Z" fill="#3D3D3D"/>
<path d="M49.6975 62.451C50.2997 62.9992 50.2228 64.0702 50.1075 65.6257C50.0306 66.7095 49.9922 67.2577 49.6206 67.7804C48.8519 68.8642 47.1094 69.3615 45.7384 68.7495C45.5719 68.673 44.7262 68.2777 44.265 67.3215C43.5987 65.9445 44.2906 64.5675 44.4315 64.3125C45.5078 62.3107 48.6212 61.4565 49.6975 62.451Z" fill="#B575CC"/>
<path d="M49.7232 55.4003C50.2101 55.5023 50.5048 56.178 51.0941 57.5423C51.5938 58.7025 51.8244 59.646 51.9269 60.0923C52.0935 60.87 52.1832 61.533 52.2216 62.0303C51.8757 62.1323 51.5298 62.2215 51.1838 62.3235C51.1069 62.7698 50.9404 63.4328 50.6073 64.1723C50.146 65.1923 49.7616 66.072 48.8648 66.48C47.8269 66.9518 46.7123 66.531 46.3407 66.3525C46.1998 66.7095 45.9948 67.1175 45.7257 67.551C45.5335 67.857 45.3285 68.112 45.1491 68.3288C43.9832 68.622 43.4451 68.316 43.2401 68.163C42.1638 67.3725 42.2535 64.8225 43.9063 61.941C43.8166 61.8008 43.6757 61.5968 43.4963 61.3673C43.1248 60.9083 42.9966 60.8955 42.8301 60.6278C42.7788 60.5513 42.3816 59.8755 42.7019 59.2635C42.8557 58.9703 43.176 58.7153 43.5348 58.6898C43.9704 58.6515 44.1113 58.9958 44.4829 59.0978C45.1235 59.289 45.8282 58.6005 47.5835 56.9558C49.0569 55.5788 49.3516 55.3238 49.7232 55.4003Z" fill="white"/>
<path d="M50.9525 57.4912C51.5547 58.9957 51.9391 60.564 52.08 62.1832C52.0928 62.3617 52.3875 62.3617 52.3747 62.1832C52.2338 60.5385 51.8494 58.9447 51.2344 57.4147C51.1703 57.2362 50.8885 57.3127 50.9525 57.4912Z" fill="black"/>
<path d="M52.1579 62.0556C51.812 62.0938 51.4661 62.1448 51.1201 62.1831C50.9408 62.2086 50.9408 62.4891 51.1201 62.4763C51.4661 62.4381 51.812 62.3871 52.1579 62.3488C52.3373 62.3106 52.3373 62.0301 52.1579 62.0556Z" fill="black"/>
<path d="M51.0431 62.3106C50.8124 63.5856 50.2871 64.8223 49.4287 65.8041C48.4037 67.0026 46.7765 66.3778 45.5209 65.8678C45.3543 65.7913 45.2774 66.0718 45.444 66.1483C46.6227 66.6328 48.314 67.2958 49.3774 66.2758C50.4281 65.2813 51.0559 63.7896 51.3121 62.3871C51.3506 62.2086 51.0815 62.1321 51.0431 62.3106Z" fill="black"/>
<path d="M46.1484 66.4165C45.8794 67.0285 45.5463 67.6022 45.1619 68.1505C45.0594 68.3035 45.3028 68.4437 45.4053 68.2907C45.7897 67.7425 46.1228 67.156 46.3919 66.5567C46.4688 66.391 46.2253 66.2507 46.1484 66.4165Z" fill="black"/>
<path d="M45.4167 66.1867C45.6089 66.3907 45.8267 66.5692 46.0701 66.6967C46.2367 66.7859 46.3776 66.5437 46.2111 66.4544C45.9804 66.3269 45.7882 66.1739 45.6089 65.9827C45.4936 65.8424 45.2886 66.0464 45.4167 66.1867Z" fill="black"/>
<path d="M49.8779 59.5694C49.801 59.4164 49.8138 59.2251 49.9163 59.0976C49.8394 59.0721 49.7497 59.0594 49.6729 59.0339C49.7113 59.2506 49.7113 59.4546 49.6985 59.6714C49.7497 59.6204 49.801 59.5694 49.8394 59.5311C49.8522 59.5566 49.865 59.5821 49.8907 59.6076C49.9291 59.4291 49.6472 59.3526 49.6088 59.5311C49.5704 59.6841 49.6729 59.8244 49.8394 59.8244C49.9291 59.8244 49.9804 59.7606 49.9804 59.6841C50.006 59.4419 49.9932 59.2124 49.9547 58.9701C49.9419 58.8681 49.7754 58.8299 49.7113 58.9064C49.5191 59.1486 49.4807 59.4546 49.6344 59.7224C49.7113 59.8754 49.9675 59.7351 49.8779 59.5694Z" fill="black"/>
<path d="M49.1072 57.8483C49.2866 57.4021 49.7991 57.2746 50.1963 57.5296C50.35 57.6316 50.491 57.3766 50.3372 57.2873C49.7735 56.9176 49.0816 57.1598 48.8253 57.7718C48.7613 57.9503 49.0431 58.0268 49.1072 57.8483Z" fill="black"/>
<path d="M48.5172 60.1431C48.466 60.1431 48.4019 60.1431 48.3507 60.1431C48.3379 60.1176 48.3379 60.0921 48.325 60.0666C48.3507 59.9773 48.3891 59.9518 48.466 59.9773C48.4788 59.9901 48.5044 60.0156 48.5172 60.0283C48.5172 60.0283 48.5172 60.0283 48.5172 60.0156C48.4788 59.9518 48.3891 59.9263 48.325 59.9646C48.261 60.0028 48.2354 60.0921 48.2738 60.1558C48.325 60.2196 48.4019 60.2578 48.4788 60.2451C48.5557 60.2196 48.6197 60.1558 48.6197 60.0666C48.6197 59.8753 48.3507 59.8243 48.261 59.9773C48.2225 60.0411 48.2482 60.1303 48.3122 60.1686C48.3891 60.2323 48.4788 60.2068 48.5172 60.1431Z" fill="black"/>
<path d="M49.1598 60.7298C49.1341 60.7553 49.0957 60.7936 49.0573 60.8191C49.0573 60.8191 49.0572 60.8191 49.0701 60.8191C49.0444 60.8191 49.0188 60.8191 48.9932 60.8191C48.9932 60.8191 48.9804 60.8191 48.9804 60.8063C48.9676 60.7936 48.9419 60.7681 48.9291 60.7553V60.7681C48.9291 60.7298 48.9163 60.6916 48.9163 60.6533C48.9291 60.6406 48.9419 60.6278 48.9547 60.6151C48.8907 60.6661 48.8651 60.7426 48.9035 60.8063C48.9419 60.8701 49.0444 60.9083 49.0957 60.8573C49.1854 60.7936 49.2494 60.6661 49.1469 60.5768C49.1085 60.5386 49.0444 60.5131 48.9804 60.5386C48.9163 60.5513 48.8907 60.5896 48.8651 60.6533C48.8394 60.7298 48.8907 60.8063 48.9676 60.8318C49.0573 60.8573 49.1341 60.8063 49.1598 60.7298Z" fill="black"/>
<path d="M48.1467 60.7424C48.1339 60.7424 48.1339 60.7424 48.1211 60.7424C47.9417 60.7424 47.9289 61.0357 48.1211 61.0357C48.1339 61.0357 48.1339 61.0357 48.1467 61.0357C48.3389 61.0357 48.3389 60.7424 48.1467 60.7424Z" fill="black"/>
<path d="M49.2987 62.6297C49.5037 63.2545 49.824 63.8155 50.4646 64.0577C50.6312 64.1215 50.7081 63.8537 50.5415 63.7772C50.0162 63.5732 49.7471 63.0505 49.5806 62.5405C49.5165 62.3747 49.2474 62.4512 49.2987 62.6297Z" fill="black"/>
<path d="M49.2612 62.7825C49.3381 62.6678 49.4662 62.604 49.62 62.5785C49.6969 62.5658 49.7353 62.4638 49.7225 62.4C49.6969 62.3108 49.62 62.2853 49.5431 62.298C49.3253 62.3235 49.1459 62.451 49.0178 62.6295C48.9025 62.7825 49.1459 62.9355 49.2612 62.7825Z" fill="black"/>
<path d="M43.8168 61.1249C43.0353 61.4054 42.6125 60.2069 42.7534 59.6459C42.8303 59.3527 43.0353 59.0084 43.3428 58.9192C43.7656 58.7917 44.15 59.1232 44.419 59.3782C44.5472 59.5057 44.7522 59.3017 44.624 59.1742C44.2781 58.8427 43.8553 58.5239 43.3428 58.6259C42.8815 58.7152 42.5996 59.1487 42.4843 59.5694C42.2793 60.3472 42.9071 61.7497 43.8937 61.4054C44.0731 61.3417 43.9962 61.0612 43.8168 61.1249Z" fill="black"/>
<path d="M48.7107 55.6807C48.557 55.8592 48.3263 56.1525 48.0573 56.535C47.0835 57.9502 47.1732 58.524 46.4941 58.932C45.9688 59.2507 45.1616 59.3527 44.5466 59.0977C44.0854 58.9065 43.9573 58.6132 43.5601 58.626C43.1245 58.6387 42.7145 58.9957 42.5479 59.4165C42.3429 59.9137 42.5479 60.3727 42.6888 60.666C42.817 60.9337 42.9963 61.329 43.3807 61.4182C43.6241 61.4692 43.842 61.38 43.9573 61.3162C43.9445 61.4565 43.9188 61.6732 43.906 61.941C43.842 63.0502 43.9701 63.8152 44.0213 64.3125C44.1495 65.511 44.2648 66.4672 43.906 67.3725C43.3551 68.724 41.9841 69.3232 41.4845 69.54C39.3576 70.4707 37.3845 69.693 37.1154 69.5782C36.6926 69.3997 34.6682 68.571 34.1685 66.684C33.861 65.5492 34.207 64.4017 34.3479 63.9172C34.412 63.7132 34.5785 63.2032 34.9116 62.6167C35.642 61.3162 36.6926 60.5257 37.4229 60.0795C37.6663 59.1997 38.0763 57.9375 38.7938 56.4967C39.601 54.8647 40.0495 53.9595 41.0745 53.118C42.7016 51.7792 44.5466 51.6135 45.1488 51.5752C45.4563 51.5497 46.9682 51.4605 48.762 52.1872C50.0304 52.6972 51.5167 53.3092 52.1317 54.8265C52.8363 56.5987 51.837 58.3582 51.6448 58.6897C51.5935 58.473 51.491 58.1415 51.2732 57.8227C50.9529 57.351 50.5941 57.1597 50.056 56.79C49.7101 56.5222 49.2488 56.178 48.7107 55.6807Z" fill="#B575CC"/>
<path d="M43.4315 68.2778C43.9824 68.5965 44.6231 68.673 45.2381 68.469C45.4687 68.3925 45.3662 68.0228 45.1356 68.0993C44.6231 68.265 44.0978 68.214 43.6237 67.9463C43.4059 67.8315 43.2137 68.163 43.4315 68.2778Z" fill="black"/>
<path opacity="0.14" d="M42.8295 60.6533C42.932 60.9465 43.2011 61.1505 43.4958 61.1888C43.8161 61.227 44.1364 61.074 44.303 60.7935C44.2389 61.2143 44.1748 62.0685 44.572 63.012C45.1102 64.3125 46.1608 64.9245 46.622 65.1923C47.7495 65.8298 48.8258 65.868 49.3511 65.8553C49.2358 66.0593 48.9795 66.3908 48.5439 66.6075C47.5061 67.1175 46.417 66.429 46.353 66.3908C46.0711 67.0028 45.7764 67.449 45.5458 67.7678C45.2255 68.2013 45.0973 68.3033 45.0077 68.3415C44.3927 68.6985 43.5855 68.3288 43.3548 68.214C43.0986 68.4563 42.727 68.7623 42.2402 69.0555C41.8302 69.2978 40.7283 69.9353 39.2036 69.948C39.2036 69.948 37.1536 69.948 35.5008 68.571C34.8602 68.0355 34.5911 67.5638 34.5142 67.4108C34.4502 67.2833 34.1811 66.7733 34.117 65.9445C33.9761 64.3508 34.668 62.9993 35.0523 62.3873C35.7442 61.2908 36.6283 60.6405 37.192 60.2963C37.1536 60.4365 36.6795 62.4128 37.7302 63.369C39.0498 64.5548 42.0352 63.4328 42.6886 61.7243C42.8552 61.3035 42.8552 60.9083 42.8295 60.6533Z" fill="#3D3D3D"/>
<path opacity="0.07" d="M44.3928 64.185C44.2903 64.236 44.5337 64.899 44.7643 65.3707C45.1359 66.1485 45.5971 66.7222 45.9303 67.0665C46.0199 66.837 46.1096 66.6075 46.1993 66.3907C46.494 66.5182 47.0449 66.6967 47.7368 66.6585C48.1981 66.633 48.5696 66.5182 48.8259 66.4162C46.8528 66.378 45.8534 65.7787 45.3024 65.2305C44.854 64.7842 44.4953 64.134 44.3928 64.185Z" fill="#3D3D3D"/>
<path d="M76.2189 52.4168C76.0395 52.3148 76.0011 52.0725 75.9754 51.9068C75.8857 51.3075 76.3342 50.823 76.4111 50.721C76.8851 50.1983 77.1542 50.466 77.6026 49.9815C77.9357 49.6245 77.9101 49.3313 78.4226 48.8595C78.7557 48.5408 78.871 48.579 78.8967 48.5918C79.076 48.6683 78.9223 49.0635 79.1017 49.6755C79.2554 50.1855 79.4476 50.1855 79.5117 50.619C79.5245 50.7338 79.6142 51.3075 79.2682 51.639C79.1145 51.792 78.9095 51.8303 78.4867 51.9068C77.9998 51.996 77.9357 51.945 77.6026 52.0088C76.7954 52.1618 76.5136 52.5825 76.2189 52.4168Z" fill="white"/>
<path d="M76.1806 51.8813C74.2459 53.8703 72.3112 55.8721 70.3766 57.8611C70.1331 58.1416 70.1203 58.5623 70.3381 58.8428C70.5816 59.1488 71.0172 59.2253 71.3631 59.0086C73.3491 56.7136 75.3222 54.4058 77.3081 52.1108C76.9366 52.0343 76.565 51.9578 76.1806 51.8813Z" fill="black"/>
<path d="M69.1843 62.7698C69.2484 62.9355 69.0434 63.2798 67.9287 64.0193C67.6084 63.9555 67.3393 63.777 67.2881 63.5475C67.2112 63.165 67.7621 62.8463 68.0055 62.7315C68.454 62.5275 69.0946 62.5403 69.1843 62.7698Z" fill="black"/>
<path d="M46.6475 68.0228C45.9557 68.1758 44.7385 68.4691 44.1747 69.4636C43.8032 70.1138 43.88 70.8023 43.9057 71.0446C44.0338 72.1283 44.7897 73.0336 45.6482 73.4288C46.6988 73.9006 47.7879 73.5436 48.3388 73.3523C53.1307 71.7076 55.5266 70.8916 56.5003 70.4071C59.3191 68.9918 62.4582 67.3981 66.0329 64.4401C66.9554 63.6751 67.6857 62.9993 68.1982 62.5148C68.4032 62.6296 68.8644 62.8463 69.4153 62.7826C69.8638 62.7316 70.1585 62.5276 70.5941 62.2216C70.9016 62.0048 71.2604 61.7498 71.5807 61.2781C71.8882 60.8318 71.9907 60.4366 72.0804 60.1051C72.17 59.7353 72.3494 59.0723 72.1188 58.9321C71.9522 58.8301 71.7729 59.1106 71.3244 59.1233C71.286 59.1233 70.735 59.1233 70.4916 58.7791C70.261 58.4603 70.5044 58.1671 70.2994 57.9121C70.0816 57.6316 69.5178 57.6571 69.1591 57.7591C68.3263 58.0141 67.9291 58.9321 67.6729 59.4166C66.9682 60.8063 65.956 61.5586 64.0725 62.9738C62.6119 64.0703 61.305 64.5803 59.5497 65.2816C58.8579 65.5621 57.5382 66.0721 55.7957 66.4928C52.8616 67.1813 50.5425 67.1558 46.6475 68.0228Z" fill="white"/>
<path d="M44.5472 69.336C45.8668 68.0228 47.9425 67.9718 49.685 67.7295C51.7222 67.449 53.7593 67.143 55.7581 66.6713C59.3072 65.8553 62.8306 64.491 65.6109 62.094C66.3412 61.4565 67.0203 60.7553 67.584 59.952C68.0965 59.2253 69.0703 57.0833 70.2747 58.1033C70.4668 58.2563 70.7359 57.9885 70.5437 57.8355C70.0825 57.4403 69.4675 57.4148 68.9293 57.6825C68.1734 58.065 67.8275 58.9065 67.379 59.5823C66.2131 61.3418 64.445 62.6933 62.6256 63.726C58.7947 65.8935 54.3872 66.6713 50.0822 67.296C48.1347 67.5765 45.7772 67.602 44.2909 69.0683C44.0987 69.234 44.3678 69.5018 44.5472 69.336Z" fill="black"/>
<path d="M44.2635 68.877C43.4051 70.3305 43.5716 72.2558 45.0066 73.2885C46.7235 74.5253 49.1323 73.3523 50.8876 72.753C55.026 71.325 58.9723 69.387 62.6366 66.99C64.6738 65.664 66.6085 64.185 68.4407 62.5913C68.6329 62.4255 68.351 62.1578 68.1716 62.3235C62.4188 67.3215 55.436 71.274 48.0304 73.2503C46.762 73.5945 45.4423 73.518 44.6223 72.3705C43.9048 71.3888 43.9944 70.0883 44.5966 69.081C44.7248 68.8643 44.3916 68.673 44.2635 68.877Z" fill="black"/>
<path d="M71.8753 58.6643C71.9393 58.9575 72.0034 59.2763 71.9778 59.5823C71.9265 60.003 71.7215 60.1433 71.5678 60.4875C71.5037 60.6405 71.4909 60.7935 71.4397 60.9465C71.3372 61.2908 71.1962 61.3673 70.9528 61.5713C70.6837 61.788 70.53 62.043 70.2993 62.2853C69.9278 62.6805 69.71 62.553 69.2487 62.502C68.9156 62.4638 68.5697 62.4128 68.2365 62.3745C67.9931 62.349 67.9931 62.7315 68.2365 62.757C68.7875 62.8335 69.7228 63.1523 70.2353 62.8845C70.4403 62.7825 70.5556 62.5913 70.6837 62.4128C70.8503 62.1833 71.004 61.992 71.2603 61.8645C71.3884 61.8008 71.4525 61.8518 71.5678 61.7498C71.7087 61.635 71.7472 61.4438 71.7856 61.278C71.8753 60.87 72.0034 60.6023 72.1828 60.2453C72.4518 59.7225 72.3622 59.136 72.2468 58.5878C72.1956 58.32 71.824 58.422 71.8753 58.6643Z" fill="black"/>
<path d="M70.3001 57.9504C70.0054 58.3839 70.236 59.0086 70.6973 59.2126C71.2354 59.4549 71.8376 59.0979 72.1067 58.6261C72.2348 58.4094 71.9017 58.2181 71.7735 58.4349C71.607 58.7281 71.261 58.9959 70.9151 58.8811C70.6076 58.7919 70.441 58.4094 70.6332 58.1416C70.7614 57.9376 70.4282 57.7464 70.3001 57.9504Z" fill="black"/>
<path d="M70.5431 58.1287C72.4778 56.127 74.3868 54.0997 76.2702 52.047C76.4368 51.8685 76.1677 51.588 76.0012 51.7792C74.1177 53.832 72.2087 55.8592 70.274 57.861C70.0946 58.0267 70.3637 58.3072 70.5431 58.1287Z" fill="black"/>
<path d="M72.0942 58.5369C73.9392 56.4204 75.7714 54.3039 77.6164 52.1874C77.7829 51.9962 77.5011 51.7284 77.3473 51.9197C75.5023 54.0362 73.6701 56.1527 71.8251 58.2692C71.6586 58.4604 71.9276 58.7282 72.0942 58.5369Z" fill="black"/>
<path d="M69.0308 62.7188C68.7873 62.961 68.5439 63.216 68.3004 63.4583C68.2236 63.5348 68.1083 63.7005 68.0186 63.7515C67.6983 63.9173 67.5317 63.5985 67.4164 63.3945C67.2883 63.1778 66.9551 63.369 67.0833 63.5858C67.2754 63.9045 67.5958 64.3125 68.0186 64.185C68.2492 64.1213 68.4158 63.8918 68.5695 63.726C68.8129 63.4838 69.0564 63.2288 69.2998 62.9865C69.4792 62.808 69.1973 62.5403 69.0308 62.7188Z" fill="black"/>
<path d="M77.5119 52.1363C78.2806 52.4805 79.216 52.2765 79.6132 51.486C79.8053 51.1035 79.8182 50.6445 79.6772 50.2493C79.4338 49.6118 78.5497 49.0508 79.3313 48.3878C79.5235 48.222 79.2416 47.9543 79.0622 48.12C78.6138 48.5025 78.4857 49.089 78.7803 49.599C79.0622 50.0963 79.5106 50.3768 79.3697 51.027C79.216 51.792 78.396 52.1108 77.7169 51.8048C77.4735 51.7028 77.2813 52.0343 77.5119 52.1363Z" fill="black"/>
<path d="M76.2447 51.7156C76.3216 51.1546 76.5266 50.7848 77.0263 50.5043C77.2825 50.3641 77.5516 50.2493 77.7822 50.0708C78.2563 49.6883 78.3972 48.9871 78.961 48.7066C79.1788 48.5918 78.9866 48.2731 78.7688 48.3751C78.4485 48.5281 78.2563 48.7703 78.0769 49.0763C77.795 49.5226 77.5388 49.8158 77.0647 50.0581C76.296 50.4533 75.9757 50.8486 75.8604 51.7156C75.8347 51.9578 76.2191 51.9578 76.2447 51.7156Z" fill="black"/>
<path d="M76.1805 52.0854C76.5392 51.9451 76.9108 51.9961 77.2183 52.2256C77.4105 52.3786 77.6027 52.0471 77.4105 51.8941C77.0261 51.6009 76.5136 51.5371 76.0652 51.7156C75.8474 51.8049 75.9499 52.1746 76.1805 52.0854Z" fill="black"/>
<path d="M77.4505 50.3258C77.9502 50.16 78.4627 50.1473 78.9752 50.2748C79.2186 50.3385 79.3211 49.9688 79.0777 49.905C78.5011 49.7648 77.9118 49.7775 77.348 49.956C77.1174 50.0325 77.2199 50.4023 77.4505 50.3258Z" fill="#5222D0"/>
<path d="M77.2301 50.3259C78.1654 49.9307 78.4473 48.8469 79.3185 48.3624C79.2416 48.2604 79.1648 48.1584 79.0879 48.0564C78.4216 48.6557 79.011 49.4717 79.1776 50.1347C79.2673 50.0582 79.3698 49.9944 79.4594 49.9179C78.9726 49.7139 78.4857 49.6247 77.9604 49.6629C78.0116 49.7649 78.0757 49.8542 78.1269 49.9562C78.3063 49.6119 78.5241 49.3059 78.7676 48.9999C78.6651 48.9362 78.5498 48.8724 78.4473 48.8087C78.3448 49.0764 78.2166 49.4079 78.2679 49.6884C78.2807 49.7649 78.3704 49.8287 78.4473 49.8287C78.7548 49.8159 78.8316 49.3952 78.9341 49.1657C78.8188 49.1274 78.6907 49.1019 78.5754 49.0637C78.601 49.2549 78.6651 49.4844 78.6394 49.6884C78.6651 49.6374 78.7035 49.5737 78.7291 49.5227C78.6394 49.5737 78.2935 49.5354 78.1398 49.5737C77.8835 49.6247 77.6657 49.7139 77.4351 49.8414C77.2685 49.9307 77.3454 50.2112 77.5376 50.1984C77.8579 50.1729 78.1782 50.1347 78.4985 50.1092C78.7419 50.0837 78.7419 49.7012 78.4985 49.7267C78.1782 49.7522 77.8579 49.7904 77.5376 49.8159C77.576 49.9307 77.6016 50.0582 77.6401 50.1729C77.9091 50.0327 78.2038 49.9307 78.5113 49.9179C78.6266 49.9052 78.806 49.9562 78.9085 49.8797C79.1391 49.7139 78.9854 49.3187 78.9598 49.0764C78.9341 48.9107 78.6907 48.7832 78.601 48.9744C78.5882 49.0127 78.3832 49.4462 78.4473 49.4462C78.5113 49.4972 78.5754 49.5354 78.6266 49.5864C78.5882 49.3952 78.742 49.0764 78.806 48.9107C78.8701 48.7322 78.601 48.5792 78.4857 48.7194C78.2166 49.0382 77.986 49.3824 77.781 49.7522C77.717 49.8669 77.7938 50.0582 77.9476 50.0454C78.4088 50.0072 78.8316 50.0709 79.2545 50.2494C79.4082 50.3132 79.5876 50.2112 79.5363 50.0327C79.4082 49.5227 78.8444 48.7704 79.3441 48.3242C79.5107 48.1712 79.2929 47.9162 79.1135 48.0182C78.2551 48.5027 77.9476 49.5864 77.0251 49.9817C76.8073 50.0964 77.0123 50.4152 77.2301 50.3259Z" fill="#3D1A37"/>
<path d="M79.1021 47.9671C78.5639 48.2986 78.2308 48.7958 77.8336 49.2676C77.5902 49.5608 77.3211 49.7393 77.0521 49.9943C76.9496 50.0836 76.8599 50.1346 76.8599 50.2748C76.8599 50.3003 76.8727 50.3386 76.9111 50.3513C77.7183 50.6956 78.6152 49.7776 79.4095 50.4278C79.4608 50.4661 79.5249 50.4661 79.5633 50.4023C79.7939 50.0708 79.2814 49.7521 79.0892 49.5481C79.0252 49.4843 78.897 49.5481 78.9227 49.6373C78.9611 49.7648 78.9483 49.7521 79.038 49.8541C79.1149 49.9561 79.2814 49.8541 79.2045 49.7521C79.1789 49.6883 79.1405 49.6373 79.1149 49.5736C79.0636 49.5991 79.0124 49.6373 78.9483 49.6628C79.038 49.7521 79.512 50.1218 79.3967 50.2876C79.448 50.2748 79.4992 50.2748 79.5505 50.2621C79.2814 50.0453 78.9739 49.9433 78.6152 49.9561C78.4102 49.9688 78.2052 50.0071 78.0002 50.0453C77.8336 50.0836 77.6799 50.1218 77.5133 50.1346C77.3339 50.1601 77.1161 50.2621 77.257 50.0198C77.3339 49.8923 77.5645 49.7776 77.667 49.6756C77.8208 49.5226 77.9617 49.3568 78.0899 49.1783C78.423 48.7703 78.7305 48.3623 79.1789 48.0818C79.307 48.0691 79.2046 47.9033 79.1021 47.9671Z" fill="#3D1A37"/>
<path d="M77.1291 50.415C77.5135 50.466 77.8851 50.3385 78.2695 50.2875C78.5898 50.2493 78.846 50.3003 79.1407 50.4023C79.3073 50.466 79.4098 50.5043 79.5891 50.4788C79.6532 50.466 79.6916 50.4278 79.6788 50.364C79.6532 50.1983 79.6148 50.109 79.5251 49.9688C79.461 49.8668 79.2945 49.9688 79.3585 50.0708C79.4482 50.1728 79.4866 50.2875 79.4995 50.415C79.5251 50.3768 79.5635 50.3385 79.5891 50.3003C79.2304 50.3385 78.8716 50.0835 78.5001 50.0835C78.0645 50.0963 77.616 50.3003 77.1804 50.2365C77.0523 50.211 77.001 50.3895 77.1291 50.415Z" fill="#3D1A37"/>
<path d="M44.4179 69.3106C44.8279 68.5073 46.3142 68.2013 47.1342 68.0993C47.3776 68.0611 47.2751 67.6913 47.0317 67.7296C46.1092 67.8571 44.5588 68.2141 44.0848 69.1193C43.9823 69.3361 44.3154 69.5401 44.4179 69.3106Z" fill="black"/>
<path opacity="0.13" d="M43.9822 71.1593C45.1353 71.0828 46.8137 70.9298 48.7997 70.5473C54.4884 69.4636 58.5372 67.3598 61.01 66.0593C63.06 64.9756 65.7762 63.3563 68.7616 61.0231C70.0684 60.6023 70.8756 60.0286 71.3881 59.5696C71.7341 59.2636 71.9903 58.9576 72.1184 59.0213C72.3234 59.1361 72.0031 60.1943 71.5675 60.9593C71.1831 61.6478 70.7347 62.0431 70.5937 62.1706C70.235 62.4766 70.03 62.6933 69.6841 62.7826C69.0434 62.9483 68.4669 62.6041 68.2747 62.4766C67.8006 62.8463 67.1087 63.3946 66.2503 64.0448C62.7909 66.6586 61.0484 67.9718 58.755 69.2213C56.6409 70.3688 54.8728 71.0573 51.4262 72.3833C51.1059 72.5108 50.6831 72.6511 49.8375 72.9316C47.5825 73.6838 47.0444 73.7731 46.4166 73.6583C46.1603 73.6073 45.5325 73.4926 44.9559 72.9953C44.2 72.3196 44.0334 71.4526 43.9822 71.1593Z" fill="#3D3D3D"/>
<path opacity="0.19" d="M54.1425 71.2485C54.1169 71.2102 54.3347 71.0317 59.1394 67.9972C65.4687 63.9937 65.0203 64.3507 65.6866 63.8662C68.4541 61.8262 69.6841 60.4492 70.3247 60.8572C70.7603 61.1377 70.8372 62.1577 70.3631 62.604C69.9531 62.9992 69.0947 62.961 68.3259 62.4C66.7756 63.777 64.4694 65.6512 61.4328 67.551C57.8453 69.7567 54.2322 71.4015 54.1425 71.2485Z" fill="#3D3D3D"/>
</svg>
