<svg width="206" height="154" viewBox="0 0 206 154" fill="none" xmlns="http://www.w3.org/2000/svg">
<path d="M22.1396 130.268C20.3843 128.833 18.5521 127.462 16.9249 125.886C16.1689 125.155 15.4642 124.361 14.9261 123.451C14.6442 122.99 14.4136 122.49 14.2471 121.978C14.1061 121.555 13.9652 120.902 14.5802 120.838C14.8108 120.812 15.0542 120.863 15.2721 120.927C15.5155 120.991 15.618 120.62 15.3746 120.556C14.6442 120.376 13.5936 120.428 13.7089 121.453C13.8499 122.606 14.6058 123.784 15.2977 124.669C17.0914 126.975 19.6283 128.704 21.8705 130.537C22.0627 130.69 22.3317 130.421 22.1396 130.268Z" fill="#D2D2D2"/>
<path d="M15.4396 120.62C14.6965 119.736 14.1199 118.711 13.7868 117.596C13.633 117.096 13.569 116.584 13.4152 116.097C13.3127 115.79 13.1205 115.508 13.4024 115.239C13.5305 115.123 13.7227 115.046 13.8637 114.944C14.2993 114.649 14.5427 114.303 14.0046 113.932C13.6971 113.727 13.3127 113.688 12.9796 113.522C12.5312 113.278 12.1852 112.881 11.929 112.458C11.3909 111.587 11.0962 110.562 10.7759 109.601C10.3915 108.461 10.0199 107.295 9.68679 106.142C9.02054 103.81 8.46961 101.452 8.02117 99.0821C7.98273 99.159 7.93148 99.2358 7.89304 99.3127C10.3018 98.5183 12.6977 100.556 14.4146 102.003C16.1827 103.49 17.7715 105.194 19.168 107.039C22.0509 110.882 24.0624 115.316 25.318 119.941C26.0868 122.772 26.5737 125.681 26.8427 128.602C26.8684 128.846 27.2527 128.846 27.2271 128.602C26.2918 118.519 22.5762 108.307 14.6196 101.657C12.8002 100.146 10.3402 98.1084 7.80336 98.9412C7.70086 98.9796 7.64961 99.0693 7.67523 99.1718C8.14929 101.709 8.75148 104.22 9.48179 106.706C9.82773 107.871 10.1865 109.025 10.5837 110.165C10.904 111.087 11.1987 112.074 11.7624 112.881C11.9802 113.189 12.2237 113.471 12.5312 113.688C12.9027 113.957 13.3384 113.983 13.7099 114.214C14.1968 114.508 13.4921 114.739 13.2359 114.918C13.0437 115.059 12.8643 115.226 12.8259 115.482C12.7746 115.866 13.1077 116.315 13.1974 116.674C13.3255 117.225 13.4409 117.763 13.6459 118.301C14.0174 119.249 14.5427 120.12 15.1962 120.902C15.3243 121.081 15.5934 120.812 15.4396 120.62Z" fill="#D2D2D2"/>
<path d="M9.95559 101.145C15.3112 107.192 19.4753 114.252 22.1915 121.863C22.9475 123.977 23.5753 126.129 24.1006 128.307C24.1647 128.551 24.5234 128.448 24.4722 128.205C22.5759 120.312 19.1678 112.791 14.4528 106.167C13.1459 104.322 11.7365 102.554 10.2375 100.863C10.0581 100.696 9.78903 100.965 9.95559 101.145Z" fill="#D2D2D2"/>
<path d="M10.8263 109.575C11.4413 109.729 12.0435 109.934 12.6328 110.178C12.8635 110.267 12.966 109.896 12.7353 109.806C12.146 109.563 11.5438 109.358 10.9288 109.204C10.6982 109.14 10.5957 109.511 10.8263 109.575Z" fill="#D2D2D2"/>
<path d="M15.3348 118.083C16.1677 118.057 16.8595 118.493 17.5386 118.903C18.1536 119.275 18.7558 119.646 19.3452 120.056C20.5623 120.902 21.6642 121.901 22.3945 123.208C22.5098 123.426 22.843 123.234 22.7277 123.016C21.9589 121.658 20.8058 120.607 19.5373 119.736C18.8711 119.275 18.1664 118.839 17.4617 118.429C16.7955 118.032 16.1164 117.699 15.322 117.712C15.0914 117.699 15.0914 118.083 15.3348 118.083Z" fill="#D2D2D2"/>
<path d="M20.4363 115.777C20.0903 113.701 20.1032 111.6 20.4747 109.537C20.5132 109.293 20.1416 109.191 20.1032 109.434C19.7188 111.574 19.706 113.739 20.0647 115.879C20.1032 116.122 20.4747 116.02 20.4363 115.777Z" fill="#D2D2D2"/>
<path d="M19.7857 107C20.0548 104.463 20.5929 101.926 21.4898 99.5432C22.2457 97.5316 23.3732 95.5585 25.3079 94.4822C25.2054 94.431 25.1157 94.3669 25.0132 94.3157C25.2182 97.8775 27.3067 101.042 27.3964 104.617C27.4476 104.553 27.486 104.489 27.5373 104.438C27.0504 104.566 26.5635 104.694 26.0767 104.822C25.9357 104.86 25.8845 105.04 25.987 105.142C26.5764 105.706 26.6917 106.5 26.7173 107.282C26.7301 107.692 26.9479 109.678 26.4739 109.806C26.3585 109.844 26.2945 109.985 26.3585 110.088C27.7807 112.368 27.1273 115.072 26.7301 117.532C26.3201 120.069 26.2689 122.631 26.5635 125.168C26.5892 125.412 26.9735 125.412 26.9479 125.168C26.6148 122.311 26.7814 119.505 27.2682 116.686C27.6654 114.406 27.9857 111.958 26.7045 109.883C26.666 109.973 26.6276 110.075 26.5892 110.165C26.9351 110.075 27.0504 109.806 27.1017 109.473C27.1914 108.858 27.1273 108.179 27.1145 107.564C27.1017 106.59 26.9992 105.578 26.256 104.873C26.2304 104.976 26.2048 105.091 26.1664 105.193C26.6532 105.065 27.1401 104.937 27.627 104.809C27.7039 104.783 27.7679 104.707 27.7679 104.63C27.6782 101.042 25.6026 97.8904 25.3848 94.3285C25.372 94.1876 25.231 94.0851 25.0901 94.1619C23.181 95.2254 22.0279 97.1088 21.2335 99.0947C20.2214 101.619 19.6576 104.322 19.3757 107.026C19.3757 107.243 19.7601 107.243 19.7857 107Z" fill="#D2D2D2"/>
<path d="M24.4346 96.2376C23.0637 101.427 22.359 106.782 22.3462 112.151C22.3462 112.394 22.7306 112.394 22.7306 112.151C22.7434 106.808 23.4353 101.504 24.7934 96.3401C24.8703 96.0967 24.4987 95.9941 24.4346 96.2376Z" fill="#D2D2D2"/>
<path d="M174.865 88.5629C175.685 91.2022 176.3 93.8929 176.685 96.6347C176.877 98.0185 177.018 99.4279 177.082 100.824C177.108 101.183 177.12 101.555 177.133 101.913C177.146 102.131 177.082 102.49 177.159 102.695C177.236 102.887 177.505 103.015 177.658 103.143C177.928 103.361 178.197 103.579 178.453 103.797C178.466 103.694 178.478 103.592 178.491 103.489C178.133 103.707 177.787 103.81 177.364 103.823C177.274 103.823 177.21 103.887 177.184 103.963C176.813 105.117 177.082 106.334 177.915 107.231C177.966 107.115 178.004 107.013 178.056 106.898C176.723 106.846 176.698 108.384 176.826 109.332C177.005 110.652 177.261 111.971 177.633 113.253C178.376 115.764 179.619 118.147 181.656 119.864C181.848 120.018 182.117 119.748 181.925 119.595C180.208 118.147 179.055 116.199 178.312 114.085C177.966 113.086 177.697 112.061 177.492 111.036C177.325 110.178 176.493 107.231 178.056 107.282C178.235 107.295 178.299 107.077 178.197 106.949C177.466 106.154 177.236 105.078 177.569 104.066C177.505 104.117 177.441 104.156 177.389 104.207C177.876 104.207 178.286 104.092 178.709 103.823C178.799 103.758 178.85 103.605 178.748 103.515C178.273 103.131 177.62 102.798 177.543 102.157C177.466 101.478 177.492 100.773 177.441 100.094C177.351 98.8257 177.223 97.5572 177.031 96.2888C176.646 93.6366 176.044 91.0229 175.25 88.4604C175.16 88.2169 174.789 88.3194 174.865 88.5629Z" fill="#D2D2D2"/>
<path d="M175.494 89.1398C174.968 88.4479 175.955 87.9354 176.532 88.0763C177.108 88.2301 177.582 88.6913 177.979 89.1013C178.71 89.8444 179.286 90.7157 179.786 91.6254C180.824 93.496 181.695 95.4948 182.464 97.4807C184.04 101.568 185.129 105.847 185.705 110.178C186.026 112.638 186.192 115.111 186.192 117.584C186.192 117.827 186.577 117.827 186.577 117.584C186.577 112.433 185.872 107.295 184.488 102.349C183.809 99.9407 182.976 97.5832 181.99 95.2769C181.08 93.1501 180.106 90.8694 178.543 89.1269C177.915 88.4222 176.852 87.3332 175.801 87.7048C175.161 87.9226 174.738 88.7426 175.173 89.3319C175.314 89.5241 175.648 89.3448 175.494 89.1398Z" fill="#D2D2D2"/>
<path d="M184.718 103.221C185.372 101.03 186.128 98.8901 186.986 96.776C187.435 95.6869 187.909 94.5979 188.421 93.5344C188.665 93.0348 188.908 92.5223 189.164 92.0226C189.331 91.7023 189.831 90.2929 190.356 90.421C190.51 90.4594 190.612 90.3313 190.587 90.1904C190.458 89.396 191.355 88.7169 191.829 88.1916C192.252 87.7304 192.662 87.2691 193.085 86.8079C193.956 85.8598 194.815 84.9116 195.686 83.9507C195.583 83.9251 195.468 83.8994 195.366 83.861C196.685 87.1282 196.339 90.7029 195.571 94.0597C195.173 95.7766 194.674 97.4807 194.251 99.1976C193.956 100.389 193.636 102.196 192.175 102.452C192.073 102.465 192.022 102.593 192.047 102.683C192.419 104.207 191.394 105.617 190.715 106.898C190.074 108.102 189.485 109.345 188.947 110.614C187.896 113.086 187.063 115.636 186.435 118.237C186.371 118.48 186.743 118.583 186.807 118.339C187.499 115.457 188.447 112.651 189.664 109.947C190.241 108.666 190.881 107.41 191.56 106.18C192.175 105.066 192.739 103.887 192.432 102.593C192.393 102.67 192.342 102.747 192.303 102.824C193.546 102.606 194.084 101.35 194.405 100.248C194.93 98.4032 195.404 96.5069 195.852 94.6363C196.711 91.0744 197.172 87.2435 195.763 83.7585C195.712 83.6304 195.545 83.5535 195.442 83.6688C194.353 84.8604 193.264 86.0648 192.175 87.2563C191.663 87.8201 191.112 88.3582 190.638 88.9604C190.33 89.3704 190.164 89.7548 190.241 90.2673C190.317 90.1904 190.394 90.1135 190.471 90.0366C189.549 89.806 189.1 91.3179 188.793 91.9201C188.178 93.1373 187.601 94.3673 187.076 95.6101C186.025 98.0444 185.128 100.556 184.372 103.093C184.27 103.349 184.642 103.451 184.718 103.221Z" fill="#D2D2D2"/>
<path d="M194.739 87.2689C190.741 94.7258 186.667 102.413 185.706 110.934C185.68 111.177 186.065 111.177 186.09 110.934C187.051 102.477 191.113 94.8411 195.072 87.4611C195.2 87.2433 194.867 87.0511 194.739 87.2689Z" fill="#D2D2D2"/>
<path d="M178.068 92.3937C181.181 100.632 183.039 109.319 183.59 118.108C183.603 118.352 183.987 118.352 183.974 118.108C183.423 109.281 181.566 100.568 178.439 92.2912C178.35 92.0734 177.978 92.1631 178.068 92.3937Z" fill="#D2D2D2"/>
<path d="M16.1692 88.2682C23.9848 86.8716 32.0567 86.9485 39.8467 88.4988C43.7032 89.2676 47.4829 90.3823 51.1217 91.8429C54.927 93.3676 58.5786 95.1998 62.307 96.891C76.3751 103.272 91.4298 107.449 106.766 109.268C115.466 110.306 124.255 110.575 132.994 110.088C133.237 110.075 133.237 109.691 132.994 109.704C117.311 110.588 101.513 108.986 86.3176 105.001C78.6942 103.003 71.2245 100.402 64.0111 97.237C60.2698 95.597 56.6182 93.752 52.8642 92.1504C49.2767 90.6257 45.5739 89.3957 41.7814 88.5245C33.3636 86.6026 24.5742 86.3848 16.0667 87.9095C15.8232 87.9351 15.9257 88.3066 16.1692 88.2682Z" fill="#D2D2D2"/>
<path d="M85.8712 104.72C93.1615 105.091 100.196 102.465 107.05 100.363C114.225 98.1723 121.426 96.0454 128.639 93.9698C135.814 91.907 142.989 89.7417 150.28 88.0889C157.544 86.4489 164.95 85.6673 172.394 85.4495C180.684 85.1933 188.973 85.5648 197.25 85.9492C197.494 85.962 197.494 85.5776 197.25 85.5648C182.631 84.8986 167.82 84.2451 153.367 87.0511C146.039 88.4733 138.864 90.6514 131.689 92.6886C124.475 94.7514 117.275 96.8654 110.087 99.0308C106.102 100.235 102.13 101.542 98.12 102.644C94.1225 103.746 90.0225 104.54 85.8584 104.335C85.6278 104.322 85.6278 104.707 85.8712 104.72Z" fill="#D2D2D2"/>
<path d="M54.7621 91.5736C59.823 93.0342 65.0762 92.022 70.1243 91.0483C75.5312 90.0105 80.9893 89.3058 86.4987 89.088C97.4149 88.678 108.267 90.2411 119.145 90.6767C125.167 90.9202 131.214 90.7792 137.159 89.7927C137.403 89.7542 137.3 89.3827 137.057 89.4211C126.358 91.202 115.493 90.1386 104.756 89.3314C99.388 88.9214 94.0068 88.5755 88.6127 88.6652C83.2699 88.7548 77.9271 89.2673 72.6483 90.2027C66.8058 91.2277 60.7327 92.9189 54.8518 91.2149C54.6212 91.138 54.5187 91.5095 54.7621 91.5736Z" fill="#D2D2D2"/>
<path d="M77.44 116.264C79.08 115.585 80.8481 115.239 82.6291 115.29C84.2819 115.341 85.7681 115.879 87.3697 116.212C88.5613 116.469 89.7528 116.469 90.7138 115.623C91.0853 115.303 91.4056 114.97 91.9438 115.136C92.341 115.251 92.6741 115.521 93.0456 115.687C93.4813 115.892 93.9297 115.969 94.391 115.879C95.4928 115.661 96.3256 114.752 97.2866 114.226C98.9138 113.355 100.477 114.521 102.066 114.944C105.371 115.828 108.908 115.559 112.29 115.52C116.454 115.482 120.631 115.508 124.769 114.995C125.013 114.97 125.013 114.585 124.769 114.611C121.054 115.059 117.3 115.085 113.558 115.123C109.997 115.162 106.23 115.495 102.719 114.701C101.899 114.521 101.13 114.252 100.349 113.932C99.6697 113.65 98.965 113.381 98.2219 113.483C97.056 113.637 96.1847 114.56 95.1981 115.123C94.6856 115.418 94.1219 115.623 93.5325 115.456C92.8919 115.264 92.3666 114.701 91.6619 114.675C90.9956 114.662 90.6753 115.2 90.1885 115.546C89.5094 116.02 88.651 116.033 87.8566 115.905C86.1653 115.636 84.5894 114.982 82.8597 114.906C80.9763 114.816 79.0928 115.162 77.3375 115.892C77.1069 115.982 77.2094 116.353 77.44 116.264Z" fill="#D2D2D2"/>
<path d="M85.6149 104.835C85.8455 104.873 86.0633 104.924 86.2939 104.963C86.5374 105.014 86.6271 104.681 86.3964 104.591C86.2555 104.54 86.1146 104.489 85.9608 104.438C85.7558 104.361 85.6149 104.694 85.8071 104.784C86.9858 105.399 88.2158 105.885 89.4971 106.231C89.7405 106.295 89.843 105.924 89.5996 105.86C88.3439 105.527 87.1524 105.053 85.9992 104.45C85.948 104.566 85.8967 104.681 85.8455 104.796C85.9864 104.848 86.1274 104.899 86.2811 104.95C86.3196 104.822 86.3452 104.707 86.3836 104.579C86.153 104.54 85.9352 104.489 85.7046 104.45C85.4739 104.412 85.3714 104.784 85.6149 104.835Z" fill="#D2D2D2"/>
<path d="M68.3932 122.593C68.1113 122.26 67.8551 121.914 67.6372 121.529C67.5347 121.337 67.4066 121.132 67.3425 120.914C67.2529 120.773 67.2401 120.607 67.2913 120.44C67.2529 120.261 67.3041 120.12 67.4322 120.018C67.6244 119.492 67.3938 118.941 67.2657 118.403C67.0735 117.558 66.8813 116.712 66.6891 115.866C66.5866 115.418 66.4841 114.982 66.3944 114.534C66.3432 114.329 66.3047 114.137 66.2535 113.932C66.1766 113.573 66.0997 113.406 66.3688 113.112C66.4969 112.843 66.6891 112.791 66.9454 112.996C67.0607 113.112 67.176 113.227 67.2913 113.342C67.4194 113.509 67.5091 113.701 67.6116 113.88C67.791 114.213 67.9704 114.547 68.1369 114.88C68.5341 115.674 68.8801 116.494 69.1747 117.327C69.7385 118.89 70.1229 120.504 70.3535 122.157C70.4175 122.08 70.4816 121.991 70.5329 121.914C70.5585 121.939 70.5713 121.978 70.5969 122.003C70.661 121.76 70.2894 121.658 70.2254 121.901C70.1741 122.132 70.2894 122.298 70.5329 122.298C70.6738 122.298 70.7379 122.183 70.7122 122.055C70.4176 119.941 69.8666 117.878 69.021 115.918C68.6238 114.995 68.201 113.97 67.6116 113.15C67.2913 112.702 66.7147 112.292 66.1638 112.612C65.536 112.971 65.8307 113.855 65.9588 114.406C66.2151 115.533 66.4713 116.661 66.7147 117.788C66.8301 118.326 67.0735 118.928 67.0991 119.479C67.1119 119.928 66.7404 120.133 66.8044 120.581C66.9326 121.414 67.5604 122.26 68.0857 122.875C68.2779 123.041 68.5469 122.772 68.3932 122.593Z" fill="#D2D2D2"/>
<path d="M69.5713 117.084C69.3791 115.93 69.4048 114.752 69.6738 113.611C69.7379 113.317 69.8276 113.035 69.9301 112.753C70.1094 112.266 70.3657 112.317 70.6219 112.676C70.9551 113.15 71.2113 113.675 71.4035 114.214C72.1851 116.443 71.8391 118.839 71.506 121.107C71.4676 121.35 71.8391 121.453 71.8776 121.209C72.3004 118.352 72.736 115.11 71.0063 112.561C70.8141 112.279 70.5579 111.805 70.1607 111.869C69.7379 111.946 69.5969 112.522 69.4816 112.855C69.0204 114.252 68.9435 115.738 69.1869 117.173C69.251 117.43 69.6226 117.327 69.5713 117.084Z" fill="#D2D2D2"/>
<path d="M70.2604 114.136C70.6448 116.135 70.7858 118.147 70.7217 120.171C70.7089 120.414 71.0933 120.414 71.1061 120.171C71.1829 118.108 71.0164 116.058 70.632 114.034C70.5808 113.79 70.222 113.893 70.2604 114.136Z" fill="#D2D2D2"/>
<path d="M23.1418 86.8205C22.7702 86.0005 21.9374 85.4239 21.4121 84.7064C20.8356 83.912 20.3487 83.0536 19.8746 82.208C19.8362 82.2976 19.7977 82.4001 19.7593 82.4898C22.3346 82.0286 23.8209 84.5655 24.3206 86.7051C24.3718 86.9486 24.7434 86.8461 24.6921 86.6027C24.1412 84.2323 22.4499 81.6314 19.6568 82.1183C19.5287 82.1439 19.4902 82.2976 19.5415 82.4001C20.0156 83.2586 20.4896 84.117 21.079 84.8986C21.6043 85.6161 22.4499 86.2183 22.8087 87.0126C22.9112 87.2433 23.2443 87.0511 23.1418 86.8205Z" fill="#D2D2D2"/>
<path d="M24.2543 84.7577C24.4464 82.7462 26.3683 81.4905 27.1114 79.7096C27.0218 79.748 26.9193 79.7865 26.8296 79.8249C27.688 80.3758 27.0474 82.3746 26.8039 83.1433C26.4452 84.2708 25.8558 85.2958 25.0999 86.1927C24.9461 86.3849 25.2152 86.654 25.3689 86.4618C26.3171 85.3471 26.9961 84.053 27.3421 82.6308C27.5599 81.734 27.9699 80.1068 27.0218 79.4918C26.9064 79.4149 26.7783 79.5046 26.7399 79.6071C25.9711 81.4521 24.0749 82.6565 23.8699 84.7577C23.8443 85.0012 24.2286 85.0012 24.2543 84.7577Z" fill="#D2D2D2"/>
<path d="M138.029 90.5747C137.914 90.28 137.799 89.9853 137.683 89.6906C137.619 89.5497 137.568 89.3959 137.504 89.255C137.427 89.1525 137.427 89.0372 137.491 88.9218C137.606 89.0243 137.837 88.9603 137.824 88.7809C137.76 88.1403 137.696 87.4868 137.632 86.8462C137.619 86.6925 137.465 86.0903 137.555 85.975C137.952 85.424 138.221 86.3337 138.26 86.4747C138.606 87.6534 138.593 89.0115 138.58 90.2287C138.58 90.4722 138.965 90.4722 138.965 90.2287C138.977 89.2293 138.926 88.2428 138.785 87.2562C138.695 86.6284 138.593 85.7187 137.978 85.3472C137.581 85.1037 137.248 85.36 137.171 85.7828C137.094 86.1928 137.222 86.6797 137.26 87.0768C137.312 87.6406 137.376 88.2043 137.427 88.7681C137.542 88.7168 137.645 88.6784 137.76 88.6272C137.542 88.4222 137.209 88.4606 137.081 88.7425C136.991 88.9347 137.068 89.1397 137.132 89.3318C137.286 89.7803 137.491 90.2159 137.658 90.6643C137.747 90.9078 138.119 90.8053 138.029 90.5747Z" fill="#E8E8E8"/>
<path d="M138.889 88.4861C138.837 86.6923 139.209 84.937 139.991 83.3098C139.888 83.3226 139.786 83.3355 139.683 83.3483C140.516 84.0401 139.965 85.9108 139.824 86.8076C139.632 88.012 139.388 89.2164 139.081 90.3951C139.017 90.6386 139.388 90.7411 139.452 90.4976C139.824 89.0626 140.106 87.602 140.311 86.1286C140.439 85.1805 140.811 83.7839 139.952 83.0664C139.862 82.9895 139.709 82.9895 139.645 83.1048C138.837 84.7833 138.44 86.6026 138.491 88.4733C138.517 88.7295 138.901 88.7295 138.889 88.4861Z" fill="#E8E8E8"/>
<path d="M71.6488 127.705C72.456 126.885 73.7117 127.987 74.647 127.936C75.0954 127.91 75.5054 127.744 75.9154 127.603C76.4663 127.423 76.9917 127.359 77.5682 127.41C79.8488 127.603 82.0654 127.769 84.3588 127.615C84.6023 127.603 84.6023 127.218 84.3588 127.231C83.116 127.308 81.886 127.334 80.6432 127.282C79.3876 127.231 78.0807 126.924 76.8379 127.013C76.3382 127.052 75.877 127.218 75.4029 127.372C74.711 127.59 74.1857 127.551 73.5195 127.308C72.7892 127.039 71.9692 126.821 71.367 127.436C71.2004 127.615 71.4695 127.884 71.6488 127.705Z" fill="#D2D2D2"/>
<path d="M47.444 130.819C48.3409 129.845 49.9168 129.781 50.865 130.703C50.8778 130.601 50.8906 130.498 50.9034 130.396C50.2372 130.716 49.5581 130.857 48.8278 130.819C48.5843 130.806 48.5843 131.19 48.8278 131.203C49.635 131.242 50.3781 131.088 51.1084 130.729C51.2237 130.678 51.2365 130.511 51.1468 130.422C50.045 129.358 48.2128 129.409 47.175 130.537C47.0084 130.729 47.2775 130.998 47.444 130.819Z" fill="#E8E8E8"/>
<path d="M11.7357 134.278C11.0823 134.227 10.4288 134.419 9.92916 134.867C9.62166 135.149 9.18603 135.675 9.58322 136.046C10.0317 136.456 11.1079 136.187 11.6332 136.136C12.5942 136.033 13.5295 135.854 14.4648 135.611C14.7082 135.547 14.6057 135.175 14.3623 135.239C13.2348 135.534 12.0945 135.726 10.9285 135.803C10.6979 135.816 10.4545 135.841 10.2238 135.841C9.64728 135.816 9.91635 135.38 10.1982 135.137C10.621 134.752 11.172 134.611 11.7357 134.662C11.992 134.675 11.9792 134.291 11.7357 134.278Z" fill="#E8E8E8"/>
<path d="M30.0467 123.708C30.0723 123.605 30.1492 123.541 30.2517 123.541C30.3413 123.528 30.431 123.515 30.5079 123.503C30.7129 123.477 30.9051 123.49 31.1101 123.515C31.5073 123.567 31.866 123.708 32.212 123.925C32.2248 123.81 32.2376 123.695 32.2632 123.579C31.7892 123.746 31.3151 123.784 30.8154 123.708C30.572 123.669 30.4695 124.041 30.7129 124.079C31.2767 124.169 31.8148 124.13 32.3657 123.951C32.5195 123.9 32.5579 123.695 32.417 123.605C31.7507 123.182 30.8795 122.977 30.0979 123.195C29.6751 123.31 29.342 123.964 29.9442 124.092C30.1876 124.13 30.2901 123.759 30.0467 123.708Z" fill="#E8E8E8"/>
<path d="M40.6542 35.5961C37.6048 34.5198 35.4267 31.5601 35.0936 28.357C34.7476 25.0514 36.6055 21.8995 39.3986 20.2082C42.4095 18.3889 46.6889 18.3761 49.1617 21.1307C50.4301 22.5273 51.2117 24.4364 51.673 26.2429C52.147 28.1007 52.2239 30.1636 51.1604 31.842C50.0842 33.5204 48.1623 34.4557 46.3558 35.1604C44.4467 35.9164 42.1533 36.5057 40.2826 35.327C40.0776 35.1989 39.8855 35.532 40.0905 35.6601C41.7689 36.7107 43.7933 36.4417 45.587 35.8523C47.3423 35.2757 49.2001 34.4686 50.5583 33.1617C53.5948 30.2532 52.352 25.4486 50.4558 22.2582C49.4564 20.567 47.9573 19.3242 46.0483 18.8117C44.2289 18.3248 42.2814 18.4914 40.5517 19.1961C37.3742 20.5029 34.8886 23.5523 34.6836 27.0373C34.453 30.8811 36.9258 34.6864 40.5517 35.9676C40.7823 36.0573 40.8848 35.6857 40.6542 35.5961Z" fill="#D2D2D2"/>
<path d="M136.992 109.972C145.73 109.421 154.417 108.243 162.976 106.436C165.448 105.911 167.908 105.334 170.356 104.706C170.599 104.642 170.496 104.271 170.253 104.335C161.771 106.5 153.136 108.063 144.423 108.973C141.95 109.229 139.477 109.434 137.005 109.588C136.748 109.601 136.748 109.985 136.992 109.972Z" fill="#E8E8E8"/>
<path d="M116.965 119.223C118.093 119.416 119.246 119.403 120.361 119.134C121.053 118.967 121.552 118.698 122.27 118.929C122.718 119.07 123.141 119.121 123.602 119.031C124.115 118.929 124.589 118.672 125.024 118.391C125.498 118.07 125.973 117.622 126.549 117.507C127.215 117.378 127.818 117.904 128.458 118.045C128.919 118.147 129.393 118.134 129.855 118.058C130.098 118.019 129.996 117.647 129.752 117.686C128.945 117.827 128.317 117.622 127.587 117.302C127.279 117.161 126.985 117.084 126.639 117.109C125.601 117.225 124.883 118.198 123.923 118.544C123.308 118.762 122.808 118.685 122.206 118.493C121.744 118.352 121.411 118.429 120.963 118.57C119.694 118.967 118.4 119.083 117.093 118.865C116.837 118.813 116.722 119.185 116.965 119.223Z" fill="#D2D2D2"/>
<path d="M53.4768 135.892C63.4321 135.892 73.3874 135.892 83.3428 135.892C83.8424 135.892 83.8424 135.123 83.3428 135.123C73.3874 135.123 63.4321 135.123 53.4768 135.123C52.9771 135.123 52.9771 135.892 53.4768 135.892Z" fill="#161616"/>
<path d="M85.4846 135.662C86.6506 135.662 87.8165 135.662 88.9824 135.662C89.4821 135.662 89.4821 134.893 88.9824 134.893C87.8165 134.893 86.6506 134.893 85.4846 134.893C84.9849 134.893 84.9849 135.662 85.4846 135.662Z" fill="#161616"/>
<path d="M91.5696 135.547C91.9412 135.547 92.3255 135.547 92.6971 135.547C93.1968 135.547 93.1968 134.778 92.6971 134.778C92.3255 134.778 91.9412 134.778 91.5696 134.778C91.0699 134.778 91.0699 135.547 91.5696 135.547Z" fill="#161616"/>
<path d="M21.3588 138.711C28.726 138.711 36.0804 138.711 43.4476 138.711C43.9472 138.711 43.9472 137.942 43.4476 137.942C36.0804 137.942 28.726 137.942 21.3588 137.942C20.8719 137.942 20.8719 138.711 21.3588 138.711Z" fill="#161616"/>
<path d="M45.5856 138.711C47.5075 138.711 49.4166 138.711 51.3384 138.711C51.8381 138.711 51.8381 137.942 51.3384 137.942C49.4166 137.942 47.5075 137.942 45.5856 137.942C45.0987 137.942 45.0987 138.711 45.5856 138.711Z" fill="#161616"/>
<path d="M54.6076 138.481C54.723 138.481 54.8383 138.481 54.9408 138.481C55.1458 138.481 55.3379 138.301 55.3251 138.096C55.3123 137.891 55.1586 137.712 54.9408 137.712C54.8254 137.712 54.7101 137.712 54.6076 137.712C54.4026 137.712 54.2105 137.891 54.2233 138.096C54.2361 138.301 54.3898 138.481 54.6076 138.481Z" fill="#161616"/>
<path d="M17.3098 138.814C17.5789 138.814 17.8351 138.814 18.1042 138.814C18.6039 138.814 18.6039 138.045 18.1042 138.045C17.8351 138.045 17.5789 138.045 17.3098 138.045C16.8101 138.045 16.8101 138.814 17.3098 138.814Z" fill="#161616"/>
<path d="M118.834 124.732C129.161 124.732 139.488 124.732 149.827 124.732C150.327 124.732 150.327 123.964 149.827 123.964C139.501 123.964 129.174 123.964 118.834 123.964C118.334 123.964 118.334 124.732 118.834 124.732Z" fill="#161616"/>
<path d="M153.877 124.284C163.23 124.284 172.583 124.284 181.936 124.284C182.436 124.284 182.436 123.516 181.936 123.516C172.583 123.516 163.23 123.516 153.877 123.516C153.39 123.516 153.39 124.284 153.877 124.284Z" fill="#161616"/>
<path d="M184.424 124.054C185.18 124.054 185.923 124.054 186.679 124.054C187.179 124.054 187.179 123.285 186.679 123.285C185.923 123.285 185.18 123.285 184.424 123.285C183.925 123.285 183.925 124.054 184.424 124.054Z" fill="#161616"/>
<path d="M174.505 119.774C176.645 119.774 178.785 119.774 180.924 119.774C181.424 119.774 181.424 119.005 180.924 119.005C178.785 119.005 176.645 119.005 174.505 119.005C174.005 119.005 174.005 119.774 174.505 119.774Z" fill="#161616"/>
<path d="M183.066 119.659C183.591 119.659 184.116 119.659 184.642 119.659C185.141 119.659 185.141 118.89 184.642 118.89C184.116 118.89 183.591 118.89 183.066 118.89C182.579 118.89 182.579 119.659 183.066 119.659Z" fill="#161616"/>
<path d="M112.636 126.987C115.378 126.987 118.12 126.987 120.862 126.987C121.362 126.987 121.362 126.219 120.862 126.219C118.12 126.219 115.378 126.219 112.636 126.219C112.15 126.219 112.15 126.987 112.636 126.987Z" fill="#161616"/>
<path d="M123.793 126.872C124.959 126.872 126.125 126.872 127.291 126.872C127.791 126.872 127.791 126.104 127.291 126.104C126.125 126.104 124.959 126.104 123.793 126.104C123.294 126.104 123.294 126.872 123.793 126.872Z" fill="#161616"/>
<path d="M128.87 128.794C129.664 128.794 130.446 128.794 131.24 128.794C131.74 128.794 131.74 128.025 131.24 128.025C130.446 128.025 129.664 128.025 128.87 128.025C128.37 128.025 128.37 128.794 128.87 128.794Z" fill="#161616"/>
<path d="M74.302 64.5523C73.8407 63.9757 75.5832 63.617 75.8651 63.5016C76.416 63.2582 76.7619 62.8098 76.8901 62.2204C77.0182 61.6182 76.8901 60.9776 77.0695 60.3882C77.3385 59.517 78.3379 59.5682 79.081 59.6066C79.5807 59.6323 79.5679 58.8635 79.081 58.8379C78.2354 58.7866 77.2616 58.8123 76.6723 59.5041C76.147 60.1191 76.2494 60.952 76.1854 61.7079C76.1341 62.387 75.8779 62.7201 75.2116 62.9123C74.8273 63.0276 74.4429 63.0916 74.1226 63.3351C73.5332 63.7579 73.2898 64.501 73.7638 65.0904C74.0585 65.4876 74.6095 64.9366 74.302 64.5523Z" fill="#161616"/>
<path d="M77.0284 65.1927C76.6825 64.7827 77.4769 64.3727 77.7331 64.219C78.079 64.014 78.3737 63.8218 78.63 63.5143C79.1553 62.8865 79.5012 61.6949 80.4494 61.6436C80.9362 61.618 80.949 60.8493 80.4494 60.8749C78.8734 60.9518 78.7453 62.5918 77.669 63.3605C77.2078 63.6808 76.6569 63.8602 76.3622 64.3727C76.0931 64.834 76.1444 65.3336 76.4775 65.7308C76.7978 66.1152 77.3487 65.5643 77.0284 65.1927Z" fill="#161616"/>
<path d="M137.067 23.7189C137.016 24.5389 136.376 25.5254 137.144 26.2173C137.811 26.8067 138.643 26.3711 139.399 26.4223C140.232 26.4864 139.873 27.2551 139.771 27.8189C139.694 28.2417 139.656 28.7029 139.848 29.1129C140.155 29.7536 140.988 30.1636 141.603 29.7023C141.987 29.4076 141.603 28.7414 141.219 29.0361C140.591 29.5101 140.463 28.3698 140.527 28.0239C140.591 27.6523 140.719 27.2808 140.732 26.8964C140.745 26.3583 140.463 25.9354 139.963 25.7561C139.348 25.5383 138.797 25.7817 138.182 25.7689C137.067 25.7433 137.811 24.3851 137.849 23.7189C137.875 23.2192 137.106 23.2192 137.067 23.7189Z" fill="#161616"/>
<path d="M141.475 24.6029C141.155 25.2948 140.847 26.1148 141.36 26.8067C141.552 27.0629 141.808 27.2167 142.116 27.2679C142.321 27.2935 142.59 27.2039 142.769 27.2807C143.064 27.396 143.23 27.742 143.089 28.0495C142.872 28.4979 143.538 28.8823 143.756 28.4339C144.025 27.8573 143.922 27.191 143.41 26.7682C143.128 26.5376 142.872 26.5376 142.526 26.4992C141.59 26.4095 141.847 25.6279 142.141 25.0001C142.346 24.5517 141.68 24.1545 141.475 24.6029Z" fill="#161616"/>
<path d="M182.308 51.1762C182.026 50.4458 182.705 49.3952 183.564 49.6643C184.217 49.8821 184.512 50.8558 184.076 51.394C183.769 51.7783 184.307 52.3165 184.614 51.9321C185.409 50.9712 185.012 49.2927 183.769 48.9212C182.398 48.5112 181.078 50.0743 181.578 51.3683C181.744 51.8424 182.487 51.6374 182.308 51.1762Z" fill="#161616"/>
<path d="M32.7374 81.5929C32.6606 80.6832 33.8137 80.1707 34.3006 81.0291C34.7106 81.7723 33.9034 82.4257 33.1987 82.1823C32.7374 82.0157 32.5324 82.7588 32.9937 82.9254C34.4159 83.4379 35.7612 81.8235 34.9027 80.5423C33.9802 79.1713 31.8406 79.9785 31.9815 81.5929C32.0071 82.0798 32.7759 82.0926 32.7374 81.5929Z" fill="#161616"/>
<path d="M37.1943 45.6794C36.8996 46.1663 36.8739 46.7941 37.2583 47.2426C37.4505 47.4604 37.7196 47.6013 38.0014 47.6526C38.3986 47.7166 38.6933 47.4988 39.0393 47.6654C39.3852 47.8447 39.3083 48.0626 39.3468 48.4213C39.3596 48.6391 39.3724 48.8441 39.398 49.0619C39.4236 49.2926 39.4493 49.5232 39.6158 49.7026C39.7696 49.8691 39.9618 49.9332 40.1796 49.9716C40.3333 49.9972 40.4871 49.9844 40.6536 49.9844C40.7818 49.9844 40.9227 49.9844 41.0508 50.0101C41.2943 50.0741 41.3968 50.2407 41.3711 50.4841C41.1789 50.6251 41.3583 50.9582 41.5633 50.8172C41.9477 50.5354 41.8196 50.0997 41.4864 49.8179C41.3327 49.6897 41.1661 49.6257 40.9611 49.6001C40.2949 49.5104 39.9105 49.7666 39.7568 48.8313C39.6799 48.3701 39.8464 47.4091 39.3724 47.1016C39.1546 46.9607 38.9624 47.0247 38.7446 47.1144C38.3986 47.2554 38.1168 47.3707 37.758 47.1529C37.2711 46.8582 37.2583 46.2816 37.5274 45.846C37.6555 45.6666 37.3224 45.4744 37.1943 45.6794Z" fill="#32D47B"/>
<path d="M42.37 47.204C42.1138 47.6524 41.8063 48.3315 42.2034 48.7927C42.4597 49.1002 42.8953 49.0618 43.2284 49.254C43.7538 49.5487 43.9972 50.1637 43.8947 50.7402C43.8563 50.9837 44.2278 51.0862 44.2663 50.8427C44.3688 50.2662 44.2406 49.7024 43.8434 49.2668C43.6769 49.0746 43.4591 48.9337 43.2284 48.8312C42.9594 48.7158 42.4981 48.5749 42.4084 48.2418C42.3444 47.9983 42.6006 47.5883 42.7031 47.3962C42.8184 47.1783 42.4853 46.9862 42.37 47.204Z" fill="#32D47B"/>
<path d="M114.493 87.666C114.057 86.7691 114.877 85.7185 115.851 86.0644C116.863 86.4231 116.825 87.8069 115.864 88.1913C115.633 88.281 115.736 88.6525 115.966 88.5628C117.209 88.0631 117.376 86.2822 116.081 85.7441C114.749 85.1803 113.57 86.6281 114.172 87.871C114.275 88.0888 114.608 87.8838 114.493 87.666Z" fill="#32D47B"/>
<path d="M67.3019 84.6296C66.4819 84.463 67.8016 83.579 67.9425 83.4893C68.1475 83.3483 68.3397 83.1946 68.4422 82.9512C68.7882 82.1696 68.1603 80.6065 69.5441 80.5296C69.7875 80.5168 69.7875 80.1324 69.5441 80.1452C69.006 80.1708 68.6088 80.4655 68.3653 80.9268C67.9682 81.6699 68.4422 82.6821 67.6735 83.1946C67.2378 83.4893 66.7766 83.6815 66.7253 84.258C66.6997 84.604 66.8407 84.9115 67.1994 84.9883C67.4428 85.0524 67.5453 84.6808 67.3019 84.6296Z" fill="#32D47B"/>
<path d="M69.7649 83.5148C69.4061 83.0151 69.6111 82.3104 70.2133 82.1182C70.6233 81.9901 70.9308 82.0542 71.1615 81.6314C71.3921 81.1957 71.3536 80.6832 71.6099 80.2348C71.9302 79.6582 72.4683 79.261 73.0833 79.0689C73.314 78.992 73.2243 78.6204 72.9808 78.6973C72.4043 78.8767 71.9046 79.197 71.533 79.671C71.3408 79.9145 71.1743 80.1964 71.0718 80.5039C70.9308 80.9139 70.9949 81.4648 70.5336 81.6826C70.2518 81.8235 69.9699 81.7467 69.7008 81.9517C69.5215 82.0798 69.3933 82.272 69.3165 82.4642C69.1371 82.887 69.1755 83.3354 69.4446 83.707C69.5727 83.912 69.9058 83.7198 69.7649 83.5148Z" fill="#32D47B"/>
<path d="M56.7359 24.5902C56.5053 24.1289 57.4919 24.2955 57.5303 24.3083C57.6713 24.3596 57.8122 24.4749 57.9403 24.5518C58.1453 24.6671 58.3759 24.7824 58.6194 24.7952C58.9397 24.808 59.2088 24.6671 59.4138 24.4364C60.0031 23.7189 59.7853 21.8611 61.1691 22.4121C61.5791 22.5786 62.0403 22.8221 62.4888 22.6171C62.8475 22.4505 62.9244 22.0918 62.8731 21.733C62.8475 21.5536 62.6425 21.1949 62.6938 21.0155C62.7963 20.6696 63.1166 20.6439 63.36 20.7593C63.4753 20.8105 63.5778 20.8874 63.7059 20.9258C64.0903 21.0668 64.4619 21.0411 64.6925 20.6824C64.8206 20.4774 64.4875 20.2852 64.3594 20.4902C64.1031 20.9002 63.0781 20.0546 62.6169 20.3108C62.2453 20.503 62.2581 20.8874 62.3478 21.2461C62.4503 21.6689 62.7066 22.2839 61.925 22.2711C61.5791 22.2711 61.2588 21.9764 60.9256 21.9124C60.5284 21.8355 60.1697 21.938 59.9134 22.2455C59.2728 23.0014 59.5163 24.9746 58.03 24.1674C57.5944 23.9368 57.2356 23.7061 56.7488 23.9239C56.3772 24.0905 56.1978 24.4108 56.39 24.7824C56.5181 25.0002 56.8384 24.808 56.7359 24.5902Z" fill="#3D1A37"/>
<path d="M71.9952 35.0451C71.4186 34.9042 71.3418 34.161 71.6236 33.7254C72.0208 33.1104 72.9561 33.1488 73.5839 33.2642C74.6346 33.4563 75.6083 33.8663 76.6718 33.4692C77.6968 33.0848 78.4655 32.252 79.6186 32.2263C80.823 32.2007 81.9633 32.726 83.1805 32.6876C85.3074 32.6235 87.2421 31.5729 89.2793 31.086C90.4836 30.7913 91.6624 30.7657 92.8668 31.0732C94.0199 31.3679 95.0961 31.842 96.2493 32.1238C97.4536 32.4313 98.6452 32.3801 99.8624 32.2776C101.195 32.1751 102.566 32.0726 103.77 32.7645C103.745 32.6876 103.706 32.6235 103.681 32.5467C103.04 34.4301 100.964 35.1988 99.1321 35.3013C96.8386 35.4295 94.6093 34.5967 92.303 34.6863C89.9711 34.776 87.998 36.1982 85.7046 36.416C83.3599 36.6467 81.1433 35.532 78.8114 35.596C76.4411 35.6601 73.3533 36.9541 71.4827 34.8401C71.3161 34.6607 71.0471 34.9298 71.2136 35.1091C72.6871 36.762 75.0189 36.4673 76.9793 36.1726C78.4271 35.9548 79.7468 35.942 81.1946 36.2238C82.4246 36.4673 83.6546 36.8004 84.9102 36.826C87.4471 36.8901 89.5868 35.2501 92.0852 35.0835C94.6093 34.917 97.0564 35.9292 99.5805 35.6473C101.464 35.4423 103.424 34.5582 104.065 32.6363C104.091 32.5595 104.052 32.457 103.975 32.4185C101.72 31.0988 99.0039 32.3417 96.5824 31.7907C95.2499 31.4832 94.0071 30.8938 92.6618 30.612C91.4958 30.3557 90.3427 30.4198 89.1896 30.7017C87.9596 30.9963 86.7936 31.4832 85.5893 31.8548C84.2055 32.2776 82.8858 32.4057 81.4508 32.111C80.3105 31.8676 79.2599 31.6754 78.1836 32.2135C77.6839 32.4698 77.2227 32.8157 76.7102 33.0463C75.8389 33.4307 75.0061 33.2001 74.1221 32.9823C73.1868 32.7645 71.7774 32.6107 71.2521 33.6485C70.9189 34.302 71.1496 35.2373 71.9183 35.4166C72.1361 35.4679 72.2386 35.0963 71.9952 35.0451Z" fill="#D2D2D2"/>
<path d="M18.6423 54.7891C20.3848 54.5584 22.0377 55.4553 23.7673 55.2375C24.472 55.1478 25.1255 54.8403 25.7789 54.5713C26.0864 54.4431 26.4067 54.3278 26.7398 54.2509C27.3677 54.11 27.9314 54.2766 28.5464 54.4047C30.2633 54.7763 32.1852 54.3663 33.902 54.1228C34.7477 54.0075 35.5805 53.8794 36.4261 53.7384C37.387 53.5719 38.348 53.3156 39.3089 53.2131C40.3211 53.1106 41.5127 53.5591 41.1027 54.8019C40.7567 55.8653 39.4627 56.1728 38.4889 56.2497C36.7977 56.3778 35.1192 55.8909 33.428 56.2113C31.852 56.5059 30.4427 57.3259 28.918 57.7744C28.0723 58.0306 27.2267 58.1331 26.3555 58.0178C25.4842 57.8897 24.6642 57.6719 23.7673 57.7359C21.948 57.8513 20.0133 58.9147 18.1939 58.4919C17.0792 58.2356 16.5027 57.2106 17.0408 56.1472C17.5661 55.1222 18.7705 54.8531 19.8211 54.8531C20.0645 54.8531 20.0645 54.4688 19.8211 54.4688C18.3477 54.4688 16.6052 55.1094 16.4514 56.8006C16.3105 58.3638 17.848 59.0044 19.1677 58.9531C20.1286 58.9147 21.0767 58.6328 22.012 58.415C23.2292 58.1331 24.3439 58.0306 25.5739 58.2613C26.4836 58.4278 27.3292 58.5175 28.2517 58.3381C29.1998 58.1588 30.0967 57.7744 30.9808 57.4156C31.8777 57.0569 32.7873 56.6853 33.7483 56.5444C34.8758 56.3778 36.0033 56.5572 37.1308 56.6213C38.6042 56.7109 40.9489 56.6469 41.487 54.9044C41.6792 54.2766 41.5383 53.5463 40.9873 53.1363C40.4492 52.7391 39.7189 52.7647 39.0911 52.8416C36.7848 53.1619 34.517 53.6872 32.1852 53.9434C30.8783 54.0844 29.6227 54.2509 28.3414 53.9434C27.3036 53.6872 26.4836 53.8666 25.5098 54.2638C24.9973 54.4688 24.4977 54.6994 23.9595 54.8019C23.2933 54.93 22.6014 54.8403 21.9352 54.725C20.8461 54.52 19.7827 54.2381 18.6808 54.3791C18.3989 54.4303 18.3989 54.8147 18.6423 54.7891Z" fill="#D2D2D2"/>
<path d="M174.763 70.0234C172.342 70.869 169.51 68.8702 167.768 67.3584C167.742 67.4609 167.717 67.5762 167.678 67.6787C168.908 67.179 170.202 67.1534 171.509 67.2302C172.803 67.2943 174.097 67.384 175.391 67.4224C178.146 67.4993 180.913 67.4352 183.655 67.2302C185.077 67.1277 186.487 66.9868 187.896 66.8202C188.588 66.7305 189.421 66.564 190.074 66.8843C190.984 67.3455 190.907 68.3449 190.036 68.7293C189.587 68.9215 189.101 68.9855 188.627 69.0752C187.883 69.2033 187.14 69.3443 186.397 69.4724C185.039 69.7159 183.681 69.9593 182.31 70.2027C181.528 70.3437 180.747 70.4846 179.965 70.6255C179.235 70.7537 178.479 70.9458 177.723 70.9587C176.442 70.9715 175.481 69.844 174.2 69.9849C173.956 70.0105 173.956 70.3949 174.2 70.3693C174.93 70.2796 175.507 70.6768 176.134 70.9715C176.647 71.2149 177.147 71.343 177.71 71.343C179.184 71.3302 180.708 70.8818 182.156 70.6127C183.719 70.3308 185.295 70.049 186.858 69.7671C187.602 69.639 188.345 69.498 189.088 69.3699C189.587 69.2802 190.113 69.1649 190.548 68.8702C191.279 68.3705 191.304 67.448 190.689 66.8459C189.728 65.8977 188.076 66.3974 186.91 66.5255C183.758 66.8715 180.58 67.0509 177.403 67.038C175.66 67.038 173.918 66.974 172.175 66.8587C170.625 66.769 169.049 66.6921 167.588 67.2815C167.473 67.3327 167.383 67.4993 167.499 67.6018C169.344 69.2033 172.291 71.2662 174.866 70.3693C175.097 70.318 175.007 69.9465 174.763 70.0234Z" fill="#D2D2D2"/>
<path d="M116.004 137.712C115.889 136.981 116.927 137.097 117.337 137.238C117.657 137.34 117.965 137.468 118.298 137.507C119.092 137.609 119.874 137.34 120.617 137.097C121.334 136.853 122.09 136.584 122.859 136.661C123.782 136.751 124.525 137.507 124.384 138.481C124.23 139.493 123.192 139.967 122.27 139.685C121.642 139.493 121.091 139.096 120.438 138.993C119.054 138.788 117.606 139.992 116.273 139.352C116.056 139.249 115.851 139.57 116.081 139.685C116.876 140.069 117.67 139.89 118.477 139.659C118.99 139.518 119.528 139.339 120.066 139.352C120.694 139.365 121.206 139.672 121.757 139.903C122.539 140.236 123.359 140.3 124.051 139.736C124.64 139.262 124.896 138.506 124.717 137.776C124.179 135.662 121.744 136.315 120.284 136.802C119.592 137.033 118.862 137.251 118.118 137.097C117.644 136.994 117.196 136.7 116.683 136.712C116.068 136.725 115.518 137.174 115.62 137.814C115.671 138.058 116.043 137.955 116.004 137.712Z" fill="#D2D2D2"/>
<path d="M101.231 133.445C101.846 132.869 102.692 132.625 103.525 132.805C103.871 132.881 104.832 133.138 104.229 133.599C103.909 133.842 103.204 133.817 102.82 133.817C102.577 133.817 102.577 134.201 102.82 134.201C103.384 134.201 104.37 134.175 104.793 133.727C105.152 133.343 104.742 132.92 104.396 132.728C103.294 132.087 101.872 132.33 100.962 133.176C100.783 133.343 101.052 133.612 101.231 133.445Z" fill="#D2D2D2"/>
<path d="M94.107 141.94C94.0045 141.902 93.9148 141.863 93.8123 141.825C93.7995 141.927 93.7867 142.03 93.7739 142.132C94.5554 141.569 95.4395 141.978 96.2723 142.171C96.977 142.337 97.592 142.26 98.2839 142.094C99.1423 141.889 100.014 141.761 100.898 141.709C101.308 141.684 101.718 141.671 102.128 141.658C102.512 141.645 103.473 141.453 103.14 142.107C102.743 142.888 101.589 142.914 100.885 142.683C100.283 142.491 99.7189 142.209 99.0782 142.363C98.412 142.517 97.8482 142.939 97.1564 143.08C96.2339 143.273 95.3242 143.183 94.4401 142.863C94.2095 142.786 94.107 143.144 94.3376 143.234C95.2089 143.542 96.1185 143.644 97.041 143.49C98.0789 143.311 99.0014 142.504 100.078 142.799C100.846 143.016 101.474 143.362 102.294 143.119C102.819 142.965 103.563 142.504 103.665 141.914C103.793 141.223 102.935 141.248 102.486 141.261C101.449 141.287 100.398 141.338 99.3601 141.492C98.7964 141.581 98.2582 141.735 97.7073 141.838C97.0282 141.966 96.4773 141.838 95.8239 141.658C95.0551 141.44 94.2607 141.312 93.5689 141.799C93.4664 141.876 93.4407 142.004 93.5304 142.107C93.7226 142.324 93.9276 142.376 94.1967 142.324C94.4529 142.273 94.3504 141.902 94.107 141.94Z" fill="#D2D2D2"/>
<path d="M147.024 134.598C147.767 134.291 148.549 134.124 149.356 134.137C150.189 134.15 150.893 134.47 151.688 134.65C152.854 134.932 153.725 134.214 154.673 133.663C156.172 132.779 157.658 133.356 159.221 133.676C160.336 133.907 161.528 133.945 162.489 133.266C162.694 133.125 162.501 132.792 162.296 132.933C161.092 133.804 159.606 133.381 158.286 133.061C157.043 132.766 155.813 132.6 154.647 133.24C154.135 133.522 153.661 133.894 153.123 134.137C152.303 134.509 151.636 134.214 150.842 133.983C149.548 133.612 148.177 133.714 146.934 134.227C146.691 134.317 146.793 134.688 147.024 134.598Z" fill="#D2D2D2"/>
<path d="M57.9378 71.5095C59.0781 71.0739 61.0769 73.4185 62.0635 74.956C63.5753 77.2751 63.8188 79.2995 64.5619 83.9889C64.8438 85.8082 65.305 88.691 65.9328 92.3298C67.0603 93.4317 67.4831 94.5079 67.6497 95.1742C67.8803 96.0326 67.9444 97.1345 67.6497 97.237C67.3294 97.3523 66.7656 96.276 66.535 96.3785C66.2275 96.5195 67.2269 98.2492 66.6247 99.0435C66.0097 99.8507 63.7035 99.7226 62.4991 98.531C61.3716 97.4164 61.82 95.9942 61.6406 92.5989C61.5766 91.4457 61.3972 88.3067 60.4363 85.206C59.2575 81.4264 58.0275 81.2342 57.3356 77.8901C56.8488 75.5326 56.7078 71.9835 57.9378 71.5095Z" fill="white" stroke="#161616" stroke-width="0.403357" stroke-miterlimit="10"/>
<path opacity="0.15" d="M59.6283 74.8151C60.333 74.6613 61.563 77.8516 61.6399 78.031C62.7674 80.9779 62.2293 82.2335 62.729 86.5769C63.139 90.1132 63.3696 92.1248 64.5099 94.6104C65.6118 96.9935 66.893 98.3901 66.4061 99.0307C65.9193 99.6841 64.0102 99.0563 62.5112 98.4541C62.3702 98.1338 62.1652 97.6341 61.9987 97.0191C61.5758 95.5201 61.6015 94.3285 61.6015 93.7519C61.6015 93.4316 61.5887 89.716 60.8583 86.4744C60.4612 84.7448 60.2818 85.001 59.8205 83.2073C58.8083 79.3123 58.8468 74.9816 59.6283 74.8151Z" fill="#6D6C6C"/>
<path opacity="0.17" d="M61.3586 81.0164C61.4995 82.3489 61.6789 84.3348 61.7558 86.7564C61.8711 90.4848 61.6917 93.5854 61.5892 93.5854C61.4995 93.5854 61.6149 91.356 61.128 88.3067C60.8077 86.2823 60.3336 84.6423 59.9749 83.5532C60.2183 83.3098 60.513 82.9767 60.782 82.5154C61.1152 81.926 61.2817 81.3879 61.3586 81.0164Z" fill="#6D6C6C"/>
<path d="M60.4748 126.462C60.1417 127.077 60.0905 127.744 60.8592 133.548C60.9489 134.265 61.0386 134.855 61.0898 135.265C63.0502 135.572 65.8177 135.816 69.0977 135.495C71.0836 135.303 73.4027 135.085 73.5308 134.329C73.6333 133.714 72.288 132.612 66.138 130.511C65.8561 128.461 65.5614 126.411 65.2795 124.361C61.6792 124.605 60.7439 125.988 60.4748 126.462Z" fill="#161616"/>
<path d="M52.7495 89.934C53.9539 91.574 55.6707 93.9315 57.6823 96.8143C62.4485 103.631 64.8317 107.039 65.6645 109.319C68.1245 116.071 67.4838 122.631 67.2404 124.861C67.0995 126.142 66.9201 127.193 66.7792 127.91C65.8054 128.282 64.4088 128.692 62.7048 128.833C61.1801 128.961 59.8732 128.82 58.9123 128.653C58.6176 126.911 58.3742 124.951 58.2589 122.824C58.0923 119.659 58.246 116.827 58.5407 114.406C55.2479 111.882 53.121 109.281 51.827 107.474C48.3676 102.593 47.4451 98.3646 46.8942 95.6483C46.1126 91.8815 46.6507 90.8565 47.1504 90.3183C48.816 88.5887 52.4292 89.8315 52.7495 89.934Z" fill="white" stroke="#161616" stroke-width="0.403357" stroke-miterlimit="10"/>
<path opacity="0.19" d="M53.1215 100.748C54.4412 101.862 56.1581 103.515 57.8237 105.783C58.285 106.424 60.194 109.153 61.8725 113.535C64.1787 119.608 64.3709 125.271 64.2684 128.474C63.7046 128.679 62.9103 128.897 61.9621 128.974C60.6937 129.063 59.6559 128.845 58.9896 128.64C58.5796 126.142 58.2721 123.259 58.2465 120.056C58.2337 117.98 58.3234 116.046 58.49 114.278C58.1696 114.098 51.9812 110.613 52.0581 104.784C52.0709 103.156 52.5834 101.773 53.1215 100.748Z" fill="#6D6C6C"/>
<path opacity="0.15" d="M54.7748 110.562C55.0567 110.178 58.5801 111.254 59.9767 113.868C61.0273 115.828 60.1817 117.34 60.2201 120.133C60.2458 122.221 60.7839 125.194 63.103 128.794C61.7576 128.769 60.4123 128.743 59.0542 128.717C58.6826 126.334 58.388 123.618 58.3111 120.633C58.247 118.275 58.3239 116.097 58.4776 114.111C57.978 113.855 57.3373 113.458 56.6583 112.868C55.9023 112.202 54.5698 110.844 54.7748 110.562Z" fill="#6D6C6C"/>
<path d="M37.8337 125.45C36.8599 126.078 36.6934 126.949 35.8093 128.871C35.1943 130.204 34.2718 131.985 32.8496 134.009C33.6568 134.919 35.0021 136.187 36.9752 137.122C39.6787 138.404 43.4712 139.019 44.0605 137.904C44.6884 136.7 41.3955 133.842 40.409 132.997C40.678 132.395 41.1137 131.434 41.6518 130.268C43.074 127.218 43.3559 126.77 43.1252 126.219C42.5871 124.912 39.6018 124.323 37.8337 125.45Z" fill="#161616"/>
<path d="M41.9464 87.0385C41.1777 89.1525 40.3961 91.2666 39.6274 93.3678C38.3589 97.0322 38.9099 99.5691 39.3199 100.786C39.7683 102.132 40.5499 103.285 42.1002 105.578C43.3046 107.346 44.3936 108.768 45.188 109.755C43.5993 111.408 41.7927 113.548 40.0886 116.238C37.7952 119.877 36.4371 123.298 35.6042 125.976C36.3602 126.552 37.5005 127.283 38.9996 127.833C40.678 128.448 42.1642 128.589 43.1764 128.602C44.9574 127.231 47.3917 125.092 49.6596 121.953C51.4405 119.505 53.8364 116.213 54.6052 111.6C55.9121 103.746 51.6455 97.3525 50.1208 95.0719C47.3661 90.9335 44.0605 88.4222 41.9464 87.0385Z" fill="white" stroke="#161616" stroke-width="0.403357" stroke-miterlimit="10"/>
<path d="M47.3392 91.6509C48.3257 93.0219 49.2995 94.4056 50.2348 95.8022C50.3501 95.7381 50.4526 95.6741 50.5679 95.61C49.7351 94.4953 48.992 93.3038 48.3514 92.0609C48.2617 92.1506 48.172 92.2403 48.0823 92.33C48.6076 92.6888 48.9023 93.2269 49.2226 93.7522C49.5942 94.3672 49.9785 94.9822 50.3501 95.5972C51.0804 96.7888 51.8107 97.9931 52.541 99.1847C52.6564 99.1206 52.7589 99.0566 52.8742 98.9925C51.7595 97.25 50.6448 95.5075 49.5173 93.765C49.3892 93.56 49.056 93.7522 49.1842 93.9572C50.5679 96.2634 51.9645 98.5569 53.3482 100.863C53.4764 101.081 53.8095 100.889 53.6814 100.671C52.6692 98.9541 51.6698 97.2244 50.6576 95.5075C50.5551 95.5844 50.4526 95.6613 50.3501 95.7381C51.7979 97.3397 52.0542 99.6716 53.6301 101.171C53.8095 101.337 54.0785 101.068 53.8992 100.902C52.3232 99.4153 52.067 97.0706 50.6192 95.4691C50.4654 95.3025 50.2092 95.5203 50.3117 95.6997C51.3239 97.4166 52.3232 99.1463 53.3354 100.863C53.4507 100.799 53.5532 100.735 53.6685 100.671C52.2848 98.3647 50.8882 96.0713 49.5045 93.765C49.3892 93.8291 49.2867 93.8931 49.1714 93.9572C50.286 95.6997 51.4007 97.4422 52.5282 99.1847C52.6564 99.3897 52.9895 99.1975 52.8614 98.9925C52.0414 97.6472 51.2214 96.3019 50.4014 94.9694C49.7992 93.97 49.2482 92.6759 48.2489 91.9969C48.0823 91.8816 47.9029 92.0994 47.9798 92.2659C48.6204 93.5088 49.3507 94.6875 50.1964 95.815C50.3373 96.0072 50.6704 95.8278 50.5295 95.6228C49.5942 94.2134 48.6332 92.8297 47.6339 91.4716C47.5314 91.2538 47.1982 91.4459 47.3392 91.6509Z" fill="white"/>
<path opacity="0.2" d="M48.1476 92.2147C47.4813 93.1756 46.5588 94.7644 46.1616 96.8528C44.9444 103.182 50.0695 105.988 48.9291 111.536C48.327 114.457 46.8023 114.188 43.3941 120.261C41.6645 123.349 40.5626 126.065 39.9091 127.91C39.0763 127.654 38.1666 127.321 37.2057 126.885C36.642 126.629 36.1166 126.373 35.6426 126.104C36.3985 123.746 37.5388 120.902 39.2557 117.852C41.2032 114.406 43.3429 111.715 45.1495 109.729C44.6498 109.089 43.9066 108.115 43.0482 106.898C40.6779 103.541 39.4735 101.824 39.0763 99.8509C38.6279 97.6728 38.9995 95.815 39.2557 94.5594C39.6401 92.6631 40.2935 91.1769 40.8188 90.1647C43.2532 90.8437 45.7004 91.5356 48.1476 92.2147Z" fill="#6D6C6C"/>
<path opacity="0.17" d="M45.137 91.4331C43.6892 93.0859 41.7929 95.8022 41.9467 99.0822C42.1773 104.22 47.251 106.18 46.5207 110.396C46.3157 111.562 44.7013 113.432 41.4598 117.135C39.6788 119.172 38.167 120.799 37.1292 121.888C37.9235 119.941 39.0767 117.609 40.7423 115.149C42.2157 112.971 43.7276 111.228 45.0729 109.857C44.6757 109.255 43.971 108.179 43.087 106.847C39.9992 102.208 39.397 101.478 39.051 99.8637C38.641 97.9675 38.9101 96.3659 39.1151 95.1744C39.4867 92.9578 40.2682 91.2537 40.8576 90.1775C42.2798 90.5875 43.7148 91.0103 45.137 91.4331Z" fill="#6D6C6C"/>
<path d="M51.764 69.1392C49.9446 70.2155 46.4852 72.5858 43.8459 76.9421C40.489 82.4899 40.489 87.9096 40.6043 90.0108C41.2321 90.2158 41.8727 90.4208 42.5262 90.613C46.8952 91.9199 51.1234 92.8039 55.1209 93.3677C55.454 92.2274 55.8127 91.0742 56.1971 89.8827C56.7737 88.1274 57.3759 86.4489 57.9909 84.8474C60.1177 83.7455 60.8608 82.3233 61.1043 81.7339C62.0908 79.4277 61.1555 77.0189 60.1433 74.418C59.5796 72.9574 59.2849 72.2142 58.5802 71.4199C56.3765 68.9214 52.7377 69.0752 51.764 69.1392Z" fill="#B575CC"/>
<path opacity="0.27" d="M56.081 72.1759C52.5832 72.6371 50.7125 74.2259 49.9566 74.969C45.69 79.1843 47.1635 86.2952 47.5607 88.2171C47.9194 89.9468 48.4575 91.3305 48.8804 92.2659C46.1769 91.5355 43.4863 90.7924 40.7829 90.0621C40.6163 88.1018 40.4497 83.0665 43.3582 77.698C46.0616 72.7268 49.9438 70.1771 51.6735 69.1777C51.9169 69.1905 52.1604 69.2162 52.4038 69.229C52.7754 69.6646 53.2238 70.1259 53.7747 70.5999C54.5947 71.3174 55.4019 71.8171 56.081 72.1759Z" fill="#6D6C6C"/>
<path opacity="0.2" d="M44.87 75.3918C44.5113 77.2753 44.2166 80.0043 44.601 83.2331C45.0622 87.0256 46.2794 89.9597 47.2275 91.8047C45.0238 91.2409 42.8072 90.6772 40.6035 90.1262C40.501 88.3581 40.5522 85.7059 41.3979 82.6565C42.3204 79.3253 43.8066 76.8909 44.87 75.3918Z" fill="#6D6C6C"/>
<path d="M153.185 117.724C152.378 119.531 152.532 121.222 152.66 122.016C155.184 123.131 157.426 123.644 159.143 123.9C159.707 123.989 166.677 124.976 167.356 123.067C167.522 122.593 167.253 122.106 166.984 121.632C165.485 119.005 161.693 118.852 161.18 118.839C161.039 116.11 159.284 114.085 157.49 113.944C154.953 113.752 153.364 117.327 153.185 117.724Z" fill="#161616"/>
<path d="M156.517 73.6493C158.183 76.0452 160.425 79.7737 162.052 84.7193C164.705 92.7784 164.269 99.5434 163.974 103.374C163.718 106.782 163.026 111.626 161.091 117.212C160.566 117.545 158.247 118.929 155.313 118.301C153.57 117.929 152.392 117.007 151.828 116.494C152.866 114.214 154.121 110.78 154.595 106.501C155.121 101.837 154.48 98.1852 153.635 93.4959C151.713 82.8999 149.06 78.8768 151.354 75.9171C152.456 74.4821 154.339 73.8415 156.517 73.6493Z" fill="white" stroke="#161616" stroke-width="0.403357" stroke-miterlimit="10"/>
<path opacity="0.16" d="M157.428 79.5045C158.299 83.7455 158.991 88.6142 159.26 94.0211C159.721 103.618 158.684 111.895 157.338 118.339C156.762 118.416 155.365 118.506 153.879 117.763C152.995 117.314 152.393 116.725 152.047 116.315C153.648 112.625 154.225 109.486 154.455 107.372C154.814 104.053 154.519 101.388 153.969 96.417C153.648 93.5086 153.277 91.1255 153.008 89.4983C154.481 86.1798 155.954 82.8358 157.428 79.5045Z" fill="#6D6C6C"/>
<path opacity="0.22" d="M154.62 85.8853C155.722 88.7553 157.375 94.2262 156.811 101.183C156.273 107.884 153.915 112.868 152.416 115.508C154.928 108.256 155.056 103.81 154.671 101.055C154.569 100.351 154.133 97.5574 153.633 93.4446C153.428 91.7406 153.275 90.344 153.185 89.4471C153.672 88.2556 154.146 87.064 154.62 85.8853Z" fill="#6D6C6C"/>
<path d="M134.646 112.176C133.583 112.702 133.262 113.56 131.802 116.341C130.828 118.186 130.008 119.659 129.47 120.607C131.11 121.786 133.711 123.336 137.183 124.156C139.233 124.643 143.5 125.322 143.987 124.156C144.525 122.862 140.143 119.877 138.298 118.672C140.194 116.827 140.284 114.15 139.002 112.779C137.913 111.613 135.94 111.536 134.646 112.176Z" fill="#161616"/>
<path d="M153.225 73.3802C157.453 77.1087 152.508 89.5368 148.446 99.4793C146.691 103.771 143.949 109.986 139.913 117.25C139.208 117.353 137.094 117.558 134.839 116.341C132.572 115.123 131.585 113.214 131.29 112.586C132.469 110.549 133.891 107.807 135.249 104.463C135.787 103.144 138.107 97.2499 139.413 88.9218C139.926 85.629 140.387 81.2855 140.323 76.1221C141.079 75.3534 145.294 71.2149 150.278 72.163C151.034 72.304 152.277 72.5474 153.225 73.3802Z" fill="white" stroke="#161616" stroke-width="0.403357" stroke-miterlimit="10"/>
<path d="M154.593 78.505C154.581 78.9535 154.568 79.4019 154.568 79.8503C154.696 79.8503 154.824 79.8503 154.952 79.8503C154.888 79.1328 154.927 78.4538 155.068 77.7491C154.939 77.7363 154.811 77.7106 154.696 77.6978C154.773 79.2097 154.427 80.7985 154.158 82.2847C153.889 83.7838 153.53 85.27 153.107 86.7306C153.235 86.7691 153.351 86.7947 153.479 86.8331C154.183 84.1681 154.773 81.4903 155.26 78.7741C155.298 78.5306 154.927 78.4281 154.888 78.6716C154.401 81.375 153.812 84.0656 153.107 86.7306C153.043 86.9741 153.415 87.0766 153.479 86.8331C153.927 85.2956 154.286 83.7197 154.568 82.1438C154.824 80.7088 155.157 79.1585 155.08 77.6978C155.068 77.4928 154.747 77.4288 154.709 77.6466C154.555 78.3769 154.517 79.1072 154.581 79.8503C154.606 80.0938 154.965 80.1066 154.965 79.8503C154.978 79.4019 154.991 78.9535 154.991 78.505C154.991 78.2616 154.606 78.2616 154.593 78.505Z" fill="white"/>
<path d="M152.967 85.9238C152.98 86.9103 153.006 87.8969 153.019 88.8834C153.019 89.1269 153.403 89.1269 153.403 88.8834C153.39 87.8969 153.365 86.9103 153.352 85.9238C153.339 85.6675 152.955 85.6675 152.967 85.9238Z" fill="white"/>
<path opacity="0.19" d="M147.637 77.365C147.675 79.9403 147.534 83.4509 146.779 87.5253C145.971 91.8431 144.741 95.1872 142.948 100.222C141.487 104.348 140.782 105.578 139.296 110.152C138.386 112.932 137.746 115.264 137.336 116.827C136.631 116.738 135.17 116.443 133.71 115.354C132.352 114.342 131.66 113.137 131.352 112.51C133.71 108.371 135.209 104.745 136.157 102.106C139.091 93.9444 139.783 86.8462 140.18 82.4772C140.347 80.6578 140.436 79.1459 140.475 78.1594C142.858 77.8903 145.254 77.6341 147.637 77.365Z" fill="#6D6C6C"/>
<path opacity="0.24" d="M146.318 77.7365C145.319 82.1311 144.166 85.5905 143.256 88.0121C142.513 90.0108 141.373 92.7015 139.105 98.0699C138.272 100.056 137.849 101.042 137.644 101.491C136.389 104.31 134.377 108.269 131.161 112.932C134.044 107.756 137.35 100.376 139.105 91.0743C139.989 86.3849 140.309 82.1055 140.348 78.4027C140.335 78.3899 140.335 78.3899 146.318 77.7365Z" fill="#6D6C6C"/>
<path d="M150.366 46.2306C150.571 46.7303 150.93 47.4606 151.583 48.2038C152.057 48.7419 152.659 49.4338 153.556 49.7028C155.299 50.241 156.99 48.8572 157.22 48.665C158.912 49.6644 160.603 50.6638 162.281 51.6631C162.435 53.7516 162.448 56.9035 161.628 60.5806C160.846 64.0785 160.09 64.5013 159.475 67.8966C158.54 72.996 159.232 77.5444 159.001 77.5572C158.963 77.5572 158.912 77.4547 158.809 76.9038C152.211 77.4035 145.612 77.9031 139.014 78.4028C138.822 74.4438 138.847 71.1125 138.924 68.6525C139.027 64.8088 139.334 60.1578 140.615 54.7638C141.525 50.9072 142.243 49.6003 143.332 48.5753C145.689 46.3331 148.918 46.1922 150.366 46.2306Z" fill="#E1BEFF"/>
<path opacity="0.3" d="M158.003 49.1262C157.785 51.4709 157.375 54.9559 156.594 59.1328C156.363 60.3884 155.71 63.8478 155.184 65.539C154.544 67.6147 152.045 73.5468 139.822 78.3643C143.55 77.9287 147.394 77.5443 151.328 77.224C153.788 77.019 156.222 76.8397 158.618 76.6987C159.464 73.6878 160.245 70.2797 160.809 66.5128C161.667 60.8112 161.834 55.6606 161.693 51.3172C160.463 50.5868 159.233 49.8565 158.003 49.1262Z" fill="#B575CC"/>
<path d="M152.725 38.5176C152.277 40.811 152.072 43.3479 150.214 46.1538C149.958 46.5382 149.74 46.8329 149.586 47.0251C149.74 47.3326 151.367 50.4844 154.826 50.9585C156.799 51.2276 158.35 50.4716 158.939 50.1513C158.849 49.3826 158.798 48.4601 158.875 47.4222C158.977 45.8976 159.298 44.6291 159.618 43.6682C161.104 43.476 162.578 43.2838 164.064 43.0916C164.359 42.4382 164.641 41.7847 164.935 41.1185C165.345 41.1057 165.743 41.0929 166.153 41.0801C165.845 40.1832 165.384 38.761 164.846 37.0057C163.846 33.7001 163.859 33.226 163.321 32.4829C161.835 30.4457 158.503 29.1516 156.312 30.2407C154.198 31.2785 153.558 34.2382 152.725 38.5176Z" fill="white" stroke="#161616" stroke-width="0.403357" stroke-miterlimit="10"/>
<path d="M166.088 40.9007C165.358 40.9135 164.641 40.8622 163.923 40.7597C163.68 40.7213 163.577 41.0929 163.821 41.1313C164.577 41.2466 165.32 41.2979 166.088 41.2851C166.345 41.2851 166.345 40.9007 166.088 40.9007Z" fill="#161616"/>
<path d="M166.601 35.0197C165.947 34.6609 165.166 34.8659 164.743 35.4681C164.602 35.6731 164.935 35.8653 165.076 35.6603C165.371 35.2375 165.96 35.1093 166.409 35.3528C166.626 35.4681 166.819 35.135 166.601 35.0197Z" fill="#161616"/>
<path d="M166.267 37.3259C166.331 37.0312 166.318 36.7365 166.177 36.4675C166.075 36.2753 165.857 36.0447 165.613 36.1472C165.357 36.2497 165.37 36.6084 165.421 36.8262C165.473 37.0953 165.613 37.3387 165.818 37.5181C165.934 37.6206 166.152 37.5565 166.152 37.3772C166.152 37.0569 166.075 36.775 165.934 36.4803C165.831 36.2625 165.498 36.4547 165.601 36.6725C165.703 36.8903 165.754 37.1209 165.767 37.3644C165.883 37.3131 165.985 37.2747 166.1 37.2234C165.883 37.044 165.806 36.8134 165.793 36.5444C165.806 36.5187 165.793 36.4931 165.754 36.4931C165.78 36.5059 165.806 36.5315 165.818 36.5572C165.857 36.6084 165.895 36.6853 165.908 36.7494C165.959 36.9031 165.959 37.044 165.921 37.1978C165.831 37.4669 166.203 37.5694 166.267 37.3259Z" fill="#161616"/>
<path d="M162.887 35.5322C162.144 35.2887 161.362 35.5962 160.926 36.2369C160.785 36.4419 161.119 36.634 161.26 36.429C161.593 35.9294 162.208 35.7244 162.784 35.9037C163.015 35.9678 163.117 35.609 162.887 35.5322Z" fill="#161616"/>
<path d="M163.089 37.6719C163.115 37.326 162.974 36.7879 162.615 36.6469C162.141 36.4548 162.141 37.121 162.192 37.4029C162.256 37.6848 162.487 38.2101 162.871 37.9923C163.025 37.9026 163.051 37.736 163 37.5822C162.91 37.3388 162.769 37.121 162.666 36.8904C162.564 36.9673 162.461 37.0441 162.359 37.121C162.41 37.1723 162.449 37.2235 162.461 37.3004C162.526 37.5438 162.897 37.4413 162.833 37.1979C162.795 37.0569 162.731 36.9544 162.628 36.8519C162.461 36.6982 162.231 36.8904 162.321 37.0826C162.372 37.1723 162.41 37.2619 162.461 37.3644C162.5 37.4413 162.538 37.5822 162.602 37.6463C162.628 37.736 162.654 37.736 162.692 37.6463C162.679 37.6207 162.654 37.5823 162.641 37.5566C162.602 37.4798 162.577 37.4029 162.564 37.3132C162.551 37.2363 162.564 37.1338 162.538 37.0569C162.551 37.0057 162.538 36.9929 162.526 37.0569C162.551 37.0954 162.59 37.1338 162.602 37.1723C162.692 37.326 162.718 37.5054 162.705 37.6848C162.679 37.9154 163.064 37.9154 163.089 37.6719Z" fill="#161616"/>
<path d="M163.833 33.3028C163.73 32.6237 163.461 31.5219 162.744 30.3816C162.488 29.9844 161.937 29.1259 161.065 28.5494C159.4 27.4475 156.837 27.5372 154.967 28.8825C153.147 30.2022 152.238 32.5725 152.635 34.9172C156.376 34.3791 160.104 33.8409 163.833 33.3028Z" fill="#EC615B"/>
<path d="M169.958 32.0727C164.205 32.803 158.465 33.5333 152.712 34.2637C151.982 34.3533 151.982 35.5065 152.712 35.4168C158.465 34.6865 164.205 33.9562 169.958 33.2258C170.675 33.1362 170.688 31.983 169.958 32.0727Z" fill="#161616"/>
<path d="M156.363 34.7632C157.376 35.1348 157.965 35.8395 158.657 36.6851C160.105 38.4532 159.669 39.1067 160.694 40.2085C162.308 41.9639 163.948 40.926 165.396 42.6429C166.626 44.1035 166.46 46.0767 166.408 46.5123C166.357 46.9479 166.139 48.7032 164.717 49.9076C163.487 50.9454 161.809 51.1889 161.706 50.9582C161.668 50.8685 161.809 50.6635 162.718 50.0485C162.449 50.2407 162.039 50.4714 161.488 50.5739C160.861 50.6892 160.271 50.5739 160.258 50.4842C160.258 50.4201 160.592 50.4201 160.848 50.1382C161.002 49.9717 161.066 49.7795 161.104 49.6129C160.604 49.946 159.964 50.2279 159.362 50.0485C157.722 49.5489 157.427 45.8717 157.324 44.6545C157.017 40.7082 158.144 38.5557 156.773 37.172C156.658 37.0567 156.107 36.4929 155.505 36.6082C154.736 36.7492 154.147 37.9535 154.403 38.7479C154.621 39.427 155.39 39.6192 155.338 39.7473C155.262 39.9139 153.968 39.6576 152.878 38.7864C152.481 38.466 152.161 38.2098 151.994 37.7357C151.7 36.9157 152.046 35.9804 152.507 35.4295C153.468 34.2764 155.262 34.3532 156.363 34.7632Z" fill="#161616" stroke="#161616" stroke-width="0.403357" stroke-miterlimit="10"/>
<path opacity="0.22" d="M154.838 39.8498C155.081 39.8754 155.427 39.8883 155.453 39.7986C155.466 39.7601 155.376 39.6961 155.376 39.6961C155.376 39.6961 155.671 40.0676 156.029 40.1189C156.209 40.1445 156.35 40.0804 156.452 40.0292C155.799 41.4001 155.133 43.0658 154.582 44.9876C154.005 46.9736 153.685 48.7929 153.518 50.3433C152.954 50.1639 151.929 49.7539 150.981 48.8314C150.289 48.1651 149.892 47.4604 149.662 46.9864C150.43 45.8333 150.879 44.8211 151.148 44.1292C151.391 43.4886 151.481 43.0658 151.917 41.6051C152.275 40.4264 152.557 39.4526 152.749 38.7864C152.852 38.8761 153.006 39.017 153.211 39.1579C153.505 39.3629 154.082 39.7601 154.838 39.8498Z" fill="#6D6C6C"/>
<path d="M158.978 27.8575C157.478 28.1521 156.364 29.3565 156.197 30.7787C155.992 32.47 157.235 33.6231 157.35 33.7256C155.762 33.9178 154.173 34.1228 152.584 34.315C152.558 33.9434 152.546 33.4309 152.635 32.8415C152.943 30.9453 154.045 29.7793 154.275 29.5359C154.647 29.1515 155.954 27.9087 157.888 27.7934C158.337 27.7678 158.708 27.819 158.978 27.8575Z" fill="#B74949"/>
<path d="M161.902 51.535C162.927 51.3812 163.978 53.1622 164.465 53.9822C167.283 58.774 166.105 64.309 165.746 65.9234C165.464 67.1919 164.939 69.4341 163.299 71.9069C161.735 74.29 159.89 75.7634 158.712 76.5706C156.739 77.3265 153.151 78.3644 148.833 77.6597C147.334 77.4162 146.027 77.0062 144.938 76.5706C143.093 76.6859 141.248 76.7884 139.403 76.9037C139.109 76.8525 138.699 76.7756 138.212 76.5962C137.622 76.3784 137.059 76.1606 137.059 75.9556C137.059 75.725 137.699 75.3662 140.825 74.8794C140.672 74.905 138.622 75.3022 137.251 73.8672C135.97 72.5347 135.893 70.254 136.866 69.3572C137.686 68.6012 139.019 68.9344 141.453 69.5878C143.862 70.2284 145.797 71.0997 147.206 71.8428C147.744 72.0862 151.934 73.8928 155.765 71.6891C158.686 70.0106 159.66 66.9997 159.89 66.1669C160.813 62.8612 159.135 61.6953 159.737 56.9162C159.814 56.0962 160.365 51.7528 161.902 51.535Z" fill="white" stroke="#161616" stroke-width="0.403357" stroke-miterlimit="10"/>
<path d="M136.375 72.2142C137.862 72.3295 139.284 72.6883 140.642 73.3033C140.86 73.4058 141.065 73.0726 140.834 72.9701C139.412 72.3167 137.926 71.9323 136.375 71.817C136.132 71.817 136.132 72.2014 136.375 72.2142Z" fill="#161616"/>
<path d="M136.291 70.6513C137.995 70.6001 139.443 71.6379 141.032 72.1248C141.262 72.2017 141.365 71.8301 141.134 71.7532C139.52 71.2535 138.046 70.2157 136.291 70.267C136.047 70.2798 136.035 70.6642 136.291 70.6513Z" fill="#161616"/>
<path d="M137.93 69.2934C139.326 69.4088 140.556 70.075 141.761 70.7541C141.978 70.8694 142.171 70.5491 141.953 70.4209C140.684 69.7162 139.403 69.0372 137.93 68.9091C137.673 68.8834 137.673 69.2678 137.93 69.2934Z" fill="#161616"/>
<path opacity="0.18" d="M160.337 53.8925C159.581 56.929 161.593 58.979 162.272 62.4512C162.387 63.0662 163.297 68.0503 160.632 71.5865C157.66 75.5328 151.766 75.6737 150.613 75.7122C147.602 75.789 146.461 74.905 141.746 75.1484C141.298 75.174 137.198 75.4047 137.16 75.9812C137.147 76.2887 138.287 76.6347 139.145 76.75C140.273 76.9037 140.862 76.6475 142.297 76.5322C142.912 76.4809 143.796 76.4425 144.885 76.5322C146.192 77.0703 147.884 77.5956 149.908 77.8006C150.459 77.8519 152.176 78.0056 154.38 77.6853C154.38 77.6853 156.225 77.429 157.685 76.9165C161.311 75.6609 164.899 70.3694 165.911 64.6037C167.051 58.1078 164.514 53.2134 163.092 52.1244C162.9 51.9706 162.349 51.5478 161.772 51.6887C160.837 51.8937 160.453 53.4184 160.337 53.8925Z" fill="#6D6C6C"/>
<path opacity="0.17" d="M165.746 57.749C165.541 57.749 165.541 60.1962 164.977 63.2712C164.631 65.1418 163.927 68.9471 162.223 71.5993C159.186 76.3271 152.985 77.3906 150.627 77.6725C152.652 77.9543 155.765 78.0184 158.802 76.404C165.387 72.8934 166.028 64.4243 166.143 62.8868C166.323 60.2987 165.951 57.749 165.746 57.749Z" fill="#6D6C6C"/>
<path d="M55.106 106.231C60.4103 101.516 65.7403 96.827 71.096 92.1761C81.1922 83.3995 91.3781 74.7383 101.667 66.1795C100.859 63.7836 99.8216 59.6324 100.437 54.5842C100.629 52.9827 102.269 41.1824 113.083 35.0836C113.979 34.5711 126.395 27.8574 138.028 35.263C145.703 40.1445 149.675 49.0492 148.74 57.7489C147.356 70.6767 135.876 76.4039 135.21 76.7242C126.933 80.6705 116.978 79.5045 109.559 73.7389C98.4122 82.9127 87.291 92.0992 76.1825 101.311C71.3138 105.347 66.4578 109.383 61.6019 113.432C60.5897 112.945 58.9113 111.971 57.3994 110.19C56.131 108.704 55.4647 107.218 55.106 106.231Z" fill="#1C1C1C"/>
<path d="M124.846 75.0713C136.068 75.0713 145.166 66.3521 145.166 55.5963C145.166 44.8406 136.068 36.1213 124.846 36.1213C113.623 36.1213 104.525 44.8406 104.525 55.5963C104.525 66.3521 113.623 75.0713 124.846 75.0713Z" fill="white" stroke="#161616" stroke-width="0.403357" stroke-miterlimit="10"/>
<path d="M126.497 37.1979C122.782 45.0648 118.874 52.8548 114.787 60.5423C113.633 62.7076 112.468 64.8729 111.289 67.0254C111.173 67.2432 111.507 67.4354 111.622 67.2176C115.812 59.5813 119.822 51.8554 123.64 44.027C124.716 41.8232 125.78 39.6066 126.843 37.3773C126.946 37.1723 126.613 36.9801 126.497 37.1979Z" fill="#E8E8E8"/>
<path d="M132.762 39.1067C128.687 45.5386 124.818 52.0857 121.141 58.7482C121.026 58.9661 121.359 59.1582 121.474 58.9404C125.151 52.2779 129.021 45.7307 133.095 39.2989C133.223 39.0939 132.89 38.9017 132.762 39.1067Z" fill="#E8E8E8"/>
<path d="M120.461 61.0032C118.77 64.296 116.963 67.5376 115.029 70.7023C114.9 70.9201 115.234 71.1123 115.362 70.8945C117.284 67.7298 119.103 64.4882 120.794 61.1954C120.91 60.9776 120.576 60.7726 120.461 61.0032Z" fill="#E8E8E8"/>
<path d="M127.573 51.3939C125.421 55.4427 123.281 59.4914 121.128 63.5402C121.013 63.758 121.346 63.9502 121.462 63.7323C123.614 59.6836 125.754 55.6348 127.906 51.5861C128.022 51.3683 127.688 51.1761 127.573 51.3939Z" fill="#E8E8E8"/>
<path opacity="0.08" d="M124.242 36.0574C122.82 36.5699 113.454 40.0805 110.456 49.4849C110.11 50.5739 109.034 54.0846 109.841 58.1461C111.391 65.8849 119.13 72.1502 129.252 74.2514C128.483 74.5077 127.407 74.8152 126.074 74.9818C118.028 75.9939 111.788 70.5102 111.058 69.8568C109.469 68.4089 104.562 63.4889 104.472 55.6989C104.46 55.0199 104.498 47.3324 110.328 41.7846C113.723 38.5558 117.695 37.3771 119.36 36.903C121.308 36.3521 123.012 36.1471 124.242 36.0574Z" fill="#6D6C6C"/>
<path d="M49.264 75.5839C50.1865 75.4686 51.5703 75.4558 52.5825 76.2758C54.7606 78.0439 53.0821 81.8877 54.1584 85.9493C54.735 88.1274 56.2596 91.0614 60.6928 93.9699C62.4481 94.8539 63.9087 95.5202 64.9209 95.9814C66.3687 96.6349 67.2912 97.0064 67.2784 97.5061C67.2656 98.0058 66.3559 98.3774 65.7025 98.5952C66.484 99.3255 66.8812 100.248 66.6121 100.953C66.4071 101.504 65.8434 101.773 65.2156 102.08C64.4981 102.439 63.8959 102.516 63.204 102.606C61.91 102.772 61.2693 102.849 60.68 102.606C59.7703 102.221 59.3603 101.376 58.7581 100.158C58.425 99.4921 58.015 98.4543 57.7971 97.1089C56.3493 96.4427 54.2737 95.2896 52.2109 93.3549C51.4037 92.5989 43.9212 85.4239 46.2787 79.2227C46.6375 78.3514 47.3934 76.9421 49.264 75.5839Z" fill="white" stroke="#161616" stroke-width="0.403357" stroke-miterlimit="10"/>
<path d="M60.7191 101.017C61.0394 101.721 61.5262 102.311 62.1541 102.785C62.3462 102.939 62.5384 102.605 62.3462 102.452C61.7825 102.029 61.3469 101.465 61.0522 100.824C60.9497 100.607 60.6166 100.799 60.7191 101.017Z" fill="#161616"/>
<path d="M62.2559 100.812C62.6403 101.555 63.2168 102.17 63.9215 102.631C64.1265 102.759 64.3187 102.426 64.1137 102.298C63.4603 101.888 62.9349 101.311 62.5762 100.619C62.4737 100.402 62.1406 100.594 62.2559 100.812Z" fill="#161616"/>
<path d="M63.8686 99.9403C64.2273 100.696 64.8423 101.298 65.5983 101.657C65.8161 101.76 66.0211 101.427 65.7904 101.324C65.0858 100.991 64.5348 100.453 64.2017 99.7482C64.0864 99.5175 63.7661 99.7097 63.8686 99.9403Z" fill="#161616"/>
<path opacity="0.2" d="M49.5843 75.6095C49.3024 76.8779 48.9949 78.8767 49.264 81.2854C49.9686 87.3842 53.9149 91.4073 54.5683 92.0607C57.8227 95.2895 59.9496 94.8539 61.2436 97.7367C61.5896 98.5054 62.2046 100.248 63.8702 101.158C64.5236 101.504 65.1386 101.632 65.5486 101.683C65.3308 101.862 64.9721 102.106 64.498 102.311C63.7036 102.657 63.0118 102.67 61.9227 102.682C61.1155 102.695 60.7055 102.695 60.3468 102.529C59.5908 102.183 59.2321 101.465 59.0911 101.106C58.5786 99.7226 58.079 98.3389 57.5665 96.9551C55.068 95.6739 51.5318 93.3933 48.7386 89.4854C47.5727 87.8583 45.6252 85.0651 45.7918 81.7083C45.8686 80.1836 46.3555 79.1201 46.4708 78.8639C47.3805 76.9804 48.8924 76.0067 49.5843 75.6095Z" fill="#6D6C6C"/>
<path opacity="0.32" d="M45.959 82.4897C46.0359 82.4641 46.5227 84.0016 47.4837 85.7953C49.8284 90.2284 53.2109 92.9447 55.6324 94.8409C56.7343 95.6994 57.6696 96.34 58.259 96.7372C58.9765 97.9416 59.3865 98.9794 59.6299 99.7353C59.8349 100.363 59.9502 100.927 60.4243 101.516C60.9112 102.157 61.539 102.516 62.0002 102.721C61.6543 102.733 61.129 102.708 60.5781 102.452C59.5274 101.965 59.0662 100.953 58.5793 99.8763C58.2974 99.2613 57.9643 98.3388 57.7849 97.1472C51.0968 93.7647 48.5856 89.4981 47.6374 87.4738C46.6637 85.3981 45.8565 82.5409 45.959 82.4897Z" fill="#6D6C6C"/>
<path d="M56.5671 63.8861C55.6574 64.2448 56.1955 66.0386 54.7349 67.6658C54.0174 68.4729 53.1461 68.8573 52.5439 69.0751C52.9283 69.6517 53.6843 70.587 54.9271 71.3301C55.8111 71.8683 56.6568 72.1245 57.2461 72.2398C57.4383 71.8939 57.7586 71.3558 58.1558 70.7151C59.578 68.473 60.0905 68.2295 60.1674 67.4864C60.3596 65.667 57.733 63.4248 56.5671 63.8861Z" fill="white" stroke="#161616" stroke-width="0.403357" stroke-miterlimit="10"/>
<path d="M56.4006 67.3453C56.9259 68.3959 57.4769 69.4337 58.3481 70.2409C58.5275 70.4074 58.7966 70.1384 58.6172 69.9718C57.7716 69.1903 57.2462 68.1653 56.7337 67.1531C56.6184 66.9353 56.2853 67.1274 56.4006 67.3453Z" fill="#161616"/>
<path d="M56.017 66.6537C56.6064 67.8068 57.247 68.9471 58.3745 69.6518C58.5667 69.7671 58.7589 69.5108 58.6051 69.3443C58.2336 68.9471 57.8492 68.5499 57.4904 68.1527C57.4007 68.2424 57.3111 68.3321 57.2214 68.4218C57.4392 68.6524 57.6698 68.8702 57.9261 69.0496C58.0157 69.1137 58.2976 69.2418 58.3489 69.3187C58.4257 69.4468 58.3489 69.6518 58.3104 69.7799C58.4386 69.8183 58.5539 69.844 58.682 69.8824C58.6948 69.8184 58.6948 69.7543 58.7076 69.703C58.7332 69.5365 58.5282 69.3571 58.3873 69.5108C58.3873 69.3699 58.3489 69.229 58.2592 69.1137C58.1439 69.1777 58.0414 69.2418 57.9261 69.3059C58.067 69.498 58.2079 69.6902 58.3489 69.8824C58.4514 69.8055 58.5539 69.7287 58.6564 69.6518C58.5411 69.5237 58.4514 69.3955 58.3617 69.2546C58.2464 69.088 57.9261 69.1905 58.0157 69.4083C58.0926 69.5749 58.1182 69.639 58.2336 69.7799C58.3873 69.9721 58.6564 69.703 58.5026 69.5108C58.4642 69.4468 58.4257 69.3827 58.3873 69.3059C58.272 69.3571 58.1567 69.4083 58.0414 69.4596C58.1567 69.6262 58.272 69.7799 58.4001 69.9337C58.5411 70.1002 58.8357 69.8824 58.7076 69.703C58.5667 69.5108 58.4257 69.3187 58.2848 69.1265C58.1439 68.9215 57.8492 69.1008 57.9517 69.3187C58.0798 69.5749 58.3361 70.1771 58.682 69.7927C58.5795 69.7287 58.4642 69.6646 58.3617 69.6005C58.3489 69.6646 58.3489 69.7287 58.3361 69.7799C58.2976 70.0233 58.6436 70.1259 58.7076 69.8824C58.7973 69.5749 59.0151 69.434 58.7589 69.1265C58.6436 68.9855 58.4514 68.9215 58.3104 68.8318C58.0157 68.6396 57.7595 68.409 57.5161 68.1527C57.3495 67.9734 57.0804 68.2424 57.247 68.4218C57.6186 68.819 57.9901 69.2162 58.3617 69.6133C58.4386 69.5108 58.5154 69.4084 58.5923 69.3059C57.5289 68.6396 56.9395 67.5377 56.3757 66.4487C56.2348 66.2308 55.9017 66.4358 56.017 66.6537Z" fill="#161616"/>
<path d="M68.3546 60.4908C68.0983 61.6311 67.573 63.3223 66.3686 65.0648C64.2546 68.127 61.3846 69.4211 60.1546 69.8951C59.4499 69.6261 58.5274 69.152 57.6561 68.3448C55.273 66.1283 55.0936 63.0917 55.068 62.3101C54.8117 62.2461 54.4402 62.1051 54.1199 61.7976C53.2999 61.0033 53.1077 59.4273 53.8636 58.7739C54.7221 58.0308 56.3621 58.9405 56.5414 59.0301C56.9386 59.248 57.2205 59.517 57.3999 59.722C58.1046 57.5951 59.7958 55.9936 61.8074 55.6605C64.5492 55.212 67.5474 57.2108 68.3546 60.4908Z" fill="white" stroke="#161616" stroke-width="0.403357" stroke-miterlimit="10"/>
<path d="M65.2551 63.553C64.7426 64.7061 63.9866 65.6926 63.0129 66.4998C62.8207 66.6536 63.0898 66.9226 63.282 66.7689C64.2941 65.9489 65.0629 64.9367 65.5882 63.7451C65.6907 63.5145 65.3576 63.3223 65.2551 63.553Z" fill="#161616"/>
<path d="M62.5246 65.6413C62.4734 66.0769 62.6271 66.4998 62.9218 66.8201C63.0884 66.9994 63.3574 66.7304 63.1909 66.551C62.9603 66.2948 62.8706 65.9873 62.909 65.6413C62.9346 65.3979 62.5503 65.3979 62.5246 65.6413Z" fill="#161616"/>
<path d="M61.7408 63.4506C62.074 62.9893 62.4711 62.5793 62.9196 62.2078C62.8171 62.1437 62.7018 62.0796 62.5993 62.0156C62.4327 62.5281 62.074 62.9381 61.5999 63.1943C61.6768 63.2968 61.7536 63.3993 61.8305 63.5018C62.1252 63.1431 62.4199 62.7971 62.7146 62.4384C62.8683 62.2462 62.5993 61.9771 62.4455 62.1693C62.1508 62.5281 61.8561 62.874 61.5615 63.2328C61.4205 63.3993 61.5999 63.6428 61.7921 63.5403C62.3558 63.2328 62.7658 62.7331 62.9708 62.1309C63.0349 61.9259 62.7915 61.8362 62.6505 61.9387C62.1765 62.3231 61.7665 62.7587 61.4205 63.2584C61.2668 63.4634 61.5999 63.6556 61.7408 63.4506Z" fill="#161616"/>
<path d="M65.9976 64.5782C66.1641 64.2963 66.3819 64.0529 66.6254 63.8351C66.5229 63.771 66.4076 63.707 66.3051 63.6429C66.1898 64.0273 65.9591 64.3732 65.626 64.6166C65.7157 64.6935 65.8182 64.7576 65.9079 64.8345C65.9848 64.6295 66.1001 64.4373 66.241 64.2707C66.3948 64.0785 66.1257 63.8095 65.972 64.0017C65.7926 64.2323 65.6516 64.4629 65.5491 64.732C65.4851 64.8857 65.7029 65.0523 65.831 64.9498C66.241 64.6423 66.5357 64.2451 66.6766 63.7582C66.7407 63.566 66.4973 63.4507 66.3563 63.566C66.0873 63.7967 65.8566 64.0785 65.6644 64.386C65.5235 64.591 65.8566 64.7832 65.9976 64.5782Z" fill="#161616"/>
<path d="M60.4228 62.5023C60.615 62.9507 60.7174 63.412 60.7174 63.886C60.7174 64.0142 60.9096 64.0142 60.9096 63.886C60.9096 63.3735 60.7943 62.8739 60.5893 62.3998C60.5381 62.2845 60.3715 62.387 60.4228 62.5023Z" fill="#161616"/>
<path d="M59.8853 62.1691C60.0134 62.3741 60.1031 62.5791 60.1799 62.7969C60.2184 62.9123 60.3978 62.861 60.3593 62.7457C60.2824 62.5023 60.1799 62.2844 60.0518 62.0666C59.9878 61.9641 59.8212 62.0666 59.8853 62.1691Z" fill="#161616"/>
<path d="M62.844 61.1184C63.3181 60.9775 63.7665 61.2978 63.7793 61.7975C63.7793 61.9768 64.074 61.9897 64.074 61.7975C64.0484 61.1184 63.4334 60.6572 62.7671 60.8365C62.5878 60.8878 62.6646 61.1697 62.844 61.1184Z" fill="#161616"/>
<path d="M66.2784 63.002C66.4834 62.8739 66.7269 62.8611 66.9447 62.9892C67.0984 63.0917 67.2522 62.8355 67.0856 62.7458C66.7909 62.5664 66.4194 62.5664 66.1375 62.7586C65.9837 62.8611 66.1247 63.1045 66.2784 63.002Z" fill="#161616"/>
<path d="M60.0237 66.2948C60.3312 66.8458 60.8565 67.243 61.4715 67.4095C61.7149 67.4736 61.8174 67.102 61.574 67.038C61.0487 66.897 60.6259 66.5767 60.3568 66.1027C60.2287 65.8848 59.8956 66.077 60.0237 66.2948Z" fill="#161616"/>
<path d="M57.3866 60.2346C57.6685 59.7477 58.3475 58.7099 59.6544 57.9924C60.5513 57.4927 61.3969 57.3517 61.9094 57.3005C62.1913 57.6721 62.6525 58.1589 63.3316 58.4664C64.9332 59.1967 66.2272 58.2358 67.1753 58.8764C67.675 59.2096 68.1747 60.0167 67.9825 62.2205C68.8282 63.0917 69.3919 63.143 69.6994 63.0789C70.9807 62.8227 71.9032 59.9399 71.096 57.8386C70.8525 57.2108 70.5322 56.8521 67.816 54.6867C63.985 51.6374 63.511 51.458 63.0113 51.3427C60.3719 50.7277 58.04 52.0602 57.6428 52.2908C57.1303 52.5855 57.015 52.7264 54.081 55.8142C51.8003 58.2102 51.5825 58.428 51.3775 59.0174C50.8394 60.5036 50.9419 62.6561 52.3128 64.2321C53.6069 65.7055 55.3494 65.9233 55.7978 65.9746C55.6057 65.5389 55.4007 64.9239 55.2982 64.168C55.17 63.1942 55.2982 62.3871 55.4135 61.8617C55.3238 61.7977 54.8113 61.3749 54.7728 60.6574C54.7472 60.1321 54.9907 59.4658 55.5544 59.248C56.1822 59.0046 57.0407 59.3761 57.3866 60.2346Z" fill="#B575CC"/>
<path d="M56.8356 53.7899C56.3103 52.7521 54.7728 52.5983 54.5037 52.5727C52.3641 52.3549 50.6472 54.2639 49.635 55.3786C47.8412 57.3646 48.3537 57.9539 46.6112 60.3499C44.305 63.5274 42.5753 63.6683 42.2166 65.8592C42.1909 66.0258 41.8706 68.2296 43.3312 69.5621C44.5869 70.7152 46.6112 70.728 47.9437 70.0361C49.7503 69.1008 49.5966 67.2174 50.9034 64.0527C53.4659 57.8771 57.8478 55.7886 56.8356 53.7899Z" fill="#B575CC"/>
<path opacity="0.12" d="M58.8975 58.4536C58.4875 59.4786 58.0007 61.1058 58.0263 63.143C58.0647 66.3974 59.3972 68.7805 60.0635 69.8055C59.3332 69.498 58.116 68.8445 57.0525 67.5633C56.6169 67.038 55.5919 65.7952 55.3228 63.8861C55.1947 63.0277 55.2716 62.3102 55.3485 61.8233C55.2716 61.7592 54.7463 61.2852 54.7719 60.542C54.7847 60.0552 55.041 59.4017 55.5919 59.2095C56.2069 58.9917 57.0525 59.3889 57.3857 60.2474C57.5138 59.9911 57.6932 59.6708 57.9622 59.3377C58.2953 58.9405 58.6285 58.6586 58.8975 58.4536Z" fill="#6D6C6C"/>
<path opacity="0.13" d="M56.6426 67.8324C56.5401 68.063 56.4248 68.2937 56.2839 68.5243C55.6433 69.6005 54.8105 70.318 54.157 70.7537C53.9264 70.6127 53.6189 70.3949 53.3114 70.0618C52.9783 69.703 52.7733 69.3443 52.658 69.088C53.1576 68.9343 54.4005 68.4602 55.2461 67.2174C55.5408 66.769 55.7201 66.3334 55.8226 65.9746C56.0917 66.6024 56.3608 67.2174 56.6426 67.8324Z" fill="#6D6C6C"/>
<path opacity="0.18" d="M55.5155 61.6056C55.5796 62.4897 55.7461 63.6428 56.1817 64.9368C56.7839 66.6922 57.6552 67.9862 58.3214 68.8062C57.6552 68.2681 56.8608 67.4609 56.2202 66.3334C55.7974 65.5775 55.1696 64.4884 55.2464 63.0022C55.2721 62.4256 55.4002 61.9387 55.5155 61.6056Z" fill="#6D6C6C"/>
<path opacity="0.32" d="M57.4762 52.6111C56.938 53.1364 53.5812 56.5189 54.0424 61.3236C54.2346 63.3736 55.0546 64.9239 55.644 65.8336C55.234 65.808 54.4396 65.7183 53.5812 65.2186C52.7227 64.7189 52.2358 64.0655 52.018 63.7323C51.8515 63.4633 51.6465 63.0276 51.5183 62.4767C51.5183 62.4767 51.2877 61.4005 51.7105 60.068C52.159 58.6073 54.1833 55.763 57.4762 52.6111Z" fill="#E1BEFF"/>
<path opacity="0.33" d="M50.5445 54.6867C50.8392 54.8789 49.212 58.2999 47.4183 61.2852C45.8039 63.963 45.0095 64.7061 44.8942 66.3461C44.7789 68.0502 45.4964 69.5108 46.137 70.4974C45.8167 70.523 44.6123 70.5614 43.5617 69.7286C42.9852 69.2674 42.6777 68.7292 42.5367 68.3961C42.2292 67.4992 41.9602 66.1924 42.4983 64.9624C42.857 64.1295 43.2798 64.0655 44.5995 62.733C45.7655 61.5542 46.9186 60.3883 47.7642 58.6586C48.1998 57.7745 48.3536 57.1339 49.0967 56.1345C49.5836 55.4683 50.378 54.5714 50.5445 54.6867Z" fill="#E1BEFF"/>
</svg>
