<svg width="1366" height="605" viewBox="0 0 1366 605" fill="none" xmlns="http://www.w3.org/2000/svg">
<mask id="mask0_1298_9462" style="mask-type:luminance" maskUnits="userSpaceOnUse" x="0" y="0" width="1367" height="605">
<path d="M1366.09 0.339355H0.0917969V604.339H1366.09V0.339355Z" fill="white"/>
</mask>
<g mask="url(#mask0_1298_9462)">
<g opacity="0.4">
<path d="M1366.09 0.339355H0.0917969V604.339H1366.09V0.339355Z" fill="white"/>
<path d="M1366.09 0.339355H0.0917969V604.339H1366.09V0.339355Z" fill="url(#paint0_radial_1298_9462)"/>
<mask id="mask1_1298_9462" style="mask-type:luminance" maskUnits="userSpaceOnUse" x="0" y="0" width="1367" height="605">
<path d="M1366.09 0.339355H0.0917969V604.339H1366.09V0.339355Z" fill="white"/>
</mask>
<g mask="url(#mask1_1298_9462)">
<path opacity="0.14" d="M1622.69 312.795V291.882C1430.32 358.25 1204.65 434.782 980.108 425.46C924.525 423.151 864.646 415.588 818.616 393.915C771.398 371.685 732.899 342.115 696.129 312.763C696.413 312.607 696.681 312.444 696.949 312.28C736.066 340.3 776.904 368.38 825.828 388.957C873.598 409.045 933.979 414.657 989.794 415.108C1213.97 416.908 1432.39 332.899 1618.4 260.046C1616.3 252.532 1615.27 248.785 1613.26 241.314C1431.71 317.789 1218.48 405.864 995.299 408.574C939.426 409.252 878.899 404.822 830.144 385.739C780.23 366.202 738.001 339.131 697.462 311.979C697.724 311.807 697.962 311.623 698.203 311.444C740.955 337.156 785.294 362.487 836.668 380.377C886.822 397.843 947.341 400.443 1003.18 398.027C1223.62 388.489 1427.73 294.898 1601.5 213.372C1597.68 206.9 1595.82 203.68 1592.2 197.265C1423.67 281.391 1225.61 377.982 1007.61 391.352C950.408 394.86 889.797 393.107 837.622 376.008C786.59 359.284 741.871 335.394 698.671 311.108C698.91 310.922 699.126 310.727 699.349 310.535C744.449 333.247 791.042 355.511 843.355 370.395C896.902 385.63 956.649 385.863 1013.76 380.679C1226.97 361.321 1414.69 261.294 1574.63 173.703C1569.53 168.352 1567.05 165.688 1562.23 160.37C1408.04 249.443 1226.52 351.447 1017.04 374.024C961.457 380.016 902.921 380.986 849.727 367.567C795.504 353.888 746.847 332.275 699.753 310.167C699.966 309.967 700.166 309.767 700.361 309.562C803.225 352.541 898.415 380.128 1021.59 363.202C1224.76 335.283 1394.87 232.293 1540.53 141.162C1534.56 136.876 1532.03 134.102 1526.9 128.936C1386.59 221.576 1223.66 325.443 1023.92 356.443C970.211 364.778 914.531 368.033 860.908 358.284C803.858 347.913 751.497 328.844 700.716 309.173C700.902 308.963 701.082 308.753 701.25 308.538C808.033 345.078 907.401 367.445 1026.87 345.61C1222.51 309.854 1370.16 203.303 1504.95 109.345C1499.15 104.699 1496.38 102.292 1491.08 97.3014C1360.2 191.781 1220.15 299.953 1028.3 338.72C910.479 362.535 809.45 342.075 701.545 308.135C701.702 307.915 701.864 307.698 702 307.473C811.433 337.244 914.746 354.317 1029.84 327.737C1213.49 285.327 1346.03 172.077 1468.79 78.0634C1462.99 73.4184 1460.21 70.9914 1454.85 65.9274C1337.32 159.548 1208.63 276.129 1030.38 320.775C917.019 349.168 812.52 334.216 702.235 307.042C702.363 306.814 702.501 306.589 702.608 306.357C814.108 329.403 920.119 340.914 1030.62 309.452C1096.64 290.652 1149.94 260.319 1200.54 226.977C1285.24 171.163 1359.28 108.495 1432.45 46.0854C1426.62 41.2244 1423.81 38.6744 1418.32 33.3374C1348.31 95.9374 1277.64 158.846 1196.47 215.385C1147.77 249.308 1095.04 282.48 1030.34 302.327C921.744 335.645 814.844 326.37 702.779 305.917C702.879 305.683 702.979 305.45 703.054 305.217C814.554 321.362 925.315 327.925 1029.31 290.797C1089.71 269.234 1139.96 234.211 1184.68 200.388C1262.36 141.628 1329.03 76.6833 1395.27 12.2114C1389.24 6.98535 1386.29 4.24438 1380.44 -1.48862C1317.37 63.7064 1253.97 129.391 1179.52 189.231C1136.2 224.042 1087.43 259.888 1028.36 283.261C927.532 323.155 814.312 318.294 703.178 304.775C703.244 304.536 703.304 304.297 703.349 304.056C815.099 313.57 929.577 314.725 1026.32 270.756C1175.84 202.799 1268.17 76.7173 1355.65 -24.2896C1349.11 -29.9417 1345.86 -32.9006 1339.32 -39.0766C1256.96 63.9444 1170.76 191.883 1024.55 263.136C930.012 309.208 815.645 310.636 703.423 303.608C703.458 303.366 703.478 303.125 703.492 302.882C816.75 305.919 929.044 299.982 1020.91 251.275C1074.83 222.682 1116.13 182.545 1152.08 144.024C1213.74 77.9614 1262.86 6.99237 1311.42 -63.5666C1304.02 -69.6126 1300.28 -72.7666 1292.7 -79.3226C1248.93 -8.29562 1204.35 63.0114 1147.35 129.926C1112.65 170.668 1072.76 213.311 1017.96 243.589C926.863 293.928 818.416 302.942 703.517 302.428C703.517 302.185 703.499 301.944 703.481 301.701C820.268 298.06 923.644 284.673 1012.11 230.987C1065.45 198.621 1101.41 156.453 1133.02 113.759C1185.05 43.4944 1223.36 -30.9406 1260.33 -105.128C1251.74 -111.44 1247.39 -114.716 1238.46 -121.504C1189.5 -5.97064 1140.79 135.33 1007.87 223.102C922.589 279.415 820.349 294.989 703.458 301.246C703.427 301.004 703.365 300.764 703.316 300.524C820.034 290.062 920.335 270.938 1000.13 210.611C1127.84 114.059 1163.59 -26.0336 1200.61 -147.889C1190.63 -154.252 1185.55 -157.539 1175.12 -164.319C1146.38 -38.9146 1118.36 100.735 994.738 202.835C918.623 265.696 819.799 286.955 703.232 300.06C703.17 299.821 703.084 299.585 703.004 299.348C819.256 281.966 915.382 257.485 985.204 190.564C1100.53 80.0444 1116.92 -60.2646 1131.38 -190.229C1119.98 -196.355 1114.16 -199.505 1102.26 -205.975C1097.16 -74.7366 1087.92 68.5444 978.779 183.135C949.064 214.335 914.455 241.463 865.497 259.571C814.833 278.311 758.687 289.238 702.848 298.907C702.755 298.673 702.648 298.442 702.535 298.207C758.535 286.29 814.908 273.191 864.657 251.966C910.609 232.366 942.029 203.049 967.657 171.431C1065.22 51.0554 1062.8 -97.8226 1052.99 -230.124C1040.33 -235.677 1034.03 -238.265 1020.52 -244.701C1038.19 -111.427 1051.05 40.0804 960.277 164.379C936.731 196.619 906.912 227.354 862.011 247.954C813.361 270.273 757.68 284.62 702.318 297.776C702.196 297.549 702.067 297.322 701.925 297.097C755.112 282.274 808.498 266.312 854.675 243.02C899.175 220.575 927.017 187.497 947.842 153.559C1028.03 22.8904 997.16 -132.704 965.866 -267.486C952.129 -272.415 945.194 -274.873 931.173 -279.767C971.026 -144.124 1012.51 12.4664 939.64 147.017C920.485 182.388 893.802 216.803 849.052 240.586C804.63 264.193 753.084 280.977 701.642 296.686C701.489 296.466 701.342 296.246 701.168 296.03C751.268 278.516 801.376 259.92 843.82 234.765C886.609 209.405 910.268 173.159 926.033 137.116C987.091 -2.48364 928.499 -160.275 875.258 -296.128C861.401 -299.403 854.426 -301.028 840.379 -304.247C901.879 -168.699 970.553 -10.9876 917.274 131.314C903.98 166.824 882.658 203.863 842.594 229.724C801.009 256.565 750.945 276.661 700.825 295.636C700.643 295.426 700.475 295.212 700.275 295.007C748.702 274.307 797.375 252.499 836.498 224.141C874.362 196.696 892.61 158.572 902.782 122.5C943.835 -23.0816 859.394 -179.717 785.168 -313.86C771.69 -315.451 764.929 -316.235 751.36 -317.784C833.209 -185.005 926.938 -29.6996 893.5 117.37C885.233 153.727 868.9 192.412 832.445 220.778C794.865 250.018 747.198 272.887 699.877 294.635C699.669 294.435 699.46 294.235 699.234 294.045C744.7 270.657 790.55 246.128 825.634 215.575C859.779 185.835 873.06 146.443 878.348 109.735C899.748 -38.8156 792.226 -191.001 698.857 -320.849H667.326C767.179 -193.533 883.453 -43.3646 868.724 105.343C865.254 140.37 855.233 179.606 824.885 209.043C791.023 241.889 744.61 268.455 698.81 293.692C698.575 293.504 698.329 293.325 698.081 293.147C741.809 266.294 785.858 238.118 817.125 204.132C845.194 173.623 852.311 134.108 853.115 98.9184C856.51 -49.5736 728.931 -194.9 619.325 -318.005C607.994 -316.605 602.346 -315.927 591.082 -314.592C706.133 -194.445 839.867 -52.5756 843.262 95.2684C844.072 130.499 838.721 170.087 812.092 201.195C782.435 235.839 740.007 264.971 697.625 292.808C697.366 292.634 697.088 292.478 696.816 292.315C736.976 262.944 776.587 232.373 803.716 196.756C828.047 164.806 830.666 125.256 827.366 90.0414C813.679 -56.0126 671.601 -191.79 548.952 -306.793C539.193 -304.261 534.339 -303.028 524.666 -300.623C651.584 -188.775 797.131 -57.5316 817.297 87.1024C822.36 123.422 820.446 162.511 796.935 195.978C772.012 231.455 734.216 262.348 696.312 292.009C696.033 291.851 695.74 291.709 695.45 291.56C730.99 260.51 765.779 228.378 788.158 192.084C809.218 157.93 808.666 119.174 801.206 83.0284C772.012 -58.4286 621.286 -182.826 489.144 -288.972C481.076 -285.588 477.059 -283.946 469.044 -280.749C603.751 -178.173 756.528 -58.2586 791.173 80.8454C800.343 117.668 801.644 156.579 781.436 191.818C760.813 227.781 728.224 260.054 694.901 291.287C694.601 291.147 694.301 291.014 693.987 290.887C758.787 222.669 800.373 159.498 774.863 77.8324C732.75 -56.9836 577.606 -169.665 440.088 -266.36C433.626 -262.397 429.444 -260.721 421.654 -257.321C561.441 -164.183 717.912 -56.2456 764.673 76.2864C777.224 111.862 782.129 148.877 767.449 184.402C751.815 222.233 723.049 256.977 693.401 290.649C693.086 290.526 692.769 290.406 692.443 290.295C747.3 219.541 781.566 153.481 748.343 74.3244C693.848 -55.4846 534.092 -153.165 392.116 -242.758C385.116 -238.911 381.481 -237.077 373.957 -233.558C516.323 -146.809 679.531 -53.7977 737.95 73.3813C773.879 151.606 742.879 218.435 691.825 290.099C691.494 289.999 691.166 289.888 690.825 289.799C735.493 217.274 761.779 148.646 721.379 72.3574C656.828 -49.5426 487.085 -137.128 344.941 -218.78C337.941 -214.928 334.277 -213.085 326.641 -209.532C468.214 -131.351 642.97 -46.3256 710.889 72.0004C754.014 147.135 730.94 216.553 690.179 289.642C689.837 289.557 689.498 289.466 689.148 289.394C723.753 215.354 741.3 145.207 693.814 71.8404C665.467 28.0404 619.749 -7.28763 569.464 -40.8596C485.311 -97.0426 390.839 -146.14 296.732 -194.672C289.403 -190.808 285.558 -188.942 277.511 -185.303C371.902 -138.865 466.739 -91.9966 551.99 -38.1646C603.132 -5.86465 653.153 29.1164 683.079 72.0234C733.366 144.132 719.185 214.871 688.49 289.279C688.138 289.215 687.79 289.149 687.428 289.098C711.528 215.348 722.123 141.447 665.689 72.7074C630.752 30.1524 574.238 -4.72565 519.489 -35.9706C433.451 -85.0756 339.328 -127.677 245.653 -170.014C237.774 -166.014 233.641 -164.056 224.99 -160.176C319.696 -119.873 414.884 -79.3646 502.441 -32.3336C558.779 -2.06461 616.413 31.7464 654.315 73.3414C714.963 139.904 706.886 215.569 686.751 289.016C686.392 288.973 686.032 288.933 685.669 288.902C699.806 214.954 702.094 138.651 635.455 74.6904C532.138 -24.4756 343.495 -85.4916 190.609 -143.738C182.087 -139.399 177.628 -137.238 168.314 -132.905C324.244 -78.0646 515.686 -21.0856 623.968 75.8654C693.761 138.356 695.379 214.595 684.988 288.853C684.624 288.83 684.258 288.817 683.893 288.807C688.279 213.992 679.983 138.829 606.084 78.2823C559.798 40.3593 495.479 11.8274 433.223 -13.1966C336.742 -51.9796 233.879 -83.3716 131.388 -114.401C122.272 -109.49 117.52 -107.018 107.632 -101.986C214.732 -72.9546 322.232 -43.3916 423.122 -5.58563C484.53 17.4274 548.848 43.8994 594.495 80.2354C670.474 140.714 683.811 212.535 683.209 288.79C682.843 288.79 682.477 288.803 682.109 288.815C676.441 211.304 656.523 142.855 575.492 84.1154C526.697 48.7354 463.113 24.8854 398.747 3.91937C292.802 -30.5906 180.591 -55.9906 68.725 -80.5166C59.209 -74.8236 54.269 -71.9316 44.035 -66.0166C218.328 -33.5206 431.229 -1.25861 563.607 86.9284C648.607 143.551 671.807 211.253 681.425 288.828C681.063 288.849 680.7 288.89 680.338 288.921C664.41 211.607 635.961 144.872 544.779 92.0624C398.689 7.45837 188.414 -16.2976 4.26105 -40.9066C-5.33195 -34.2916 -10.288 -30.9186 -20.511 -24.0066C169.008 -4.89261 378.625 13.7744 533.07 95.6354C628.07 145.993 659.755 211.77 679.658 288.977C679.297 289.018 678.942 289.077 678.583 289.128C652.202 212.006 615.562 148.315 514.569 101.959C348.006 25.5084 136.279 14.5974 -59.5659 5.01038C-68.8019 12.5724 -73.552 16.4294 -83.307 24.3244C114.949 27.7144 330.154 34.0444 503.365 106.224C547.965 124.81 588.612 146.878 615.255 177.362C645.532 212.005 662.679 250.735 677.917 289.235C677.564 289.297 677.217 289.368 676.866 289.443C658.902 252.313 639.143 214.906 607.147 181.914C577.634 151.483 533.317 130.57 485.722 113.602C304.161 48.8683 79.9001 50.4964 -119.713 57.0024C-128.086 65.4024 -131.987 69.5774 -141.691 78.5394C59.402 66.8074 287.609 58.2634 475.089 118.495C523.629 134.089 570.082 153.93 601.098 183.67C634.743 215.931 656.385 252.876 676.215 289.586C675.871 289.667 675.53 289.753 675.191 289.847C652.845 254.572 628.779 219.161 593.659 188.535C559.853 159.051 509.965 140.463 458.776 126.741C261.256 73.7984 27.7501 93.9734 -176.044 114.788C-183.475 123.899 -187.181 128.499 -194.56 137.798C10.069 111.351 245.991 83.8394 448.913 132.182C499.679 144.275 550.991 161.076 585.872 188.962C623.619 219.14 649.99 254.622 674.572 290.034C674.241 290.134 673.909 290.234 673.583 290.348C646.252 255.959 617.16 221.148 576.832 192.582C539.379 166.057 485.903 151.196 433.979 141.206C223.446 100.697 -14.28 139.549 -219.235 174.883C-224.173 184.073 -226.622 188.7 -231.474 198.017C-27.532 157.311 211.101 111.296 425.231 147.017C475.99 155.484 531.517 168.651 569.189 193.527C611.821 221.681 643.346 256.142 672.983 290.578C672.666 290.698 672.344 290.81 672.034 290.943C639.727 257.69 605.517 224.13 560.534 197.734C520.563 174.279 463.546 163.134 411.942 156.634C192.842 129.001 -44.144 185.514 -245.969 234.642C-248.369 243.581 -249.55 248.065 -251.883 257.065C-52.1129 202.887 182.846 140.189 404.209 162.783C456.243 168.095 514.023 177.975 555.325 200.522C601.669 225.822 637.538 258.722 671.477 291.203C671.177 291.341 670.877 291.48 670.588 291.629C634.098 260.424 595.622 228.763 547.264 205.216C504 184.151 445.264 176.272 392.698 172.833C169.069 158.205 -61.147 230.087 -256.502 291.881V312.795C-64.547 246.57 161.859 169.449 386.079 179.218C438.89 181.518 498.047 188.164 542.43 208.295C591.952 230.754 632.007 261.538 670.058 291.914C669.774 292.07 669.504 292.233 669.237 292.397C628.751 263.397 586.268 234.179 535.027 213.441C489.027 194.825 429.45 190.104 376.393 189.57C152.505 187.319 -66.609 271.935 -252.221 344.635C-250.121 352.149 -249.088 355.896 -247.076 363.367C-65.921 287.056 147.979 198.358 370.886 196.105C424.007 195.569 483.692 199.118 530.595 216.78C582.829 236.45 626.752 264.59 668.723 292.7C668.461 292.872 668.223 293.056 667.98 293.235C623.694 266.6 577.604 240.328 523.903 222.335C475.729 206.196 416.103 204.46 363.008 206.649C142.797 215.735 -61.921 309.96 -235.312 391.307C-231.494 397.778 -229.635 400.999 -226.012 407.414C-57.373 323.235 140.506 226.702 358.574 213.327C413.334 209.969 472.274 211.238 522.729 226.832C576.218 243.362 622.797 268.432 667.518 293.569C667.279 293.755 667.061 293.95 666.84 294.142C620.024 270.57 571.579 247.496 516.857 232.654C465.362 218.686 406.929 219.054 352.431 224C139.152 243.363 -48.405 343.335 -208.444 430.975C-203.344 436.325 -200.865 438.99 -196.044 444.307C-41.3889 354.963 139.409 253.635 349.139 230.654C404.659 224.572 463.326 223.709 516.456 237.111C570.679 250.79 619.338 272.405 666.428 294.511C666.217 294.711 666.014 294.913 665.82 295.116C562.967 252.14 467.72 224.556 344.593 241.476C141.331 269.403 -28.56 372.303 -174.35 463.511C-168.374 467.797 -165.85 470.571 -160.721 475.737C-20.296 383.024 142.445 279.244 342.266 248.235C395.904 239.911 451.712 236.658 505.275 246.394C562.314 256.763 614.697 275.839 665.467 295.505C665.281 295.715 665.099 295.925 664.933 296.14C558.256 259.757 458.654 237.03 339.308 259.068C143.591 295.209 -3.67795 401.168 -138.765 495.334C-132.965 499.979 -130.199 502.388 -124.897 507.378C5.90305 412.953 146.136 304.705 337.886 265.959C455.826 242.128 556.595 262.688 664.639 296.552C664.482 296.772 664.32 296.989 664.182 297.214C554.838 267.589 451.366 250.155 336.344 276.95C152.551 319.764 20.497 432.35 -102.612 526.623C-96.804 531.269 -94.026 533.696 -88.668 538.76C29.207 444.86 157.401 328.955 335.805 283.908C449.086 255.308 553.751 270.608 663.949 297.641C663.821 297.869 663.683 298.094 663.574 298.326C551.943 275.368 446.179 263.729 335.563 295.225C269.531 314.025 216.263 344.348 165.644 377.7C80.933 433.517 6.90906 496.176 -66.265 558.592C-60.4389 563.454 -57.626 566.003 -52.139 571.34C17.873 508.735 88.541 445.835 169.709 389.292C218.401 355.373 271.146 322.192 335.838 302.35C444.559 268.997 551.214 278.403 663.401 298.76C663.301 298.994 663.201 299.227 663.126 299.465C551.932 283.483 440.51 276.454 336.869 313.884C272.707 337.056 220.122 374.539 173.013 410.849C98.9791 467.913 34.746 530.34 -29.088 592.47C-23.056 597.696 -20.105 600.437 -14.255 606.17C46.512 543.361 107.579 480.227 178.497 422.156C224.129 384.787 275.111 346.563 337.825 321.426C438.184 281.201 552.265 286.558 663.004 299.913C662.938 300.151 662.878 300.39 662.831 300.631C551.34 291.254 436.295 289.737 339.859 333.931C190.345 402.458 98.349 527.577 10.53 628.978C17.072 634.63 20.323 637.589 26.866 643.765C109.545 540.344 195.456 413.365 341.632 341.552C435.851 295.263 550.798 294.186 662.757 301.08C662.724 301.322 662.704 301.564 662.69 301.806C549.89 298.896 436.564 304.4 345.275 353.413C288.098 384.113 245.075 426.775 207.351 468.063C148.877 532.054 101.551 600.279 54.7631 668.255C62.1631 674.301 65.8951 677.455 73.481 684.011C117.251 612.979 161.825 541.68 218.829 474.762C253.524 434.032 293.436 391.374 348.218 361.099C439.403 310.706 547.69 301.86 662.662 302.26C662.662 302.503 662.682 302.744 662.7 302.987C545.834 306.746 442.632 319.957 354.068 373.701C300.732 406.066 264.768 448.237 233.157 490.929C181.127 561.196 142.828 635.621 105.849 709.816C114.433 716.128 118.793 719.404 127.718 726.192C176.706 610.592 225.349 469.385 358.312 381.586C443.683 325.212 545.758 309.819 662.722 303.442C662.751 303.684 662.813 303.924 662.862 304.164C546.291 314.727 445.675 333.597 366.052 394.075C238.492 490.968 202.679 630.435 165.571 752.574C175.545 758.937 180.63 762.223 191.055 769.004C219.87 643.304 248.015 504.277 371.445 401.841C447.371 338.829 546.545 317.817 662.951 304.616C663.011 304.855 663.097 305.091 663.179 305.328C546.894 322.828 450.866 347.128 380.979 414.112C265.71 524.585 249.26 665.012 234.806 794.912C246.206 801.038 252.023 804.188 263.925 810.658C269.036 679.165 278.579 536.43 387.406 421.548C415.429 391.965 448.706 365.006 494.661 347.337C546.897 327.254 605.296 315.882 663.336 305.776C663.429 306.01 663.536 306.242 663.649 306.476C607.665 318.39 551.267 331.496 501.525 352.717C455.642 372.291 424.113 401.684 398.525 433.252C300.923 553.663 303.379 702.406 313.19 834.799C325.854 840.352 332.15 842.94 345.663 849.376C327.974 716 315.092 564.646 405.905 440.297C429.417 408.103 459.332 377.297 504.171 356.722C552.812 334.407 608.515 320.053 663.864 306.9C663.986 307.127 664.115 307.354 664.257 307.579C611.073 322.4 557.679 338.364 511.506 361.655C467.055 384.077 439.026 417.165 418.339 451.116C338.515 582.121 368.933 736.994 400.317 872.161C414.054 877.09 420.989 879.548 435.01 884.442C395.136 748.722 353.655 592.242 426.543 457.658C444.776 423.987 470.108 389.958 512.151 366.82C557.651 341.783 611.151 324.294 664.54 307.993C664.693 308.213 664.84 308.433 665.014 308.649C613.164 326.776 560.679 346.072 517.614 372.819C477.619 397.655 455.214 433.125 440.153 467.562C379.076 607.198 437.653 764.87 490.928 900.806C504.785 904.081 511.76 905.706 525.807 908.925C464.435 773.659 395.057 615.386 448.907 473.362C461.673 439.697 481.525 402.869 519.032 377.883C561.48 349.607 613.439 328.698 665.358 309.042C665.538 309.252 665.706 309.466 665.906 309.671C615.772 331.099 565.17 353.788 525.374 383.625C490.011 410.136 473.213 447.952 463.401 482.177C421.738 627.498 506.944 784.677 581.015 918.539C594.493 920.129 601.254 920.914 614.823 922.461C533.145 789.964 438.614 634.127 472.679 487.307C480.687 452.796 495.584 414.473 529.579 387.08C567.727 356.342 617.322 332.552 666.301 310.042C666.509 310.242 666.718 310.442 666.944 310.631C619.893 334.831 572.16 360.352 536.657 392.426C504.897 421.121 493.018 460.075 487.832 494.942C465.779 643.264 574.158 795.955 667.326 925.527H698.857C598.793 797.935 483.399 648.263 497.458 499.335C500.939 462.47 512.342 422.755 545.018 392.225C578.534 360.909 623.118 335.373 667.373 310.986C667.608 311.174 667.854 311.353 668.102 311.531C625.856 337.474 583.516 364.56 552.495 397.009C522.208 428.692 513.743 468.74 513.067 505.759C510.357 654.444 637.016 799.311 746.859 922.683C758.188 921.283 763.838 920.605 775.102 919.27C659.802 798.86 527.002 657.432 522.92 509.409C521.898 472.351 528.577 432.209 557.349 399.87C586.805 366.765 627.622 338.756 668.56 311.87C668.819 312.044 669.097 312.2 669.367 312.363C630.6 340.717 592.408 370.125 565.434 404.199C539.099 437.464 535.18 477.599 538.822 514.636C553.203 660.849 694.313 796.218 817.231 911.472C826.988 908.94 831.844 907.707 841.517 905.302C714.679 793.523 569.045 662.165 548.887 517.575C543.598 479.633 546.241 439.433 572.022 404.828C597.237 370.981 633.257 341.321 669.871 312.668C670.151 312.826 670.445 312.968 670.734 313.117C636.491 343.035 602.922 373.935 580.479 408.63C557.508 444.145 557.157 483.772 564.974 521.65C594.161 663.066 744.974 787.568 877.038 893.65C885.105 890.266 889.123 888.624 897.138 885.427C762.844 783.164 609.051 662.766 575.01 523.835C565.976 486.967 564.51 448.143 584.745 412.862C605.37 376.899 637.955 344.628 671.282 313.393C671.582 313.533 671.882 313.666 672.195 313.793C607.395 382.017 565.795 445.152 591.32 526.848C633.415 661.6 788.694 774.424 926.096 871.035C932.558 867.072 936.738 865.396 944.53 861.996C804.853 768.935 648.251 660.868 601.511 528.392C588.944 492.772 584.037 455.842 598.735 420.276C614.371 382.439 643.123 347.709 672.781 314.029C673.098 314.152 673.415 314.272 673.739 314.383C618.645 385.207 584.924 451.113 617.844 530.353C671.754 660.109 832.405 758.035 974.068 847.435C981.068 843.586 984.703 841.753 992.227 838.235C849.779 751.435 686.679 658.543 628.233 531.297C592.333 453.15 623.181 386.146 674.358 314.578C674.689 314.678 675.017 314.789 675.358 314.878C630.471 387.459 604.73 455.978 644.805 532.318C708.747 654.125 879.495 742.035 1021.24 823.458C1028.24 819.606 1031.91 817.764 1039.54 814.211C898.379 736.256 722.609 650.904 655.295 532.678C612.486 457.492 635.029 388.183 675.999 315.035C676.343 315.12 676.682 315.211 677.032 315.283C642.285 389.236 624.932 459.547 672.366 532.837C700.708 576.623 746.443 611.974 796.716 645.537C880.867 701.717 975.352 750.823 1069.45 799.35C1076.78 795.486 1080.62 793.622 1088.67 789.982C994.287 743.55 899.439 696.671 814.193 642.842C763.046 610.542 713.032 575.565 683.108 532.655C632.874 460.623 646.858 389.723 677.695 315.399C678.048 315.463 678.395 315.529 678.757 315.58C654.415 389.535 644.52 462.995 700.498 531.971C733.009 572.035 785.813 605.36 836.81 635.017C925.403 686.539 1023.32 730.758 1120.53 774.692C1128.41 770.692 1132.54 768.734 1141.19 764.855C1042.89 723.022 943.86 680.977 853.637 631.593C801.152 602.866 747.107 570.513 711.868 531.336C651.718 464.464 659.048 389.371 679.43 315.661C679.791 315.705 680.151 315.744 680.514 315.775C666.167 389.894 664.428 465.821 730.726 529.987C833.188 629.154 1023.28 690.397 1175.58 748.416C1184.1 744.078 1188.56 741.916 1197.87 737.583C1042.55 682.957 849.65 625.783 742.22 528.813C672.756 466.113 670.605 390.258 681.2 315.827C681.564 315.849 681.929 315.862 682.295 315.872C677.716 390.991 686.664 465.472 760.104 526.397C803.215 562.162 863.729 589.555 921.804 613.397C1021.41 654.29 1128.41 686.871 1234.8 719.078C1243.91 714.168 1248.66 711.695 1258.55 706.663C1151.46 677.634 1043.95 648.063 943.062 610.263C881.632 587.243 817.343 560.788 771.689 524.444C695.789 464.025 682.201 392.094 682.975 315.889C683.341 315.889 683.705 315.876 684.075 315.864C689.565 393.323 709.749 461.887 790.692 520.564C839.492 555.938 903.068 579.79 967.44 600.757C1073.38 635.266 1185.6 660.672 1297.46 685.195C1306.97 679.502 1311.91 676.61 1322.15 670.695C1147.95 638.221 934.913 605.914 802.576 517.754C717.671 461.193 694.19 393.382 684.756 315.854C685.12 315.835 685.483 315.794 685.845 315.761C701.62 393.173 730.453 459.698 821.407 512.62C966.983 597.32 1178.21 621.038 1361.92 645.589C1371.52 638.974 1376.47 635.601 1386.69 628.689C1197.61 609.614 987.052 591.035 833.113 509.035C738.336 458.555 706.279 393.01 686.525 315.697C686.886 315.656 687.241 315.597 687.598 315.546C713.803 392.646 750.716 456.406 851.615 502.718C1018.25 579.204 1229.8 590.076 1425.75 599.667C1434.99 592.105 1439.73 588.248 1449.49 580.354C1251.62 576.97 1035.59 570.84 862.819 498.454C815.779 478.747 774.879 455.792 747.579 423.321C719.325 389.721 702.849 352.479 688.271 315.444C688.624 315.382 688.971 315.311 689.322 315.236C707.289 352.376 727.04 389.767 759.041 422.765C788.598 453.243 832.792 474.081 880.466 491.079C1061.96 555.788 1286.43 554.179 1485.9 547.679C1494.27 539.279 1498.18 535.104 1507.88 526.142C1306.94 537.864 1078.51 546.394 891.099 486.186C842.488 470.569 796.149 450.792 765.09 421.011C731.439 388.744 709.807 351.811 689.971 315.095C690.315 315.014 690.656 314.928 690.995 314.834C713.346 350.111 737.412 385.519 772.531 416.147C806.371 445.658 856.245 464.126 907.413 477.94C1104.43 531.125 1339.02 510.649 1542.23 489.893C1549.66 480.782 1553.37 476.182 1560.75 466.883C1356.24 493.314 1120.14 520.829 917.276 472.5C863.946 459.794 812.058 442.1 776.199 412.416C740.607 382.953 715.299 348.765 691.62 314.647C691.951 314.547 692.285 314.447 692.611 314.333C719.017 347.559 747.054 380.796 784.982 408.947C823.217 437.327 877.866 453.018 932.209 463.475C1142.68 503.975 1380.59 465.111 1585.42 429.798C1590.36 420.608 1592.81 415.981 1597.66 406.665C1393.29 447.456 1155.51 493.004 940.955 457.665C887.415 448.847 831.571 434.705 792.582 408.132C752.112 380.552 721.814 347.345 693.205 314.104C693.522 313.984 693.844 313.872 694.154 313.74C725.354 345.858 758.245 378.14 801.001 404.089C842.38 429.203 899.861 441.306 954.246 448.052C1173.75 475.28 1409.91 419.275 1612.16 370.044C1614.56 361.105 1615.74 356.621 1618.07 347.621C1417.88 401.907 1183.72 464.073 961.98 441.896C907.165 436.413 848.839 425.583 806.068 401.401C761.985 376.476 727.503 344.861 694.712 313.475C695.012 313.337 695.312 313.198 695.603 313.049C730.866 343.204 767.848 373.615 813.915 396.882C858.756 419.53 918.146 428.337 973.493 431.845C1197.46 446.035 1426.91 374.722 1622.69 312.795Z" fill="url(#paint1_radial_1298_9462)"/>
<path d="M683.091 831.16C1123.44 831.16 1480.41 594.399 1480.41 302.339C1480.41 10.2795 1123.44 -226.482 683.091 -226.482C242.745 -226.482 -114.227 10.2795 -114.227 302.339C-114.227 594.399 242.745 831.16 683.091 831.16Z" stroke="#F3F3F3" stroke-linecap="round" stroke-linejoin="round"/>
<path d="M683.092 822.679C1116.38 822.679 1467.62 589.715 1467.62 302.339C1467.62 14.9634 1116.38 -218.001 683.092 -218.001C249.807 -218.001 -101.439 14.9634 -101.439 302.339C-101.439 589.715 249.807 822.679 683.092 822.679Z" stroke="#F3F3F3" stroke-width="1.066" stroke-linecap="round" stroke-linejoin="round"/>
<path d="M683.092 814.2C1109.31 814.2 1454.84 585.033 1454.84 302.34C1454.84 19.6477 1109.31 -209.52 683.092 -209.52C256.869 -209.52 -88.6523 19.6477 -88.6523 302.34C-88.6523 585.033 256.869 814.2 683.092 814.2Z" stroke="#F3F3F3" stroke-width="1.131" stroke-linecap="round" stroke-linejoin="round"/>
<path d="M683.092 805.719C1102.25 805.719 1442.05 580.349 1442.05 302.34C1442.05 24.3319 1102.25 -201.039 683.092 -201.039C263.931 -201.039 -75.8652 24.3319 -75.8652 302.34C-75.8652 580.349 263.931 805.719 683.092 805.719Z" stroke="#F3F3F3" stroke-width="1.197" stroke-linecap="round" stroke-linejoin="round"/>
<path d="M683.09 797.238C1095.19 797.238 1429.26 575.665 1429.26 302.34C1429.26 29.0158 1095.19 -192.558 683.09 -192.558C270.992 -192.558 -63.0801 29.0158 -63.0801 302.34C-63.0801 575.665 270.992 797.238 683.09 797.238Z" stroke="#F3F3F3" stroke-width="1.262" stroke-linecap="round" stroke-linejoin="round"/>
<path d="M683.091 788.756C1088.13 788.756 1416.47 570.98 1416.47 302.339C1416.47 33.6987 1088.13 -184.078 683.091 -184.078C278.054 -184.078 -50.293 33.6987 -50.293 302.339C-50.293 570.98 278.054 788.756 683.091 788.756Z" stroke="#F3F3F3" stroke-width="1.328" stroke-linecap="round" stroke-linejoin="round"/>
<path d="M683.091 780.275C1081.07 780.275 1403.69 566.296 1403.69 302.339C1403.69 38.3826 1081.07 -175.597 683.091 -175.597C285.116 -175.597 -37.5059 38.3826 -37.5059 302.339C-37.5059 566.296 285.116 780.275 683.091 780.275Z" stroke="#F3F3F3" stroke-width="1.393" stroke-linecap="round" stroke-linejoin="round"/>
<path d="M683.091 771.794C1074 771.794 1390.9 561.612 1390.9 302.339C1390.9 43.0664 1074 -167.116 683.091 -167.116C292.179 -167.116 -24.7188 43.0664 -24.7188 302.339C-24.7188 561.612 292.179 771.794 683.091 771.794Z" stroke="#F3F3F3" stroke-width="1.459" stroke-linecap="round" stroke-linejoin="round"/>
<path d="M683.091 763.313C1066.94 763.313 1378.11 556.928 1378.11 302.339C1378.11 47.7503 1066.94 -158.635 683.091 -158.635C299.241 -158.635 -11.9316 47.7503 -11.9316 302.339C-11.9316 556.928 299.241 763.313 683.091 763.313Z" stroke="#F3F3F3" stroke-width="1.525" stroke-linecap="round" stroke-linejoin="round"/>
<path d="M683.09 754.832C1059.88 754.832 1365.33 552.244 1365.33 302.339C1365.33 52.4342 1059.88 -150.154 683.09 -150.154C306.301 -150.154 0.853516 52.4342 0.853516 302.339C0.853516 552.244 306.301 754.832 683.09 754.832Z" stroke="#F3F3F3" stroke-width="1.59" stroke-linecap="round" stroke-linejoin="round"/>
<path d="M683.091 746.353C1052.82 746.353 1352.54 547.562 1352.54 302.34C1352.54 57.1188 1052.82 -141.673 683.091 -141.673C313.364 -141.673 13.6406 57.1188 13.6406 302.34C13.6406 547.562 313.364 746.353 683.091 746.353Z" stroke="#F3F3F3" stroke-width="1.656" stroke-linecap="round" stroke-linejoin="round"/>
<path d="M683.091 737.871C1045.76 737.871 1339.75 542.877 1339.75 302.339C1339.75 61.8017 1045.76 -133.193 683.091 -133.193C320.426 -133.193 26.4277 61.8017 26.4277 302.339C26.4277 542.877 320.426 737.871 683.091 737.871Z" stroke="#F3F3F3" stroke-width="1.721" stroke-linecap="round" stroke-linejoin="round"/>
<path d="M683.091 729.39C1038.69 729.39 1326.97 538.193 1326.97 302.339C1326.97 66.4856 1038.69 -124.712 683.091 -124.712C327.488 -124.712 39.2148 66.4856 39.2148 302.339C39.2148 538.193 327.488 729.39 683.091 729.39Z" stroke="#F3F3F3" stroke-width="1.787" stroke-linecap="round" stroke-linejoin="round"/>
<path d="M683.091 720.909C1031.63 720.909 1314.18 533.509 1314.18 302.339C1314.18 71.1695 1031.63 -116.231 683.091 -116.231C334.55 -116.231 52.002 71.1695 52.002 302.339C52.002 533.509 334.55 720.909 683.091 720.909Z" stroke="#F3F3F3" stroke-width="1.852" stroke-linecap="round" stroke-linejoin="round"/>
<path d="M683.091 712.428C1024.57 712.428 1301.39 528.825 1301.39 302.339C1301.39 75.8533 1024.57 -107.75 683.091 -107.75C341.612 -107.75 64.7891 75.8533 64.7891 302.339C64.7891 528.825 341.612 712.428 683.091 712.428Z" stroke="#F3F3F3" stroke-width="1.918" stroke-linecap="round" stroke-linejoin="round"/>
<path d="M683.092 703.947C1017.51 703.947 1288.61 524.141 1288.61 302.339C1288.61 80.5372 1017.51 -99.2688 683.092 -99.2688C348.675 -99.2688 77.5762 80.5372 77.5762 302.339C77.5762 524.141 348.675 703.947 683.092 703.947Z" stroke="#F3F3F3" stroke-width="1.984" stroke-linecap="round" stroke-linejoin="round"/>
<path d="M683.092 695.468C1010.45 695.468 1275.82 519.459 1275.82 302.34C1275.82 85.2218 1010.45 -90.7876 683.092 -90.7876C355.737 -90.7876 90.3633 85.2218 90.3633 302.34C90.3633 519.459 355.737 695.468 683.092 695.468Z" stroke="#F3F3F3" stroke-width="2.049" stroke-linecap="round" stroke-linejoin="round"/>
<path d="M683.092 686.987C1003.39 686.987 1263.03 514.775 1263.03 302.34C1263.03 89.9057 1003.39 -82.3066 683.092 -82.3066C362.799 -82.3066 103.15 89.9057 103.15 302.34C103.15 514.775 362.799 686.987 683.092 686.987Z" stroke="#F3F3F3" stroke-width="2.115" stroke-linecap="round" stroke-linejoin="round"/>
<path d="M683.091 678.506C996.322 678.506 1250.25 510.091 1250.25 302.34C1250.25 94.5896 996.322 -73.8257 683.091 -73.8257C369.86 -73.8257 115.936 94.5896 115.936 302.34C115.936 510.091 369.86 678.506 683.091 678.506Z" stroke="#F3F3F3" stroke-width="2.18" stroke-linecap="round" stroke-linejoin="round"/>
<path d="M683.091 670.024C989.26 670.024 1237.46 505.406 1237.46 302.339C1237.46 99.2725 989.26 -65.3457 683.091 -65.3457C376.922 -65.3457 128.723 99.2725 128.723 302.339C128.723 505.406 376.922 670.024 683.091 670.024Z" stroke="#F3F3F3" stroke-width="2.246" stroke-linecap="round" stroke-linejoin="round"/>
<path d="M683.091 661.543C982.198 661.543 1224.67 500.722 1224.67 302.339C1224.67 103.956 982.198 -56.8647 683.091 -56.8647C383.984 -56.8647 141.51 103.956 141.51 302.339C141.51 500.722 383.984 661.543 683.091 661.543Z" stroke="#F3F3F3" stroke-width="2.311" stroke-linecap="round" stroke-linejoin="round"/>
<path d="M683.092 653.062C975.137 653.062 1211.89 496.038 1211.89 302.339C1211.89 108.64 975.137 -48.3838 683.092 -48.3838C391.046 -48.3838 154.297 108.64 154.297 302.339C154.297 496.038 391.046 653.062 683.092 653.062Z" stroke="#F3F3F3" stroke-width="2.377" stroke-linecap="round" stroke-linejoin="round"/>
<path d="M683.092 644.581C968.075 644.581 1199.1 491.354 1199.1 302.339C1199.1 113.324 968.075 -39.9026 683.092 -39.9026C398.109 -39.9026 167.084 113.324 167.084 302.339C167.084 491.354 398.109 644.581 683.092 644.581Z" stroke="#F3F3F3" stroke-width="2.443" stroke-linecap="round" stroke-linejoin="round"/>
<path d="M683.092 636.1C961.013 636.1 1186.31 486.67 1186.31 302.339C1186.31 118.008 961.013 -31.4216 683.092 -31.4216C405.171 -31.4216 179.871 118.008 179.871 302.339C179.871 486.67 405.171 636.1 683.092 636.1Z" stroke="#F3F3F3" stroke-width="2.508" stroke-linecap="round" stroke-linejoin="round"/>
<path d="M683.092 627.621C953.951 627.621 1173.53 481.988 1173.53 302.34C1173.53 122.693 953.951 -22.9407 683.092 -22.9407C412.233 -22.9407 192.658 122.693 192.658 302.34C192.658 481.988 412.233 627.621 683.092 627.621Z" stroke="#F3F3F3" stroke-width="2.574" stroke-linecap="round" stroke-linejoin="round"/>
<path d="M683.09 619.14C946.888 619.14 1160.74 477.304 1160.74 302.34C1160.74 127.376 946.888 -14.4597 683.09 -14.4597C419.293 -14.4597 205.443 127.376 205.443 302.34C205.443 477.304 419.293 619.14 683.09 619.14Z" stroke="#F3F3F3" stroke-width="2.639" stroke-linecap="round" stroke-linejoin="round"/>
<path d="M683.091 610.658C939.827 610.658 1147.95 472.619 1147.95 302.339C1147.95 132.059 939.827 -5.97974 683.091 -5.97974C426.356 -5.97974 218.23 132.059 218.23 302.339C218.23 472.619 426.356 610.658 683.091 610.658Z" stroke="#F3F3F3" stroke-width="2.705" stroke-linecap="round" stroke-linejoin="round"/>
<path d="M683.092 602.177C932.765 602.177 1135.17 467.935 1135.17 302.339C1135.17 136.743 932.765 2.50122 683.092 2.50122C433.418 2.50122 231.018 136.743 231.018 302.339C231.018 467.935 433.418 602.177 683.092 602.177Z" stroke="#F3F3F3" stroke-width="2.77" stroke-linecap="round" stroke-linejoin="round"/>
<path d="M683.092 593.696C925.703 593.696 1122.38 463.251 1122.38 302.339C1122.38 141.427 925.703 10.9824 683.092 10.9824C440.48 10.9824 243.805 141.427 243.805 302.339C243.805 463.251 440.48 593.696 683.092 593.696Z" stroke="#F3F3F3" stroke-width="2.836" stroke-linecap="round" stroke-linejoin="round"/>
<path d="M683.092 585.215C918.641 585.215 1109.59 458.568 1109.59 302.339C1109.59 146.111 918.641 19.4634 683.092 19.4634C447.542 19.4634 256.592 146.111 256.592 302.339C256.592 458.568 447.542 585.215 683.092 585.215Z" stroke="#F3F3F3" stroke-width="2.902" stroke-linecap="round" stroke-linejoin="round"/>
<path d="M683.09 576.736C911.577 576.736 1096.8 453.885 1096.8 302.34C1096.8 150.796 911.577 27.9443 683.09 27.9443C454.603 27.9443 269.377 150.796 269.377 302.34C269.377 453.885 454.603 576.736 683.09 576.736Z" stroke="#F3F3F3" stroke-width="2.967" stroke-linecap="round" stroke-linejoin="round"/>
<path d="M683.09 568.255C904.515 568.255 1084.02 449.201 1084.02 302.34C1084.02 155.48 904.515 36.4253 683.09 36.4253C461.665 36.4253 282.164 155.48 282.164 302.34C282.164 449.201 461.665 568.255 683.09 568.255Z" stroke="#F3F3F3" stroke-width="3.033" stroke-linecap="round" stroke-linejoin="round"/>
<path d="M683.091 559.774C897.455 559.774 1071.23 444.517 1071.23 302.34C1071.23 160.163 897.455 44.9062 683.091 44.9062C468.727 44.9062 294.951 160.163 294.951 302.34C294.951 444.517 468.727 559.774 683.091 559.774Z" stroke="#F3F3F3" stroke-width="3.098" stroke-linecap="round" stroke-linejoin="round"/>
<path d="M683.091 551.292C890.393 551.292 1058.44 439.832 1058.44 302.339C1058.44 164.846 890.393 53.3862 683.091 53.3862C475.79 53.3862 307.738 164.846 307.738 302.339C307.738 439.832 475.79 551.292 683.091 551.292Z" stroke="#F3F3F3" stroke-width="3.164" stroke-linecap="round" stroke-linejoin="round"/>
<path d="M683.091 542.811C883.331 542.811 1045.66 435.148 1045.66 302.339C1045.66 169.53 883.331 61.8672 683.091 61.8672C482.852 61.8672 320.525 169.53 320.525 302.339C320.525 435.148 482.852 542.811 683.091 542.811Z" stroke="#F3F3F3" stroke-width="3.23" stroke-linecap="round" stroke-linejoin="round"/>
<path d="M683.091 534.33C876.269 534.33 1032.87 430.464 1032.87 302.339C1032.87 174.214 876.269 70.3484 683.091 70.3484C489.914 70.3484 333.312 174.214 333.312 302.339C333.312 430.464 489.914 534.33 683.091 534.33Z" stroke="#F3F3F3" stroke-width="3.295" stroke-linecap="round" stroke-linejoin="round"/>
<path d="M683.09 525.849C869.205 525.849 1020.08 425.781 1020.08 302.339C1020.08 178.898 869.205 78.8293 683.09 78.8293C496.974 78.8293 346.098 178.898 346.098 302.339C346.098 425.781 496.974 525.849 683.09 525.849Z" stroke="#F3F3F3" stroke-width="3.361" stroke-linecap="round" stroke-linejoin="round"/>
<path d="M683.092 517.339C862.032 517.339 1007.09 421.081 1007.09 302.339C1007.09 183.598 862.032 87.3394 683.092 87.3394C504.152 87.3394 359.092 183.598 359.092 302.339C359.092 421.081 504.152 517.339 683.092 517.339Z" stroke="#F3F3F3" stroke-width="3.426" stroke-linecap="round" stroke-linejoin="round"/>
<path d="M683.091 508.889C855.083 508.889 994.51 416.414 994.51 302.34C994.51 188.266 855.083 95.7913 683.091 95.7913C511.099 95.7913 371.672 188.266 371.672 302.34C371.672 416.414 511.099 508.889 683.091 508.889Z" stroke="#F3F3F3" stroke-width="3.492" stroke-linecap="round" stroke-linejoin="round"/>
<path d="M683.091 500.408C848.021 500.408 981.723 411.73 981.723 302.34C981.723 192.95 848.021 104.272 683.091 104.272C518.161 104.272 384.459 192.95 384.459 302.34C384.459 411.73 518.161 500.408 683.091 500.408Z" stroke="#F3F3F3" stroke-width="3.557" stroke-linecap="round" stroke-linejoin="round"/>
<path d="M683.091 491.926C840.959 491.926 968.936 407.045 968.936 302.339C968.936 197.633 840.959 112.752 683.091 112.752C525.223 112.752 397.246 197.633 397.246 302.339C397.246 407.045 525.223 491.926 683.091 491.926Z" stroke="#F3F3F3" stroke-width="3.623" stroke-linecap="round" stroke-linejoin="round"/>
<path d="M683.091 483.445C833.897 483.445 956.149 402.361 956.149 302.339C956.149 202.317 833.897 121.233 683.091 121.233C532.285 121.233 410.033 202.317 410.033 302.339C410.033 402.361 532.285 483.445 683.091 483.445Z" stroke="#F3F3F3" stroke-width="3.689" stroke-linecap="round" stroke-linejoin="round"/>
<path d="M683.091 474.964C826.835 474.964 943.362 397.678 943.362 302.339C943.362 207.001 826.835 129.714 683.091 129.714C539.348 129.714 422.82 207.001 422.82 302.339C422.82 397.678 539.348 474.964 683.091 474.964Z" stroke="#F3F3F3" stroke-width="3.754" stroke-linecap="round" stroke-linejoin="round"/>
<path d="M683.09 466.483C819.773 466.483 930.575 392.994 930.575 302.339C930.575 211.685 819.773 138.195 683.09 138.195C546.408 138.195 435.605 211.685 435.605 302.339C435.605 392.994 546.408 466.483 683.09 466.483Z" stroke="#F3F3F3" stroke-width="3.82" stroke-linecap="round" stroke-linejoin="round"/>
<path d="M683.091 458.002C812.711 458.002 917.789 388.31 917.789 302.339C917.789 216.369 812.711 146.676 683.091 146.676C553.47 146.676 448.393 216.369 448.393 302.339C448.393 388.31 553.47 458.002 683.091 458.002Z" stroke="#F3F3F3" stroke-width="3.885" stroke-linecap="round" stroke-linejoin="round"/>
<path d="M683.091 449.523C805.649 449.523 905.002 383.627 905.002 302.34C905.002 221.053 805.649 155.157 683.091 155.157C560.533 155.157 461.18 221.053 461.18 302.34C461.18 383.627 560.533 449.523 683.091 449.523Z" stroke="#F3F3F3" stroke-width="3.951" stroke-linecap="round" stroke-linejoin="round"/>
<path d="M683.091 441.042C798.587 441.042 892.215 378.943 892.215 302.34C892.215 225.737 798.587 163.638 683.091 163.638C567.595 163.638 473.967 225.737 473.967 302.34C473.967 378.943 567.595 441.042 683.091 441.042Z" stroke="#F3F3F3" stroke-width="4.016" stroke-linecap="round" stroke-linejoin="round"/>
<path d="M683.091 432.56C791.525 432.56 879.428 374.258 879.428 302.339C879.428 230.42 791.525 172.118 683.091 172.118C574.657 172.118 486.754 230.42 486.754 302.339C486.754 374.258 574.657 432.56 683.091 432.56Z" stroke="#F3F3F3" stroke-width="4.082" stroke-linecap="round" stroke-linejoin="round"/>
<path d="M683.092 424.079C784.464 424.079 866.643 369.575 866.643 302.339C866.643 235.104 784.464 180.599 683.092 180.599C581.72 180.599 499.541 235.104 499.541 302.339C499.541 369.575 581.72 424.079 683.092 424.079Z" stroke="#F3F3F3" stroke-width="4.148" stroke-linecap="round" stroke-linejoin="round"/>
<path d="M683.092 415.598C777.402 415.598 853.856 364.891 853.856 302.339C853.856 239.788 777.402 189.08 683.092 189.08C588.782 189.08 512.328 239.788 512.328 302.339C512.328 364.891 588.782 415.598 683.092 415.598Z" stroke="#F3F3F3" stroke-width="4.213" stroke-linecap="round" stroke-linejoin="round"/>
<path d="M683.092 407.117C770.341 407.117 841.069 360.207 841.069 302.339C841.069 244.472 770.341 197.561 683.092 197.561C595.844 197.561 525.115 244.472 525.115 302.339C525.115 360.207 595.844 407.117 683.092 407.117Z" stroke="#F3F3F3" stroke-width="4.279" stroke-linecap="round" stroke-linejoin="round"/>
<path d="M683.092 398.636C763.279 398.636 828.282 355.523 828.282 302.339C828.282 249.156 763.279 206.042 683.092 206.042C602.906 206.042 537.902 249.156 537.902 302.339C537.902 355.523 602.906 398.636 683.092 398.636Z" stroke="#F3F3F3" stroke-width="4.344" stroke-linecap="round" stroke-linejoin="round"/>
<path d="M683.09 390.157C756.215 390.157 815.493 350.84 815.493 302.34C815.493 253.84 756.215 214.523 683.09 214.523C609.966 214.523 550.688 253.84 550.688 302.34C550.688 350.84 609.966 390.157 683.09 390.157Z" stroke="#F3F3F3" stroke-width="4.41" stroke-linecap="round" stroke-linejoin="round"/>
<path d="M683.092 381.676C749.154 381.676 802.709 346.156 802.709 302.34C802.709 258.524 749.154 223.004 683.092 223.004C617.029 223.004 563.475 258.524 563.475 302.34C563.475 346.156 617.029 381.676 683.092 381.676Z" stroke="#F3F3F3" stroke-width="4.475" stroke-linecap="round" stroke-linejoin="round"/>
<path d="M683.092 373.194C742.092 373.194 789.922 341.472 789.922 302.339C789.922 263.207 742.092 231.484 683.092 231.484C624.091 231.484 576.262 263.207 576.262 302.339C576.262 341.472 624.091 373.194 683.092 373.194Z" stroke="#F3F3F3" stroke-width="4.541" stroke-linecap="round" stroke-linejoin="round"/>
<path d="M683.092 364.713C735.03 364.713 777.135 336.788 777.135 302.339C777.135 267.891 735.03 239.965 683.092 239.965C631.153 239.965 589.049 267.891 589.049 302.339C589.049 336.788 631.153 364.713 683.092 364.713Z" stroke="#F3F3F3" stroke-width="4.607" stroke-linecap="round" stroke-linejoin="round"/>
<path d="M683.092 356.232C727.968 356.232 764.348 332.104 764.348 302.339C764.348 272.575 727.968 248.446 683.092 248.446C638.215 248.446 601.836 272.575 601.836 302.339C601.836 332.104 638.215 356.232 683.092 356.232Z" stroke="#F3F3F3" stroke-width="4.672" stroke-linecap="round" stroke-linejoin="round"/>
<path d="M683.09 347.751C720.904 347.751 751.559 327.42 751.559 302.339C751.559 277.259 720.904 256.927 683.09 256.927C645.276 256.927 614.621 277.259 614.621 302.339C614.621 327.42 645.276 347.751 683.09 347.751Z" stroke="#F3F3F3" stroke-width="4.738" stroke-linecap="round" stroke-linejoin="round"/>
<path d="M683.091 339.27C713.844 339.27 738.774 322.736 738.774 302.339C738.774 281.943 713.844 265.408 683.091 265.408C652.338 265.408 627.408 281.943 627.408 302.339C627.408 322.736 652.338 339.27 683.091 339.27Z" stroke="#F3F3F3" stroke-width="4.803" stroke-linecap="round" stroke-linejoin="round"/>
<path d="M683.091 330.791C706.782 330.791 725.987 318.053 725.987 302.34C725.987 286.627 706.782 273.889 683.091 273.889C659.401 273.889 640.195 286.627 640.195 302.34C640.195 318.053 659.401 330.791 683.091 330.791Z" stroke="#F3F3F3" stroke-width="4.869" stroke-linecap="round" stroke-linejoin="round"/>
<path d="M683.091 322.31C699.72 322.31 713.2 313.369 713.2 302.34C713.2 291.311 699.72 282.37 683.091 282.37C666.463 282.37 652.982 291.311 652.982 302.34C652.982 313.369 666.463 322.31 683.091 322.31Z" stroke="#F3F3F3" stroke-width="4.934" stroke-linecap="round" stroke-linejoin="round"/>
<path d="M683.092 313.828C692.658 313.828 700.414 308.685 700.414 302.339C700.414 295.994 692.658 290.85 683.092 290.85C673.525 290.85 665.77 295.994 665.77 302.339C665.77 308.685 673.525 313.828 683.092 313.828Z" stroke="#F3F3F3" stroke-width="5" stroke-linecap="round" stroke-linejoin="round"/>
<g opacity="0.19">
<path d="M623.206 102.729C560.388 58.4084 479.758 27.0604 396.086 0.339355H430.928C502.324 28.2804 569.966 60.3654 623.206 102.729Z" fill="#3D1A37"/>
<path d="M1241.11 0.339355C1213.68 46.6544 1179.82 91.1084 1131.39 129.329C1172.52 92.6394 1196.58 46.2914 1216.6 0.339355H1241.11Z" fill="#3D1A37"/>
<path d="M645.061 91.9174C624.48 54.6634 585.413 24.5714 538.75 0.339355H566.525C608.361 25.3454 630.035 55.6054 645.061 91.9174Z" fill="#3D1A37"/>
<path d="M964.178 112.039C987.236 75.1873 995.815 37.3884 994.631 0.339355H1015.3C1012.1 38.3554 992.955 74.1484 964.178 112.039Z" fill="#3D1A37"/>
<path d="M395.558 162.381C260.652 159.687 127.421 180.295 0.0917969 212.935V203.355C128.551 174.155 262 156.667 395.558 162.381Z" fill="#846F81"/>
<path d="M453.531 110.605C303.125 92.0024 149.86 98.8274 0.0917969 116.79V90.4574C151.153 81.4324 305.038 87.1704 453.531 110.605Z" fill="#3D1A37"/>
<path d="M802.57 75.2474C794.53 49.4792 784.362 24.4236 772.172 0.339355L780.072 0.339355C789.142 24.8096 796.657 49.8288 802.57 75.2474Z" fill="#3D1A37"/>
<path d="M204.21 447.251C155.817 496.368 118.899 549.339 90.0485 604.339H66.9355C104.692 549.23 150.389 496.417 204.21 447.251Z" fill="#3D1A37"/>
<path d="M733.488 604.339H719.388C692.126 574.564 667.049 542.86 644.352 509.475C670.015 542.924 700.085 574.453 733.488 604.339Z" fill="#3D1A37"/>
<path d="M1366.09 516.131V530.051C1278.5 531.445 1190.92 527.187 1103.88 517.303C1191.44 524.466 1279.16 523.151 1366.09 516.131Z" fill="#3D1A37"/>
<path d="M1366.09 353.051V371.618C1267.34 394.859 1166.95 410.456 1065.81 418.271C1170.79 406.735 1270.73 383.336 1366.09 353.051Z" fill="#3D1A37"/>
<path d="M533.069 95.6394C361.936 42.8614 183.373 18.6524 0.0917969 5.63936V0.339355H125.218C264.968 22.3974 401.241 51.8964 533.069 95.6394Z" fill="#846F81"/>
<path d="M1086.17 0.339355C1071.12 42.3783 1052.74 83.1488 1031.2 122.262C1050.8 83.2651 1066.49 42.4254 1078.05 0.339355H1086.17Z" fill="#846F81"/>
<path d="M1366.09 596.994V604.339H1268.39C1128.64 582.281 992.369 552.782 860.541 509.039C1023.13 559.184 1192.41 583.537 1366.09 596.994Z" fill="#846F81"/>
<path d="M879.795 0.339355C875.806 34.9974 870.105 70.8394 869.231 112.039C868.328 74.4663 863.852 37.0645 855.863 0.339355H879.795Z" fill="#846F81"/>
<path d="M1366.09 449.513V460.804C1311.34 465.504 1250.35 469.268 1186.39 475.083C1251.61 469.154 1309.52 461.304 1366.09 449.513Z" fill="#846F81"/>
<path d="M612.752 604.339H590.445C577.951 574.513 565.456 543.299 547.279 509.039C566.736 542.369 588.62 574.222 612.752 604.339Z" fill="#846F81"/>
<path d="M1348.13 0.339355C1303.11 53.6484 1245.79 95.3484 1188.17 155.833C1230.61 108.382 1267.45 56.2079 1297.97 0.339355L1348.13 0.339355Z" fill="#846F81"/>
<path d="M733.43 97.4024C712.998 63.3791 690.048 30.934 664.77 0.339355L688.812 0.339355C702.23 32.3874 715.676 64.9394 733.43 97.4024Z" fill="#846F81"/>
<path d="M201.492 325.895C111.23 375.834 48.5758 447.057 0.0917969 518.571V481.401C54.6228 422.028 118.843 366.327 201.492 325.895Z" fill="#846F81"/>
<path d="M837.449 604.339H822.605C789.985 584.612 760.243 563.139 734.744 539.469C764.432 563.81 799.347 585.252 837.449 604.339Z" fill="#846F81"/>
<path d="M296.641 454.305C263.641 500.753 247.392 552.213 240.562 604.339H222.877C236.428 551.621 258.684 500.378 296.641 454.305Z" fill="#846F81"/>
<path d="M333.742 214.215C210.328 235.665 99.8458 277.321 0.0917969 328.673V311.544C106.546 264.574 218.73 231.849 333.742 214.215Z" fill="#3D1A37"/>
<path d="M395.085 488.093C375.542 525.638 369.258 564.753 369.04 604.339H347.512C358.157 563.657 374.155 524.567 395.085 488.093Z" fill="#3D1A37"/>
<path d="M477.951 604.339H467.251C467.055 579.393 469.109 554.48 473.389 529.902C470.142 554.956 472.291 579.756 477.951 604.339Z" fill="#3D1A37"/>
<path d="M204.209 279.762C125.382 309.141 58.9388 347.096 0.0917969 390.04V377.296C64.3301 337.365 132.785 304.655 204.209 279.762Z" fill="#846F81"/>
<path d="M1366.09 259.431V267.996C1286.21 308.696 1199.6 342.433 1105.33 364.286C1200.6 339.727 1287.12 303.112 1366.09 259.431Z" fill="#846F81"/>
<path d="M1164.69 244.21C1254.95 194.271 1317.61 123.048 1366.09 51.5344V88.7044C1311.56 148.077 1247.34 203.778 1164.69 244.21Z" fill="#846F81"/>
<path d="M1161.97 290.343C1240.8 260.965 1307.24 223.009 1366.09 180.065V192.809C1301.85 232.741 1233.4 265.451 1161.97 290.343Z" fill="#3D1A37"/>
</g>
</g>
</g>
</g>
<defs>
<radialGradient id="paint0_radial_1298_9462" cx="0" cy="0" r="1" gradientUnits="userSpaceOnUse" gradientTransform="translate(455.82 302.339) scale(580.385 384.748)">
<stop stop-color="white"/>
<stop offset="1" stop-color="#EAEAEA"/>
</radialGradient>
<radialGradient id="paint1_radial_1298_9462" cx="0" cy="0" r="1" gradientUnits="userSpaceOnUse" gradientTransform="translate(683.093 302.339) scale(1118.12 741.594)">
<stop stop-color="#2B3851" stop-opacity="0"/>
<stop offset="1" stop-color="#2B3851"/>
</radialGradient>
</defs>
</svg>
